<?xml version="1.0" encoding="UTF-8" standalone="no"?>
<!DOCTYPE svg PUBLIC "-//W3C//DTD SVG 1.1//EN"
 "http://www.w3.org/Graphics/SVG/1.1/DTD/svg11.dtd">
<!-- Generated by graphviz version 2.26.3 (20100126.1600)
 -->
<!-- Title: G Pages: 1 -->
<svg width="960pt" height="1954pt"
 viewBox="0.00 0.00 960.00 1954.00" xmlns="http://www.w3.org/2000/svg" xmlns:xlink="http://www.w3.org/1999/xlink">
<g id="graph1" class="graph" transform="scale(1 1) rotate(0) translate(4 1950)">
<title>G</title>
<polygon fill="white" stroke="white" points="-4,5 -4,-1950 957,-1950 957,5 -4,5"/>
<g id="graph2" class="cluster"><title>cluster_Global</title>
<polyline fill="none" stroke="gray" points="403,-514 932,-514 "/>
<path fill="none" stroke="gray" d="M932,-514C938,-514 944,-520 944,-526"/>
<polyline fill="none" stroke="gray" points="944,-526 944,-1926 "/>
<path fill="none" stroke="gray" d="M944,-1926C944,-1932 938,-1938 932,-1938"/>
<polyline fill="none" stroke="gray" points="932,-1938 403,-1938 "/>
<path fill="none" stroke="gray" d="M403,-1938C397,-1938 391,-1932 391,-1926"/>
<polyline fill="none" stroke="gray" points="391,-1926 391,-526 "/>
<path fill="none" stroke="gray" d="M391,-526C391,-520 397,-514 403,-514"/>
<text text-anchor="middle" x="667.5" y="-1924.1" font-family="Times Roman,serif" font-size="11.00" fill="gray">Global</text>
</g>
<!-- \\TaskProfilerFixture -->
<g id="node2" class="node"><title>\\TaskProfilerFixture</title>
<polygon fill="none" stroke="black" points="902,-1800 758,-1800 758,-1764 902,-1764 902,-1800"/>
<text text-anchor="middle" x="830" y="-1779.1" font-family="Courier,monospace" font-size="11.00">TaskProfilerFixture</text>
</g>
<!-- \\TaskFixture -->
<g id="node5" class="node"><title>\\TaskFixture</title>
<polygon fill="none" stroke="black" points="500,-1809 410,-1809 410,-1773 500,-1773 500,-1809"/>
<text text-anchor="middle" x="455" y="-1788.1" font-family="Courier,monospace" font-size="11.00">TaskFixture</text>
</g>
<!-- \\TaskProfilerFixture&#45;&gt;\\TaskFixture -->
<g id="edge3" class="edge"><title>\\TaskProfilerFixture&#45;&gt;\\TaskFixture</title>
<path fill="none" stroke="black" d="M757.252,-1783.75C685.176,-1785.48 576.342,-1788.09 510.824,-1789.66"/>
<polygon fill="none" stroke="black" points="510.606,-1786.16 500.693,-1789.9 510.774,-1793.16 510.606,-1786.16"/>
</g>
<!-- \\DependentTaskFixture -->
<g id="node3" class="node"><title>\\DependentTaskFixture</title>
<polygon fill="none" stroke="black" points="906,-1908 754,-1908 754,-1872 906,-1872 906,-1908"/>
<text text-anchor="middle" x="830" y="-1887.1" font-family="Courier,monospace" font-size="11.00">DependentTaskFixture</text>
</g>
<!-- \\CakeTestFixture -->
<g id="node33" class="node"><title>\\CakeTestFixture</title>
<ellipse fill="none" stroke="black" cx="93" cy="-1799" rx="92.1303" ry="18.3848"/>
<text text-anchor="middle" x="93" y="-1795.4" font-family="Times Roman,serif" font-size="14.00" fill="gray">\CakeTestFixture</text>
</g>
<!-- \\DependentTaskFixture&#45;&gt;\\CakeTestFixture -->
<g id="edge5" class="edge"><title>\\DependentTaskFixture&#45;&gt;\\CakeTestFixture</title>
<path fill="none" stroke="black" d="M753.813,-1885.21C678.007,-1880.29 558.387,-1872.07 455,-1863"/>
</g>
<!-- \\TaskStatisticsFixture -->
<g id="node4" class="node"><title>\\TaskStatisticsFixture</title>
<polygon fill="none" stroke="black" points="909,-1854 751,-1854 751,-1818 909,-1818 909,-1854"/>
<text text-anchor="middle" x="830" y="-1833.1" font-family="Courier,monospace" font-size="11.00">TaskStatisticsFixture</text>
</g>
<!-- \\TaskStatisticsFixture&#45;&gt;\\CakeTestFixture -->
<g id="edge7" class="edge"><title>\\TaskStatisticsFixture&#45;&gt;\\CakeTestFixture</title>
<path fill="none" stroke="black" d="M750.932,-1849.01C675,-1859.77 557.086,-1871.95 455,-1863"/>
<path fill="none" stroke="black" d="M455,-1863C352.229,-1853.99 234.911,-1830.84 162.394,-1815"/>
<polygon fill="none" stroke="black" points="162.983,-1811.55 152.465,-1812.82 161.479,-1818.38 162.983,-1811.55"/>
</g>
<!-- \\TaskFixture&#45;&gt;\\CakeTestFixture -->
<g id="edge9" class="edge"><title>\\TaskFixture&#45;&gt;\\CakeTestFixture</title>
<path fill="none" stroke="black" d="M409.152,-1792.01C355.659,-1793.2 265.573,-1795.19 195.218,-1796.74"/>
<polygon fill="none" stroke="black" points="194.908,-1793.25 184.988,-1796.97 195.063,-1800.25 194.908,-1793.25"/>
</g>
<!-- \\TaskClientTest -->
<g id="node6" class="node"><title>\\TaskClientTest</title>
<polygon fill="none" stroke="black" points="885,-1206 775,-1206 775,-1170 885,-1170 885,-1206"/>
<text text-anchor="middle" x="830" y="-1185.1" font-family="Courier,monospace" font-size="11.00">TaskClientTest</text>
</g>
<!-- \\CakeTestCase -->
<g id="node37" class="node"><title>\\CakeTestCase</title>
<ellipse fill="none" stroke="black" cx="455" cy="-488" rx="82.0244" ry="18.3848"/>
<text text-anchor="middle" x="455" y="-484.4" font-family="Times Roman,serif" font-size="14.00" fill="gray">\CakeTestCase</text>
</g>
<!-- \\TaskClientTest&#45;&gt;\\CakeTestCase -->
<g id="edge11" class="edge"><title>\\TaskClientTest&#45;&gt;\\CakeTestCase</title>
<path fill="none" stroke="black" d="M774.321,-1186.21C755.74,-1182.73 736.586,-1175.47 724,-1161 532.983,-941.341 857.728,-715.946 652,-510 620.431,-478.398 570.231,-473.186 528.409,-475.728"/>
<polygon fill="none" stroke="black" points="527.954,-472.252 518.25,-476.504 528.487,-479.232 527.954,-472.252"/>
</g>
<!-- \\TaskProfilerTest -->
<g id="node7" class="node"><title>\\TaskProfilerTest</title>
<polygon fill="none" stroke="black" points="892,-1152 768,-1152 768,-1116 892,-1116 892,-1152"/>
<text text-anchor="middle" x="830" y="-1131.1" font-family="Courier,monospace" font-size="11.00">TaskProfilerTest</text>
</g>
<!-- \\TaskProfilerTest&#45;&gt;\\CakeTestCase -->
<g id="edge13" class="edge"><title>\\TaskProfilerTest&#45;&gt;\\CakeTestCase</title>
<path fill="none" stroke="black" d="M767.49,-1130.67C751.182,-1126.75 735.091,-1119.63 724,-1107 547.634,-906.199 841.809,-698.144 652,-510 620.389,-478.666 570.435,-473.377 528.742,-475.815"/>
<polygon fill="none" stroke="black" points="528.326,-472.336 518.612,-476.565 528.843,-479.317 528.326,-472.336"/>
</g>
<!-- \\TaskServerTest -->
<g id="node8" class="node"><title>\\TaskServerTest</title>
<polygon fill="none" stroke="black" points="885,-1584 775,-1584 775,-1548 885,-1548 885,-1584"/>
<text text-anchor="middle" x="830" y="-1563.1" font-family="Courier,monospace" font-size="11.00">TaskServerTest</text>
</g>
<!-- \\TaskServerTest&#45;&gt;\\CakeTestCase -->
<g id="edge15" class="edge"><title>\\TaskServerTest&#45;&gt;\\CakeTestCase</title>
<path fill="none" stroke="black" d="M774.274,-1564.54C755.573,-1561.1 736.353,-1553.8 724,-1539 577.098,-1363.03 810.701,-675.404 652,-510 620.678,-477.355 569.576,-472.436 527.268,-475.376"/>
<polygon fill="none" stroke="black" points="526.945,-471.891 517.277,-476.225 527.537,-478.866 526.945,-471.891"/>
</g>
<!-- \\TaskControllerTest -->
<g id="node9" class="node"><title>\\TaskControllerTest</title>
<polygon fill="none" stroke="black" points="899,-1098 761,-1098 761,-1062 899,-1062 899,-1098"/>
<text text-anchor="middle" x="830" y="-1077.1" font-family="Courier,monospace" font-size="11.00">TaskControllerTest</text>
</g>
<!-- \\ControllerTestCase -->
<g id="node41" class="node"><title>\\ControllerTestCase</title>
<ellipse fill="none" stroke="black" cx="455" cy="-434" rx="106.773" ry="18.3848"/>
<text text-anchor="middle" x="455" y="-430.4" font-family="Times Roman,serif" font-size="14.00" fill="gray">\ControllerTestCase</text>
</g>
<!-- \\TaskControllerTest&#45;&gt;\\ControllerTestCase -->
<g id="edge17" class="edge"><title>\\TaskControllerTest&#45;&gt;\\ControllerTestCase</title>
<path fill="none" stroke="black" d="M760.888,-1074.88C746.918,-1070.71 733.592,-1063.91 724,-1053 548.99,-853.945 837.991,-649.836 652,-461 626.7,-435.313 589.255,-426.091 553.785,-424.176"/>
<polygon fill="none" stroke="black" points="553.468,-420.662 543.352,-423.813 553.225,-427.658 553.468,-420.662"/>
</g>
<!-- \\TaskProcessTest -->
<g id="node10" class="node"><title>\\TaskProcessTest</title>
<polygon fill="none" stroke="black" points="889,-1530 771,-1530 771,-1494 889,-1494 889,-1530"/>
<text text-anchor="middle" x="830" y="-1509.1" font-family="Courier,monospace" font-size="11.00">TaskProcessTest</text>
</g>
<!-- \\TaskProcessTest&#45;&gt;\\CakeTestCase -->
<g id="edge19" class="edge"><title>\\TaskProcessTest&#45;&gt;\\CakeTestCase</title>
<path fill="none" stroke="black" d="M770.985,-1509.86C753.359,-1506.19 735.649,-1498.9 724,-1485 584.447,-1318.49 802.716,-666.477 652,-510 620.615,-477.416 569.515,-472.495 527.223,-475.419"/>
<polygon fill="none" stroke="black" points="526.906,-471.934 517.236,-476.264 527.496,-478.909 526.906,-471.934"/>
</g>
<!-- \\TaskRunnerTest -->
<g id="node11" class="node"><title>\\TaskRunnerTest</title>
<polygon fill="none" stroke="black" points="885,-1476 775,-1476 775,-1440 885,-1440 885,-1476"/>
<text text-anchor="middle" x="830" y="-1455.1" font-family="Courier,monospace" font-size="11.00">TaskRunnerTest</text>
</g>
<!-- \\TaskRunnerTest&#45;&gt;\\CakeTestCase -->
<g id="edge21" class="edge"><title>\\TaskRunnerTest&#45;&gt;\\CakeTestCase</title>
<path fill="none" stroke="black" d="M774.34,-1456.48C755.646,-1453.04 736.413,-1445.75 724,-1431 591.795,-1273.95 794.733,-657.552 652,-510 620.722,-477.666 570.02,-472.617 527.887,-475.419"/>
<polygon fill="none" stroke="black" points="527.335,-471.953 517.656,-476.261 527.909,-478.929 527.335,-471.953"/>
</g>
<!-- \\TaskTypeTest -->
<g id="node12" class="node"><title>\\TaskTypeTest</title>
<polygon fill="none" stroke="black" points="879,-1422 781,-1422 781,-1386 879,-1386 879,-1422"/>
<text text-anchor="middle" x="830" y="-1401.1" font-family="Courier,monospace" font-size="11.00">TaskTypeTest</text>
</g>
<!-- \\TaskTypeTest&#45;&gt;\\CakeTestCase -->
<g id="edge23" class="edge"><title>\\TaskTypeTest&#45;&gt;\\CakeTestCase</title>
<path fill="none" stroke="black" d="M780.972,-1403.51C760.334,-1400.63 737.92,-1393.46 724,-1377 599.14,-1229.4 786.753,-648.63 652,-510 620.644,-477.742 569.944,-472.691 527.831,-475.474"/>
<polygon fill="none" stroke="black" points="527.286,-472.006 517.605,-476.311 527.857,-478.983 527.286,-472.006"/>
</g>
<!-- \\AllTaskTest -->
<g id="node13" class="node"><title>\\AllTaskTest</title>
<polygon fill="none" stroke="black" points="875,-1044 785,-1044 785,-1008 875,-1008 875,-1044"/>
<text text-anchor="middle" x="830" y="-1023.1" font-family="Courier,monospace" font-size="11.00">AllTaskTest</text>
</g>
<!-- \\PHPUnit_Framework_TestSuite -->
<g id="node46" class="node"><title>\\PHPUnit_Framework_TestSuite</title>
<ellipse fill="none" stroke="black" cx="455" cy="-380" rx="166.877" ry="18.3848"/>
<text text-anchor="middle" x="455" y="-376.4" font-family="Times Roman,serif" font-size="14.00" fill="gray">\PHPUnit_Framework_TestSuite</text>
</g>
<!-- \\AllTaskTest&#45;&gt;\\PHPUnit_Framework_TestSuite -->
<g id="edge25" class="edge"><title>\\AllTaskTest&#45;&gt;\\PHPUnit_Framework_TestSuite</title>
<path fill="none" stroke="black" d="M784.24,-1025.66C762.875,-1023 738.922,-1015.97 724,-999 548.99,-799.945 837.991,-595.836 652,-407 644.565,-399.452 636.082,-393.325 626.908,-388.388"/>
<polygon fill="none" stroke="black" points="628.435,-385.239 617.912,-384.011 625.373,-391.533 628.435,-385.239"/>
</g>
<!-- \\TaskShellTest -->
<g id="node14" class="node"><title>\\TaskShellTest</title>
<polygon fill="none" stroke="black" points="882,-1368 778,-1368 778,-1332 882,-1332 882,-1368"/>
<text text-anchor="middle" x="830" y="-1347.1" font-family="Courier,monospace" font-size="11.00">TaskShellTest</text>
</g>
<!-- \\TaskShellTest&#45;&gt;\\CakeTestCase -->
<g id="edge27" class="edge"><title>\\TaskShellTest&#45;&gt;\\CakeTestCase</title>
<path fill="none" stroke="black" d="M777.729,-1348.98C758.037,-1345.8 737.227,-1338.55 724,-1323 606.483,-1184.85 778.775,-639.71 652,-510 620.667,-477.942 570.216,-472.812 528.214,-475.506"/>
<polygon fill="none" stroke="black" points="527.702,-472.036 518.013,-476.322 528.26,-479.014 527.702,-472.036"/>
</g>
<!-- \\TaskServerTaskTest -->
<g id="node15" class="node"><title>\\TaskServerTaskTest</title>
<polygon fill="none" stroke="black" points="899,-1314 761,-1314 761,-1278 899,-1278 899,-1314"/>
<text text-anchor="middle" x="830" y="-1293.1" font-family="Courier,monospace" font-size="11.00">TaskServerTaskTest</text>
</g>
<!-- \\TaskServerTaskTest&#45;&gt;\\CakeTestCase -->
<g id="edge29" class="edge"><title>\\TaskServerTaskTest&#45;&gt;\\CakeTestCase</title>
<path fill="none" stroke="black" d="M760.948,-1291.15C746.888,-1286.98 733.509,-1280.11 724,-1269 613.823,-1140.29 770.8,-630.793 652,-510 620.567,-478.04 570.117,-472.908 528.142,-475.577"/>
<polygon fill="none" stroke="black" points="527.639,-472.106 517.947,-476.386 528.193,-479.084 527.639,-472.106"/>
</g>
<!-- \\TaskServerTaskTestEventModel1 -->
<g id="node16" class="node"><title>\\TaskServerTaskTestEventModel1</title>
<polygon fill="none" stroke="black" points="936,-990 724,-990 724,-954 936,-954 936,-990"/>
<text text-anchor="middle" x="830" y="-969.1" font-family="Courier,monospace" font-size="11.00">TaskServerTaskTestEventModel1</text>
</g>
<!-- \\CakeEventListener -->
<g id="node50" class="node"><title>\\CakeEventListener</title>
<ellipse fill="none" stroke="black" cx="455" cy="-326" rx="106.98" ry="18.3848"/>
<text text-anchor="middle" x="455" y="-322.4" font-family="Times Roman,serif" font-size="14.00" fill="gray">\CakeEventListener</text>
</g>
<!-- \\TaskServerTaskTestEventModel1&#45;&gt;\\CakeEventListener -->
<g id="edge31" class="edge"><title>\\TaskServerTaskTestEventModel1&#45;&gt;\\CakeEventListener</title>
<path fill="none" stroke="black" stroke-dasharray="1,5" d="M733.58,-953.767C730.105,-951.189 726.884,-948.28 724,-945 548.99,-745.945 837.991,-541.836 652,-353 626.81,-327.425 589.581,-318.172 554.249,-316.201"/>
<polygon fill="none" stroke="black" points="553.976,-312.689 543.854,-315.821 553.72,-319.684 553.976,-312.689"/>
</g>
<!-- \\TaskHelperTest -->
<g id="node17" class="node"><title>\\TaskHelperTest</title>
<polygon fill="none" stroke="black" points="885,-1260 775,-1260 775,-1224 885,-1224 885,-1260"/>
<text text-anchor="middle" x="830" y="-1239.1" font-family="Courier,monospace" font-size="11.00">TaskHelperTest</text>
</g>
<!-- \\TaskHelperTest&#45;&gt;\\CakeTestCase -->
<g id="edge33" class="edge"><title>\\TaskHelperTest&#45;&gt;\\CakeTestCase</title>
<path fill="none" stroke="black" d="M774.254,-1240.27C755.667,-1236.79 736.525,-1229.53 724,-1215 621.16,-1095.73 762.829,-621.881 652,-510 620.564,-478.266 570.362,-473.056 528.505,-475.631"/>
<polygon fill="none" stroke="black" points="528.038,-472.157 518.337,-476.417 528.577,-479.136 528.038,-472.157"/>
</g>
<!-- \\TaskStatistics -->
<g id="node18" class="node"><title>\\TaskStatistics</title>
<polygon fill="none" stroke="black" points="885,-936 775,-936 775,-900 885,-900 885,-936"/>
<text text-anchor="middle" x="830" y="-915.1" font-family="Courier,monospace" font-size="11.00">TaskStatistics</text>
</g>
<!-- \\AppModel -->
<g id="node53" class="node"><title>\\AppModel</title>
<ellipse fill="none" stroke="black" cx="93" cy="-950" rx="62.2254" ry="18.3848"/>
<text text-anchor="middle" x="93" y="-946.4" font-family="Times Roman,serif" font-size="14.00" fill="gray">\AppModel</text>
</g>
<!-- \\TaskStatistics&#45;&gt;\\AppModel -->
<g id="edge35" class="edge"><title>\\TaskStatistics&#45;&gt;\\AppModel</title>
<path fill="none" stroke="black" d="M774.407,-916.134C755.835,-912.646 736.665,-905.405 724,-891 548.99,-691.945 841.735,-484.073 652,-299 589.033,-237.58 542.928,-277.577 455,-280"/>
</g>
<!-- \\TaskServer -->
<g id="node19" class="node"><title>\\TaskServer</title>
<polygon fill="none" stroke="black" points="872,-1638 788,-1638 788,-1602 872,-1602 872,-1638"/>
<text text-anchor="middle" x="830" y="-1617.1" font-family="Courier,monospace" font-size="11.00">TaskServer</text>
</g>
<!-- \\TaskModel -->
<g id="node20" class="node"><title>\\TaskModel</title>
<polygon fill="none" stroke="black" points="493,-1638 417,-1638 417,-1602 493,-1602 493,-1638"/>
<text text-anchor="middle" x="455" y="-1617.1" font-family="Courier,monospace" font-size="11.00">TaskModel</text>
</g>
<!-- \\TaskServer&#45;&gt;\\TaskModel -->
<g id="edge37" class="edge"><title>\\TaskServer&#45;&gt;\\TaskModel</title>
<path fill="none" stroke="black" d="M787.712,-1620C717.645,-1620 577.87,-1620 503.756,-1620"/>
<polygon fill="none" stroke="black" points="503.748,-1616.5 493.748,-1620 503.748,-1623.5 503.748,-1616.5"/>
</g>
<!-- \\TaskModel&#45;&gt;\\AppModel -->
<g id="edge39" class="edge"><title>\\TaskModel&#45;&gt;\\AppModel</title>
<path fill="none" stroke="black" d="M416.235,-1627.5C372.396,-1633.59 301.476,-1635.85 258,-1598 161.199,-1513.72 108.522,-1091.6 95.9639,-978.121"/>
<polygon fill="none" stroke="black" points="99.4373,-977.687 94.8737,-968.125 92.4786,-978.446 99.4373,-977.687"/>
</g>
<!-- \\TaskClient -->
<g id="node21" class="node"><title>\\TaskClient</title>
<polygon fill="none" stroke="black" points="872,-1692 788,-1692 788,-1656 872,-1656 872,-1692"/>
<text text-anchor="middle" x="830" y="-1671.1" font-family="Courier,monospace" font-size="11.00">TaskClient</text>
</g>
<!-- \\TaskClient&#45;&gt;\\TaskModel -->
<g id="edge41" class="edge"><title>\\TaskClient&#45;&gt;\\TaskModel</title>
<path fill="none" stroke="black" d="M787.712,-1667.91C717.645,-1657.82 577.87,-1637.69 503.756,-1627.02"/>
<polygon fill="none" stroke="black" points="504.145,-1623.54 493.748,-1625.58 503.147,-1630.47 504.145,-1623.54"/>
</g>
<!-- \\TaskProfiler -->
<g id="node22" class="node"><title>\\TaskProfiler</title>
<polygon fill="none" stroke="black" points="879,-882 781,-882 781,-846 879,-846 879,-882"/>
<text text-anchor="middle" x="830" y="-861.1" font-family="Courier,monospace" font-size="11.00">TaskProfiler</text>
</g>
<!-- \\TaskProfiler&#45;&gt;\\AppModel -->
<g id="edge43" class="edge"><title>\\TaskProfiler&#45;&gt;\\AppModel</title>
<path fill="none" stroke="black" d="M780.808,-863.104C760.393,-860.107 738.203,-852.96 724,-837 563.624,-656.784 825.702,-466.409 652,-299 588.665,-237.959 542.928,-277.577 455,-280"/>
<path fill="none" stroke="black" d="M455,-280C367.072,-282.423 324.744,-241.706 258,-299 160.189,-382.962 108.247,-807.557 95.9076,-921.709"/>
<polygon fill="none" stroke="black" points="92.4154,-921.451 94.8369,-931.765 99.3761,-922.192 92.4154,-921.451"/>
</g>
<!-- \\TaskController -->
<g id="node23" class="node"><title>\\TaskController</title>
<polygon fill="none" stroke="black" points="885,-774 775,-774 775,-738 885,-738 885,-774"/>
<text text-anchor="middle" x="830" y="-753.1" font-family="Courier,monospace" font-size="11.00">TaskController</text>
</g>
<!-- \\AppController -->
<g id="node59" class="node"><title>\\AppController</title>
<ellipse fill="none" stroke="black" cx="455" cy="-234" rx="82.0244" ry="18.3848"/>
<text text-anchor="middle" x="455" y="-230.4" font-family="Times Roman,serif" font-size="14.00" fill="gray">\AppController</text>
</g>
<!-- \\TaskController&#45;&gt;\\AppController -->
<g id="edge45" class="edge"><title>\\TaskController&#45;&gt;\\AppController</title>
<path fill="none" stroke="black" d="M774.393,-753.848C755.933,-750.317 736.838,-743.122 724,-729 583.913,-574.908 798.757,-413.752 652,-266 623.135,-236.94 578.923,-227.894 539.692,-226.575"/>
<polygon fill="none" stroke="black" points="539.633,-223.074 529.573,-226.398 539.511,-230.073 539.633,-223.074"/>
</g>
<!-- \\TaskType -->
<g id="node24" class="node"><title>\\TaskType</title>
<polygon fill="none" stroke="black" points="872,-828 788,-828 788,-792 872,-792 872,-828"/>
<text text-anchor="start" x="796" y="-815.433" font-family="Courier,monospace" font-size="11.00">«abstract»</text>
<text text-anchor="start" x="802.5" y="-802.233" font-family="Courier,monospace" font-size="11.00">TaskType</text>
</g>
<!-- \\TaskProcess -->
<g id="node25" class="node"><title>\\TaskProcess</title>
<polygon fill="none" stroke="black" points="875,-720 785,-720 785,-684 875,-684 875,-720"/>
<text text-anchor="middle" x="830" y="-699.1" font-family="Courier,monospace" font-size="11.00">TaskProcess</text>
</g>
<!-- \\Symfony\\Component\\Process\\Process -->
<g id="node61" class="node"><title>\\Symfony\\Component\\Process\\Process</title>
<ellipse fill="none" stroke="black" cx="455" cy="-180" rx="196.075" ry="18.3848"/>
<text text-anchor="middle" x="455" y="-176.4" font-family="Times Roman,serif" font-size="14.00" fill="gray">\Symfony\Component\Process\Process</text>
</g>
<!-- \\TaskProcess&#45;&gt;\\Symfony\\Component\\Process\\Process -->
<g id="edge47" class="edge"><title>\\TaskProcess&#45;&gt;\\Symfony\\Component\\Process\\Process</title>
<path fill="none" stroke="black" d="M784.469,-701.456C763.16,-698.744 739.188,-691.734 724,-675 582.562,-519.169 802.027,-354.58 652,-207 646.957,-202.039 641.459,-197.699 635.611,-193.913"/>
<polygon fill="none" stroke="black" points="637.203,-190.789 626.805,-188.754 633.664,-196.829 637.203,-190.789"/>
</g>
<!-- \\TaskRunner -->
<g id="node26" class="node"><title>\\TaskRunner</title>
<polygon fill="none" stroke="black" points="872,-666 788,-666 788,-630 872,-630 872,-666"/>
<text text-anchor="middle" x="830" y="-645.1" font-family="Courier,monospace" font-size="11.00">TaskRunner</text>
</g>
<!-- \\Object -->
<g id="node63" class="node"><title>\\Object</title>
<ellipse fill="none" stroke="black" cx="455" cy="-126" rx="45.9619" ry="18.3848"/>
<text text-anchor="middle" x="455" y="-122.4" font-family="Times Roman,serif" font-size="14.00" fill="gray">\Object</text>
</g>
<!-- \\TaskRunner&#45;&gt;\\Object -->
<g id="edge49" class="edge"><title>\\TaskRunner&#45;&gt;\\Object</title>
<path fill="none" stroke="black" d="M787.935,-647.862C765.805,-645.481 740.018,-638.648 724,-621 582.562,-465.169 802.027,-300.58 652,-153 614.442,-116.055 551.653,-113.563 507.063,-117.577"/>
<polygon fill="none" stroke="black" points="506.581,-114.108 496.995,-118.62 507.302,-121.071 506.581,-114.108"/>
</g>
<!-- \\TaskServerOldTask -->
<g id="node27" class="node"><title>\\TaskServerOldTask</title>
<polygon fill="none" stroke="black" points="895,-1746 765,-1746 765,-1710 895,-1710 895,-1746"/>
<text text-anchor="middle" x="830" y="-1725.1" font-family="Courier,monospace" font-size="11.00">TaskServerOldTask</text>
</g>
<!-- \\TaskServerTask -->
<g id="node28" class="node"><title>\\TaskServerTask</title>
<polygon fill="none" stroke="black" points="510,-1746 400,-1746 400,-1710 510,-1710 510,-1746"/>
<text text-anchor="middle" x="455" y="-1725.1" font-family="Courier,monospace" font-size="11.00">TaskServerTask</text>
</g>
<!-- \\TaskServerOldTask&#45;&gt;\\TaskServerTask -->
<g id="edge51" class="edge"><title>\\TaskServerOldTask&#45;&gt;\\TaskServerTask</title>
<path fill="none" stroke="black" d="M764.251,-1728C695.82,-1728 589.27,-1728 520.815,-1728"/>
<polygon fill="none" stroke="black" points="520.584,-1724.5 510.584,-1728 520.584,-1731.5 520.584,-1724.5"/>
</g>
<!-- \\AdvancedTask -->
<g id="node66" class="node"><title>\\AdvancedTask</title>
<ellipse fill="none" stroke="black" cx="93" cy="-1728" rx="82.939" ry="18.3848"/>
<text text-anchor="middle" x="93" y="-1724.4" font-family="Times Roman,serif" font-size="14.00" fill="gray">\AdvancedTask</text>
</g>
<!-- \\TaskServerTask&#45;&gt;\\AdvancedTask -->
<g id="edge53" class="edge"><title>\\TaskServerTask&#45;&gt;\\AdvancedTask</title>
<path fill="none" stroke="black" d="M399.231,-1728C342.732,-1728 254.302,-1728 186.965,-1728"/>
<polygon fill="none" stroke="black" points="186.769,-1724.5 176.769,-1728 186.769,-1731.5 186.769,-1724.5"/>
</g>
<!-- \\TaskShell -->
<g id="node29" class="node"><title>\\TaskShell</title>
<polygon fill="none" stroke="black" points="868,-612 792,-612 792,-576 868,-576 868,-612"/>
<text text-anchor="middle" x="830" y="-591.1" font-family="Courier,monospace" font-size="11.00">TaskShell</text>
</g>
<!-- \\AdvancedShell -->
<g id="node68" class="node"><title>\\AdvancedShell</title>
<ellipse fill="none" stroke="black" cx="455" cy="-72" rx="85.7684" ry="18.3848"/>
<text text-anchor="middle" x="455" y="-68.4" font-family="Times Roman,serif" font-size="14.00" fill="gray">\AdvancedShell</text>
</g>
<!-- \\TaskShell&#45;&gt;\\AdvancedShell -->
<g id="edge55" class="edge"><title>\\TaskShell&#45;&gt;\\AdvancedShell</title>
<path fill="none" stroke="black" d="M791.342,-594.197C768.503,-592.16 740.847,-585.562 724,-567 582.562,-411.169 802.027,-246.58 652,-99 622.569,-70.049 577.644,-62.2546 538.125,-62.1683"/>
<polygon fill="none" stroke="black" points="537.89,-58.6711 527.941,-62.3121 537.989,-65.6704 537.89,-58.6711"/>
</g>
<!-- \\TaskHelper -->
<g id="node30" class="node"><title>\\TaskHelper</title>
<polygon fill="none" stroke="black" points="872,-558 788,-558 788,-522 872,-522 872,-558"/>
<text text-anchor="middle" x="830" y="-537.1" font-family="Courier,monospace" font-size="11.00">TaskHelper</text>
</g>
<!-- \\AppHelper -->
<g id="node70" class="node"><title>\\AppHelper</title>
<ellipse fill="none" stroke="black" cx="455" cy="-18" rx="65.0538" ry="18.3848"/>
<text text-anchor="middle" x="455" y="-14.4" font-family="Times Roman,serif" font-size="14.00" fill="gray">\AppHelper</text>
</g>
<!-- \\TaskHelper&#45;&gt;\\AppHelper -->
<g id="edge57" class="edge"><title>\\TaskHelper&#45;&gt;\\AppHelper</title>
<path fill="none" stroke="black" d="M826.077,-521.749C808.15,-440.081 731.475,-109.387 652,-45 617.011,-16.6531 566.529,-10.1843 525.429,-10.6576"/>
<polygon fill="none" stroke="black" points="525.104,-7.16461 515.197,-10.9184 525.283,-14.1623 525.104,-7.16461"/>
</g>
</g>
</svg>
