<?xml version="1.0" encoding="UTF-8" standalone="no"?>
<!DOCTYPE svg PUBLIC "-//W3C//DTD SVG 1.1//EN"
 "http://www.w3.org/Graphics/SVG/1.1/DTD/svg11.dtd">
<!-- Generated by graphviz version 2.26.3 (20100126.1600)
 -->
<!-- Title: G Pages: 1 -->
<svg width="960pt" height="1943pt"
 viewBox="0.00 0.00 960.00 1943.27" xmlns="http://www.w3.org/2000/svg" xmlns:xlink="http://www.w3.org/1999/xlink">
<g id="graph1" class="graph" transform="scale(1 1) rotate(0) translate(4 1939.27)">
<title>G</title>
<polygon fill="white" stroke="white" points="-4,5 -4,-1939.27 957,-1939.27 957,5 -4,5"/>
<g id="graph2" class="cluster"><title>cluster_Global</title>
<polyline fill="none" stroke="gray" points="403,-206 932,-206 "/>
<path fill="none" stroke="gray" d="M932,-206C938,-206 944,-212 944,-218"/>
<polyline fill="none" stroke="gray" points="944,-218 944,-1618 "/>
<path fill="none" stroke="gray" d="M944,-1618C944,-1624 938,-1630 932,-1630"/>
<polyline fill="none" stroke="gray" points="932,-1630 403,-1630 "/>
<path fill="none" stroke="gray" d="M403,-1630C397,-1630 391,-1624 391,-1618"/>
<polyline fill="none" stroke="gray" points="391,-1618 391,-218 "/>
<path fill="none" stroke="gray" d="M391,-218C391,-212 397,-206 403,-206"/>
<text text-anchor="middle" x="667.5" y="-1616.1" font-family="Times Roman,serif" font-size="11.00" fill="gray">Global</text>
</g>
<!-- \\TaskHelper -->
<g id="node2" class="node"><title>\\TaskHelper</title>
<polygon fill="none" stroke="black" points="872,-1546 788,-1546 788,-1510 872,-1510 872,-1546"/>
<text text-anchor="middle" x="830" y="-1525.1" font-family="Courier,monospace" font-size="11.00">TaskHelper</text>
</g>
<!-- \\AppHelper -->
<g id="node32" class="node"><title>\\AppHelper</title>
<ellipse fill="none" stroke="black" cx="455" cy="-1872" rx="65.0538" ry="18.3848"/>
<text text-anchor="middle" x="455" y="-1868.4" font-family="Times Roman,serif" font-size="14.00" fill="gray">\AppHelper</text>
</g>
<!-- \\TaskHelper&#45;&gt;\\AppHelper -->
<g id="edge3" class="edge"><title>\\TaskHelper&#45;&gt;\\AppHelper</title>
<path fill="none" stroke="black" d="M787.757,-1528.81C765.989,-1531.44 740.6,-1538.3 724,-1555 630.38,-1649.19 750.799,-1756.26 652,-1845 617.716,-1875.79 565.619,-1881.81 523.61,-1880.52"/>
<polygon fill="none" stroke="black" points="523.587,-1877.02 513.44,-1880.07 523.272,-1884.01 523.587,-1877.02"/>
</g>
<!-- \\TaskHelperTest -->
<g id="node3" class="node"><title>\\TaskHelperTest</title>
<polygon fill="none" stroke="black" points="885,-1114 775,-1114 775,-1078 885,-1078 885,-1114"/>
<text text-anchor="middle" x="830" y="-1093.1" font-family="Courier,monospace" font-size="11.00">TaskHelperTest</text>
</g>
<!-- \\CakeTestCase -->
<g id="node34" class="node"><title>\\CakeTestCase</title>
<ellipse fill="none" stroke="black" cx="455" cy="-1818" rx="82.0244" ry="18.3848"/>
<text text-anchor="middle" x="455" y="-1814.4" font-family="Times Roman,serif" font-size="14.00" fill="gray">\CakeTestCase</text>
</g>
<!-- \\TaskHelperTest&#45;&gt;\\CakeTestCase -->
<g id="edge5" class="edge"><title>\\TaskHelperTest&#45;&gt;\\CakeTestCase</title>
<path fill="none" stroke="black" d="M774.299,-1097.77C755.716,-1101.25 736.566,-1108.51 724,-1123 528.368,-1348.6 860.082,-1576.83 652,-1791 622.062,-1821.81 574.674,-1829.05 533.878,-1828.35"/>
<polygon fill="none" stroke="black" points="533.774,-1824.84 523.663,-1828.01 533.541,-1831.84 533.774,-1824.84"/>
</g>
<!-- \\TaskProfilerTest -->
<g id="node4" class="node"><title>\\TaskProfilerTest</title>
<polygon fill="none" stroke="black" points="892,-1060 768,-1060 768,-1024 892,-1024 892,-1060"/>
<text text-anchor="middle" x="830" y="-1039.1" font-family="Courier,monospace" font-size="11.00">TaskProfilerTest</text>
</g>
<!-- \\TaskProfilerTest&#45;&gt;\\CakeTestCase -->
<g id="edge7" class="edge"><title>\\TaskProfilerTest&#45;&gt;\\CakeTestCase</title>
<path fill="none" stroke="black" d="M767.322,-1045.19C751.01,-1049.1 734.96,-1056.26 724,-1069 618.851,-1191.24 763.896,-1674.91 652,-1791 622.075,-1822.05 574.449,-1829.22 533.522,-1828.43"/>
<polygon fill="none" stroke="black" points="533.394,-1824.93 523.276,-1828.07 533.146,-1831.92 533.394,-1824.93"/>
</g>
<!-- \\TaskServerTest -->
<g id="node5" class="node"><title>\\TaskServerTest</title>
<polygon fill="none" stroke="black" points="885,-1492 775,-1492 775,-1456 885,-1456 885,-1492"/>
<text text-anchor="middle" x="830" y="-1471.1" font-family="Courier,monospace" font-size="11.00">TaskServerTest</text>
</g>
<!-- \\TaskServerTest&#45;&gt;\\CakeTestCase -->
<g id="edge9" class="edge"><title>\\TaskServerTest&#45;&gt;\\CakeTestCase</title>
<path fill="none" stroke="black" d="M774.251,-1476.96C756.109,-1480.61 737.254,-1487.67 724,-1501 630.38,-1595.19 750.799,-1702.26 652,-1791 621.47,-1818.42 576.814,-1826.2 537.735,-1826.66"/>
<polygon fill="none" stroke="black" points="537.42,-1823.16 527.406,-1826.62 537.392,-1830.16 537.42,-1823.16"/>
</g>
<!-- \\TaskClientTest -->
<g id="node6" class="node"><title>\\TaskClientTest</title>
<polygon fill="none" stroke="black" points="885,-1438 775,-1438 775,-1402 885,-1402 885,-1438"/>
<text text-anchor="middle" x="830" y="-1417.1" font-family="Courier,monospace" font-size="11.00">TaskClientTest</text>
</g>
<!-- \\TaskClientTest&#45;&gt;\\CakeTestCase -->
<g id="edge11" class="edge"><title>\\TaskClientTest&#45;&gt;\\CakeTestCase</title>
<path fill="none" stroke="black" d="M774.245,-1422.64C755.993,-1426.24 737.07,-1433.35 724,-1447 615.954,-1559.81 766.255,-1684.49 652,-1791 621.57,-1819.37 576.135,-1827.01 536.565,-1827.15"/>
<polygon fill="none" stroke="black" points="536.42,-1823.65 526.378,-1827.03 536.335,-1830.65 536.42,-1823.65"/>
</g>
<!-- \\TaskProcessTest -->
<g id="node7" class="node"><title>\\TaskProcessTest</title>
<polygon fill="none" stroke="black" points="889,-1384 771,-1384 771,-1348 889,-1348 889,-1384"/>
<text text-anchor="middle" x="830" y="-1363.1" font-family="Courier,monospace" font-size="11.00">TaskProcessTest</text>
</g>
<!-- \\TaskProcessTest&#45;&gt;\\CakeTestCase -->
<g id="edge13" class="edge"><title>\\TaskProcessTest&#45;&gt;\\CakeTestCase</title>
<path fill="none" stroke="black" d="M770.724,-1369.12C753.508,-1372.91 736.105,-1380.01 724,-1393 601.445,-1524.51 781.798,-1666.64 652,-1791 621.553,-1820.17 575.311,-1827.65 535.279,-1827.5"/>
<polygon fill="none" stroke="black" points="535.314,-1824 525.248,-1827.31 535.178,-1831 535.314,-1824"/>
</g>
<!-- \\TaskRunnerTest -->
<g id="node8" class="node"><title>\\TaskRunnerTest</title>
<polygon fill="none" stroke="black" points="885,-1330 775,-1330 775,-1294 885,-1294 885,-1330"/>
<text text-anchor="middle" x="830" y="-1309.1" font-family="Courier,monospace" font-size="11.00">TaskRunnerTest</text>
</g>
<!-- \\TaskRunnerTest&#45;&gt;\\CakeTestCase -->
<g id="edge15" class="edge"><title>\\TaskRunnerTest&#45;&gt;\\CakeTestCase</title>
<path fill="none" stroke="black" d="M774.422,-1314.18C755.965,-1317.71 736.864,-1324.9 724,-1339 586.884,-1489.27 797.397,-1648.73 652,-1791 621.747,-1820.6 575.284,-1828.04 535.078,-1827.76"/>
<polygon fill="none" stroke="black" points="535.081,-1824.26 525.004,-1827.53 534.922,-1831.26 535.081,-1824.26"/>
</g>
<!-- \\TaskTypeTest -->
<g id="node9" class="node"><title>\\TaskTypeTest</title>
<polygon fill="none" stroke="black" points="879,-1276 781,-1276 781,-1240 879,-1240 879,-1276"/>
<text text-anchor="middle" x="830" y="-1255.1" font-family="Courier,monospace" font-size="11.00">TaskTypeTest</text>
</g>
<!-- \\TaskTypeTest&#45;&gt;\\CakeTestCase -->
<g id="edge17" class="edge"><title>\\TaskTypeTest&#45;&gt;\\CakeTestCase</title>
<path fill="none" stroke="black" d="M780.87,-1258.95C760.467,-1261.96 738.269,-1269.1 724,-1285 572.287,-1454.06 813.034,-1630.79 652,-1791 621.769,-1821.08 574.842,-1828.41 534.372,-1827.95"/>
<polygon fill="none" stroke="black" points="534.328,-1824.45 524.236,-1827.68 534.137,-1831.45 534.328,-1824.45"/>
</g>
<!-- \\AllTaskTest -->
<g id="node10" class="node"><title>\\AllTaskTest</title>
<polygon fill="none" stroke="black" points="875,-1006 785,-1006 785,-970 875,-970 875,-1006"/>
<text text-anchor="middle" x="830" y="-985.1" font-family="Courier,monospace" font-size="11.00">AllTaskTest</text>
</g>
<!-- \\PHPUnit_Framework_TestSuite -->
<g id="node42" class="node"><title>\\PHPUnit_Framework_TestSuite</title>
<ellipse fill="none" stroke="black" cx="455" cy="-1764" rx="166.877" ry="18.3848"/>
<text text-anchor="middle" x="455" y="-1760.4" font-family="Times Roman,serif" font-size="14.00" fill="gray">\PHPUnit_Framework_TestSuite</text>
</g>
<!-- \\AllTaskTest&#45;&gt;\\PHPUnit_Framework_TestSuite -->
<g id="edge19" class="edge"><title>\\AllTaskTest&#45;&gt;\\PHPUnit_Framework_TestSuite</title>
<path fill="none" stroke="black" d="M784.351,-988.169C762.879,-990.77 738.799,-997.796 724,-1015 618.851,-1137.24 763.896,-1620.91 652,-1737 644.813,-1744.46 636.605,-1750.54 627.714,-1755.46"/>
<polygon fill="none" stroke="black" points="625.992,-1752.41 618.608,-1760.01 629.119,-1758.67 625.992,-1752.41"/>
</g>
<!-- \\TaskControllerTest -->
<g id="node11" class="node"><title>\\TaskControllerTest</title>
<polygon fill="none" stroke="black" points="899,-952 761,-952 761,-916 899,-916 899,-952"/>
<text text-anchor="middle" x="830" y="-931.1" font-family="Courier,monospace" font-size="11.00">TaskControllerTest</text>
</g>
<!-- \\ControllerTestCase -->
<g id="node44" class="node"><title>\\ControllerTestCase</title>
<ellipse fill="none" stroke="black" cx="455" cy="-1710" rx="106.773" ry="18.3848"/>
<text text-anchor="middle" x="455" y="-1706.4" font-family="Times Roman,serif" font-size="14.00" fill="gray">\ControllerTestCase</text>
</g>
<!-- \\TaskControllerTest&#45;&gt;\\ControllerTestCase -->
<g id="edge21" class="edge"><title>\\TaskControllerTest&#45;&gt;\\ControllerTestCase</title>
<path fill="none" stroke="black" d="M760.987,-938.882C746.925,-943.055 733.536,-949.914 724,-961 618.851,-1083.24 763.896,-1566.91 652,-1683 626.544,-1709.41 588.279,-1718.55 552.225,-1720.2"/>
<polygon fill="none" stroke="black" points="552.027,-1716.71 542.127,-1720.48 552.219,-1723.7 552.027,-1716.71"/>
</g>
<!-- \\TaskShellTest -->
<g id="node12" class="node"><title>\\TaskShellTest</title>
<polygon fill="none" stroke="black" points="882,-1222 778,-1222 778,-1186 882,-1186 882,-1222"/>
<text text-anchor="middle" x="830" y="-1201.1" font-family="Courier,monospace" font-size="11.00">TaskShellTest</text>
</g>
<!-- \\TaskShellTest&#45;&gt;\\CakeTestCase -->
<g id="edge23" class="edge"><title>\\TaskShellTest&#45;&gt;\\CakeTestCase</title>
<path fill="none" stroke="black" d="M777.762,-1205.33C758.197,-1208.57 737.469,-1215.79 724,-1231 557.665,-1418.89 828.698,-1612.82 652,-1791 621.86,-1821.39 574.702,-1828.68 534.082,-1828.11"/>
<polygon fill="none" stroke="black" points="534.01,-1824.61 523.91,-1827.81 533.801,-1831.6 534.01,-1824.61"/>
</g>
<!-- \\TaskServerTaskTest -->
<g id="node13" class="node"><title>\\TaskServerTaskTest</title>
<polygon fill="none" stroke="black" points="899,-1168 761,-1168 761,-1132 899,-1132 899,-1168"/>
<text text-anchor="middle" x="830" y="-1147.1" font-family="Courier,monospace" font-size="11.00">TaskServerTaskTest</text>
</g>
<!-- \\TaskServerTaskTest&#45;&gt;\\CakeTestCase -->
<g id="edge25" class="edge"><title>\\TaskServerTaskTest&#45;&gt;\\CakeTestCase</title>
<path fill="none" stroke="black" d="M760.853,-1155.09C746.885,-1159.26 733.569,-1166.07 724,-1177 543.023,-1383.74 844.383,-1594.83 652,-1791 621.918,-1821.67 574.526,-1828.9 533.764,-1828.24"/>
<polygon fill="none" stroke="black" points="533.666,-1824.73 523.558,-1827.91 533.44,-1831.73 533.666,-1824.73"/>
</g>
<!-- \\TaskServerTaskTestEventModel1 -->
<g id="node14" class="node"><title>\\TaskServerTaskTestEventModel1</title>
<polygon fill="none" stroke="black" points="936,-898 724,-898 724,-862 936,-862 936,-898"/>
<text text-anchor="middle" x="830" y="-877.1" font-family="Courier,monospace" font-size="11.00">TaskServerTaskTestEventModel1</text>
</g>
<!-- \\CakeEventListener -->
<g id="node48" class="node"><title>\\CakeEventListener</title>
<ellipse fill="none" stroke="black" cx="455" cy="-1656" rx="106.98" ry="18.3848"/>
<text text-anchor="middle" x="455" y="-1652.4" font-family="Times Roman,serif" font-size="14.00" fill="gray">\CakeEventListener</text>
</g>
<!-- \\TaskServerTaskTestEventModel1&#45;&gt;\\CakeEventListener -->
<g id="edge27" class="edge"><title>\\TaskServerTaskTestEventModel1&#45;&gt;\\CakeEventListener</title>
<path fill="none" stroke="black" stroke-dasharray="1,5" d="M733.489,-898.154C730.038,-900.753 726.847,-903.688 724,-907 618.171,-1030.11 766.076,-1518.49 652,-1634 624.03,-1662.32 581.12,-1669.54 542.48,-1668.95"/>
<polygon fill="none" stroke="black" points="542.347,-1665.44 532.237,-1668.61 542.116,-1672.44 542.347,-1665.44"/>
</g>
<!-- \\TaskProfilerFixture -->
<g id="node15" class="node"><title>\\TaskProfilerFixture</title>
<polygon fill="none" stroke="black" points="902,-628 758,-628 758,-592 902,-592 902,-628"/>
<text text-anchor="middle" x="830" y="-607.1" font-family="Courier,monospace" font-size="11.00">TaskProfilerFixture</text>
</g>
<!-- \\TaskFixture -->
<g id="node16" class="node"><title>\\TaskFixture</title>
<polygon fill="none" stroke="black" points="500,-624 410,-624 410,-588 500,-588 500,-624"/>
<text text-anchor="middle" x="455" y="-603.1" font-family="Courier,monospace" font-size="11.00">TaskFixture</text>
</g>
<!-- \\TaskProfilerFixture&#45;&gt;\\TaskFixture -->
<g id="edge29" class="edge"><title>\\TaskProfilerFixture&#45;&gt;\\TaskFixture</title>
<path fill="none" stroke="black" d="M757.252,-609.224C685.176,-608.455 576.342,-607.294 510.824,-606.595"/>
<polygon fill="none" stroke="black" points="510.729,-603.094 500.693,-606.487 510.655,-610.094 510.729,-603.094"/>
</g>
<!-- \\CakeTestFixture -->
<g id="node51" class="node"><title>\\CakeTestFixture</title>
<ellipse fill="none" stroke="black" cx="93" cy="-581" rx="92.1303" ry="18.3848"/>
<text text-anchor="middle" x="93" y="-577.4" font-family="Times Roman,serif" font-size="14.00" fill="gray">\CakeTestFixture</text>
</g>
<!-- \\TaskFixture&#45;&gt;\\CakeTestFixture -->
<g id="edge31" class="edge"><title>\\TaskFixture&#45;&gt;\\CakeTestFixture</title>
<path fill="none" stroke="black" d="M409.152,-602.834C354.48,-599.058 261.586,-592.643 190.597,-587.74"/>
<polygon fill="none" stroke="black" points="190.507,-584.226 180.289,-587.028 190.024,-591.209 190.507,-584.226"/>
</g>
<!-- \\DependentTaskFixture -->
<g id="node17" class="node"><title>\\DependentTaskFixture</title>
<polygon fill="none" stroke="black" points="906,-520 754,-520 754,-484 906,-484 906,-520"/>
<text text-anchor="middle" x="830" y="-499.1" font-family="Courier,monospace" font-size="11.00">DependentTaskFixture</text>
</g>
<!-- \\DependentTaskFixture&#45;&gt;\\CakeTestFixture -->
<g id="edge33" class="edge"><title>\\DependentTaskFixture&#45;&gt;\\CakeTestFixture</title>
<path fill="none" stroke="black" d="M753.86,-516.277C678.342,-529.653 559.16,-548.654 455,-556"/>
<path fill="none" stroke="black" d="M455,-556C365.423,-562.318 263.366,-569.351 190.499,-574.344"/>
<polygon fill="none" stroke="black" points="190.153,-570.86 180.416,-575.035 190.631,-577.843 190.153,-570.86"/>
</g>
<!-- \\TaskStatisticsFixture -->
<g id="node18" class="node"><title>\\TaskStatisticsFixture</title>
<polygon fill="none" stroke="black" points="909,-574 751,-574 751,-538 909,-538 909,-574"/>
<text text-anchor="middle" x="830" y="-553.1" font-family="Courier,monospace" font-size="11.00">TaskStatisticsFixture</text>
</g>
<!-- \\TaskStatisticsFixture&#45;&gt;\\CakeTestFixture -->
<g id="edge35" class="edge"><title>\\TaskStatisticsFixture&#45;&gt;\\CakeTestFixture</title>
<path fill="none" stroke="black" d="M750.875,-552.774C674.903,-550.438 556.96,-548.809 455,-556"/>
</g>
<!-- \\TaskClient -->
<g id="node19" class="node"><title>\\TaskClient</title>
<polygon fill="none" stroke="black" points="872,-790 788,-790 788,-754 872,-754 872,-790"/>
<text text-anchor="middle" x="830" y="-769.1" font-family="Courier,monospace" font-size="11.00">TaskClient</text>
</g>
<!-- \\TaskModel -->
<g id="node22" class="node"><title>\\TaskModel</title>
<polygon fill="none" stroke="black" points="493,-844 417,-844 417,-808 493,-808 493,-844"/>
<text text-anchor="middle" x="455" y="-823.1" font-family="Courier,monospace" font-size="11.00">TaskModel</text>
</g>
<!-- \\TaskClient&#45;&gt;\\TaskModel -->
<g id="edge37" class="edge"><title>\\TaskClient&#45;&gt;\\TaskModel</title>
<path fill="none" stroke="black" d="M787.712,-778.09C717.645,-788.179 577.87,-808.307 503.756,-818.979"/>
<polygon fill="none" stroke="black" points="503.147,-815.531 493.748,-820.42 504.145,-822.459 503.147,-815.531"/>
</g>
<!-- \\TaskProfiler -->
<g id="node20" class="node"><title>\\TaskProfiler</title>
<polygon fill="none" stroke="black" points="879,-682 781,-682 781,-646 879,-646 879,-682"/>
<text text-anchor="middle" x="830" y="-661.1" font-family="Courier,monospace" font-size="11.00">TaskProfiler</text>
</g>
<!-- \\TaskStatistics -->
<g id="node21" class="node"><title>\\TaskStatistics</title>
<polygon fill="none" stroke="black" points="885,-1600 775,-1600 775,-1564 885,-1564 885,-1600"/>
<text text-anchor="middle" x="830" y="-1579.1" font-family="Courier,monospace" font-size="11.00">TaskStatistics</text>
</g>
<!-- \\AppModel -->
<g id="node56" class="node"><title>\\AppModel</title>
<ellipse fill="none" stroke="black" cx="93" cy="-1372" rx="62.2254" ry="18.3848"/>
<text text-anchor="middle" x="93" y="-1368.4" font-family="Times Roman,serif" font-size="14.00" fill="gray">\AppModel</text>
</g>
<!-- \\TaskStatistics&#45;&gt;\\AppModel -->
<g id="edge39" class="edge"><title>\\TaskStatistics&#45;&gt;\\AppModel</title>
<path fill="none" stroke="black" d="M826.441,-1600.08C814.202,-1656.73 768.024,-1831.09 652,-1899 576.438,-1943.23 328.557,-1950.84 258,-1899 174.046,-1837.31 113.719,-1500.55 97.4102,-1400.22"/>
<polygon fill="none" stroke="black" points="100.846,-1399.54 95.8037,-1390.22 93.9341,-1400.65 100.846,-1399.54"/>
</g>
<!-- \\TaskModel&#45;&gt;\\AppModel -->
<g id="edge41" class="edge"><title>\\TaskModel&#45;&gt;\\AppModel</title>
<path fill="none" stroke="black" d="M416.217,-818.888C372.692,-813.248 302.38,-811.485 258,-848 178.056,-913.776 115.044,-1244.81 97.7361,-1343.92"/>
<polygon fill="none" stroke="black" points="94.2818,-1343.36 96.0276,-1353.81 101.18,-1344.55 94.2818,-1343.36"/>
</g>
<!-- \\TaskServer -->
<g id="node23" class="node"><title>\\TaskServer</title>
<polygon fill="none" stroke="black" points="872,-844 788,-844 788,-808 872,-808 872,-844"/>
<text text-anchor="middle" x="830" y="-823.1" font-family="Courier,monospace" font-size="11.00">TaskServer</text>
</g>
<!-- \\TaskServer&#45;&gt;\\TaskModel -->
<g id="edge43" class="edge"><title>\\TaskServer&#45;&gt;\\TaskModel</title>
<path fill="none" stroke="black" d="M787.712,-826C717.645,-826 577.87,-826 503.756,-826"/>
<polygon fill="none" stroke="black" points="503.748,-822.5 493.748,-826 503.748,-829.5 503.748,-822.5"/>
</g>
<!-- \\TaskProcess -->
<g id="node24" class="node"><title>\\TaskProcess</title>
<polygon fill="none" stroke="black" points="875,-412 785,-412 785,-376 875,-376 875,-412"/>
<text text-anchor="middle" x="830" y="-391.1" font-family="Courier,monospace" font-size="11.00">TaskProcess</text>
</g>
<!-- \\Symfony\\Component\\Process\\Process -->
<g id="node60" class="node"><title>\\Symfony\\Component\\Process\\Process</title>
<ellipse fill="none" stroke="black" cx="455" cy="-180" rx="196.075" ry="18.3848"/>
<text text-anchor="middle" x="455" y="-176.4" font-family="Times Roman,serif" font-size="14.00" fill="gray">\Symfony\Component\Process\Process</text>
</g>
<!-- \\TaskProcess&#45;&gt;\\Symfony\\Component\\Process\\Process -->
<g id="edge45" class="edge"><title>\\TaskProcess&#45;&gt;\\Symfony\\Component\\Process\\Process</title>
<path fill="none" stroke="black" d="M784.364,-391.364C763.923,-388.087 740.714,-381.203 724,-367 663.03,-315.188 716.402,-249.479 652,-202 647.499,-198.682 642.775,-195.696 637.876,-193.014"/>
<polygon fill="none" stroke="black" points="639.385,-189.855 628.876,-188.508 636.251,-196.115 639.385,-189.855"/>
</g>
<!-- \\TaskType -->
<g id="node25" class="node"><title>\\TaskType</title>
<polygon fill="none" stroke="black" points="872,-466 788,-466 788,-430 872,-430 872,-466"/>
<text text-anchor="start" x="796" y="-453.433" font-family="Courier,monospace" font-size="11.00">«abstract»</text>
<text text-anchor="start" x="802.5" y="-440.233" font-family="Courier,monospace" font-size="11.00">TaskType</text>
</g>
<!-- \\TaskRunner -->
<g id="node26" class="node"><title>\\TaskRunner</title>
<polygon fill="none" stroke="black" points="872,-358 788,-358 788,-322 872,-322 872,-358"/>
<text text-anchor="middle" x="830" y="-337.1" font-family="Courier,monospace" font-size="11.00">TaskRunner</text>
</g>
<!-- \\Object -->
<g id="node62" class="node"><title>\\Object</title>
<ellipse fill="none" stroke="black" cx="455" cy="-126" rx="45.9619" ry="18.3848"/>
<text text-anchor="middle" x="455" y="-122.4" font-family="Times Roman,serif" font-size="14.00" fill="gray">\Object</text>
</g>
<!-- \\TaskRunner&#45;&gt;\\Object -->
<g id="edge47" class="edge"><title>\\TaskRunner&#45;&gt;\\Object</title>
<path fill="none" stroke="black" d="M787.858,-337.8C766.645,-334.733 741.74,-327.902 724,-313 664.292,-262.843 714.45,-199.699 652,-153 611.263,-122.538 552.155,-118.198 509.32,-120.001"/>
<polygon fill="none" stroke="black" points="508.87,-116.52 499.076,-120.561 509.253,-123.51 508.87,-116.52"/>
</g>
<!-- \\TaskController -->
<g id="node27" class="node"><title>\\TaskController</title>
<polygon fill="none" stroke="black" points="885,-304 775,-304 775,-268 885,-268 885,-304"/>
<text text-anchor="middle" x="830" y="-283.1" font-family="Courier,monospace" font-size="11.00">TaskController</text>
</g>
<!-- \\AppController -->
<g id="node64" class="node"><title>\\AppController</title>
<ellipse fill="none" stroke="black" cx="455" cy="-72" rx="82.0244" ry="18.3848"/>
<text text-anchor="middle" x="455" y="-68.4" font-family="Times Roman,serif" font-size="14.00" fill="gray">\AppController</text>
</g>
<!-- \\TaskController&#45;&gt;\\AppController -->
<g id="edge49" class="edge"><title>\\TaskController&#45;&gt;\\AppController</title>
<path fill="none" stroke="black" d="M774.445,-281.403C756.739,-277.594 738.105,-270.848 724,-259 664.292,-208.843 714.45,-145.699 652,-99 621.044,-75.8516 579.479,-67.7877 542.508,-66.0411"/>
<polygon fill="none" stroke="black" points="542.323,-62.5334 532.215,-65.7087 542.097,-69.5297 542.323,-62.5334"/>
</g>
<!-- \\TaskServerTask -->
<g id="node28" class="node"><title>\\TaskServerTask</title>
<polygon fill="none" stroke="black" points="510,-736 400,-736 400,-700 510,-700 510,-736"/>
<text text-anchor="middle" x="455" y="-715.1" font-family="Courier,monospace" font-size="11.00">TaskServerTask</text>
</g>
<!-- \\AdvancedTask -->
<g id="node66" class="node"><title>\\AdvancedTask</title>
<ellipse fill="none" stroke="black" cx="93" cy="-718" rx="82.939" ry="18.3848"/>
<text text-anchor="middle" x="93" y="-714.4" font-family="Times Roman,serif" font-size="14.00" fill="gray">\AdvancedTask</text>
</g>
<!-- \\TaskServerTask&#45;&gt;\\AdvancedTask -->
<g id="edge51" class="edge"><title>\\TaskServerTask&#45;&gt;\\AdvancedTask</title>
<path fill="none" stroke="black" d="M399.231,-718C342.732,-718 254.302,-718 186.965,-718"/>
<polygon fill="none" stroke="black" points="186.769,-714.5 176.769,-718 186.769,-721.5 186.769,-714.5"/>
</g>
<!-- \\TaskServerOldTask -->
<g id="node29" class="node"><title>\\TaskServerOldTask</title>
<polygon fill="none" stroke="black" points="895,-736 765,-736 765,-700 895,-700 895,-736"/>
<text text-anchor="middle" x="830" y="-715.1" font-family="Courier,monospace" font-size="11.00">TaskServerOldTask</text>
</g>
<!-- \\TaskServerOldTask&#45;&gt;\\TaskServerTask -->
<g id="edge53" class="edge"><title>\\TaskServerOldTask&#45;&gt;\\TaskServerTask</title>
<path fill="none" stroke="black" d="M764.251,-718C695.82,-718 589.27,-718 520.815,-718"/>
<polygon fill="none" stroke="black" points="520.584,-714.5 510.584,-718 520.584,-721.5 520.584,-714.5"/>
</g>
<!-- \\TaskShell -->
<g id="node30" class="node"><title>\\TaskShell</title>
<polygon fill="none" stroke="black" points="868,-250 792,-250 792,-214 868,-214 868,-250"/>
<text text-anchor="middle" x="830" y="-229.1" font-family="Courier,monospace" font-size="11.00">TaskShell</text>
</g>
<!-- \\AdvancedShell -->
<g id="node69" class="node"><title>\\AdvancedShell</title>
<ellipse fill="none" stroke="black" cx="455" cy="-18" rx="85.7684" ry="18.3848"/>
<text text-anchor="middle" x="455" y="-14.4" font-family="Times Roman,serif" font-size="14.00" fill="gray">\AdvancedShell</text>
</g>
<!-- \\TaskShell&#45;&gt;\\AdvancedShell -->
<g id="edge55" class="edge"><title>\\TaskShell&#45;&gt;\\AdvancedShell</title>
<path fill="none" stroke="black" d="M818.895,-213.78C794.276,-175.189 730.998,-85.4396 652,-45 621.506,-29.3901 585.052,-21.825 551.841,-18.4134"/>
<polygon fill="none" stroke="black" points="551.924,-14.9066 541.648,-17.4837 551.288,-21.8777 551.924,-14.9066"/>
</g>
</g>
</svg>
