<?xml version="1.0" encoding="UTF-8" standalone="no"?>
<!DOCTYPE svg PUBLIC "-//W3C//DTD SVG 1.1//EN"
 "http://www.w3.org/Graphics/SVG/1.1/DTD/svg11.dtd">
<!-- Generated by graphviz version 2.26.3 (20100126.1600)
 -->
<!-- Title: G Pages: 1 -->
<svg width="960pt" height="2045pt"
 viewBox="0.00 0.00 960.00 2045.43" xmlns="http://www.w3.org/2000/svg" xmlns:xlink="http://www.w3.org/1999/xlink">
<g id="graph1" class="graph" transform="scale(1 1) rotate(0) translate(4 2041.43)">
<title>G</title>
<polygon fill="white" stroke="white" points="-4,5 -4,-2041.43 957,-2041.43 957,5 -4,5"/>
<g id="graph2" class="cluster"><title>cluster_Global</title>
<polyline fill="none" stroke="gray" points="413,-514 932,-514 "/>
<path fill="none" stroke="gray" d="M932,-514C938,-514 944,-520 944,-526"/>
<polyline fill="none" stroke="gray" points="944,-526 944,-1926 "/>
<path fill="none" stroke="gray" d="M944,-1926C944,-1932 938,-1938 932,-1938"/>
<polyline fill="none" stroke="gray" points="932,-1938 413,-1938 "/>
<path fill="none" stroke="gray" d="M413,-1938C407,-1938 401,-1932 401,-1926"/>
<polyline fill="none" stroke="gray" points="401,-1926 401,-526 "/>
<path fill="none" stroke="gray" d="M401,-526C401,-520 407,-514 413,-514"/>
<text text-anchor="middle" x="672.5" y="-1924.1" font-family="Times Roman,serif" font-size="11.00" fill="gray">Global</text>
</g>
<!-- \\TaskHelper -->
<g id="node2" class="node"><title>\\TaskHelper</title>
<polygon fill="none" stroke="black" points="872,-1854 788,-1854 788,-1818 872,-1818 872,-1854"/>
<text text-anchor="middle" x="830" y="-1833.1" font-family="Courier,monospace" font-size="11.00">TaskHelper</text>
</g>
<!-- \\AppHelper -->
<g id="node31" class="node"><title>\\AppHelper</title>
<ellipse fill="none" stroke="black" cx="455" cy="-1964" rx="65.0538" ry="18.3848"/>
<text text-anchor="middle" x="455" y="-1960.4" font-family="Times Roman,serif" font-size="14.00" fill="gray">\AppHelper</text>
</g>
<!-- \\TaskHelper&#45;&gt;\\AppHelper -->
<g id="edge3" class="edge"><title>\\TaskHelper&#45;&gt;\\AppHelper</title>
<path fill="none" stroke="black" d="M787.809,-1840.98C767.439,-1844.77 743.295,-1851.42 724,-1863 683.268,-1887.45 694.323,-1920.42 652,-1942 614.286,-1961.23 567.332,-1967.06 528.725,-1967.92"/>
<polygon fill="none" stroke="black" points="528.545,-1964.43 518.587,-1968.04 528.628,-1971.43 528.545,-1964.43"/>
</g>
<!-- \\TaskStatisticsFixture -->
<g id="node3" class="node"><title>\\TaskStatisticsFixture</title>
<polygon fill="none" stroke="black" points="909,-1908 751,-1908 751,-1872 909,-1872 909,-1908"/>
<text text-anchor="middle" x="830" y="-1887.1" font-family="Courier,monospace" font-size="11.00">TaskStatisticsFixture</text>
</g>
<!-- \\CakeTestFixture -->
<g id="node33" class="node"><title>\\CakeTestFixture</title>
<ellipse fill="none" stroke="black" cx="93" cy="-1782" rx="92.1303" ry="18.3848"/>
<text text-anchor="middle" x="93" y="-1778.4" font-family="Times Roman,serif" font-size="14.00" fill="gray">\CakeTestFixture</text>
</g>
<!-- \\TaskStatisticsFixture&#45;&gt;\\CakeTestFixture -->
<g id="edge5" class="edge"><title>\\TaskStatisticsFixture&#45;&gt;\\CakeTestFixture</title>
<path fill="none" stroke="black" d="M807.255,-1908.13C774.97,-1932.57 712.979,-1974.9 652,-1991 482.687,-2035.69 415.583,-2067.36 258,-1991 179.35,-1952.89 126.879,-1857.08 104.814,-1809.58"/>
<polygon fill="none" stroke="black" points="107.886,-1807.88 100.569,-1800.22 101.51,-1810.77 107.886,-1807.88"/>
</g>
<!-- \\TaskProfilerFixture -->
<g id="node4" class="node"><title>\\TaskProfilerFixture</title>
<polygon fill="none" stroke="black" points="902,-1746 758,-1746 758,-1710 902,-1710 902,-1746"/>
<text text-anchor="middle" x="830" y="-1725.1" font-family="Courier,monospace" font-size="11.00">TaskProfilerFixture</text>
</g>
<!-- \\TaskFixture -->
<g id="node5" class="node"><title>\\TaskFixture</title>
<polygon fill="none" stroke="black" points="500,-1750 410,-1750 410,-1714 500,-1714 500,-1750"/>
<text text-anchor="middle" x="455" y="-1729.1" font-family="Courier,monospace" font-size="11.00">TaskFixture</text>
</g>
<!-- \\TaskProfilerFixture&#45;&gt;\\TaskFixture -->
<g id="edge7" class="edge"><title>\\TaskProfilerFixture&#45;&gt;\\TaskFixture</title>
<path fill="none" stroke="black" d="M757.252,-1728.78C685.176,-1729.54 576.342,-1730.71 510.824,-1731.4"/>
<polygon fill="none" stroke="black" points="510.655,-1727.91 500.693,-1731.51 510.729,-1734.91 510.655,-1727.91"/>
</g>
<!-- \\TaskFixture&#45;&gt;\\CakeTestFixture -->
<g id="edge9" class="edge"><title>\\TaskFixture&#45;&gt;\\CakeTestFixture</title>
<path fill="none" stroke="black" d="M409.13,-1736.38C369.145,-1740.37 309.63,-1746.74 258,-1754 229.428,-1758.02 198.194,-1763.13 170.663,-1767.89"/>
<polygon fill="none" stroke="black" points="169.952,-1764.46 160.7,-1769.62 171.152,-1771.35 169.952,-1764.46"/>
</g>
<!-- \\DependentTaskFixture -->
<g id="node6" class="node"><title>\\DependentTaskFixture</title>
<polygon fill="none" stroke="black" points="906,-1800 754,-1800 754,-1764 906,-1764 906,-1800"/>
<text text-anchor="middle" x="830" y="-1779.1" font-family="Courier,monospace" font-size="11.00">DependentTaskFixture</text>
</g>
<!-- \\DependentTaskFixture&#45;&gt;\\CakeTestFixture -->
<g id="edge11" class="edge"><title>\\DependentTaskFixture&#45;&gt;\\CakeTestFixture</title>
<path fill="none" stroke="black" d="M753.904,-1782C620.793,-1782 345.614,-1782 195.741,-1782"/>
<polygon fill="none" stroke="black" points="195.611,-1778.5 185.611,-1782 195.611,-1785.5 195.611,-1778.5"/>
</g>
<!-- \\TaskHelperTest -->
<g id="node7" class="node"><title>\\TaskHelperTest</title>
<polygon fill="none" stroke="black" points="885,-1206 775,-1206 775,-1170 885,-1170 885,-1206"/>
<text text-anchor="middle" x="830" y="-1185.1" font-family="Courier,monospace" font-size="11.00">TaskHelperTest</text>
</g>
<!-- \\CakeTestCase -->
<g id="node38" class="node"><title>\\CakeTestCase</title>
<ellipse fill="none" stroke="black" cx="455" cy="-488" rx="82.0244" ry="18.3848"/>
<text text-anchor="middle" x="455" y="-484.4" font-family="Times Roman,serif" font-size="14.00" fill="gray">\CakeTestCase</text>
</g>
<!-- \\TaskHelperTest&#45;&gt;\\CakeTestCase -->
<g id="edge13" class="edge"><title>\\TaskHelperTest&#45;&gt;\\CakeTestCase</title>
<path fill="none" stroke="black" d="M774.321,-1186.21C755.74,-1182.73 736.586,-1175.47 724,-1161 532.983,-941.341 857.728,-715.946 652,-510 620.431,-478.398 570.231,-473.186 528.409,-475.728"/>
<polygon fill="none" stroke="black" points="527.954,-472.252 518.25,-476.504 528.487,-479.232 527.954,-472.252"/>
</g>
<!-- \\TaskServerTest -->
<g id="node8" class="node"><title>\\TaskServerTest</title>
<polygon fill="none" stroke="black" points="885,-1152 775,-1152 775,-1116 885,-1116 885,-1152"/>
<text text-anchor="middle" x="830" y="-1131.1" font-family="Courier,monospace" font-size="11.00">TaskServerTest</text>
</g>
<!-- \\TaskServerTest&#45;&gt;\\CakeTestCase -->
<g id="edge15" class="edge"><title>\\TaskServerTest&#45;&gt;\\CakeTestCase</title>
<path fill="none" stroke="black" d="M774.399,-1132.14C755.827,-1128.65 736.657,-1121.41 724,-1107 547.634,-906.199 841.809,-698.144 652,-510 620.389,-478.666 570.435,-473.377 528.742,-475.815"/>
<polygon fill="none" stroke="black" points="528.326,-472.336 518.612,-476.565 528.843,-479.317 528.326,-472.336"/>
</g>
<!-- \\TaskProfilerTest -->
<g id="node9" class="node"><title>\\TaskProfilerTest</title>
<polygon fill="none" stroke="black" points="892,-1584 768,-1584 768,-1548 892,-1548 892,-1584"/>
<text text-anchor="middle" x="830" y="-1563.1" font-family="Courier,monospace" font-size="11.00">TaskProfilerTest</text>
</g>
<!-- \\TaskProfilerTest&#45;&gt;\\CakeTestCase -->
<g id="edge17" class="edge"><title>\\TaskProfilerTest&#45;&gt;\\CakeTestCase</title>
<path fill="none" stroke="black" d="M767.355,-1563.08C750.943,-1559.19 734.831,-1551.97 724,-1539 577.098,-1363.03 810.701,-675.404 652,-510 620.678,-477.355 569.576,-472.436 527.268,-475.376"/>
<polygon fill="none" stroke="black" points="526.945,-471.891 517.277,-476.225 527.537,-478.866 526.945,-471.891"/>
</g>
<!-- \\TaskClientTest -->
<g id="node10" class="node"><title>\\TaskClientTest</title>
<polygon fill="none" stroke="black" points="885,-1530 775,-1530 775,-1494 885,-1494 885,-1530"/>
<text text-anchor="middle" x="830" y="-1509.1" font-family="Courier,monospace" font-size="11.00">TaskClientTest</text>
</g>
<!-- \\TaskClientTest&#45;&gt;\\CakeTestCase -->
<g id="edge19" class="edge"><title>\\TaskClientTest&#45;&gt;\\CakeTestCase</title>
<path fill="none" stroke="black" d="M774.305,-1510.51C755.608,-1507.08 736.381,-1499.77 724,-1485 584.447,-1318.49 802.716,-666.477 652,-510 620.615,-477.416 569.515,-472.495 527.223,-475.419"/>
<polygon fill="none" stroke="black" points="526.906,-471.934 517.236,-476.264 527.496,-478.909 526.906,-471.934"/>
</g>
<!-- \\TaskTypeTest -->
<g id="node11" class="node"><title>\\TaskTypeTest</title>
<polygon fill="none" stroke="black" points="879,-1476 781,-1476 781,-1440 879,-1440 879,-1476"/>
<text text-anchor="middle" x="830" y="-1455.1" font-family="Courier,monospace" font-size="11.00">TaskTypeTest</text>
</g>
<!-- \\TaskTypeTest&#45;&gt;\\CakeTestCase -->
<g id="edge21" class="edge"><title>\\TaskTypeTest&#45;&gt;\\CakeTestCase</title>
<path fill="none" stroke="black" d="M780.935,-1457.54C760.289,-1454.66 737.881,-1447.49 724,-1431 591.795,-1273.95 794.733,-657.552 652,-510 620.722,-477.666 570.02,-472.617 527.887,-475.419"/>
<polygon fill="none" stroke="black" points="527.335,-471.953 517.656,-476.261 527.909,-478.929 527.335,-471.953"/>
</g>
<!-- \\TaskRunnerTest -->
<g id="node12" class="node"><title>\\TaskRunnerTest</title>
<polygon fill="none" stroke="black" points="885,-1422 775,-1422 775,-1386 885,-1386 885,-1422"/>
<text text-anchor="middle" x="830" y="-1401.1" font-family="Courier,monospace" font-size="11.00">TaskRunnerTest</text>
</g>
<!-- \\TaskRunnerTest&#45;&gt;\\CakeTestCase -->
<g id="edge23" class="edge"><title>\\TaskRunnerTest&#45;&gt;\\CakeTestCase</title>
<path fill="none" stroke="black" d="M774.379,-1402.45C755.689,-1399.01 736.449,-1391.72 724,-1377 599.14,-1229.4 786.753,-648.63 652,-510 620.644,-477.742 569.944,-472.691 527.831,-475.474"/>
<polygon fill="none" stroke="black" points="527.286,-472.006 517.605,-476.311 527.857,-478.983 527.286,-472.006"/>
</g>
<!-- \\TaskProcessTest -->
<g id="node13" class="node"><title>\\TaskProcessTest</title>
<polygon fill="none" stroke="black" points="889,-1368 771,-1368 771,-1332 889,-1332 889,-1368"/>
<text text-anchor="middle" x="830" y="-1347.1" font-family="Courier,monospace" font-size="11.00">TaskProcessTest</text>
</g>
<!-- \\TaskProcessTest&#45;&gt;\\CakeTestCase -->
<g id="edge25" class="edge"><title>\\TaskProcessTest&#45;&gt;\\CakeTestCase</title>
<path fill="none" stroke="black" d="M770.828,-1347.7C753.3,-1344 735.689,-1336.74 724,-1323 606.483,-1184.85 778.775,-639.71 652,-510 620.667,-477.942 570.216,-472.812 528.214,-475.506"/>
<polygon fill="none" stroke="black" points="527.702,-472.036 518.013,-476.322 528.26,-479.014 527.702,-472.036"/>
</g>
<!-- \\TaskControllerTest -->
<g id="node14" class="node"><title>\\TaskControllerTest</title>
<polygon fill="none" stroke="black" points="899,-1098 761,-1098 761,-1062 899,-1062 899,-1098"/>
<text text-anchor="middle" x="830" y="-1077.1" font-family="Courier,monospace" font-size="11.00">TaskControllerTest</text>
</g>
<!-- \\ControllerTestCase -->
<g id="node46" class="node"><title>\\ControllerTestCase</title>
<ellipse fill="none" stroke="black" cx="455" cy="-434" rx="106.773" ry="18.3848"/>
<text text-anchor="middle" x="455" y="-430.4" font-family="Times Roman,serif" font-size="14.00" fill="gray">\ControllerTestCase</text>
</g>
<!-- \\TaskControllerTest&#45;&gt;\\ControllerTestCase -->
<g id="edge27" class="edge"><title>\\TaskControllerTest&#45;&gt;\\ControllerTestCase</title>
<path fill="none" stroke="black" d="M760.888,-1074.88C746.918,-1070.71 733.592,-1063.91 724,-1053 548.99,-853.945 837.991,-649.836 652,-461 626.7,-435.313 589.255,-426.091 553.785,-424.176"/>
<polygon fill="none" stroke="black" points="553.468,-420.662 543.352,-423.813 553.225,-427.658 553.468,-420.662"/>
</g>
<!-- \\TaskShellTest -->
<g id="node15" class="node"><title>\\TaskShellTest</title>
<polygon fill="none" stroke="black" points="882,-1314 778,-1314 778,-1278 882,-1278 882,-1314"/>
<text text-anchor="middle" x="830" y="-1293.1" font-family="Courier,monospace" font-size="11.00">TaskShellTest</text>
</g>
<!-- \\TaskShellTest&#45;&gt;\\CakeTestCase -->
<g id="edge29" class="edge"><title>\\TaskShellTest&#45;&gt;\\CakeTestCase</title>
<path fill="none" stroke="black" d="M777.778,-1294.94C758.093,-1291.75 737.276,-1284.51 724,-1269 613.823,-1140.29 770.8,-630.793 652,-510 620.567,-478.04 570.117,-472.908 528.142,-475.577"/>
<polygon fill="none" stroke="black" points="527.639,-472.106 517.947,-476.386 528.193,-479.084 527.639,-472.106"/>
</g>
<!-- \\TaskServerTaskTest -->
<g id="node16" class="node"><title>\\TaskServerTaskTest</title>
<polygon fill="none" stroke="black" points="899,-1260 761,-1260 761,-1224 899,-1224 899,-1260"/>
<text text-anchor="middle" x="830" y="-1239.1" font-family="Courier,monospace" font-size="11.00">TaskServerTaskTest</text>
</g>
<!-- \\TaskServerTaskTest&#45;&gt;\\CakeTestCase -->
<g id="edge31" class="edge"><title>\\TaskServerTaskTest&#45;&gt;\\CakeTestCase</title>
<path fill="none" stroke="black" d="M760.732,-1237.02C746.77,-1232.84 733.487,-1226 724,-1215 621.16,-1095.73 762.829,-621.881 652,-510 620.564,-478.266 570.362,-473.056 528.505,-475.631"/>
<polygon fill="none" stroke="black" points="528.038,-472.157 518.337,-476.417 528.577,-479.136 528.038,-472.157"/>
</g>
<!-- \\TaskServerTaskTestEventModel1 -->
<g id="node17" class="node"><title>\\TaskServerTaskTestEventModel1</title>
<polygon fill="none" stroke="black" points="936,-1044 724,-1044 724,-1008 936,-1008 936,-1044"/>
<text text-anchor="middle" x="830" y="-1023.1" font-family="Courier,monospace" font-size="11.00">TaskServerTaskTestEventModel1</text>
</g>
<!-- \\CakeEventListener -->
<g id="node50" class="node"><title>\\CakeEventListener</title>
<ellipse fill="none" stroke="black" cx="455" cy="-380" rx="106.98" ry="18.3848"/>
<text text-anchor="middle" x="455" y="-376.4" font-family="Times Roman,serif" font-size="14.00" fill="gray">\CakeEventListener</text>
</g>
<!-- \\TaskServerTaskTestEventModel1&#45;&gt;\\CakeEventListener -->
<g id="edge33" class="edge"><title>\\TaskServerTaskTestEventModel1&#45;&gt;\\CakeEventListener</title>
<path fill="none" stroke="black" stroke-dasharray="1,5" d="M733.58,-1007.77C730.105,-1005.19 726.884,-1002.28 724,-999 548.99,-799.945 837.991,-595.836 652,-407 626.81,-381.425 589.581,-372.172 554.249,-370.201"/>
<polygon fill="none" stroke="black" points="553.976,-366.689 543.854,-369.821 553.72,-373.684 553.976,-366.689"/>
</g>
<!-- \\AllTaskTest -->
<g id="node18" class="node"><title>\\AllTaskTest</title>
<polygon fill="none" stroke="black" points="875,-990 785,-990 785,-954 875,-954 875,-990"/>
<text text-anchor="middle" x="830" y="-969.1" font-family="Courier,monospace" font-size="11.00">AllTaskTest</text>
</g>
<!-- \\PHPUnit_Framework_TestSuite -->
<g id="node52" class="node"><title>\\PHPUnit_Framework_TestSuite</title>
<ellipse fill="none" stroke="black" cx="455" cy="-326" rx="166.877" ry="18.3848"/>
<text text-anchor="middle" x="455" y="-322.4" font-family="Times Roman,serif" font-size="14.00" fill="gray">\PHPUnit_Framework_TestSuite</text>
</g>
<!-- \\AllTaskTest&#45;&gt;\\PHPUnit_Framework_TestSuite -->
<g id="edge35" class="edge"><title>\\AllTaskTest&#45;&gt;\\PHPUnit_Framework_TestSuite</title>
<path fill="none" stroke="black" d="M784.24,-971.66C762.875,-968.999 738.922,-961.972 724,-945 548.99,-745.945 837.991,-541.836 652,-353 644.565,-345.452 636.082,-339.325 626.908,-334.388"/>
<polygon fill="none" stroke="black" points="628.435,-331.239 617.912,-330.011 625.373,-337.533 628.435,-331.239"/>
</g>
<!-- \\TaskStatistics -->
<g id="node19" class="node"><title>\\TaskStatistics</title>
<polygon fill="none" stroke="black" points="885,-882 775,-882 775,-846 885,-846 885,-882"/>
<text text-anchor="middle" x="830" y="-861.1" font-family="Courier,monospace" font-size="11.00">TaskStatistics</text>
</g>
<!-- \\AppModel -->
<g id="node54" class="node"><title>\\AppModel</title>
<ellipse fill="none" stroke="black" cx="93" cy="-950" rx="62.2254" ry="18.3848"/>
<text text-anchor="middle" x="93" y="-946.4" font-family="Times Roman,serif" font-size="14.00" fill="gray">\AppModel</text>
</g>
<!-- \\TaskStatistics&#45;&gt;\\AppModel -->
<g id="edge37" class="edge"><title>\\TaskStatistics&#45;&gt;\\AppModel</title>
<path fill="none" stroke="black" d="M774.227,-861.998C755.75,-858.482 736.688,-851.257 724,-837 563.624,-656.784 833.546,-457.868 652,-299 619.055,-270.171 292.55,-272.115 258,-299 156.156,-378.251 107.071,-807.188 95.6516,-921.82"/>
<polygon fill="none" stroke="black" points="92.1548,-921.616 94.6636,-931.909 99.1215,-922.298 92.1548,-921.616"/>
</g>
<!-- \\TaskServer -->
<g id="node20" class="node"><title>\\TaskServer</title>
<polygon fill="none" stroke="black" points="872,-1692 788,-1692 788,-1656 872,-1656 872,-1692"/>
<text text-anchor="middle" x="830" y="-1671.1" font-family="Courier,monospace" font-size="11.00">TaskServer</text>
</g>
<!-- \\TaskModel -->
<g id="node22" class="node"><title>\\TaskModel</title>
<polygon fill="none" stroke="black" points="493,-1638 417,-1638 417,-1602 493,-1602 493,-1638"/>
<text text-anchor="middle" x="455" y="-1617.1" font-family="Courier,monospace" font-size="11.00">TaskModel</text>
</g>
<!-- \\TaskServer&#45;&gt;\\TaskModel -->
<g id="edge39" class="edge"><title>\\TaskServer&#45;&gt;\\TaskModel</title>
<path fill="none" stroke="black" d="M787.712,-1667.91C717.645,-1657.82 577.87,-1637.69 503.756,-1627.02"/>
<polygon fill="none" stroke="black" points="504.145,-1623.54 493.748,-1625.58 503.147,-1630.47 504.145,-1623.54"/>
</g>
<!-- \\TaskProfiler -->
<g id="node21" class="node"><title>\\TaskProfiler</title>
<polygon fill="none" stroke="black" points="879,-936 781,-936 781,-900 879,-900 879,-936"/>
<text text-anchor="middle" x="830" y="-915.1" font-family="Courier,monospace" font-size="11.00">TaskProfiler</text>
</g>
<!-- \\TaskModel&#45;&gt;\\AppModel -->
<g id="edge41" class="edge"><title>\\TaskModel&#45;&gt;\\AppModel</title>
<path fill="none" stroke="black" d="M416.235,-1627.5C372.396,-1633.59 301.476,-1635.85 258,-1598 161.199,-1513.72 108.522,-1091.6 95.9639,-978.121"/>
<polygon fill="none" stroke="black" points="99.4373,-977.687 94.8737,-968.125 92.4786,-978.446 99.4373,-977.687"/>
</g>
<!-- \\TaskClient -->
<g id="node23" class="node"><title>\\TaskClient</title>
<polygon fill="none" stroke="black" points="872,-1638 788,-1638 788,-1602 872,-1602 872,-1638"/>
<text text-anchor="middle" x="830" y="-1617.1" font-family="Courier,monospace" font-size="11.00">TaskClient</text>
</g>
<!-- \\TaskClient&#45;&gt;\\TaskModel -->
<g id="edge43" class="edge"><title>\\TaskClient&#45;&gt;\\TaskModel</title>
<path fill="none" stroke="black" d="M787.712,-1620C717.645,-1620 577.87,-1620 503.756,-1620"/>
<polygon fill="none" stroke="black" points="503.748,-1616.5 493.748,-1620 503.748,-1623.5 503.748,-1616.5"/>
</g>
<!-- \\TaskType -->
<g id="node24" class="node"><title>\\TaskType</title>
<polygon fill="none" stroke="black" points="872,-828 788,-828 788,-792 872,-792 872,-828"/>
<text text-anchor="start" x="796" y="-815.433" font-family="Courier,monospace" font-size="11.00">«abstract»</text>
<text text-anchor="start" x="802.5" y="-802.233" font-family="Courier,monospace" font-size="11.00">TaskType</text>
</g>
<!-- \\TaskRunner -->
<g id="node25" class="node"><title>\\TaskRunner</title>
<polygon fill="none" stroke="black" points="872,-774 788,-774 788,-738 872,-738 872,-774"/>
<text text-anchor="middle" x="830" y="-753.1" font-family="Courier,monospace" font-size="11.00">TaskRunner</text>
</g>
<!-- \\Object -->
<g id="node59" class="node"><title>\\Object</title>
<ellipse fill="none" stroke="black" cx="455" cy="-234" rx="45.9619" ry="18.3848"/>
<text text-anchor="middle" x="455" y="-230.4" font-family="Times Roman,serif" font-size="14.00" fill="gray">\Object</text>
</g>
<!-- \\TaskRunner&#45;&gt;\\Object -->
<g id="edge45" class="edge"><title>\\TaskRunner&#45;&gt;\\Object</title>
<path fill="none" stroke="black" d="M787.946,-755.852C765.82,-753.468 740.032,-746.635 724,-729 583.913,-574.908 798.757,-413.752 652,-266 615.075,-228.824 553.034,-224.403 508.433,-227.011"/>
<polygon fill="none" stroke="black" points="508.071,-223.528 498.348,-227.736 508.574,-230.51 508.071,-223.528"/>
</g>
<!-- \\TaskProcess -->
<g id="node26" class="node"><title>\\TaskProcess</title>
<polygon fill="none" stroke="black" points="875,-720 785,-720 785,-684 875,-684 875,-720"/>
<text text-anchor="middle" x="830" y="-699.1" font-family="Courier,monospace" font-size="11.00">TaskProcess</text>
</g>
<!-- \\Symfony\\Component\\Process\\Process -->
<g id="node61" class="node"><title>\\Symfony\\Component\\Process\\Process</title>
<ellipse fill="none" stroke="black" cx="455" cy="-180" rx="196.075" ry="18.3848"/>
<text text-anchor="middle" x="455" y="-176.4" font-family="Times Roman,serif" font-size="14.00" fill="gray">\Symfony\Component\Process\Process</text>
</g>
<!-- \\TaskProcess&#45;&gt;\\Symfony\\Component\\Process\\Process -->
<g id="edge47" class="edge"><title>\\TaskProcess&#45;&gt;\\Symfony\\Component\\Process\\Process</title>
<path fill="none" stroke="black" d="M784.469,-701.456C763.16,-698.744 739.188,-691.734 724,-675 582.562,-519.169 802.027,-354.58 652,-207 646.957,-202.039 641.459,-197.699 635.611,-193.913"/>
<polygon fill="none" stroke="black" points="637.203,-190.789 626.805,-188.754 633.664,-196.829 637.203,-190.789"/>
</g>
<!-- \\TaskController -->
<g id="node27" class="node"><title>\\TaskController</title>
<polygon fill="none" stroke="black" points="885,-666 775,-666 775,-630 885,-630 885,-666"/>
<text text-anchor="middle" x="830" y="-645.1" font-family="Courier,monospace" font-size="11.00">TaskController</text>
</g>
<!-- \\AppController -->
<g id="node63" class="node"><title>\\AppController</title>
<ellipse fill="none" stroke="black" cx="455" cy="-126" rx="82.0244" ry="18.3848"/>
<text text-anchor="middle" x="455" y="-122.4" font-family="Times Roman,serif" font-size="14.00" fill="gray">\AppController</text>
</g>
<!-- \\TaskController&#45;&gt;\\AppController -->
<g id="edge49" class="edge"><title>\\TaskController&#45;&gt;\\AppController</title>
<path fill="none" stroke="black" d="M774.381,-645.859C755.919,-642.33 736.827,-635.132 724,-621 582.562,-465.169 802.027,-300.58 652,-153 621.712,-123.206 575.016,-115.819 534.688,-116.18"/>
<polygon fill="none" stroke="black" points="534.497,-112.684 524.587,-116.43 534.67,-119.681 534.497,-112.684"/>
</g>
<!-- \\TaskShell -->
<g id="node28" class="node"><title>\\TaskShell</title>
<polygon fill="none" stroke="black" points="868,-612 792,-612 792,-576 868,-576 868,-612"/>
<text text-anchor="middle" x="830" y="-591.1" font-family="Courier,monospace" font-size="11.00">TaskShell</text>
</g>
<!-- \\AdvancedShell -->
<g id="node65" class="node"><title>\\AdvancedShell</title>
<ellipse fill="none" stroke="black" cx="455" cy="-72" rx="85.7684" ry="18.3848"/>
<text text-anchor="middle" x="455" y="-68.4" font-family="Times Roman,serif" font-size="14.00" fill="gray">\AdvancedShell</text>
</g>
<!-- \\TaskShell&#45;&gt;\\AdvancedShell -->
<g id="edge51" class="edge"><title>\\TaskShell&#45;&gt;\\AdvancedShell</title>
<path fill="none" stroke="black" d="M791.342,-594.197C768.503,-592.16 740.847,-585.562 724,-567 582.562,-411.169 802.027,-246.58 652,-99 622.569,-70.049 577.644,-62.2546 538.125,-62.1683"/>
<polygon fill="none" stroke="black" points="537.89,-58.6711 527.941,-62.3121 537.989,-65.6704 537.89,-58.6711"/>
</g>
<!-- \\TaskServerTask -->
<g id="node29" class="node"><title>\\TaskServerTask</title>
<polygon fill="none" stroke="black" points="885,-558 775,-558 775,-522 885,-522 885,-558"/>
<text text-anchor="middle" x="830" y="-537.1" font-family="Courier,monospace" font-size="11.00">TaskServerTask</text>
</g>
<!-- \\AdvancedTask -->
<g id="node67" class="node"><title>\\AdvancedTask</title>
<ellipse fill="none" stroke="black" cx="455" cy="-18" rx="82.939" ry="18.3848"/>
<text text-anchor="middle" x="455" y="-14.4" font-family="Times Roman,serif" font-size="14.00" fill="gray">\AdvancedTask</text>
</g>
<!-- \\TaskServerTask&#45;&gt;\\AdvancedTask -->
<g id="edge53" class="edge"><title>\\TaskServerTask&#45;&gt;\\AdvancedTask</title>
<path fill="none" stroke="black" d="M826.077,-521.749C808.15,-440.081 731.475,-109.387 652,-45 621.598,-20.3694 579.499,-12.2565 542.021,-10.863"/>
<polygon fill="none" stroke="black" points="541.659,-7.35459 531.587,-10.6401 541.51,-14.353 541.659,-7.35459"/>
</g>
</g>
</svg>
