<?xml version="1.0" encoding="UTF-8" standalone="no"?>
<!DOCTYPE svg PUBLIC "-//W3C//DTD SVG 1.1//EN"
 "http://www.w3.org/Graphics/SVG/1.1/DTD/svg11.dtd">
<!-- Generated by graphviz version 2.26.3 (20100126.1600)
 -->
<!-- Title: G Pages: 1 -->
<svg width="960pt" height="1985pt"
 viewBox="0.00 0.00 960.00 1984.81" xmlns="http://www.w3.org/2000/svg" xmlns:xlink="http://www.w3.org/1999/xlink">
<g id="graph1" class="graph" transform="scale(1 1) rotate(0) translate(4 1980.81)">
<title>G</title>
<polygon fill="white" stroke="white" points="-4,5 -4,-1980.81 957,-1980.81 957,5 -4,5"/>
<g id="graph2" class="cluster"><title>cluster_Global</title>
<polyline fill="none" stroke="gray" points="403,-359.098 932,-359.098 "/>
<path fill="none" stroke="gray" d="M932,-359.098C938,-359.098 944,-365.098 944,-371.098"/>
<polyline fill="none" stroke="gray" points="944,-371.098 944,-1771.1 "/>
<path fill="none" stroke="gray" d="M944,-1771.1C944,-1777.1 938,-1783.1 932,-1783.1"/>
<polyline fill="none" stroke="gray" points="932,-1783.1 403,-1783.1 "/>
<path fill="none" stroke="gray" d="M403,-1783.1C397,-1783.1 391,-1777.1 391,-1771.1"/>
<polyline fill="none" stroke="gray" points="391,-1771.1 391,-371.098 "/>
<path fill="none" stroke="gray" d="M391,-371.098C391,-365.098 397,-359.098 403,-359.098"/>
<text text-anchor="middle" x="667.5" y="-1769.2" font-family="Times Roman,serif" font-size="11.00" fill="gray">Global</text>
</g>
<!-- \\TaskServerOldTask -->
<g id="node2" class="node"><title>\\TaskServerOldTask</title>
<polygon fill="none" stroke="black" points="895,-1429.1 765,-1429.1 765,-1393.1 895,-1393.1 895,-1429.1"/>
<text text-anchor="middle" x="830" y="-1408.2" font-family="Courier,monospace" font-size="11.00">TaskServerOldTask</text>
</g>
<!-- \\TaskServerTask -->
<g id="node3" class="node"><title>\\TaskServerTask</title>
<polygon fill="none" stroke="black" points="510,-1429.1 400,-1429.1 400,-1393.1 510,-1393.1 510,-1429.1"/>
<text text-anchor="middle" x="455" y="-1408.2" font-family="Courier,monospace" font-size="11.00">TaskServerTask</text>
</g>
<!-- \\TaskServerOldTask&#45;&gt;\\TaskServerTask -->
<g id="edge3" class="edge"><title>\\TaskServerOldTask&#45;&gt;\\TaskServerTask</title>
<path fill="none" stroke="black" d="M764.251,-1411.1C695.82,-1411.1 589.27,-1411.1 520.815,-1411.1"/>
<polygon fill="none" stroke="black" points="520.584,-1407.6 510.584,-1411.1 520.584,-1414.6 520.584,-1407.6"/>
</g>
<!-- \\AdvancedTask -->
<g id="node33" class="node"><title>\\AdvancedTask</title>
<ellipse fill="none" stroke="black" cx="93" cy="-1411.1" rx="82.939" ry="18.3848"/>
<text text-anchor="middle" x="93" y="-1407.5" font-family="Times Roman,serif" font-size="14.00" fill="gray">\AdvancedTask</text>
</g>
<!-- \\TaskServerTask&#45;&gt;\\AdvancedTask -->
<g id="edge5" class="edge"><title>\\TaskServerTask&#45;&gt;\\AdvancedTask</title>
<path fill="none" stroke="black" d="M399.231,-1411.1C342.732,-1411.1 254.302,-1411.1 186.965,-1411.1"/>
<polygon fill="none" stroke="black" points="186.769,-1407.6 176.769,-1411.1 186.769,-1414.6 186.769,-1407.6"/>
</g>
<!-- \\TaskShell -->
<g id="node4" class="node"><title>\\TaskShell</title>
<polygon fill="none" stroke="black" points="868,-1699.1 792,-1699.1 792,-1663.1 868,-1663.1 868,-1699.1"/>
<text text-anchor="middle" x="830" y="-1678.2" font-family="Courier,monospace" font-size="11.00">TaskShell</text>
</g>
<!-- \\AdvancedShell -->
<g id="node35" class="node"><title>\\AdvancedShell</title>
<ellipse fill="none" stroke="black" cx="455" cy="-1917.1" rx="85.7684" ry="18.3848"/>
<text text-anchor="middle" x="455" y="-1913.5" font-family="Times Roman,serif" font-size="14.00" fill="gray">\AdvancedShell</text>
</g>
<!-- \\TaskShell&#45;&gt;\\AdvancedShell -->
<g id="edge7" class="edge"><title>\\TaskShell&#45;&gt;\\AdvancedShell</title>
<path fill="none" stroke="black" d="M791.454,-1682.46C769.369,-1685.13 742.46,-1691.85 724,-1708.1 658.702,-1765.57 720.445,-1836.41 652,-1890.1 622.207,-1913.47 581.778,-1921.77 545.298,-1923.62"/>
<polygon fill="none" stroke="black" points="544.995,-1920.13 535.125,-1923.98 545.242,-1927.13 544.995,-1920.13"/>
</g>
<!-- \\TaskController -->
<g id="node5" class="node"><title>\\TaskController</title>
<polygon fill="none" stroke="black" points="885,-1645.1 775,-1645.1 775,-1609.1 885,-1609.1 885,-1645.1"/>
<text text-anchor="middle" x="830" y="-1624.2" font-family="Courier,monospace" font-size="11.00">TaskController</text>
</g>
<!-- \\AppController -->
<g id="node37" class="node"><title>\\AppController</title>
<ellipse fill="none" stroke="black" cx="455" cy="-1863.1" rx="82.0244" ry="18.3848"/>
<text text-anchor="middle" x="455" y="-1859.5" font-family="Times Roman,serif" font-size="14.00" fill="gray">\AppController</text>
</g>
<!-- \\TaskController&#45;&gt;\\AppController -->
<g id="edge9" class="edge"><title>\\TaskController&#45;&gt;\\AppController</title>
<path fill="none" stroke="black" d="M774.399,-1631.26C756.586,-1635.03 737.899,-1641.86 724,-1654.1 658.702,-1711.57 720.445,-1782.41 652,-1836.1 621.089,-1860.34 578.731,-1868.37 541.211,-1869.8"/>
<polygon fill="none" stroke="black" points="540.688,-1866.31 530.77,-1870.04 540.848,-1873.31 540.688,-1866.31"/>
</g>
<!-- \\TaskHelper -->
<g id="node6" class="node"><title>\\TaskHelper</title>
<polygon fill="none" stroke="black" points="872,-1591.1 788,-1591.1 788,-1555.1 872,-1555.1 872,-1591.1"/>
<text text-anchor="middle" x="830" y="-1570.2" font-family="Courier,monospace" font-size="11.00">TaskHelper</text>
</g>
<!-- \\AppHelper -->
<g id="node39" class="node"><title>\\AppHelper</title>
<ellipse fill="none" stroke="black" cx="455" cy="-1809.1" rx="65.0538" ry="18.3848"/>
<text text-anchor="middle" x="455" y="-1805.5" font-family="Times Roman,serif" font-size="14.00" fill="gray">\AppHelper</text>
</g>
<!-- \\TaskHelper&#45;&gt;\\AppHelper -->
<g id="edge11" class="edge"><title>\\TaskHelper&#45;&gt;\\AppHelper</title>
<path fill="none" stroke="black" d="M787.775,-1574.86C766.411,-1577.8 741.392,-1584.65 724,-1600.1 657.419,-1659.25 722.506,-1732.69 652,-1787.1 615.756,-1815.07 563.983,-1819.91 522.607,-1818.11"/>
<polygon fill="none" stroke="black" points="522.783,-1814.61 512.599,-1817.53 522.383,-1821.6 522.783,-1814.61"/>
</g>
<!-- \\TaskStatisticsFixture -->
<g id="node7" class="node"><title>\\TaskStatisticsFixture</title>
<polygon fill="none" stroke="black" points="909,-1753.1 751,-1753.1 751,-1717.1 909,-1717.1 909,-1753.1"/>
<text text-anchor="middle" x="830" y="-1732.2" font-family="Courier,monospace" font-size="11.00">TaskStatisticsFixture</text>
</g>
<!-- \\CakeTestFixture -->
<g id="node41" class="node"><title>\\CakeTestFixture</title>
<ellipse fill="none" stroke="black" cx="93" cy="-1519.1" rx="92.1303" ry="18.3848"/>
<text text-anchor="middle" x="93" y="-1515.5" font-family="Times Roman,serif" font-size="14.00" fill="gray">\CakeTestFixture</text>
</g>
<!-- \\TaskStatisticsFixture&#45;&gt;\\CakeTestFixture -->
<g id="edge13" class="edge"><title>\\TaskStatisticsFixture&#45;&gt;\\CakeTestFixture</title>
<path fill="none" stroke="black" d="M821.407,-1753.36C799.998,-1796.41 739.62,-1903.63 652,-1944.1 572.513,-1980.81 330.251,-1993.55 258,-1944.1 188.482,-1896.51 120.489,-1634.2 99.5521,-1547.17"/>
<polygon fill="none" stroke="black" points="102.904,-1546.14 97.1812,-1537.22 96.0952,-1547.76 102.904,-1546.14"/>
</g>
<!-- \\TaskProfilerFixture -->
<g id="node8" class="node"><title>\\TaskProfilerFixture</title>
<polygon fill="none" stroke="black" points="902,-1483.1 758,-1483.1 758,-1447.1 902,-1447.1 902,-1483.1"/>
<text text-anchor="middle" x="830" y="-1462.2" font-family="Courier,monospace" font-size="11.00">TaskProfilerFixture</text>
</g>
<!-- \\TaskFixture -->
<g id="node10" class="node"><title>\\TaskFixture</title>
<polygon fill="none" stroke="black" points="500,-1487.1 410,-1487.1 410,-1451.1 500,-1451.1 500,-1487.1"/>
<text text-anchor="middle" x="455" y="-1466.2" font-family="Courier,monospace" font-size="11.00">TaskFixture</text>
</g>
<!-- \\TaskProfilerFixture&#45;&gt;\\TaskFixture -->
<g id="edge15" class="edge"><title>\\TaskProfilerFixture&#45;&gt;\\TaskFixture</title>
<path fill="none" stroke="black" d="M757.252,-1465.87C685.176,-1466.64 576.342,-1467.8 510.824,-1468.5"/>
<polygon fill="none" stroke="black" points="510.655,-1465 500.693,-1468.61 510.729,-1472 510.655,-1465"/>
</g>
<!-- \\DependentTaskFixture -->
<g id="node9" class="node"><title>\\DependentTaskFixture</title>
<polygon fill="none" stroke="black" points="906,-1537.1 754,-1537.1 754,-1501.1 906,-1501.1 906,-1537.1"/>
<text text-anchor="middle" x="830" y="-1516.2" font-family="Courier,monospace" font-size="11.00">DependentTaskFixture</text>
</g>
<!-- \\DependentTaskFixture&#45;&gt;\\CakeTestFixture -->
<g id="edge17" class="edge"><title>\\DependentTaskFixture&#45;&gt;\\CakeTestFixture</title>
<path fill="none" stroke="black" d="M753.904,-1519.1C620.793,-1519.1 345.614,-1519.1 195.741,-1519.1"/>
<polygon fill="none" stroke="black" points="195.611,-1515.6 185.611,-1519.1 195.611,-1522.6 195.611,-1515.6"/>
</g>
<!-- \\TaskFixture&#45;&gt;\\CakeTestFixture -->
<g id="edge19" class="edge"><title>\\TaskFixture&#45;&gt;\\CakeTestFixture</title>
<path fill="none" stroke="black" d="M409.13,-1473.47C369.145,-1477.47 309.63,-1483.84 258,-1491.1 229.428,-1495.11 198.194,-1500.23 170.663,-1504.98"/>
<polygon fill="none" stroke="black" points="169.952,-1501.55 160.7,-1506.72 171.152,-1508.45 169.952,-1501.55"/>
</g>
<!-- \\TaskShellTest -->
<g id="node11" class="node"><title>\\TaskShellTest</title>
<polygon fill="none" stroke="black" points="882,-943.098 778,-943.098 778,-907.098 882,-907.098 882,-943.098"/>
<text text-anchor="middle" x="830" y="-922.198" font-family="Courier,monospace" font-size="11.00">TaskShellTest</text>
</g>
<!-- \\CakeTestCase -->
<g id="node46" class="node"><title>\\CakeTestCase</title>
<ellipse fill="none" stroke="black" cx="455" cy="-333.098" rx="82.0244" ry="18.3848"/>
<text text-anchor="middle" x="455" y="-329.498" font-family="Times Roman,serif" font-size="14.00" fill="gray">\CakeTestCase</text>
</g>
<!-- \\TaskShellTest&#45;&gt;\\CakeTestCase -->
<g id="edge21" class="edge"><title>\\TaskShellTest&#45;&gt;\\CakeTestCase</title>
<path fill="none" stroke="black" d="M777.793,-923.74C758.232,-920.494 737.499,-913.286 724,-898.098 562.27,-716.138 825.907,-525.457 652,-355.098 620.318,-324.062 570.609,-318.699 529.053,-321.025"/>
<polygon fill="none" stroke="black" points="528.679,-317.543 518.955,-321.747 529.179,-324.525 528.679,-317.543"/>
</g>
<!-- \\TaskServerTaskTest -->
<g id="node12" class="node"><title>\\TaskServerTaskTest</title>
<polygon fill="none" stroke="black" points="899,-889.098 761,-889.098 761,-853.098 899,-853.098 899,-889.098"/>
<text text-anchor="middle" x="830" y="-868.198" font-family="Courier,monospace" font-size="11.00">TaskServerTaskTest</text>
</g>
<!-- \\TaskServerTaskTest&#45;&gt;\\CakeTestCase -->
<g id="edge23" class="edge"><title>\\TaskServerTaskTest&#45;&gt;\\CakeTestCase</title>
<path fill="none" stroke="black" d="M760.815,-865.721C746.934,-861.55 733.665,-854.816 724,-844.098 576.886,-680.956 810.027,-507.693 652,-355.098 620.21,-324.401 570.745,-318.964 529.335,-321.17"/>
<polygon fill="none" stroke="black" points="529.007,-317.684 519.271,-321.862 529.487,-324.668 529.007,-317.684"/>
</g>
<!-- \\TaskServerTaskTestEventModel1 -->
<g id="node13" class="node"><title>\\TaskServerTaskTestEventModel1</title>
<polygon fill="none" stroke="black" points="936,-781.098 724,-781.098 724,-745.098 936,-745.098 936,-781.098"/>
<text text-anchor="middle" x="830" y="-760.198" font-family="Courier,monospace" font-size="11.00">TaskServerTaskTestEventModel1</text>
</g>
<!-- \\CakeEventListener -->
<g id="node49" class="node"><title>\\CakeEventListener</title>
<ellipse fill="none" stroke="black" cx="455" cy="-279.098" rx="106.98" ry="18.3848"/>
<text text-anchor="middle" x="455" y="-275.498" font-family="Times Roman,serif" font-size="14.00" fill="gray">\CakeEventListener</text>
</g>
<!-- \\TaskServerTaskTestEventModel1&#45;&gt;\\CakeEventListener -->
<g id="edge25" class="edge"><title>\\TaskServerTaskTestEventModel1&#45;&gt;\\CakeEventListener</title>
<path fill="none" stroke="black" stroke-dasharray="1,5" d="M734.222,-745.03C730.524,-742.415 727.085,-739.452 724,-736.098 592.822,-593.481 791.036,-441.066 652,-306.098 626.919,-281.751 590.86,-272.44 556.43,-270.08"/>
<polygon fill="none" stroke="black" points="556.455,-266.577 546.294,-269.576 556.108,-273.568 556.455,-266.577"/>
</g>
<!-- \\TaskControllerTest -->
<g id="node14" class="node"><title>\\TaskControllerTest</title>
<polygon fill="none" stroke="black" points="899,-727.098 761,-727.098 761,-691.098 899,-691.098 899,-727.098"/>
<text text-anchor="middle" x="830" y="-706.198" font-family="Courier,monospace" font-size="11.00">TaskControllerTest</text>
</g>
<!-- \\ControllerTestCase -->
<g id="node51" class="node"><title>\\ControllerTestCase</title>
<ellipse fill="none" stroke="black" cx="455" cy="-225.098" rx="106.773" ry="18.3848"/>
<text text-anchor="middle" x="455" y="-221.498" font-family="Times Roman,serif" font-size="14.00" fill="gray">\ControllerTestCase</text>
</g>
<!-- \\TaskControllerTest&#45;&gt;\\ControllerTestCase -->
<g id="edge27" class="edge"><title>\\TaskControllerTest&#45;&gt;\\ControllerTestCase</title>
<path fill="none" stroke="black" d="M760.971,-703.579C747.082,-699.416 733.771,-692.72 724,-682.098 592.822,-539.481 791.036,-387.066 652,-252.098 626.807,-227.642 590.535,-218.357 555.966,-216.048"/>
<polygon fill="none" stroke="black" points="555.947,-212.543 545.791,-215.56 555.612,-219.535 555.947,-212.543"/>
</g>
<!-- \\AllTaskTest -->
<g id="node15" class="node"><title>\\AllTaskTest</title>
<polygon fill="none" stroke="black" points="875,-673.098 785,-673.098 785,-637.098 875,-637.098 875,-673.098"/>
<text text-anchor="middle" x="830" y="-652.198" font-family="Courier,monospace" font-size="11.00">AllTaskTest</text>
</g>
<!-- \\PHPUnit_Framework_TestSuite -->
<g id="node53" class="node"><title>\\PHPUnit_Framework_TestSuite</title>
<ellipse fill="none" stroke="black" cx="455" cy="-171.098" rx="166.877" ry="18.3848"/>
<text text-anchor="middle" x="455" y="-167.498" font-family="Times Roman,serif" font-size="14.00" fill="gray">\PHPUnit_Framework_TestSuite</text>
</g>
<!-- \\AllTaskTest&#45;&gt;\\PHPUnit_Framework_TestSuite -->
<g id="edge29" class="edge"><title>\\AllTaskTest&#45;&gt;\\PHPUnit_Framework_TestSuite</title>
<path fill="none" stroke="black" d="M784.295,-654.432C763.077,-651.675 739.234,-644.661 724,-628.098 592.822,-485.481 791.036,-333.066 652,-198.098 644.398,-190.718 635.787,-184.72 626.518,-179.878"/>
<polygon fill="none" stroke="black" points="627.978,-176.697 617.442,-175.582 624.984,-183.024 627.978,-176.697"/>
</g>
<!-- \\TaskHelperTest -->
<g id="node16" class="node"><title>\\TaskHelperTest</title>
<polygon fill="none" stroke="black" points="885,-835.098 775,-835.098 775,-799.098 885,-799.098 885,-835.098"/>
<text text-anchor="middle" x="830" y="-814.198" font-family="Courier,monospace" font-size="11.00">TaskHelperTest</text>
</g>
<!-- \\TaskHelperTest&#45;&gt;\\CakeTestCase -->
<g id="edge31" class="edge"><title>\\TaskHelperTest&#45;&gt;\\CakeTestCase</title>
<path fill="none" stroke="black" d="M774.469,-814.876C756.017,-811.339 736.907,-804.157 724,-790.098 591.473,-645.743 794.178,-489.958 652,-355.098 620.168,-324.904 571.184,-319.328 530.026,-321.337"/>
<polygon fill="none" stroke="black" points="529.774,-317.846 520.018,-321.98 530.222,-324.832 529.774,-317.846"/>
</g>
<!-- \\TaskRunnerTest -->
<g id="node17" class="node"><title>\\TaskRunnerTest</title>
<polygon fill="none" stroke="black" points="885,-1267.1 775,-1267.1 775,-1231.1 885,-1231.1 885,-1267.1"/>
<text text-anchor="middle" x="830" y="-1246.2" font-family="Courier,monospace" font-size="11.00">TaskRunnerTest</text>
</g>
<!-- \\TaskRunnerTest&#45;&gt;\\CakeTestCase -->
<g id="edge33" class="edge"><title>\\TaskRunnerTest&#45;&gt;\\CakeTestCase</title>
<path fill="none" stroke="black" d="M774.379,-1247.55C755.689,-1244.11 736.449,-1236.81 724,-1222.1 599.14,-1074.5 786.753,-493.727 652,-355.098 620.644,-322.84 569.944,-317.789 527.831,-320.571"/>
<polygon fill="none" stroke="black" points="527.286,-317.104 517.605,-321.409 527.857,-324.081 527.286,-317.104"/>
</g>
<!-- \\TaskTypeTest -->
<g id="node18" class="node"><title>\\TaskTypeTest</title>
<polygon fill="none" stroke="black" points="879,-1213.1 781,-1213.1 781,-1177.1 879,-1177.1 879,-1213.1"/>
<text text-anchor="middle" x="830" y="-1192.2" font-family="Courier,monospace" font-size="11.00">TaskTypeTest</text>
</g>
<!-- \\TaskTypeTest&#45;&gt;\\CakeTestCase -->
<g id="edge35" class="edge"><title>\\TaskTypeTest&#45;&gt;\\CakeTestCase</title>
<path fill="none" stroke="black" d="M780.741,-1194.54C760.186,-1191.62 737.904,-1184.44 724,-1168.1 606.483,-1029.94 778.775,-484.808 652,-355.098 620.667,-323.039 570.216,-317.909 528.214,-320.604"/>
<polygon fill="none" stroke="black" points="527.702,-317.134 518.013,-321.42 528.26,-324.112 527.702,-317.134"/>
</g>
<!-- \\TaskProcessTest -->
<g id="node19" class="node"><title>\\TaskProcessTest</title>
<polygon fill="none" stroke="black" points="889,-1159.1 771,-1159.1 771,-1123.1 889,-1123.1 889,-1159.1"/>
<text text-anchor="middle" x="830" y="-1138.2" font-family="Courier,monospace" font-size="11.00">TaskProcessTest</text>
</g>
<!-- \\TaskProcessTest&#45;&gt;\\CakeTestCase -->
<g id="edge37" class="edge"><title>\\TaskProcessTest&#45;&gt;\\CakeTestCase</title>
<path fill="none" stroke="black" d="M770.879,-1138.76C753.354,-1135.05 735.732,-1127.8 724,-1114.1 613.823,-985.391 770.8,-475.891 652,-355.098 620.567,-323.137 570.117,-318.006 528.142,-320.675"/>
<polygon fill="none" stroke="black" points="527.639,-317.204 517.947,-321.484 528.193,-324.182 527.639,-317.204"/>
</g>
<!-- \\TaskClientTest -->
<g id="node20" class="node"><title>\\TaskClientTest</title>
<polygon fill="none" stroke="black" points="885,-1105.1 775,-1105.1 775,-1069.1 885,-1069.1 885,-1105.1"/>
<text text-anchor="middle" x="830" y="-1084.2" font-family="Courier,monospace" font-size="11.00">TaskClientTest</text>
</g>
<!-- \\TaskClientTest&#45;&gt;\\CakeTestCase -->
<g id="edge39" class="edge"><title>\\TaskClientTest&#45;&gt;\\CakeTestCase</title>
<path fill="none" stroke="black" d="M774.254,-1085.36C755.667,-1081.89 736.525,-1074.62 724,-1060.1 621.16,-940.832 762.829,-466.979 652,-355.098 620.564,-323.364 570.362,-318.154 528.505,-320.729"/>
<polygon fill="none" stroke="black" points="528.038,-317.255 518.337,-321.515 528.577,-324.234 528.038,-317.255"/>
</g>
<!-- \\TaskServerTest -->
<g id="node21" class="node"><title>\\TaskServerTest</title>
<polygon fill="none" stroke="black" points="885,-1051.1 775,-1051.1 775,-1015.1 885,-1015.1 885,-1051.1"/>
<text text-anchor="middle" x="830" y="-1030.2" font-family="Courier,monospace" font-size="11.00">TaskServerTest</text>
</g>
<!-- \\TaskServerTest&#45;&gt;\\CakeTestCase -->
<g id="edge41" class="edge"><title>\\TaskServerTest&#45;&gt;\\CakeTestCase</title>
<path fill="none" stroke="black" d="M774.321,-1031.31C755.74,-1027.83 736.586,-1020.57 724,-1006.1 532.983,-786.439 857.728,-561.044 652,-355.098 620.431,-323.496 570.231,-318.284 528.409,-320.826"/>
<polygon fill="none" stroke="black" points="527.954,-317.35 518.25,-321.602 528.487,-324.33 527.954,-317.35"/>
</g>
<!-- \\TaskProfilerTest -->
<g id="node22" class="node"><title>\\TaskProfilerTest</title>
<polygon fill="none" stroke="black" points="892,-997.098 768,-997.098 768,-961.098 892,-961.098 892,-997.098"/>
<text text-anchor="middle" x="830" y="-976.198" font-family="Courier,monospace" font-size="11.00">TaskProfilerTest</text>
</g>
<!-- \\TaskProfilerTest&#45;&gt;\\CakeTestCase -->
<g id="edge43" class="edge"><title>\\TaskProfilerTest&#45;&gt;\\CakeTestCase</title>
<path fill="none" stroke="black" d="M767.49,-975.765C751.182,-971.849 735.091,-964.725 724,-952.098 547.634,-751.297 841.809,-543.242 652,-355.098 620.389,-323.764 570.435,-318.475 528.742,-320.913"/>
<polygon fill="none" stroke="black" points="528.326,-317.434 518.612,-321.663 528.843,-324.415 528.326,-317.434"/>
</g>
<!-- \\TaskProcess -->
<g id="node23" class="node"><title>\\TaskProcess</title>
<polygon fill="none" stroke="black" points="875,-565.098 785,-565.098 785,-529.098 875,-529.098 875,-565.098"/>
<text text-anchor="middle" x="830" y="-544.198" font-family="Courier,monospace" font-size="11.00">TaskProcess</text>
</g>
<!-- \\Symfony\\Component\\Process\\Process -->
<g id="node62" class="node"><title>\\Symfony\\Component\\Process\\Process</title>
<ellipse fill="none" stroke="black" cx="455" cy="-117.098" rx="196.075" ry="18.3848"/>
<text text-anchor="middle" x="455" y="-113.498" font-family="Times Roman,serif" font-size="14.00" fill="gray">\Symfony\Component\Process\Process</text>
</g>
<!-- \\TaskProcess&#45;&gt;\\Symfony\\Component\\Process\\Process -->
<g id="edge45" class="edge"><title>\\TaskProcess&#45;&gt;\\Symfony\\Component\\Process\\Process</title>
<path fill="none" stroke="black" d="M784.461,-546.278C763.284,-543.483 739.426,-536.482 724,-520.098 607.364,-396.218 775.458,-261.181 652,-144.098 646.867,-139.23 641.294,-134.968 635.383,-131.247"/>
<polygon fill="none" stroke="black" points="636.914,-128.091 626.494,-126.174 633.444,-134.171 636.914,-128.091"/>
</g>
<!-- \\TaskRunner -->
<g id="node24" class="node"><title>\\TaskRunner</title>
<polygon fill="none" stroke="black" points="872,-511.098 788,-511.098 788,-475.098 872,-475.098 872,-511.098"/>
<text text-anchor="middle" x="830" y="-490.198" font-family="Courier,monospace" font-size="11.00">TaskRunner</text>
</g>
<!-- \\Object -->
<g id="node64" class="node"><title>\\Object</title>
<ellipse fill="none" stroke="black" cx="455" cy="-63.0979" rx="45.9619" ry="18.3848"/>
<text text-anchor="middle" x="455" y="-59.4979" font-family="Times Roman,serif" font-size="14.00" fill="gray">\Object</text>
</g>
<!-- \\TaskRunner&#45;&gt;\\Object -->
<g id="edge47" class="edge"><title>\\TaskRunner&#45;&gt;\\Object</title>
<path fill="none" stroke="black" d="M787.92,-492.7C765.926,-490.223 740.272,-483.381 724,-466.098 607.364,-342.218 775.458,-207.181 652,-90.0979 614.006,-54.0655 551.874,-51.2537 507.547,-54.9451"/>
<polygon fill="none" stroke="black" points="507.149,-51.4671 497.533,-55.9134 507.823,-58.4346 507.149,-51.4671"/>
</g>
<!-- \\TaskType -->
<g id="node25" class="node"><title>\\TaskType</title>
<polygon fill="none" stroke="black" points="872,-619.098 788,-619.098 788,-583.098 872,-583.098 872,-619.098"/>
<text text-anchor="start" x="796" y="-606.531" font-family="Courier,monospace" font-size="11.00">«abstract»</text>
<text text-anchor="start" x="802.5" y="-593.331" font-family="Courier,monospace" font-size="11.00">TaskType</text>
</g>
<!-- \\TaskProfiler -->
<g id="node26" class="node"><title>\\TaskProfiler</title>
<polygon fill="none" stroke="black" points="879,-457.098 781,-457.098 781,-421.098 879,-421.098 879,-457.098"/>
<text text-anchor="middle" x="830" y="-436.198" font-family="Courier,monospace" font-size="11.00">TaskProfiler</text>
</g>
<!-- \\AppModel -->
<g id="node66" class="node"><title>\\AppModel</title>
<ellipse fill="none" stroke="black" cx="93" cy="-660.098" rx="62.2254" ry="18.3848"/>
<text text-anchor="middle" x="93" y="-656.498" font-family="Times Roman,serif" font-size="14.00" fill="gray">\AppModel</text>
</g>
<!-- \\TaskProfiler&#45;&gt;\\AppModel -->
<g id="edge49" class="edge"><title>\\TaskProfiler&#45;&gt;\\AppModel</title>
<path fill="none" stroke="black" d="M780.954,-437.779C760.692,-434.687 738.58,-427.583 724,-412.098 607.364,-288.218 777.778,-150.685 652,-36.0979 586.976,23.1404 542.294,-6.27658 455,-17.0979"/>
</g>
<!-- \\TaskStatistics -->
<g id="node27" class="node"><title>\\TaskStatistics</title>
<polygon fill="none" stroke="black" points="885,-403.098 775,-403.098 775,-367.098 885,-367.098 885,-403.098"/>
<text text-anchor="middle" x="830" y="-382.198" font-family="Courier,monospace" font-size="11.00">TaskStatistics</text>
</g>
<!-- \\TaskStatistics&#45;&gt;\\AppModel -->
<g id="edge51" class="edge"><title>\\TaskStatistics&#45;&gt;\\AppModel</title>
<path fill="none" stroke="black" d="M826.992,-367.029C816.069,-307.734 772.605,-118.193 652,-36.0979 579.286,13.3986 542.294,-6.27658 455,-17.0979"/>
<path fill="none" stroke="black" d="M455,-17.0979C367.706,-27.9193 325.037,20.852 258,-36.0979 163.884,-116.052 109.52,-520.889 96.2233,-631.907"/>
<polygon fill="none" stroke="black" points="92.7287,-631.655 95.0316,-641.997 99.6804,-632.476 92.7287,-631.655"/>
</g>
<!-- \\TaskClient -->
<g id="node28" class="node"><title>\\TaskClient</title>
<polygon fill="none" stroke="black" points="872,-1375.1 788,-1375.1 788,-1339.1 872,-1339.1 872,-1375.1"/>
<text text-anchor="middle" x="830" y="-1354.2" font-family="Courier,monospace" font-size="11.00">TaskClient</text>
</g>
<!-- \\TaskModel -->
<g id="node30" class="node"><title>\\TaskModel</title>
<polygon fill="none" stroke="black" points="493,-1321.1 417,-1321.1 417,-1285.1 493,-1285.1 493,-1321.1"/>
<text text-anchor="middle" x="455" y="-1300.2" font-family="Courier,monospace" font-size="11.00">TaskModel</text>
</g>
<!-- \\TaskClient&#45;&gt;\\TaskModel -->
<g id="edge53" class="edge"><title>\\TaskClient&#45;&gt;\\TaskModel</title>
<path fill="none" stroke="black" d="M787.712,-1351.01C717.645,-1340.92 577.87,-1320.79 503.756,-1310.12"/>
<polygon fill="none" stroke="black" points="504.145,-1306.64 493.748,-1308.68 503.147,-1313.57 504.145,-1306.64"/>
</g>
<!-- \\TaskServer -->
<g id="node29" class="node"><title>\\TaskServer</title>
<polygon fill="none" stroke="black" points="872,-1321.1 788,-1321.1 788,-1285.1 872,-1285.1 872,-1321.1"/>
<text text-anchor="middle" x="830" y="-1300.2" font-family="Courier,monospace" font-size="11.00">TaskServer</text>
</g>
<!-- \\TaskServer&#45;&gt;\\TaskModel -->
<g id="edge55" class="edge"><title>\\TaskServer&#45;&gt;\\TaskModel</title>
<path fill="none" stroke="black" d="M787.712,-1303.1C717.645,-1303.1 577.87,-1303.1 503.756,-1303.1"/>
<polygon fill="none" stroke="black" points="503.748,-1299.6 493.748,-1303.1 503.748,-1306.6 503.748,-1299.6"/>
</g>
<!-- \\TaskModel&#45;&gt;\\AppModel -->
<g id="edge57" class="edge"><title>\\TaskModel&#45;&gt;\\AppModel</title>
<path fill="none" stroke="black" d="M416.305,-1310.52C372.531,-1316.53 301.671,-1318.72 258,-1281.1 164.964,-1200.94 109.913,-799.333 96.3246,-688.479"/>
<polygon fill="none" stroke="black" points="99.7804,-687.902 95.1052,-678.395 92.831,-688.742 99.7804,-687.902"/>
</g>
</g>
</svg>
