<?xml version="1.0" encoding="UTF-8" standalone="no"?>
<!DOCTYPE svg PUBLIC "-//W3C//DTD SVG 1.1//EN"
 "http://www.w3.org/Graphics/SVG/1.1/DTD/svg11.dtd">
<!-- Generated by graphviz version 2.26.3 (20100126.1600)
 -->
<!-- Title: G Pages: 1 -->
<svg width="960pt" height="2024pt"
 viewBox="0.00 0.00 960.00 2024.00" xmlns="http://www.w3.org/2000/svg" xmlns:xlink="http://www.w3.org/1999/xlink">
<g id="graph1" class="graph" transform="scale(1 1) rotate(0) translate(4 2020)">
<title>G</title>
<polygon fill="white" stroke="white" points="-4,5 -4,-2020 957,-2020 957,5 -4,5"/>
<g id="graph2" class="cluster"><title>cluster_Global</title>
<polyline fill="none" stroke="gray" points="403,-530 932,-530 "/>
<path fill="none" stroke="gray" d="M932,-530C938,-530 944,-536 944,-542"/>
<polyline fill="none" stroke="gray" points="944,-542 944,-1996 "/>
<path fill="none" stroke="gray" d="M944,-1996C944,-2002 938,-2008 932,-2008"/>
<polyline fill="none" stroke="gray" points="932,-2008 403,-2008 "/>
<path fill="none" stroke="gray" d="M403,-2008C397,-2008 391,-2002 391,-1996"/>
<polyline fill="none" stroke="gray" points="391,-1996 391,-542 "/>
<path fill="none" stroke="gray" d="M391,-542C391,-536 397,-530 403,-530"/>
<text text-anchor="middle" x="667.5" y="-1994.1" font-family="Times Roman,serif" font-size="11.00" fill="gray">Global</text>
</g>
<!-- \\TaskController -->
<g id="node2" class="node"><title>\\TaskController</title>
<polygon fill="none" stroke="black" points="885,-1492 775,-1492 775,-1456 885,-1456 885,-1492"/>
<text text-anchor="middle" x="830" y="-1471.1" font-family="Courier,monospace" font-size="11.00">TaskController</text>
</g>
<!-- \\AppController -->
<g id="node33" class="node"><title>\\AppController</title>
<ellipse fill="none" stroke="black" cx="455" cy="-504" rx="82.0244" ry="18.3848"/>
<text text-anchor="middle" x="455" y="-500.4" font-family="Times Roman,serif" font-size="14.00" fill="gray">\AppController</text>
</g>
<!-- \\TaskController&#45;&gt;\\AppController -->
<g id="edge3" class="edge"><title>\\TaskController&#45;&gt;\\AppController</title>
<path fill="none" stroke="black" d="M774.34,-1472.48C755.646,-1469.04 736.413,-1461.75 724,-1447 591.795,-1289.95 794.733,-673.552 652,-526 620.722,-493.666 570.02,-488.617 527.887,-491.419"/>
<polygon fill="none" stroke="black" points="527.335,-487.953 517.656,-492.261 527.909,-494.929 527.335,-487.953"/>
</g>
<!-- \\TaskShell -->
<g id="node3" class="node"><title>\\TaskShell</title>
<polygon fill="none" stroke="black" points="868,-1438 792,-1438 792,-1402 868,-1402 868,-1438"/>
<text text-anchor="middle" x="830" y="-1417.1" font-family="Courier,monospace" font-size="11.00">TaskShell</text>
</g>
<!-- \\AdvancedShell -->
<g id="node35" class="node"><title>\\AdvancedShell</title>
<ellipse fill="none" stroke="black" cx="455" cy="-450" rx="85.7684" ry="18.3848"/>
<text text-anchor="middle" x="455" y="-446.4" font-family="Times Roman,serif" font-size="14.00" fill="gray">\AdvancedShell</text>
</g>
<!-- \\TaskShell&#45;&gt;\\AdvancedShell -->
<g id="edge5" class="edge"><title>\\TaskShell&#45;&gt;\\AdvancedShell</title>
<path fill="none" stroke="black" d="M791.371,-1420.67C768.245,-1418.85 740.269,-1412.32 724,-1393 592.475,-1236.82 792.15,-625.489 652,-477 622.948,-446.219 576.535,-438.729 536.056,-439.281"/>
<polygon fill="none" stroke="black" points="535.797,-435.787 525.906,-439.585 536.007,-442.784 535.797,-435.787"/>
</g>
<!-- \\TaskServerOldTask -->
<g id="node4" class="node"><title>\\TaskServerOldTask</title>
<polygon fill="none" stroke="black" points="895,-1816 765,-1816 765,-1780 895,-1780 895,-1816"/>
<text text-anchor="middle" x="830" y="-1795.1" font-family="Courier,monospace" font-size="11.00">TaskServerOldTask</text>
</g>
<!-- \\TaskServerTask -->
<g id="node5" class="node"><title>\\TaskServerTask</title>
<polygon fill="none" stroke="black" points="510,-1816 400,-1816 400,-1780 510,-1780 510,-1816"/>
<text text-anchor="middle" x="455" y="-1795.1" font-family="Courier,monospace" font-size="11.00">TaskServerTask</text>
</g>
<!-- \\TaskServerOldTask&#45;&gt;\\TaskServerTask -->
<g id="edge7" class="edge"><title>\\TaskServerOldTask&#45;&gt;\\TaskServerTask</title>
<path fill="none" stroke="black" d="M764.251,-1798C695.82,-1798 589.27,-1798 520.815,-1798"/>
<polygon fill="none" stroke="black" points="520.584,-1794.5 510.584,-1798 520.584,-1801.5 520.584,-1794.5"/>
</g>
<!-- \\AdvancedTask -->
<g id="node38" class="node"><title>\\AdvancedTask</title>
<ellipse fill="none" stroke="black" cx="93" cy="-1798" rx="82.939" ry="18.3848"/>
<text text-anchor="middle" x="93" y="-1794.4" font-family="Times Roman,serif" font-size="14.00" fill="gray">\AdvancedTask</text>
</g>
<!-- \\TaskServerTask&#45;&gt;\\AdvancedTask -->
<g id="edge9" class="edge"><title>\\TaskServerTask&#45;&gt;\\AdvancedTask</title>
<path fill="none" stroke="black" d="M399.231,-1798C342.732,-1798 254.302,-1798 186.965,-1798"/>
<polygon fill="none" stroke="black" points="186.769,-1794.5 176.769,-1798 186.769,-1801.5 186.769,-1794.5"/>
</g>
<!-- \\TaskProcess -->
<g id="node6" class="node"><title>\\TaskProcess</title>
<polygon fill="none" stroke="black" points="875,-1384 785,-1384 785,-1348 875,-1348 875,-1384"/>
<text text-anchor="middle" x="830" y="-1363.1" font-family="Courier,monospace" font-size="11.00">TaskProcess</text>
</g>
<!-- \\Symfony\\Component\\Process\\Process -->
<g id="node40" class="node"><title>\\Symfony\\Component\\Process\\Process</title>
<ellipse fill="none" stroke="black" cx="455" cy="-396" rx="196.075" ry="18.3848"/>
<text text-anchor="middle" x="455" y="-392.4" font-family="Times Roman,serif" font-size="14.00" fill="gray">\Symfony\Component\Process\Process</text>
</g>
<!-- \\TaskProcess&#45;&gt;\\Symfony\\Component\\Process\\Process -->
<g id="edge11" class="edge"><title>\\TaskProcess&#45;&gt;\\Symfony\\Component\\Process\\Process</title>
<path fill="none" stroke="black" d="M784.466,-1365.99C762.888,-1363.45 738.679,-1356.43 724,-1339 592.475,-1182.82 792.15,-571.489 652,-423 647.413,-418.14 642.393,-413.86 637.032,-410.102"/>
<polygon fill="none" stroke="black" points="638.664,-406.993 628.339,-404.615 634.927,-412.912 638.664,-406.993"/>
</g>
<!-- \\TaskType -->
<g id="node7" class="node"><title>\\TaskType</title>
<polygon fill="none" stroke="black" points="872,-1762 788,-1762 788,-1726 872,-1726 872,-1762"/>
<text text-anchor="start" x="796" y="-1749.43" font-family="Courier,monospace" font-size="11.00">«abstract»</text>
<text text-anchor="start" x="802.5" y="-1736.23" font-family="Courier,monospace" font-size="11.00">TaskType</text>
</g>
<!-- \\TaskRunner -->
<g id="node8" class="node"><title>\\TaskRunner</title>
<polygon fill="none" stroke="black" points="872,-1330 788,-1330 788,-1294 872,-1294 872,-1330"/>
<text text-anchor="middle" x="830" y="-1309.1" font-family="Courier,monospace" font-size="11.00">TaskRunner</text>
</g>
<!-- \\Object -->
<g id="node42" class="node"><title>\\Object</title>
<ellipse fill="none" stroke="black" cx="455" cy="-342" rx="45.9619" ry="18.3848"/>
<text text-anchor="middle" x="455" y="-338.4" font-family="Times Roman,serif" font-size="14.00" fill="gray">\Object</text>
</g>
<!-- \\TaskRunner&#45;&gt;\\Object -->
<g id="edge13" class="edge"><title>\\TaskRunner&#45;&gt;\\Object</title>
<path fill="none" stroke="black" d="M787.948,-1312.37C765.538,-1310.18 739.474,-1303.38 724,-1285 592.475,-1128.82 792.15,-517.489 652,-369 615.619,-330.454 552.013,-328.433 506.927,-332.989"/>
<polygon fill="none" stroke="black" points="506.284,-329.54 496.75,-334.16 507.084,-336.494 506.284,-329.54"/>
</g>
<!-- \\TaskControllerTest -->
<g id="node9" class="node"><title>\\TaskControllerTest</title>
<polygon fill="none" stroke="black" points="899,-1276 761,-1276 761,-1240 899,-1240 899,-1276"/>
<text text-anchor="middle" x="830" y="-1255.1" font-family="Courier,monospace" font-size="11.00">TaskControllerTest</text>
</g>
<!-- \\ControllerTestCase -->
<g id="node44" class="node"><title>\\ControllerTestCase</title>
<ellipse fill="none" stroke="black" cx="455" cy="-288" rx="106.773" ry="18.3848"/>
<text text-anchor="middle" x="455" y="-284.4" font-family="Times Roman,serif" font-size="14.00" fill="gray">\ControllerTestCase</text>
</g>
<!-- \\TaskControllerTest&#45;&gt;\\ControllerTestCase -->
<g id="edge15" class="edge"><title>\\TaskControllerTest&#45;&gt;\\ControllerTestCase</title>
<path fill="none" stroke="black" d="M760.816,-1253.26C746.762,-1249.08 733.419,-1242.18 724,-1231 592.475,-1074.82 792.15,-463.489 652,-315 626.497,-287.979 587.616,-278.907 551.114,-277.467"/>
<polygon fill="none" stroke="black" points="550.966,-273.963 540.895,-277.254 550.82,-280.962 550.966,-273.963"/>
</g>
<!-- \\TaskShellTest -->
<g id="node10" class="node"><title>\\TaskShellTest</title>
<polygon fill="none" stroke="black" points="882,-1222 778,-1222 778,-1186 882,-1186 882,-1222"/>
<text text-anchor="middle" x="830" y="-1201.1" font-family="Courier,monospace" font-size="11.00">TaskShellTest</text>
</g>
<!-- \\CakeTestCase -->
<g id="node46" class="node"><title>\\CakeTestCase</title>
<ellipse fill="none" stroke="black" cx="455" cy="-234" rx="82.0244" ry="18.3848"/>
<text text-anchor="middle" x="455" y="-230.4" font-family="Times Roman,serif" font-size="14.00" fill="gray">\CakeTestCase</text>
</g>
<!-- \\TaskShellTest&#45;&gt;\\CakeTestCase -->
<g id="edge17" class="edge"><title>\\TaskShellTest&#45;&gt;\\CakeTestCase</title>
<path fill="none" stroke="black" d="M777.926,-1203.09C758.141,-1199.94 737.211,-1192.69 724,-1177 592.475,-1020.82 792.15,-409.489 652,-261 622.12,-229.342 573.876,-222.321 532.611,-223.348"/>
<polygon fill="none" stroke="black" points="532.409,-219.853 522.56,-223.756 532.694,-226.847 532.409,-219.853"/>
</g>
<!-- \\TaskServerTaskTest -->
<g id="node11" class="node"><title>\\TaskServerTaskTest</title>
<polygon fill="none" stroke="black" points="899,-1168 761,-1168 761,-1132 899,-1132 899,-1168"/>
<text text-anchor="middle" x="830" y="-1147.1" font-family="Courier,monospace" font-size="11.00">TaskServerTaskTest</text>
</g>
<!-- \\TaskServerTaskTest&#45;&gt;\\CakeTestCase -->
<g id="edge19" class="edge"><title>\\TaskServerTaskTest&#45;&gt;\\CakeTestCase</title>
<path fill="none" stroke="black" d="M760.856,-1145.23C746.8,-1141.05 733.446,-1134.16 724,-1123 599.82,-976.272 784.281,-400.467 652,-261 622.152,-229.531 574.151,-222.447 533.005,-223.393"/>
<polygon fill="none" stroke="black" points="532.837,-219.897 522.98,-223.782 533.109,-226.892 532.837,-219.897"/>
</g>
<!-- \\TaskServerTaskTestEventModel1 -->
<g id="node12" class="node"><title>\\TaskServerTaskTestEventModel1</title>
<polygon fill="none" stroke="black" points="936,-736 724,-736 724,-700 936,-700 936,-736"/>
<text text-anchor="middle" x="830" y="-715.1" font-family="Courier,monospace" font-size="11.00">TaskServerTaskTestEventModel1</text>
</g>
<!-- \\CakeEventListener -->
<g id="node49" class="node"><title>\\CakeEventListener</title>
<ellipse fill="none" stroke="black" cx="455" cy="-180" rx="106.98" ry="18.3848"/>
<text text-anchor="middle" x="455" y="-176.4" font-family="Times Roman,serif" font-size="14.00" fill="gray">\CakeEventListener</text>
</g>
<!-- \\TaskServerTaskTestEventModel1&#45;&gt;\\CakeEventListener -->
<g id="edge21" class="edge"><title>\\TaskServerTaskTestEventModel1&#45;&gt;\\CakeEventListener</title>
<path fill="none" stroke="black" stroke-dasharray="1,5" d="M733.688,-699.67C730.185,-697.119 726.927,-694.242 724,-691 578.238,-529.599 806.66,-359.896 652,-207 626.863,-182.15 590.319,-172.859 555.514,-170.656"/>
<polygon fill="none" stroke="black" points="555.415,-167.148 545.27,-170.203 555.105,-174.142 555.415,-167.148"/>
</g>
<!-- \\TaskProcessTest -->
<g id="node13" class="node"><title>\\TaskProcessTest</title>
<polygon fill="none" stroke="black" points="889,-1114 771,-1114 771,-1078 889,-1078 889,-1114"/>
<text text-anchor="middle" x="830" y="-1093.1" font-family="Courier,monospace" font-size="11.00">TaskProcessTest</text>
</g>
<!-- \\TaskProcessTest&#45;&gt;\\CakeTestCase -->
<g id="edge23" class="edge"><title>\\TaskProcessTest&#45;&gt;\\CakeTestCase</title>
<path fill="none" stroke="black" d="M770.832,-1093.7C753.305,-1090 735.693,-1082.74 724,-1069 607.163,-931.722 776.416,-391.449 652,-261 622.065,-229.614 574.062,-222.532 532.937,-223.458"/>
<polygon fill="none" stroke="black" points="532.777,-219.961 522.918,-223.841 533.045,-226.956 532.777,-219.961"/>
</g>
<!-- \\TaskTypeTest -->
<g id="node14" class="node"><title>\\TaskTypeTest</title>
<polygon fill="none" stroke="black" points="879,-1060 781,-1060 781,-1024 879,-1024 879,-1060"/>
<text text-anchor="middle" x="830" y="-1039.1" font-family="Courier,monospace" font-size="11.00">TaskTypeTest</text>
</g>
<!-- \\TaskTypeTest&#45;&gt;\\CakeTestCase -->
<g id="edge25" class="edge"><title>\\TaskTypeTest&#45;&gt;\\CakeTestCase</title>
<path fill="none" stroke="black" d="M780.794,-1041.39C760.249,-1038.47 737.96,-1031.3 724,-1015 614.503,-887.167 768.554,-382.434 652,-261 622.14,-229.89 574.516,-222.711 533.573,-223.517"/>
<polygon fill="none" stroke="black" points="533.191,-220.028 523.323,-223.884 533.442,-227.024 533.191,-220.028"/>
</g>
<!-- \\TaskRunnerTest -->
<g id="node15" class="node"><title>\\TaskRunnerTest</title>
<polygon fill="none" stroke="black" points="885,-1006 775,-1006 775,-970 885,-970 885,-1006"/>
<text text-anchor="middle" x="830" y="-985.1" font-family="Courier,monospace" font-size="11.00">TaskRunnerTest</text>
</g>
<!-- \\TaskRunnerTest&#45;&gt;\\CakeTestCase -->
<g id="edge27" class="edge"><title>\\TaskRunnerTest&#45;&gt;\\CakeTestCase</title>
<path fill="none" stroke="black" d="M774.26,-986.262C755.673,-982.787 736.531,-975.521 724,-961 621.839,-842.608 760.695,-373.423 652,-261 622.027,-229.999 574.4,-222.823 533.484,-223.603"/>
<polygon fill="none" stroke="black" points="533.112,-220.113 523.241,-223.963 533.358,-227.109 533.112,-220.113"/>
</g>
<!-- \\AllTaskTest -->
<g id="node16" class="node"><title>\\AllTaskTest</title>
<polygon fill="none" stroke="black" points="875,-682 785,-682 785,-646 875,-646 875,-682"/>
<text text-anchor="middle" x="830" y="-661.1" font-family="Courier,monospace" font-size="11.00">AllTaskTest</text>
</g>
<!-- \\PHPUnit_Framework_TestSuite -->
<g id="node54" class="node"><title>\\PHPUnit_Framework_TestSuite</title>
<ellipse fill="none" stroke="black" cx="455" cy="-126" rx="166.877" ry="18.3848"/>
<text text-anchor="middle" x="455" y="-122.4" font-family="Times Roman,serif" font-size="14.00" fill="gray">\PHPUnit_Framework_TestSuite</text>
</g>
<!-- \\AllTaskTest&#45;&gt;\\PHPUnit_Framework_TestSuite -->
<g id="edge29" class="edge"><title>\\AllTaskTest&#45;&gt;\\PHPUnit_Framework_TestSuite</title>
<path fill="none" stroke="black" d="M784.433,-663.488C763.116,-660.785 739.146,-653.771 724,-637 578.238,-475.599 806.66,-305.896 652,-153 644.465,-145.551 635.906,-139.501 626.675,-134.62"/>
<polygon fill="none" stroke="black" points="628.163,-131.451 617.632,-130.291 625.141,-137.765 628.163,-131.451"/>
</g>
<!-- \\TaskClientTest -->
<g id="node17" class="node"><title>\\TaskClientTest</title>
<polygon fill="none" stroke="black" points="885,-952 775,-952 775,-916 885,-916 885,-952"/>
<text text-anchor="middle" x="830" y="-931.1" font-family="Courier,monospace" font-size="11.00">TaskClientTest</text>
</g>
<!-- \\TaskClientTest&#45;&gt;\\CakeTestCase -->
<g id="edge31" class="edge"><title>\\TaskClientTest&#45;&gt;\\CakeTestCase</title>
<path fill="none" stroke="black" d="M774.328,-932.203C755.748,-928.722 736.592,-921.468 724,-907 534.34,-689.088 853.684,-467.834 652,-261 622.006,-230.24 574.617,-223.007 533.834,-223.695"/>
<polygon fill="none" stroke="black" points="533.502,-220.204 523.622,-224.031 533.732,-227.2 533.502,-220.204"/>
</g>
<!-- \\TaskServerTest -->
<g id="node18" class="node"><title>\\TaskServerTest</title>
<polygon fill="none" stroke="black" points="885,-898 775,-898 775,-862 885,-862 885,-898"/>
<text text-anchor="middle" x="830" y="-877.1" font-family="Courier,monospace" font-size="11.00">TaskServerTest</text>
</g>
<!-- \\TaskServerTest&#45;&gt;\\CakeTestCase -->
<g id="edge33" class="edge"><title>\\TaskServerTest&#45;&gt;\\CakeTestCase</title>
<path fill="none" stroke="black" d="M774.407,-878.134C755.835,-874.646 736.665,-867.405 724,-853 548.99,-653.945 837.991,-449.836 652,-261 621.964,-230.505 574.809,-223.216 534.165,-223.808"/>
<polygon fill="none" stroke="black" points="533.875,-220.315 523.986,-224.118 534.088,-227.311 533.875,-220.315"/>
</g>
<!-- \\TaskProfilerTest -->
<g id="node19" class="node"><title>\\TaskProfilerTest</title>
<polygon fill="none" stroke="black" points="892,-844 768,-844 768,-808 892,-808 892,-844"/>
<text text-anchor="middle" x="830" y="-823.1" font-family="Courier,monospace" font-size="11.00">TaskProfilerTest</text>
</g>
<!-- \\TaskProfilerTest&#45;&gt;\\CakeTestCase -->
<g id="edge35" class="edge"><title>\\TaskProfilerTest&#45;&gt;\\CakeTestCase</title>
<path fill="none" stroke="black" d="M767.319,-822.507C751.107,-818.576 735.11,-811.484 724,-799 563.624,-618.784 822.314,-431.855 652,-261 621.894,-230.798 574.971,-223.457 534.472,-223.946"/>
<polygon fill="none" stroke="black" points="534.227,-220.451 524.328,-224.23 534.423,-227.449 534.227,-220.451"/>
</g>
<!-- \\TaskHelperTest -->
<g id="node20" class="node"><title>\\TaskHelperTest</title>
<polygon fill="none" stroke="black" points="885,-790 775,-790 775,-754 885,-754 885,-790"/>
<text text-anchor="middle" x="830" y="-769.1" font-family="Courier,monospace" font-size="11.00">TaskHelperTest</text>
</g>
<!-- \\TaskHelperTest&#45;&gt;\\CakeTestCase -->
<g id="edge37" class="edge"><title>\\TaskHelperTest&#45;&gt;\\CakeTestCase</title>
<path fill="none" stroke="black" d="M774.342,-769.894C755.876,-766.368 736.792,-759.164 724,-745 578.238,-583.599 806.66,-413.896 652,-261 621.787,-231.131 575.093,-223.741 534.748,-224.119"/>
<polygon fill="none" stroke="black" points="534.551,-220.623 524.642,-224.374 534.727,-227.621 534.551,-220.623"/>
</g>
<!-- \\TaskStatisticsFixture -->
<g id="node21" class="node"><title>\\TaskStatisticsFixture</title>
<polygon fill="none" stroke="black" points="909,-1978 751,-1978 751,-1942 909,-1942 909,-1978"/>
<text text-anchor="middle" x="830" y="-1957.1" font-family="Courier,monospace" font-size="11.00">TaskStatisticsFixture</text>
</g>
<!-- \\CakeTestFixture -->
<g id="node60" class="node"><title>\\CakeTestFixture</title>
<ellipse fill="none" stroke="black" cx="93" cy="-1869" rx="92.1303" ry="18.3848"/>
<text text-anchor="middle" x="93" y="-1865.4" font-family="Times Roman,serif" font-size="14.00" fill="gray">\CakeTestFixture</text>
</g>
<!-- \\TaskStatisticsFixture&#45;&gt;\\CakeTestFixture -->
<g id="edge39" class="edge"><title>\\TaskStatisticsFixture&#45;&gt;\\CakeTestFixture</title>
<path fill="none" stroke="black" d="M750.932,-1955.03C675,-1950.08 557.086,-1941.95 455,-1933"/>
</g>
<!-- \\TaskProfilerFixture -->
<g id="node22" class="node"><title>\\TaskProfilerFixture</title>
<polygon fill="none" stroke="black" points="902,-1870 758,-1870 758,-1834 902,-1834 902,-1870"/>
<text text-anchor="middle" x="830" y="-1849.1" font-family="Courier,monospace" font-size="11.00">TaskProfilerFixture</text>
</g>
<!-- \\TaskFixture -->
<g id="node23" class="node"><title>\\TaskFixture</title>
<polygon fill="none" stroke="black" points="500,-1879 410,-1879 410,-1843 500,-1843 500,-1879"/>
<text text-anchor="middle" x="455" y="-1858.1" font-family="Courier,monospace" font-size="11.00">TaskFixture</text>
</g>
<!-- \\TaskProfilerFixture&#45;&gt;\\TaskFixture -->
<g id="edge41" class="edge"><title>\\TaskProfilerFixture&#45;&gt;\\TaskFixture</title>
<path fill="none" stroke="black" d="M757.252,-1853.75C685.176,-1855.48 576.342,-1858.09 510.824,-1859.66"/>
<polygon fill="none" stroke="black" points="510.606,-1856.16 500.693,-1859.9 510.774,-1863.16 510.606,-1856.16"/>
</g>
<!-- \\TaskFixture&#45;&gt;\\CakeTestFixture -->
<g id="edge43" class="edge"><title>\\TaskFixture&#45;&gt;\\CakeTestFixture</title>
<path fill="none" stroke="black" d="M409.152,-1862.01C355.659,-1863.2 265.573,-1865.19 195.218,-1866.74"/>
<polygon fill="none" stroke="black" points="194.908,-1863.25 184.988,-1866.97 195.063,-1870.25 194.908,-1863.25"/>
</g>
<!-- \\DependentTaskFixture -->
<g id="node24" class="node"><title>\\DependentTaskFixture</title>
<polygon fill="none" stroke="black" points="906,-1924 754,-1924 754,-1888 906,-1888 906,-1924"/>
<text text-anchor="middle" x="830" y="-1903.1" font-family="Courier,monospace" font-size="11.00">DependentTaskFixture</text>
</g>
<!-- \\DependentTaskFixture&#45;&gt;\\CakeTestFixture -->
<g id="edge45" class="edge"><title>\\DependentTaskFixture&#45;&gt;\\CakeTestFixture</title>
<path fill="none" stroke="black" d="M753.813,-1918.6C678.007,-1929.46 558.387,-1942.07 455,-1933"/>
<path fill="none" stroke="black" d="M455,-1933C352.229,-1923.99 234.911,-1900.84 162.394,-1885"/>
<polygon fill="none" stroke="black" points="162.983,-1881.55 152.465,-1882.82 161.479,-1888.38 162.983,-1881.55"/>
</g>
<!-- \\TaskSchema -->
<g id="node25" class="node"><title>\\TaskSchema</title>
<polygon fill="none" stroke="black" points="872,-628 788,-628 788,-592 872,-592 872,-628"/>
<text text-anchor="middle" x="830" y="-607.1" font-family="Courier,monospace" font-size="11.00">TaskSchema</text>
</g>
<!-- \\CakeSchema -->
<g id="node65" class="node"><title>\\CakeSchema</title>
<ellipse fill="none" stroke="black" cx="455" cy="-72" rx="77.0746" ry="18.3848"/>
<text text-anchor="middle" x="455" y="-68.4" font-family="Times Roman,serif" font-size="14.00" fill="gray">\CakeSchema</text>
</g>
<!-- \\TaskSchema&#45;&gt;\\CakeSchema -->
<g id="edge47" class="edge"><title>\\TaskSchema&#45;&gt;\\CakeSchema</title>
<path fill="none" stroke="black" d="M787.9,-609.893C765.761,-607.522 739.974,-600.688 724,-583 578.238,-421.599 806.66,-251.896 652,-99 620.815,-68.1711 572.075,-61.2888 530.878,-62.1792"/>
<polygon fill="none" stroke="black" points="530.72,-58.6826 520.856,-62.5489 530.978,-65.6778 530.72,-58.6826"/>
</g>
<!-- \\TaskModel -->
<g id="node26" class="node"><title>\\TaskModel</title>
<polygon fill="none" stroke="black" points="493,-1654 417,-1654 417,-1618 493,-1618 493,-1654"/>
<text text-anchor="middle" x="455" y="-1633.1" font-family="Courier,monospace" font-size="11.00">TaskModel</text>
</g>
<!-- \\AppModel -->
<g id="node67" class="node"><title>\\AppModel</title>
<ellipse fill="none" stroke="black" cx="93" cy="-1609" rx="62.2254" ry="18.3848"/>
<text text-anchor="middle" x="93" y="-1605.4" font-family="Times Roman,serif" font-size="14.00" fill="gray">\AppModel</text>
</g>
<!-- \\TaskModel&#45;&gt;\\AppModel -->
<g id="edge49" class="edge"><title>\\TaskModel&#45;&gt;\\AppModel</title>
<path fill="none" stroke="black" d="M416.26,-1633.11C356.073,-1628.62 239.194,-1619.9 163.698,-1614.27"/>
<polygon fill="none" stroke="black" points="163.562,-1610.75 153.33,-1613.5 163.042,-1617.73 163.562,-1610.75"/>
</g>
<!-- \\TaskStatistics -->
<g id="node27" class="node"><title>\\TaskStatistics</title>
<polygon fill="none" stroke="black" points="885,-1546 775,-1546 775,-1510 885,-1510 885,-1546"/>
<text text-anchor="middle" x="830" y="-1525.1" font-family="Courier,monospace" font-size="11.00">TaskStatistics</text>
</g>
<!-- \\TaskStatistics&#45;&gt;\\AppModel -->
<g id="edge51" class="edge"><title>\\TaskStatistics&#45;&gt;\\AppModel</title>
<path fill="none" stroke="black" d="M774.356,-1538.5C701.364,-1551.69 569.144,-1573.63 455,-1582"/>
<path fill="none" stroke="black" d="M455,-1582C353.55,-1589.44 236.122,-1598.23 163.194,-1603.71"/>
<polygon fill="none" stroke="black" points="162.915,-1600.22 153.205,-1604.46 163.44,-1607.2 162.915,-1600.22"/>
</g>
<!-- \\TaskProfiler -->
<g id="node28" class="node"><title>\\TaskProfiler</title>
<polygon fill="none" stroke="black" points="879,-1600 781,-1600 781,-1564 879,-1564 879,-1600"/>
<text text-anchor="middle" x="830" y="-1579.1" font-family="Courier,monospace" font-size="11.00">TaskProfiler</text>
</g>
<!-- \\TaskProfiler&#45;&gt;\\AppModel -->
<g id="edge53" class="edge"><title>\\TaskProfiler&#45;&gt;\\AppModel</title>
<path fill="none" stroke="black" d="M780.776,-1579.71C709.022,-1576.89 571.549,-1573.46 455,-1582"/>
</g>
<!-- \\TaskServer -->
<g id="node29" class="node"><title>\\TaskServer</title>
<polygon fill="none" stroke="black" points="872,-1654 788,-1654 788,-1618 872,-1618 872,-1654"/>
<text text-anchor="middle" x="830" y="-1633.1" font-family="Courier,monospace" font-size="11.00">TaskServer</text>
</g>
<!-- \\TaskServer&#45;&gt;\\TaskModel -->
<g id="edge55" class="edge"><title>\\TaskServer&#45;&gt;\\TaskModel</title>
<path fill="none" stroke="black" d="M787.712,-1636C717.645,-1636 577.87,-1636 503.756,-1636"/>
<polygon fill="none" stroke="black" points="503.748,-1632.5 493.748,-1636 503.748,-1639.5 503.748,-1632.5"/>
</g>
<!-- \\TaskClient -->
<g id="node30" class="node"><title>\\TaskClient</title>
<polygon fill="none" stroke="black" points="872,-1708 788,-1708 788,-1672 872,-1672 872,-1708"/>
<text text-anchor="middle" x="830" y="-1687.1" font-family="Courier,monospace" font-size="11.00">TaskClient</text>
</g>
<!-- \\TaskClient&#45;&gt;\\TaskModel -->
<g id="edge57" class="edge"><title>\\TaskClient&#45;&gt;\\TaskModel</title>
<path fill="none" stroke="black" d="M787.712,-1683.91C717.645,-1673.82 577.87,-1653.69 503.756,-1643.02"/>
<polygon fill="none" stroke="black" points="504.145,-1639.54 493.748,-1641.58 503.147,-1646.47 504.145,-1639.54"/>
</g>
<!-- \\TaskHelper -->
<g id="node31" class="node"><title>\\TaskHelper</title>
<polygon fill="none" stroke="black" points="872,-574 788,-574 788,-538 872,-538 872,-574"/>
<text text-anchor="middle" x="830" y="-553.1" font-family="Courier,monospace" font-size="11.00">TaskHelper</text>
</g>
<!-- \\AppHelper -->
<g id="node73" class="node"><title>\\AppHelper</title>
<ellipse fill="none" stroke="black" cx="455" cy="-18" rx="65.0538" ry="18.3848"/>
<text text-anchor="middle" x="455" y="-14.4" font-family="Times Roman,serif" font-size="14.00" fill="gray">\AppHelper</text>
</g>
<!-- \\TaskHelper&#45;&gt;\\AppHelper -->
<g id="edge59" class="edge"><title>\\TaskHelper&#45;&gt;\\AppHelper</title>
<path fill="none" stroke="black" d="M826.285,-537.727C808.972,-454.42 733.603,-111.79 652,-45 616.956,-16.317 566.097,-9.94044 524.834,-10.541"/>
<polygon fill="none" stroke="black" points="524.734,-7.0423 514.837,-10.8232 524.932,-14.0395 524.734,-7.0423"/>
</g>
</g>
</svg>
