<?xml version="1.0" encoding="UTF-8" standalone="no"?>
<!DOCTYPE svg PUBLIC "-//W3C//DTD SVG 1.1//EN"
 "http://www.w3.org/Graphics/SVG/1.1/DTD/svg11.dtd">
<!-- Generated by graphviz version 2.26.3 (20100126.1600)
 -->
<!-- Title: G Pages: 1 -->
<svg width="960pt" height="2036pt"
 viewBox="0.00 0.00 960.00 2035.93" xmlns="http://www.w3.org/2000/svg" xmlns:xlink="http://www.w3.org/1999/xlink">
<g id="graph1" class="graph" transform="scale(1 1) rotate(0) translate(4 2031.93)">
<title>G</title>
<polygon fill="white" stroke="white" points="-4,5 -4,-2031.93 957,-2031.93 957,5 -4,5"/>
<g id="graph2" class="cluster"><title>cluster_Global</title>
<polyline fill="none" stroke="gray" points="413,-352 932,-352 "/>
<path fill="none" stroke="gray" d="M932,-352C938,-352 944,-358 944,-364"/>
<polyline fill="none" stroke="gray" points="944,-364 944,-1764 "/>
<path fill="none" stroke="gray" d="M944,-1764C944,-1770 938,-1776 932,-1776"/>
<polyline fill="none" stroke="gray" points="932,-1776 413,-1776 "/>
<path fill="none" stroke="gray" d="M413,-1776C407,-1776 401,-1770 401,-1764"/>
<polyline fill="none" stroke="gray" points="401,-1764 401,-364 "/>
<path fill="none" stroke="gray" d="M401,-364C401,-358 407,-352 413,-352"/>
<text text-anchor="middle" x="672.5" y="-1762.1" font-family="Times Roman,serif" font-size="11.00" fill="gray">Global</text>
</g>
<!-- \\TaskType -->
<g id="node2" class="node"><title>\\TaskType</title>
<polygon fill="none" stroke="black" points="872,-1746 788,-1746 788,-1710 872,-1710 872,-1746"/>
<text text-anchor="start" x="796" y="-1733.43" font-family="Courier,monospace" font-size="11.00">«abstract»</text>
<text text-anchor="start" x="802.5" y="-1720.23" font-family="Courier,monospace" font-size="11.00">TaskType</text>
</g>
<!-- \\TaskProcess -->
<g id="node3" class="node"><title>\\TaskProcess</title>
<polygon fill="none" stroke="black" points="875,-1638 785,-1638 785,-1602 875,-1602 875,-1638"/>
<text text-anchor="middle" x="830" y="-1617.1" font-family="Courier,monospace" font-size="11.00">TaskProcess</text>
</g>
<!-- \\Symfony\\Component\\Process\\Process -->
<g id="node31" class="node"><title>\\Symfony\\Component\\Process\\Process</title>
<ellipse fill="none" stroke="black" cx="455" cy="-1964" rx="196.075" ry="18.3848"/>
<text text-anchor="middle" x="455" y="-1960.4" font-family="Times Roman,serif" font-size="14.00" fill="gray">\Symfony\Component\Process\Process</text>
</g>
<!-- \\TaskProcess&#45;&gt;\\Symfony\\Component\\Process\\Process -->
<g id="edge3" class="edge"><title>\\TaskProcess&#45;&gt;\\Symfony\\Component\\Process\\Process</title>
<path fill="none" stroke="black" d="M784.306,-1621.26C763.351,-1624.19 739.73,-1631.17 724,-1647 630.38,-1741.19 750.799,-1848.26 652,-1937 646.438,-1942 640.408,-1946.34 634.027,-1950.11"/>
<polygon fill="none" stroke="black" points="632.274,-1947.07 625.121,-1954.89 635.587,-1953.24 632.274,-1947.07"/>
</g>
<!-- \\TaskRunner -->
<g id="node4" class="node"><title>\\TaskRunner</title>
<polygon fill="none" stroke="black" points="872,-1584 788,-1584 788,-1548 872,-1548 872,-1584"/>
<text text-anchor="middle" x="830" y="-1563.1" font-family="Courier,monospace" font-size="11.00">TaskRunner</text>
</g>
<!-- \\Object -->
<g id="node33" class="node"><title>\\Object</title>
<ellipse fill="none" stroke="black" cx="455" cy="-1910" rx="45.9619" ry="18.3848"/>
<text text-anchor="middle" x="455" y="-1906.4" font-family="Times Roman,serif" font-size="14.00" fill="gray">\Object</text>
</g>
<!-- \\TaskRunner&#45;&gt;\\Object -->
<g id="edge5" class="edge"><title>\\TaskRunner&#45;&gt;\\Object</title>
<path fill="none" stroke="black" d="M787.757,-1566.81C765.989,-1569.44 740.6,-1576.3 724,-1593 630.38,-1687.19 750.799,-1794.26 652,-1883 613.364,-1917.7 552.106,-1920.94 508.156,-1917.72"/>
<polygon fill="none" stroke="black" points="508.205,-1914.21 497.94,-1916.83 507.599,-1921.18 508.205,-1914.21"/>
</g>
<!-- \\TaskController -->
<g id="node5" class="node"><title>\\TaskController</title>
<polygon fill="none" stroke="black" points="885,-1530 775,-1530 775,-1494 885,-1494 885,-1530"/>
<text text-anchor="middle" x="830" y="-1509.1" font-family="Courier,monospace" font-size="11.00">TaskController</text>
</g>
<!-- \\AppController -->
<g id="node35" class="node"><title>\\AppController</title>
<ellipse fill="none" stroke="black" cx="455" cy="-1856" rx="82.0244" ry="18.3848"/>
<text text-anchor="middle" x="455" y="-1852.4" font-family="Times Roman,serif" font-size="14.00" fill="gray">\AppController</text>
</g>
<!-- \\TaskController&#45;&gt;\\AppController -->
<g id="edge7" class="edge"><title>\\TaskController&#45;&gt;\\AppController</title>
<path fill="none" stroke="black" d="M774.251,-1514.96C756.109,-1518.61 737.254,-1525.67 724,-1539 630.38,-1633.19 750.799,-1740.26 652,-1829 621.47,-1856.42 576.814,-1864.2 537.735,-1864.66"/>
<polygon fill="none" stroke="black" points="537.42,-1861.16 527.406,-1864.62 537.392,-1868.16 537.42,-1861.16"/>
</g>
<!-- \\TaskHelper -->
<g id="node6" class="node"><title>\\TaskHelper</title>
<polygon fill="none" stroke="black" points="872,-1476 788,-1476 788,-1440 872,-1440 872,-1476"/>
<text text-anchor="middle" x="830" y="-1455.1" font-family="Courier,monospace" font-size="11.00">TaskHelper</text>
</g>
<!-- \\AppHelper -->
<g id="node37" class="node"><title>\\AppHelper</title>
<ellipse fill="none" stroke="black" cx="455" cy="-1802" rx="65.0538" ry="18.3848"/>
<text text-anchor="middle" x="455" y="-1798.4" font-family="Times Roman,serif" font-size="14.00" fill="gray">\AppHelper</text>
</g>
<!-- \\TaskHelper&#45;&gt;\\AppHelper -->
<g id="edge9" class="edge"><title>\\TaskHelper&#45;&gt;\\AppHelper</title>
<path fill="none" stroke="black" d="M787.994,-1458.75C766.16,-1461.35 740.634,-1468.2 724,-1485 629.049,-1580.91 753.347,-1690.88 652,-1780 616.591,-1811.14 562.653,-1815.25 520.163,-1812.34"/>
<polygon fill="none" stroke="black" points="520.434,-1808.85 510.18,-1811.52 519.858,-1815.83 520.434,-1808.85"/>
</g>
<!-- \\TaskStatistics -->
<g id="node7" class="node"><title>\\TaskStatistics</title>
<polygon fill="none" stroke="black" points="885,-1692 775,-1692 775,-1656 885,-1656 885,-1692"/>
<text text-anchor="middle" x="830" y="-1671.1" font-family="Courier,monospace" font-size="11.00">TaskStatistics</text>
</g>
<!-- \\AppModel -->
<g id="node39" class="node"><title>\\AppModel</title>
<ellipse fill="none" stroke="black" cx="93" cy="-1707" rx="62.2254" ry="18.3848"/>
<text text-anchor="middle" x="93" y="-1703.4" font-family="Times Roman,serif" font-size="14.00" fill="gray">\AppModel</text>
</g>
<!-- \\TaskStatistics&#45;&gt;\\AppModel -->
<g id="edge11" class="edge"><title>\\TaskStatistics&#45;&gt;\\AppModel</title>
<path fill="none" stroke="black" d="M774.251,-1676.96C756.109,-1680.61 737.254,-1687.67 724,-1701 630.38,-1795.19 756.609,-1909.19 652,-1991 583.032,-2044.94 333.885,-2034.67 258,-1991 159.859,-1934.52 114.692,-1794.78 99.3675,-1734.93"/>
<polygon fill="none" stroke="black" points="102.723,-1733.92 96.9249,-1725.05 95.9272,-1735.6 102.723,-1733.92"/>
</g>
<!-- \\TaskServer -->
<g id="node8" class="node"><title>\\TaskServer</title>
<polygon fill="none" stroke="black" points="872,-1422 788,-1422 788,-1386 872,-1386 872,-1422"/>
<text text-anchor="middle" x="830" y="-1401.1" font-family="Courier,monospace" font-size="11.00">TaskServer</text>
</g>
<!-- \\TaskModel -->
<g id="node9" class="node"><title>\\TaskModel</title>
<polygon fill="none" stroke="black" points="493,-1422 417,-1422 417,-1386 493,-1386 493,-1422"/>
<text text-anchor="middle" x="455" y="-1401.1" font-family="Courier,monospace" font-size="11.00">TaskModel</text>
</g>
<!-- \\TaskServer&#45;&gt;\\TaskModel -->
<g id="edge13" class="edge"><title>\\TaskServer&#45;&gt;\\TaskModel</title>
<path fill="none" stroke="black" d="M787.712,-1404C717.645,-1404 577.87,-1404 503.756,-1404"/>
<polygon fill="none" stroke="black" points="503.748,-1400.5 493.748,-1404 503.748,-1407.5 503.748,-1400.5"/>
</g>
<!-- \\TaskModel&#45;&gt;\\AppModel -->
<g id="edge15" class="edge"><title>\\TaskModel&#45;&gt;\\AppModel</title>
<path fill="none" stroke="black" d="M416.461,-1398.68C374.116,-1394.89 305.78,-1395 258,-1426 164.398,-1486.73 117.087,-1620.67 100.297,-1678.97"/>
<polygon fill="none" stroke="black" points="96.8311,-1678.37 97.5127,-1688.94 103.573,-1680.25 96.8311,-1678.37"/>
</g>
<!-- \\TaskProfiler -->
<g id="node10" class="node"><title>\\TaskProfiler</title>
<polygon fill="none" stroke="black" points="879,-1368 781,-1368 781,-1332 879,-1332 879,-1368"/>
<text text-anchor="middle" x="830" y="-1347.1" font-family="Courier,monospace" font-size="11.00">TaskProfiler</text>
</g>
<!-- \\TaskClient -->
<g id="node11" class="node"><title>\\TaskClient</title>
<polygon fill="none" stroke="black" points="872,-1314 788,-1314 788,-1278 872,-1278 872,-1314"/>
<text text-anchor="middle" x="830" y="-1293.1" font-family="Courier,monospace" font-size="11.00">TaskClient</text>
</g>
<!-- \\TaskClient&#45;&gt;\\TaskModel -->
<g id="edge17" class="edge"><title>\\TaskClient&#45;&gt;\\TaskModel</title>
<path fill="none" stroke="black" d="M787.849,-1306.29C768.365,-1311.17 744.951,-1317.18 724,-1323 646.359,-1344.57 556.892,-1372.03 503.201,-1388.8"/>
<polygon fill="none" stroke="black" points="502.102,-1385.48 493.603,-1391.8 504.192,-1392.16 502.102,-1385.48"/>
</g>
<!-- \\TaskShell -->
<g id="node12" class="node"><title>\\TaskShell</title>
<polygon fill="none" stroke="black" points="868,-1206 792,-1206 792,-1170 868,-1170 868,-1206"/>
<text text-anchor="middle" x="830" y="-1185.1" font-family="Courier,monospace" font-size="11.00">TaskShell</text>
</g>
<!-- \\AdvancedShell -->
<g id="node44" class="node"><title>\\AdvancedShell</title>
<ellipse fill="none" stroke="black" cx="455" cy="-326" rx="85.7684" ry="18.3848"/>
<text text-anchor="middle" x="455" y="-322.4" font-family="Times Roman,serif" font-size="14.00" fill="gray">\AdvancedShell</text>
</g>
<!-- \\TaskShell&#45;&gt;\\AdvancedShell -->
<g id="edge19" class="edge"><title>\\TaskShell&#45;&gt;\\AdvancedShell</title>
<path fill="none" stroke="black" d="M791.437,-1188.61C768.336,-1186.77 740.365,-1180.24 724,-1161 606.483,-1022.85 778.775,-477.71 652,-348 621.222,-316.51 571.999,-311.002 530.456,-313.37"/>
<polygon fill="none" stroke="black" points="530.071,-309.889 520.352,-314.107 530.58,-316.871 530.071,-309.889"/>
</g>
<!-- \\TaskServerTask -->
<g id="node13" class="node"><title>\\TaskServerTask</title>
<polygon fill="none" stroke="black" points="885,-1152 775,-1152 775,-1116 885,-1116 885,-1152"/>
<text text-anchor="middle" x="830" y="-1131.1" font-family="Courier,monospace" font-size="11.00">TaskServerTask</text>
</g>
<!-- \\AdvancedTask -->
<g id="node46" class="node"><title>\\AdvancedTask</title>
<ellipse fill="none" stroke="black" cx="455" cy="-272" rx="82.939" ry="18.3848"/>
<text text-anchor="middle" x="455" y="-268.4" font-family="Times Roman,serif" font-size="14.00" fill="gray">\AdvancedTask</text>
</g>
<!-- \\TaskServerTask&#45;&gt;\\AdvancedTask -->
<g id="edge21" class="edge"><title>\\TaskServerTask&#45;&gt;\\AdvancedTask</title>
<path fill="none" stroke="black" d="M774.427,-1132.41C755.743,-1128.96 736.493,-1121.68 724,-1107 607.163,-969.722 776.416,-429.449 652,-299 622.348,-267.91 574.968,-260.668 534.105,-261.434"/>
<polygon fill="none" stroke="black" points="533.743,-257.944 523.871,-261.791 533.987,-264.94 533.743,-257.944"/>
</g>
<!-- \\TaskProfilerFixture -->
<g id="node14" class="node"><title>\\TaskProfilerFixture</title>
<polygon fill="none" stroke="black" points="902,-1260 758,-1260 758,-1224 902,-1224 902,-1260"/>
<text text-anchor="middle" x="830" y="-1239.1" font-family="Courier,monospace" font-size="11.00">TaskProfilerFixture</text>
</g>
<!-- \\TaskFixture -->
<g id="node16" class="node"><title>\\TaskFixture</title>
<polygon fill="none" stroke="black" points="500,-1006 410,-1006 410,-970 500,-970 500,-1006"/>
<text text-anchor="middle" x="455" y="-985.1" font-family="Courier,monospace" font-size="11.00">TaskFixture</text>
</g>
<!-- \\TaskProfilerFixture&#45;&gt;\\TaskFixture -->
<g id="edge23" class="edge"><title>\\TaskProfilerFixture&#45;&gt;\\TaskFixture</title>
<path fill="none" stroke="black" d="M757.398,-1228.18C745.898,-1224.68 734.385,-1220.34 724,-1215 619.983,-1161.49 521.116,-1061.08 477.857,-1013.83"/>
<polygon fill="none" stroke="black" points="480.23,-1011.23 470.918,-1006.18 475.046,-1015.94 480.23,-1011.23"/>
</g>
<!-- \\DependentTaskFixture -->
<g id="node15" class="node"><title>\\DependentTaskFixture</title>
<polygon fill="none" stroke="black" points="906,-1098 754,-1098 754,-1062 906,-1062 906,-1098"/>
<text text-anchor="middle" x="830" y="-1077.1" font-family="Courier,monospace" font-size="11.00">DependentTaskFixture</text>
</g>
<!-- \\CakeTestFixture -->
<g id="node49" class="node"><title>\\CakeTestFixture</title>
<ellipse fill="none" stroke="black" cx="93" cy="-480" rx="92.1303" ry="18.3848"/>
<text text-anchor="middle" x="93" y="-476.4" font-family="Times Roman,serif" font-size="14.00" fill="gray">\CakeTestFixture</text>
</g>
<!-- \\DependentTaskFixture&#45;&gt;\\CakeTestFixture -->
<g id="edge25" class="edge"><title>\\DependentTaskFixture&#45;&gt;\\CakeTestFixture</title>
<path fill="none" stroke="black" d="M753.855,-1072.84C742.441,-1068.57 731.877,-1062.26 724,-1053 607.163,-915.722 779.004,-372.931 652,-245 590.028,-182.576 539.854,-249.176 455,-226"/>
</g>
<!-- \\TaskFixture&#45;&gt;\\CakeTestFixture -->
<g id="edge27" class="edge"><title>\\TaskFixture&#45;&gt;\\CakeTestFixture</title>
<path fill="none" stroke="black" d="M409.122,-995.778C365.481,-1000.47 300.37,-1000.08 258,-966 183.204,-905.841 117.438,-602.72 98.4789,-508.194"/>
<polygon fill="none" stroke="black" points="101.879,-507.347 96.4976,-498.221 95.0133,-508.711 101.879,-507.347"/>
</g>
<!-- \\TaskStatisticsFixture -->
<g id="node17" class="node"><title>\\TaskStatisticsFixture</title>
<polygon fill="none" stroke="black" points="909,-1044 751,-1044 751,-1008 909,-1008 909,-1044"/>
<text text-anchor="middle" x="830" y="-1023.1" font-family="Courier,monospace" font-size="11.00">TaskStatisticsFixture</text>
</g>
<!-- \\TaskStatisticsFixture&#45;&gt;\\CakeTestFixture -->
<g id="edge29" class="edge"><title>\\TaskStatisticsFixture&#45;&gt;\\CakeTestFixture</title>
<path fill="none" stroke="black" d="M750.98,-1017.65C740.686,-1013.43 731.227,-1007.44 724,-999 614.503,-871.167 770.962,-364.075 652,-245 589.831,-182.772 539.854,-249.176 455,-226"/>
<path fill="none" stroke="black" d="M455,-226C370.146,-202.824 334.01,-200.73 258,-245 175.211,-293.218 123.733,-401.484 103.213,-452.463"/>
<polygon fill="none" stroke="black" points="99.9206,-451.272 99.5221,-461.86 106.436,-453.832 99.9206,-451.272"/>
</g>
<!-- \\AllTaskTest -->
<g id="node18" class="node"><title>\\AllTaskTest</title>
<polygon fill="none" stroke="black" points="875,-990 785,-990 785,-954 875,-954 875,-990"/>
<text text-anchor="middle" x="830" y="-969.1" font-family="Courier,monospace" font-size="11.00">AllTaskTest</text>
</g>
<!-- \\PHPUnit_Framework_TestSuite -->
<g id="node53" class="node"><title>\\PHPUnit_Framework_TestSuite</title>
<ellipse fill="none" stroke="black" cx="455" cy="-180" rx="166.877" ry="18.3848"/>
<text text-anchor="middle" x="455" y="-176.4" font-family="Times Roman,serif" font-size="14.00" fill="gray">\PHPUnit_Framework_TestSuite</text>
</g>
<!-- \\AllTaskTest&#45;&gt;\\PHPUnit_Framework_TestSuite -->
<g id="edge31" class="edge"><title>\\AllTaskTest&#45;&gt;\\PHPUnit_Framework_TestSuite</title>
<path fill="none" stroke="black" d="M784.34,-971.84C762.866,-969.242 738.786,-962.215 724,-945 617.356,-820.839 764.025,-331.328 652,-212 643.477,-202.922 633.465,-195.761 622.55,-190.16"/>
<polygon fill="none" stroke="black" points="623.725,-186.847 613.181,-185.813 620.779,-193.197 623.725,-186.847"/>
</g>
<!-- \\TaskTypeTest -->
<g id="node19" class="node"><title>\\TaskTypeTest</title>
<polygon fill="none" stroke="black" points="879,-936 781,-936 781,-900 879,-900 879,-936"/>
<text text-anchor="middle" x="830" y="-915.1" font-family="Courier,monospace" font-size="11.00">TaskTypeTest</text>
</g>
<!-- \\CakeTestCase -->
<g id="node55" class="node"><title>\\CakeTestCase</title>
<ellipse fill="none" stroke="black" cx="455" cy="-126" rx="82.0244" ry="18.3848"/>
<text text-anchor="middle" x="455" y="-122.4" font-family="Times Roman,serif" font-size="14.00" fill="gray">\CakeTestCase</text>
</g>
<!-- \\TaskTypeTest&#45;&gt;\\CakeTestCase -->
<g id="edge33" class="edge"><title>\\TaskTypeTest&#45;&gt;\\CakeTestCase</title>
<path fill="none" stroke="black" d="M780.81,-917.38C760.268,-914.452 737.977,-907.283 724,-891 616.677,-765.965 766.225,-271.763 652,-153 622.108,-121.92 574.483,-114.743 533.548,-115.541"/>
<polygon fill="none" stroke="black" points="533.169,-112.052 523.3,-115.906 533.418,-119.048 533.169,-112.052"/>
</g>
<!-- \\TaskProcessTest -->
<g id="node20" class="node"><title>\\TaskProcessTest</title>
<polygon fill="none" stroke="black" points="889,-882 771,-882 771,-846 889,-846 889,-882"/>
<text text-anchor="middle" x="830" y="-861.1" font-family="Courier,monospace" font-size="11.00">TaskProcessTest</text>
</g>
<!-- \\TaskProcessTest&#45;&gt;\\CakeTestCase -->
<g id="edge35" class="edge"><title>\\TaskProcessTest&#45;&gt;\\CakeTestCase</title>
<path fill="none" stroke="black" d="M770.962,-861.585C753.443,-857.881 735.802,-850.645 724,-837 624.012,-721.405 758.368,-262.754 652,-153 621.99,-122.034 574.362,-114.859 533.455,-115.631"/>
<polygon fill="none" stroke="black" points="533.087,-112.141 523.215,-115.988 533.331,-119.137 533.087,-112.141"/>
</g>
<!-- \\TaskRunnerTest -->
<g id="node21" class="node"><title>\\TaskRunnerTest</title>
<polygon fill="none" stroke="black" points="885,-828 775,-828 775,-792 885,-792 885,-828"/>
<text text-anchor="middle" x="830" y="-807.1" font-family="Courier,monospace" font-size="11.00">TaskRunnerTest</text>
</g>
<!-- \\TaskRunnerTest&#45;&gt;\\CakeTestCase -->
<g id="edge37" class="edge"><title>\\TaskRunnerTest&#45;&gt;\\CakeTestCase</title>
<path fill="none" stroke="black" d="M774.35,-808.184C755.772,-804.701 736.612,-797.45 724,-783 538.682,-570.676 849.033,-354.5 652,-153 621.963,-122.282 574.573,-115.05 533.8,-115.728"/>
<polygon fill="none" stroke="black" points="533.471,-112.237 523.591,-116.062 533.7,-119.233 533.471,-112.237"/>
</g>
<!-- \\TaskControllerTest -->
<g id="node22" class="node"><title>\\TaskControllerTest</title>
<polygon fill="none" stroke="black" points="899,-450 761,-450 761,-414 899,-414 899,-450"/>
<text text-anchor="middle" x="830" y="-429.1" font-family="Courier,monospace" font-size="11.00">TaskControllerTest</text>
</g>
<!-- \\ControllerTestCase -->
<g id="node59" class="node"><title>\\ControllerTestCase</title>
<ellipse fill="none" stroke="black" cx="455" cy="-72" rx="106.773" ry="18.3848"/>
<text text-anchor="middle" x="455" y="-68.4" font-family="Times Roman,serif" font-size="14.00" fill="gray">\ControllerTestCase</text>
</g>
<!-- \\TaskControllerTest&#45;&gt;\\ControllerTestCase -->
<g id="edge39" class="edge"><title>\\TaskControllerTest&#45;&gt;\\ControllerTestCase</title>
<path fill="none" stroke="black" d="M760.928,-425.836C747.208,-421.689 733.978,-415.163 724,-405 626.116,-305.306 755.367,-192.996 652,-99 627.176,-76.4264 592.805,-67.1017 559.714,-64.2196"/>
<polygon fill="none" stroke="black" points="559.712,-60.7115 549.497,-63.5244 559.237,-67.6953 559.712,-60.7115"/>
</g>
<!-- \\TaskHelperTest -->
<g id="node23" class="node"><title>\\TaskHelperTest</title>
<polygon fill="none" stroke="black" points="885,-774 775,-774 775,-738 885,-738 885,-774"/>
<text text-anchor="middle" x="830" y="-753.1" font-family="Courier,monospace" font-size="11.00">TaskHelperTest</text>
</g>
<!-- \\TaskHelperTest&#45;&gt;\\CakeTestCase -->
<g id="edge41" class="edge"><title>\\TaskHelperTest&#45;&gt;\\CakeTestCase</title>
<path fill="none" stroke="black" d="M774.434,-754.111C755.864,-750.62 736.689,-743.384 724,-729 553.328,-535.529 833.344,-336.506 652,-153 621.913,-122.555 574.757,-115.267 534.124,-115.847"/>
<polygon fill="none" stroke="black" points="533.839,-112.354 523.949,-116.155 534.05,-119.351 533.839,-112.354"/>
</g>
<!-- \\TaskServerTest -->
<g id="node24" class="node"><title>\\TaskServerTest</title>
<polygon fill="none" stroke="black" points="885,-720 775,-720 775,-684 885,-684 885,-720"/>
<text text-anchor="middle" x="830" y="-699.1" font-family="Courier,monospace" font-size="11.00">TaskServerTest</text>
</g>
<!-- \\TaskServerTest&#45;&gt;\\CakeTestCase -->
<g id="edge43" class="edge"><title>\\TaskServerTest&#45;&gt;\\CakeTestCase</title>
<path fill="none" stroke="black" d="M774.258,-699.969C755.785,-696.451 736.716,-689.232 724,-675 567.957,-500.362 817.673,-318.531 652,-153 621.833,-122.859 574.909,-115.52 534.423,-115.995"/>
<polygon fill="none" stroke="black" points="534.183,-112.5 524.284,-116.275 534.376,-119.497 534.183,-112.5"/>
</g>
<!-- \\TaskClientTest -->
<g id="node25" class="node"><title>\\TaskClientTest</title>
<polygon fill="none" stroke="black" points="885,-666 775,-666 775,-630 885,-630 885,-666"/>
<text text-anchor="middle" x="830" y="-645.1" font-family="Courier,monospace" font-size="11.00">TaskClientTest</text>
</g>
<!-- \\TaskClientTest&#45;&gt;\\CakeTestCase -->
<g id="edge45" class="edge"><title>\\TaskClientTest&#45;&gt;\\CakeTestCase</title>
<path fill="none" stroke="black" d="M774.381,-645.859C755.919,-642.33 736.827,-635.132 724,-621 582.562,-465.169 802.027,-300.58 652,-153 621.712,-123.206 575.016,-115.819 534.688,-116.18"/>
<polygon fill="none" stroke="black" points="534.497,-112.684 524.587,-116.43 534.67,-119.681 534.497,-112.684"/>
</g>
<!-- \\TaskProfilerTest -->
<g id="node26" class="node"><title>\\TaskProfilerTest</title>
<polygon fill="none" stroke="black" points="892,-612 768,-612 768,-576 892,-576 892,-612"/>
<text text-anchor="middle" x="830" y="-591.1" font-family="Courier,monospace" font-size="11.00">TaskProfilerTest</text>
</g>
<!-- \\TaskProfilerTest&#45;&gt;\\CakeTestCase -->
<g id="edge47" class="edge"><title>\\TaskProfilerTest&#45;&gt;\\CakeTestCase</title>
<path fill="none" stroke="black" d="M767.355,-590.156C751.242,-586.207 735.287,-579.195 724,-567 597.136,-429.94 786.415,-282.663 652,-153 621.652,-123.725 575.414,-116.239 535.36,-116.415"/>
<polygon fill="none" stroke="black" points="535.251,-112.917 525.323,-116.616 535.391,-119.915 535.251,-112.917"/>
</g>
<!-- \\TaskShellTest -->
<g id="node27" class="node"><title>\\TaskShellTest</title>
<polygon fill="none" stroke="black" points="882,-558 778,-558 778,-522 882,-522 882,-558"/>
<text text-anchor="middle" x="830" y="-537.1" font-family="Courier,monospace" font-size="11.00">TaskShellTest</text>
</g>
<!-- \\TaskShellTest&#45;&gt;\\CakeTestCase -->
<g id="edge49" class="edge"><title>\\TaskShellTest&#45;&gt;\\CakeTestCase</title>
<path fill="none" stroke="black" d="M777.745,-538.091C758.414,-534.738 737.859,-527.599 724,-513 611.662,-394.661 770.853,-264.794 652,-153 621.582,-124.388 575.922,-116.788 536.218,-116.73"/>
<polygon fill="none" stroke="black" points="535.947,-113.234 525.999,-116.878 536.049,-120.233 535.947,-113.234"/>
</g>
<!-- \\TaskServerTaskTest -->
<g id="node28" class="node"><title>\\TaskServerTaskTest</title>
<polygon fill="none" stroke="black" points="899,-504 761,-504 761,-468 899,-468 899,-504"/>
<text text-anchor="middle" x="830" y="-483.1" font-family="Courier,monospace" font-size="11.00">TaskServerTaskTest</text>
</g>
<!-- \\TaskServerTaskTest&#45;&gt;\\CakeTestCase -->
<g id="edge51" class="edge"><title>\\TaskServerTaskTest&#45;&gt;\\CakeTestCase</title>
<path fill="none" stroke="black" d="M760.928,-479.836C747.208,-475.689 733.978,-469.163 724,-459 626.116,-359.306 755.367,-246.996 652,-153 621.456,-125.225 576.459,-117.508 537.177,-117.17"/>
<polygon fill="none" stroke="black" points="537.037,-113.671 527.062,-117.241 537.086,-120.671 537.037,-113.671"/>
</g>
<!-- \\TaskServerTaskTestEventModel1 -->
<g id="node29" class="node"><title>\\TaskServerTaskTestEventModel1</title>
<polygon fill="none" stroke="black" points="936,-396 724,-396 724,-360 936,-360 936,-396"/>
<text text-anchor="middle" x="830" y="-375.1" font-family="Courier,monospace" font-size="11.00">TaskServerTaskTestEventModel1</text>
</g>
<!-- \\CakeEventListener -->
<g id="node67" class="node"><title>\\CakeEventListener</title>
<ellipse fill="none" stroke="black" cx="455" cy="-18" rx="106.98" ry="18.3848"/>
<text text-anchor="middle" x="455" y="-14.4" font-family="Times Roman,serif" font-size="14.00" fill="gray">\CakeEventListener</text>
</g>
<!-- \\TaskServerTaskTestEventModel1&#45;&gt;\\CakeEventListener -->
<g id="edge53" class="edge"><title>\\TaskServerTaskTestEventModel1&#45;&gt;\\CakeEventListener</title>
<path fill="none" stroke="black" stroke-dasharray="1,5" d="M826.321,-359.722C813.724,-302.324 766.602,-124.766 652,-45 628.366,-28.5497 599.217,-19.9532 570.658,-15.8387"/>
<polygon fill="none" stroke="black" points="570.951,-12.348 560.591,-14.5648 570.072,-19.2926 570.951,-12.348"/>
</g>
</g>
</svg>
