<?xml version="1.0" encoding="UTF-8" standalone="no"?>
<!DOCTYPE svg PUBLIC "-//W3C//DTD SVG 1.1//EN"
 "http://www.w3.org/Graphics/SVG/1.1/DTD/svg11.dtd">
<!-- Generated by graphviz version 2.26.3 (20100126.1600)
 -->
<!-- Title: G Pages: 1 -->
<svg width="960pt" height="2046pt"
 viewBox="0.00 0.00 960.00 2046.13" xmlns="http://www.w3.org/2000/svg" xmlns:xlink="http://www.w3.org/1999/xlink">
<g id="graph1" class="graph" transform="scale(1 1) rotate(0) translate(4 2042.13)">
<title>G</title>
<polygon fill="white" stroke="white" points="-4,5 -4,-2042.13 957,-2042.13 957,5 -4,5"/>
<g id="graph2" class="cluster"><title>cluster_Global</title>
<polyline fill="none" stroke="gray" points="413,-249.303 932,-249.303 "/>
<path fill="none" stroke="gray" d="M932,-249.303C938,-249.303 944,-255.303 944,-261.303"/>
<polyline fill="none" stroke="gray" points="944,-261.303 944,-1661.3 "/>
<path fill="none" stroke="gray" d="M944,-1661.3C944,-1667.3 938,-1673.3 932,-1673.3"/>
<polyline fill="none" stroke="gray" points="932,-1673.3 413,-1673.3 "/>
<path fill="none" stroke="gray" d="M413,-1673.3C407,-1673.3 401,-1667.3 401,-1661.3"/>
<polyline fill="none" stroke="gray" points="401,-1661.3 401,-261.303 "/>
<path fill="none" stroke="gray" d="M401,-261.303C401,-255.303 407,-249.303 413,-249.303"/>
<text text-anchor="middle" x="672.5" y="-1659.4" font-family="Times Roman,serif" font-size="11.00" fill="gray">Global</text>
</g>
<!-- \\TaskType -->
<g id="node2" class="node"><title>\\TaskType</title>
<polygon fill="none" stroke="black" points="872,-1643.3 788,-1643.3 788,-1607.3 872,-1607.3 872,-1643.3"/>
<text text-anchor="start" x="796" y="-1630.74" font-family="Courier,monospace" font-size="11.00">«abstract»</text>
<text text-anchor="start" x="802.5" y="-1617.54" font-family="Courier,monospace" font-size="11.00">TaskType</text>
</g>
<!-- \\TaskRunner -->
<g id="node3" class="node"><title>\\TaskRunner</title>
<polygon fill="none" stroke="black" points="872,-1535.3 788,-1535.3 788,-1499.3 872,-1499.3 872,-1535.3"/>
<text text-anchor="middle" x="830" y="-1514.4" font-family="Courier,monospace" font-size="11.00">TaskRunner</text>
</g>
<!-- \\Object -->
<g id="node31" class="node"><title>\\Object</title>
<ellipse fill="none" stroke="black" cx="455" cy="-1969.3" rx="45.9619" ry="18.3848"/>
<text text-anchor="middle" x="455" y="-1965.7" font-family="Times Roman,serif" font-size="14.00" fill="gray">\Object</text>
</g>
<!-- \\TaskRunner&#45;&gt;\\Object -->
<g id="edge3" class="edge"><title>\\TaskRunner&#45;&gt;\\Object</title>
<path fill="none" stroke="black" d="M787.851,-1517.64C765.835,-1520.09 740.184,-1526.94 724,-1544.3 601.445,-1675.81 781.798,-1817.94 652,-1942.3 614.075,-1978.64 551.644,-1981.32 507.232,-1977.52"/>
<polygon fill="none" stroke="black" points="507.499,-1974.03 497.202,-1976.52 506.808,-1980.99 507.499,-1974.03"/>
</g>
<!-- \\TaskProcess -->
<g id="node4" class="node"><title>\\TaskProcess</title>
<polygon fill="none" stroke="black" points="875,-1481.3 785,-1481.3 785,-1445.3 875,-1445.3 875,-1481.3"/>
<text text-anchor="middle" x="830" y="-1460.4" font-family="Courier,monospace" font-size="11.00">TaskProcess</text>
</g>
<!-- \\Symfony\\Component\\Process\\Process -->
<g id="node33" class="node"><title>\\Symfony\\Component\\Process\\Process</title>
<ellipse fill="none" stroke="black" cx="455" cy="-1915.3" rx="196.075" ry="18.3848"/>
<text text-anchor="middle" x="455" y="-1911.7" font-family="Times Roman,serif" font-size="14.00" fill="gray">\Symfony\Component\Process\Process</text>
</g>
<!-- \\TaskProcess&#45;&gt;\\Symfony\\Component\\Process\\Process -->
<g id="edge5" class="edge"><title>\\TaskProcess&#45;&gt;\\Symfony\\Component\\Process\\Process</title>
<path fill="none" stroke="black" d="M784.389,-1464.06C763.193,-1466.83 739.342,-1473.84 724,-1490.3 601.445,-1621.81 781.798,-1763.94 652,-1888.3 646.892,-1893.2 641.34,-1897.48 635.446,-1901.22"/>
<polygon fill="none" stroke="black" points="633.506,-1898.3 626.581,-1906.32 636.994,-1904.37 633.506,-1898.3"/>
</g>
<!-- \\TaskHelper -->
<g id="node5" class="node"><title>\\TaskHelper</title>
<polygon fill="none" stroke="black" points="872,-1427.3 788,-1427.3 788,-1391.3 872,-1391.3 872,-1427.3"/>
<text text-anchor="middle" x="830" y="-1406.4" font-family="Courier,monospace" font-size="11.00">TaskHelper</text>
</g>
<!-- \\AppHelper -->
<g id="node35" class="node"><title>\\AppHelper</title>
<ellipse fill="none" stroke="black" cx="455" cy="-1861.3" rx="65.0538" ry="18.3848"/>
<text text-anchor="middle" x="455" y="-1857.7" font-family="Times Roman,serif" font-size="14.00" fill="gray">\AppHelper</text>
</g>
<!-- \\TaskHelper&#45;&gt;\\AppHelper -->
<g id="edge7" class="edge"><title>\\TaskHelper&#45;&gt;\\AppHelper</title>
<path fill="none" stroke="black" d="M787.851,-1409.64C765.835,-1412.09 740.184,-1418.94 724,-1436.3 601.445,-1567.81 781.798,-1709.94 652,-1834.3 618.193,-1866.69 564.913,-1872.34 522.283,-1870.49"/>
<polygon fill="none" stroke="black" points="522.436,-1867 512.251,-1869.91 522.032,-1873.98 522.436,-1867"/>
</g>
<!-- \\TaskController -->
<g id="node6" class="node"><title>\\TaskController</title>
<polygon fill="none" stroke="black" points="885,-1373.3 775,-1373.3 775,-1337.3 885,-1337.3 885,-1373.3"/>
<text text-anchor="middle" x="830" y="-1352.4" font-family="Courier,monospace" font-size="11.00">TaskController</text>
</g>
<!-- \\AppController -->
<g id="node37" class="node"><title>\\AppController</title>
<ellipse fill="none" stroke="black" cx="455" cy="-1807.3" rx="82.0244" ry="18.3848"/>
<text text-anchor="middle" x="455" y="-1803.7" font-family="Times Roman,serif" font-size="14.00" fill="gray">\AppController</text>
</g>
<!-- \\TaskController&#45;&gt;\\AppController -->
<g id="edge9" class="edge"><title>\\TaskController&#45;&gt;\\AppController</title>
<path fill="none" stroke="black" d="M774.31,-1357.69C755.954,-1361.25 736.947,-1368.41 724,-1382.3 601.445,-1513.81 781.798,-1655.94 652,-1780.3 621.553,-1809.48 575.311,-1816.96 535.279,-1816.8"/>
<polygon fill="none" stroke="black" points="535.314,-1813.3 525.248,-1816.61 535.178,-1820.3 535.314,-1813.3"/>
</g>
<!-- \\TaskServerTask -->
<g id="node7" class="node"><title>\\TaskServerTask</title>
<polygon fill="none" stroke="black" points="885,-1319.3 775,-1319.3 775,-1283.3 885,-1283.3 885,-1319.3"/>
<text text-anchor="middle" x="830" y="-1298.4" font-family="Courier,monospace" font-size="11.00">TaskServerTask</text>
</g>
<!-- \\AdvancedTask -->
<g id="node39" class="node"><title>\\AdvancedTask</title>
<ellipse fill="none" stroke="black" cx="455" cy="-1753.3" rx="82.939" ry="18.3848"/>
<text text-anchor="middle" x="455" y="-1749.7" font-family="Times Roman,serif" font-size="14.00" fill="gray">\AdvancedTask</text>
</g>
<!-- \\TaskServerTask&#45;&gt;\\AdvancedTask -->
<g id="edge11" class="edge"><title>\\TaskServerTask&#45;&gt;\\AdvancedTask</title>
<path fill="none" stroke="black" d="M774.31,-1303.69C755.954,-1307.25 736.947,-1314.41 724,-1328.3 601.445,-1459.81 781.798,-1601.94 652,-1726.3 621.961,-1755.08 576.549,-1762.75 536.893,-1762.81"/>
<polygon fill="none" stroke="black" points="536.732,-1759.3 526.682,-1762.66 536.63,-1766.3 536.732,-1759.3"/>
</g>
<!-- \\TaskShell -->
<g id="node8" class="node"><title>\\TaskShell</title>
<polygon fill="none" stroke="black" points="868,-1265.3 792,-1265.3 792,-1229.3 868,-1229.3 868,-1265.3"/>
<text text-anchor="middle" x="830" y="-1244.4" font-family="Courier,monospace" font-size="11.00">TaskShell</text>
</g>
<!-- \\AdvancedShell -->
<g id="node41" class="node"><title>\\AdvancedShell</title>
<ellipse fill="none" stroke="black" cx="455" cy="-1699.3" rx="85.7684" ry="18.3848"/>
<text text-anchor="middle" x="455" y="-1695.7" font-family="Times Roman,serif" font-size="14.00" fill="gray">\AdvancedShell</text>
</g>
<!-- \\TaskShell&#45;&gt;\\AdvancedShell -->
<g id="edge13" class="edge"><title>\\TaskShell&#45;&gt;\\AdvancedShell</title>
<path fill="none" stroke="black" d="M791.499,-1247.25C768.719,-1249.34 741.07,-1255.95 724,-1274.3 600.099,-1407.55 784.805,-1552.93 652,-1677.3 620.854,-1706.47 573.665,-1712.54 533.28,-1711.05"/>
<polygon fill="none" stroke="black" points="533.343,-1707.55 523.173,-1710.52 532.975,-1714.54 533.343,-1707.55"/>
</g>
<!-- \\TaskFixture -->
<g id="node9" class="node"><title>\\TaskFixture</title>
<polygon fill="none" stroke="black" points="500,-1161.3 410,-1161.3 410,-1125.3 500,-1125.3 500,-1161.3"/>
<text text-anchor="middle" x="455" y="-1140.4" font-family="Courier,monospace" font-size="11.00">TaskFixture</text>
</g>
<!-- \\CakeTestFixture -->
<g id="node43" class="node"><title>\\CakeTestFixture</title>
<ellipse fill="none" stroke="black" cx="93" cy="-1193.3" rx="92.1303" ry="18.3848"/>
<text text-anchor="middle" x="93" y="-1189.7" font-family="Times Roman,serif" font-size="14.00" fill="gray">\CakeTestFixture</text>
</g>
<!-- \\TaskFixture&#45;&gt;\\CakeTestFixture -->
<g id="edge15" class="edge"><title>\\TaskFixture&#45;&gt;\\CakeTestFixture</title>
<path fill="none" stroke="black" d="M409.13,-1147.68C369.145,-1151.67 309.63,-1158.05 258,-1165.3 229.428,-1169.32 198.194,-1174.43 170.663,-1179.19"/>
<polygon fill="none" stroke="black" points="169.952,-1175.76 160.7,-1180.92 171.152,-1182.66 169.952,-1175.76"/>
</g>
<!-- \\TaskProfilerFixture -->
<g id="node10" class="node"><title>\\TaskProfilerFixture</title>
<polygon fill="none" stroke="black" points="902,-1157.3 758,-1157.3 758,-1121.3 902,-1121.3 902,-1157.3"/>
<text text-anchor="middle" x="830" y="-1136.4" font-family="Courier,monospace" font-size="11.00">TaskProfilerFixture</text>
</g>
<!-- \\TaskProfilerFixture&#45;&gt;\\TaskFixture -->
<g id="edge17" class="edge"><title>\\TaskProfilerFixture&#45;&gt;\\TaskFixture</title>
<path fill="none" stroke="black" d="M757.252,-1140.08C685.176,-1140.85 576.342,-1142.01 510.824,-1142.71"/>
<polygon fill="none" stroke="black" points="510.655,-1139.21 500.693,-1142.82 510.729,-1146.21 510.655,-1139.21"/>
</g>
<!-- \\TaskStatisticsFixture -->
<g id="node11" class="node"><title>\\TaskStatisticsFixture</title>
<polygon fill="none" stroke="black" points="909,-1589.3 751,-1589.3 751,-1553.3 909,-1553.3 909,-1589.3"/>
<text text-anchor="middle" x="830" y="-1568.4" font-family="Courier,monospace" font-size="11.00">TaskStatisticsFixture</text>
</g>
<!-- \\TaskStatisticsFixture&#45;&gt;\\CakeTestFixture -->
<g id="edge19" class="edge"><title>\\TaskStatisticsFixture&#45;&gt;\\CakeTestFixture</title>
<path fill="none" stroke="black" d="M750.803,-1580.53C740.728,-1584.65 731.38,-1590.38 724,-1598.3 601.445,-1729.81 789.96,-1881.06 652,-1996.3 584.804,-2052.43 325.856,-2051.63 258,-1996.3 133.952,-1895.15 100.51,-1351.85 94.2199,-1221.45"/>
<polygon fill="none" stroke="black" points="97.7157,-1221.28 93.7523,-1211.45 90.7233,-1221.61 97.7157,-1221.28"/>
</g>
<!-- \\DependentTaskFixture -->
<g id="node12" class="node"><title>\\DependentTaskFixture</title>
<polygon fill="none" stroke="black" points="906,-1211.3 754,-1211.3 754,-1175.3 906,-1175.3 906,-1211.3"/>
<text text-anchor="middle" x="830" y="-1190.4" font-family="Courier,monospace" font-size="11.00">DependentTaskFixture</text>
</g>
<!-- \\DependentTaskFixture&#45;&gt;\\CakeTestFixture -->
<g id="edge21" class="edge"><title>\\DependentTaskFixture&#45;&gt;\\CakeTestFixture</title>
<path fill="none" stroke="black" d="M753.904,-1193.3C620.793,-1193.3 345.614,-1193.3 195.741,-1193.3"/>
<polygon fill="none" stroke="black" points="195.611,-1189.8 185.611,-1193.3 195.611,-1196.8 195.611,-1189.8"/>
</g>
<!-- \\TaskTypeTest -->
<g id="node13" class="node"><title>\\TaskTypeTest</title>
<polygon fill="none" stroke="black" points="879,-671.303 781,-671.303 781,-635.303 879,-635.303 879,-671.303"/>
<text text-anchor="middle" x="830" y="-650.403" font-family="Courier,monospace" font-size="11.00">TaskTypeTest</text>
</g>
<!-- \\CakeTestCase -->
<g id="node48" class="node"><title>\\CakeTestCase</title>
<ellipse fill="none" stroke="black" cx="455" cy="-223.303" rx="82.0244" ry="18.3848"/>
<text text-anchor="middle" x="455" y="-219.703" font-family="Times Roman,serif" font-size="14.00" fill="gray">\CakeTestCase</text>
</g>
<!-- \\TaskTypeTest&#45;&gt;\\CakeTestCase -->
<g id="edge23" class="edge"><title>\\TaskTypeTest&#45;&gt;\\CakeTestCase</title>
<path fill="none" stroke="black" d="M780.936,-652.001C760.671,-648.912 738.561,-641.807 724,-626.303 606.02,-500.691 778.372,-362.47 652,-245.303 620.011,-215.645 571.402,-209.963 530.474,-211.786"/>
<polygon fill="none" stroke="black" points="530.021,-208.307 520.249,-212.401 530.441,-215.294 530.021,-208.307"/>
</g>
<!-- \\TaskProcessTest -->
<g id="node14" class="node"><title>\\TaskProcessTest</title>
<polygon fill="none" stroke="black" points="889,-617.303 771,-617.303 771,-581.303 889,-581.303 889,-617.303"/>
<text text-anchor="middle" x="830" y="-596.403" font-family="Courier,monospace" font-size="11.00">TaskProcessTest</text>
</g>
<!-- \\TaskProcessTest&#45;&gt;\\CakeTestCase -->
<g id="edge25" class="edge"><title>\\TaskProcessTest&#45;&gt;\\CakeTestCase</title>
<path fill="none" stroke="black" d="M770.742,-595.839C753.63,-592.027 736.282,-584.994 724,-572.303 620.506,-465.37 762.63,-344.836 652,-245.303 619.924,-216.445 572.016,-210.577 531.476,-212.101"/>
<polygon fill="none" stroke="black" points="531.143,-208.614 521.342,-212.639 531.514,-215.604 531.143,-208.614"/>
</g>
<!-- \\TaskRunnerTest -->
<g id="node15" class="node"><title>\\TaskRunnerTest</title>
<polygon fill="none" stroke="black" points="885,-563.303 775,-563.303 775,-527.303 885,-527.303 885,-563.303"/>
<text text-anchor="middle" x="830" y="-542.403" font-family="Courier,monospace" font-size="11.00">TaskRunnerTest</text>
</g>
<!-- \\TaskRunnerTest&#45;&gt;\\CakeTestCase -->
<g id="edge27" class="edge"><title>\\TaskRunnerTest&#45;&gt;\\CakeTestCase</title>
<path fill="none" stroke="black" d="M774.36,-542.231C756.227,-538.578 737.35,-531.541 724,-518.303 634.897,-429.95 746.991,-327.294 652,-245.303 619.818,-217.526 572.823,-211.433 532.805,-212.566"/>
<polygon fill="none" stroke="black" points="532.633,-209.07 522.794,-213.001 532.937,-216.063 532.633,-209.07"/>
</g>
<!-- \\TaskHelperTest -->
<g id="node16" class="node"><title>\\TaskHelperTest</title>
<polygon fill="none" stroke="black" points="885,-995.303 775,-995.303 775,-959.303 885,-959.303 885,-995.303"/>
<text text-anchor="middle" x="830" y="-974.403" font-family="Courier,monospace" font-size="11.00">TaskHelperTest</text>
</g>
<!-- \\TaskHelperTest&#45;&gt;\\CakeTestCase -->
<g id="edge29" class="edge"><title>\\TaskHelperTest&#45;&gt;\\CakeTestCase</title>
<path fill="none" stroke="black" d="M774.254,-975.57C755.667,-972.096 736.525,-964.829 724,-950.303 621.16,-831.038 762.829,-357.184 652,-245.303 620.564,-213.569 570.362,-208.359 528.505,-210.935"/>
<polygon fill="none" stroke="black" points="528.038,-207.46 518.337,-211.72 528.577,-214.44 528.038,-207.46"/>
</g>
<!-- \\TaskControllerTest -->
<g id="node17" class="node"><title>\\TaskControllerTest</title>
<polygon fill="none" stroke="black" points="899,-509.303 761,-509.303 761,-473.303 899,-473.303 899,-509.303"/>
<text text-anchor="middle" x="830" y="-488.403" font-family="Courier,monospace" font-size="11.00">TaskControllerTest</text>
</g>
<!-- \\ControllerTestCase -->
<g id="node53" class="node"><title>\\ControllerTestCase</title>
<ellipse fill="none" stroke="black" cx="455" cy="-169.303" rx="106.773" ry="18.3848"/>
<text text-anchor="middle" x="455" y="-165.703" font-family="Times Roman,serif" font-size="14.00" fill="gray">\ControllerTestCase</text>
</g>
<!-- \\TaskControllerTest&#45;&gt;\\ControllerTestCase -->
<g id="edge31" class="edge"><title>\\TaskControllerTest&#45;&gt;\\ControllerTestCase</title>
<path fill="none" stroke="black" d="M760.89,-484.82C747.255,-480.683 734.069,-474.242 724,-464.303 636.222,-377.663 744.539,-277.839 652,-196.303 627.295,-174.535 593.651,-165.24 561.159,-162.145"/>
<polygon fill="none" stroke="black" points="561.362,-158.651 551.124,-161.377 560.828,-165.63 561.362,-158.651"/>
</g>
<!-- \\AllTaskTest -->
<g id="node18" class="node"><title>\\AllTaskTest</title>
<polygon fill="none" stroke="black" points="875,-401.303 785,-401.303 785,-365.303 875,-365.303 875,-401.303"/>
<text text-anchor="middle" x="830" y="-380.403" font-family="Courier,monospace" font-size="11.00">AllTaskTest</text>
</g>
<!-- \\PHPUnit_Framework_TestSuite -->
<g id="node55" class="node"><title>\\PHPUnit_Framework_TestSuite</title>
<ellipse fill="none" stroke="black" cx="455" cy="-115.303" rx="166.877" ry="18.3848"/>
<text text-anchor="middle" x="455" y="-111.703" font-family="Times Roman,serif" font-size="14.00" fill="gray">\PHPUnit_Framework_TestSuite</text>
</g>
<!-- \\AllTaskTest&#45;&gt;\\PHPUnit_Framework_TestSuite -->
<g id="edge33" class="edge"><title>\\AllTaskTest&#45;&gt;\\PHPUnit_Framework_TestSuite</title>
<path fill="none" stroke="black" d="M784.326,-381.392C763.63,-378.292 740.22,-371.349 724,-356.303 650.427,-288.06 729.316,-206.275 652,-142.303 643.447,-135.227 633.935,-129.502 623.839,-124.901"/>
<polygon fill="none" stroke="black" points="624.991,-121.59 614.414,-120.985 622.306,-128.054 624.991,-121.59"/>
</g>
<!-- \\TaskShellTest -->
<g id="node19" class="node"><title>\\TaskShellTest</title>
<polygon fill="none" stroke="black" points="882,-941.303 778,-941.303 778,-905.303 882,-905.303 882,-941.303"/>
<text text-anchor="middle" x="830" y="-920.403" font-family="Courier,monospace" font-size="11.00">TaskShellTest</text>
</g>
<!-- \\TaskShellTest&#45;&gt;\\CakeTestCase -->
<g id="edge35" class="edge"><title>\\TaskShellTest&#45;&gt;\\CakeTestCase</title>
<path fill="none" stroke="black" d="M777.899,-922.139C758.233,-918.936 737.396,-911.708 724,-896.303 532.983,-676.644 857.728,-451.25 652,-245.303 620.431,-213.701 570.231,-208.489 528.409,-211.031"/>
<polygon fill="none" stroke="black" points="527.954,-207.556 518.25,-211.807 528.487,-214.535 527.954,-207.556"/>
</g>
<!-- \\TaskServerTaskTest -->
<g id="node20" class="node"><title>\\TaskServerTaskTest</title>
<polygon fill="none" stroke="black" points="899,-887.303 761,-887.303 761,-851.303 899,-851.303 899,-887.303"/>
<text text-anchor="middle" x="830" y="-866.403" font-family="Courier,monospace" font-size="11.00">TaskServerTaskTest</text>
</g>
<!-- \\TaskServerTaskTest&#45;&gt;\\CakeTestCase -->
<g id="edge37" class="edge"><title>\\TaskServerTaskTest&#45;&gt;\\CakeTestCase</title>
<path fill="none" stroke="black" d="M760.88,-864.195C746.91,-860.021 733.587,-853.219 724,-842.303 547.634,-641.503 841.809,-433.448 652,-245.303 620.389,-213.969 570.435,-208.681 528.742,-211.119"/>
<polygon fill="none" stroke="black" points="528.326,-207.64 518.612,-211.869 528.843,-214.621 528.326,-207.64"/>
</g>
<!-- \\TaskServerTaskTestEventModel1 -->
<g id="node21" class="node"><title>\\TaskServerTaskTestEventModel1</title>
<polygon fill="none" stroke="black" points="936,-347.303 724,-347.303 724,-311.303 936,-311.303 936,-347.303"/>
<text text-anchor="middle" x="830" y="-326.403" font-family="Courier,monospace" font-size="11.00">TaskServerTaskTestEventModel1</text>
</g>
<!-- \\CakeEventListener -->
<g id="node59" class="node"><title>\\CakeEventListener</title>
<ellipse fill="none" stroke="black" cx="455" cy="-61.3034" rx="106.98" ry="18.3848"/>
<text text-anchor="middle" x="455" y="-57.7034" font-family="Times Roman,serif" font-size="14.00" fill="gray">\CakeEventListener</text>
</g>
<!-- \\TaskServerTaskTestEventModel1&#45;&gt;\\CakeEventListener -->
<g id="edge39" class="edge"><title>\\TaskServerTaskTestEventModel1&#45;&gt;\\CakeEventListener</title>
<path fill="none" stroke="black" stroke-dasharray="1,5" d="M735.824,-311.213C731.598,-308.615 727.62,-305.661 724,-302.303 650.427,-234.06 729.316,-152.275 652,-88.3034 627.82,-68.2969 595.97,-59.0949 564.946,-55.5466"/>
<polygon fill="none" stroke="black" points="565.202,-52.0551 554.914,-54.5867 564.535,-59.0233 565.202,-52.0551"/>
</g>
<!-- \\TaskServerTest -->
<g id="node22" class="node"><title>\\TaskServerTest</title>
<polygon fill="none" stroke="black" points="885,-833.303 775,-833.303 775,-797.303 885,-797.303 885,-833.303"/>
<text text-anchor="middle" x="830" y="-812.403" font-family="Courier,monospace" font-size="11.00">TaskServerTest</text>
</g>
<!-- \\TaskServerTest&#45;&gt;\\CakeTestCase -->
<g id="edge41" class="edge"><title>\\TaskServerTest&#45;&gt;\\CakeTestCase</title>
<path fill="none" stroke="black" d="M774.493,-813.362C755.929,-809.866 736.742,-802.639 724,-788.303 562.27,-606.344 825.907,-415.662 652,-245.303 620.318,-214.268 570.609,-208.904 529.053,-211.231"/>
<polygon fill="none" stroke="black" points="528.679,-207.748 518.955,-211.953 529.179,-214.731 528.679,-207.748"/>
</g>
<!-- \\TaskProfilerTest -->
<g id="node23" class="node"><title>\\TaskProfilerTest</title>
<polygon fill="none" stroke="black" points="892,-779.303 768,-779.303 768,-743.303 892,-743.303 892,-779.303"/>
<text text-anchor="middle" x="830" y="-758.403" font-family="Courier,monospace" font-size="11.00">TaskProfilerTest</text>
</g>
<!-- \\TaskProfilerTest&#45;&gt;\\CakeTestCase -->
<g id="edge43" class="edge"><title>\\TaskProfilerTest&#45;&gt;\\CakeTestCase</title>
<path fill="none" stroke="black" d="M767.424,-757.716C751.214,-753.783 735.191,-746.714 724,-734.303 576.886,-571.162 810.027,-397.898 652,-245.303 620.21,-214.606 570.745,-209.17 529.335,-211.375"/>
<polygon fill="none" stroke="black" points="529.007,-207.89 519.271,-212.067 529.487,-214.873 529.007,-207.89"/>
</g>
<!-- \\TaskClientTest -->
<g id="node24" class="node"><title>\\TaskClientTest</title>
<polygon fill="none" stroke="black" points="885,-725.303 775,-725.303 775,-689.303 885,-689.303 885,-725.303"/>
<text text-anchor="middle" x="830" y="-704.403" font-family="Courier,monospace" font-size="11.00">TaskClientTest</text>
</g>
<!-- \\TaskClientTest&#45;&gt;\\CakeTestCase -->
<g id="edge45" class="edge"><title>\\TaskClientTest&#45;&gt;\\CakeTestCase</title>
<path fill="none" stroke="black" d="M774.469,-705.081C756.017,-701.544 736.907,-694.362 724,-680.303 591.473,-535.949 794.178,-380.163 652,-245.303 620.168,-215.11 571.184,-209.533 530.026,-211.543"/>
<polygon fill="none" stroke="black" points="529.774,-208.052 520.018,-212.185 530.222,-215.037 529.774,-208.052"/>
</g>
<!-- \\TaskModel -->
<g id="node25" class="node"><title>\\TaskModel</title>
<polygon fill="none" stroke="black" points="493,-1049.3 417,-1049.3 417,-1013.3 493,-1013.3 493,-1049.3"/>
<text text-anchor="middle" x="455" y="-1028.4" font-family="Courier,monospace" font-size="11.00">TaskModel</text>
</g>
<!-- \\AppModel -->
<g id="node64" class="node"><title>\\AppModel</title>
<ellipse fill="none" stroke="black" cx="93" cy="-523.303" rx="62.2254" ry="18.3848"/>
<text text-anchor="middle" x="93" y="-519.703" font-family="Times Roman,serif" font-size="14.00" fill="gray">\AppModel</text>
</g>
<!-- \\TaskModel&#45;&gt;\\AppModel -->
<g id="edge47" class="edge"><title>\\TaskModel&#45;&gt;\\AppModel</title>
<path fill="none" stroke="black" d="M416.363,-1038.24C372.972,-1043.71 302.784,-1045.32 258,-1009.3 183.204,-949.145 117.438,-646.024 98.4789,-551.498"/>
<polygon fill="none" stroke="black" points="101.879,-550.65 96.4976,-541.524 95.0133,-552.014 101.879,-550.65"/>
</g>
<!-- \\TaskProfiler -->
<g id="node26" class="node"><title>\\TaskProfiler</title>
<polygon fill="none" stroke="black" points="879,-455.303 781,-455.303 781,-419.303 879,-419.303 879,-455.303"/>
<text text-anchor="middle" x="830" y="-434.403" font-family="Courier,monospace" font-size="11.00">TaskProfiler</text>
</g>
<!-- \\TaskClient -->
<g id="node27" class="node"><title>\\TaskClient</title>
<polygon fill="none" stroke="black" points="872,-1103.3 788,-1103.3 788,-1067.3 872,-1067.3 872,-1103.3"/>
<text text-anchor="middle" x="830" y="-1082.4" font-family="Courier,monospace" font-size="11.00">TaskClient</text>
</g>
<!-- \\TaskClient&#45;&gt;\\TaskModel -->
<g id="edge49" class="edge"><title>\\TaskClient&#45;&gt;\\TaskModel</title>
<path fill="none" stroke="black" d="M787.712,-1079.21C717.645,-1069.12 577.87,-1049 503.756,-1038.32"/>
<polygon fill="none" stroke="black" points="504.145,-1034.84 493.748,-1036.88 503.147,-1041.77 504.145,-1034.84"/>
</g>
<!-- \\TaskStatistics -->
<g id="node28" class="node"><title>\\TaskStatistics</title>
<polygon fill="none" stroke="black" points="885,-293.303 775,-293.303 775,-257.303 885,-257.303 885,-293.303"/>
<text text-anchor="middle" x="830" y="-272.403" font-family="Courier,monospace" font-size="11.00">TaskStatistics</text>
</g>
<!-- \\TaskStatistics&#45;&gt;\\AppModel -->
<g id="edge51" class="edge"><title>\\TaskStatistics&#45;&gt;\\AppModel</title>
<path fill="none" stroke="black" d="M823.364,-257.184C804.903,-209.827 747.895,-82.6917 652,-34.3034 573.832,5.13992 329.123,16.7606 258,-34.3034 179.421,-90.7205 116.012,-399.86 98.0868,-495.257"/>
<polygon fill="none" stroke="black" points="94.6051,-494.836 96.2187,-505.308 101.487,-496.116 94.6051,-494.836"/>
</g>
<!-- \\TaskServer -->
<g id="node29" class="node"><title>\\TaskServer</title>
<polygon fill="none" stroke="black" points="872,-1049.3 788,-1049.3 788,-1013.3 872,-1013.3 872,-1049.3"/>
<text text-anchor="middle" x="830" y="-1028.4" font-family="Courier,monospace" font-size="11.00">TaskServer</text>
</g>
<!-- \\TaskServer&#45;&gt;\\TaskModel -->
<g id="edge53" class="edge"><title>\\TaskServer&#45;&gt;\\TaskModel</title>
<path fill="none" stroke="black" d="M787.712,-1031.3C717.645,-1031.3 577.87,-1031.3 503.756,-1031.3"/>
<polygon fill="none" stroke="black" points="503.748,-1027.8 493.748,-1031.3 503.748,-1034.8 503.748,-1027.8"/>
</g>
</g>
</svg>
