<?xml version="1.0" encoding="UTF-8" standalone="no"?>
<!DOCTYPE svg PUBLIC "-//W3C//DTD SVG 1.1//EN"
 "http://www.w3.org/Graphics/SVG/1.1/DTD/svg11.dtd">
<!-- Generated by graphviz version 2.26.3 (20100126.1600)
 -->
<!-- Title: G Pages: 1 -->
<svg width="960pt" height="1993pt"
 viewBox="0.00 0.00 960.00 1992.98" xmlns="http://www.w3.org/2000/svg" xmlns:xlink="http://www.w3.org/1999/xlink">
<g id="graph1" class="graph" transform="scale(1 1) rotate(0) translate(4 1988.98)">
<title>G</title>
<polygon fill="white" stroke="white" points="-4,5 -4,-1988.98 957,-1988.98 957,5 -4,5"/>
<g id="graph2" class="cluster"><title>cluster_Global</title>
<polyline fill="none" stroke="gray" points="403,-250.89 932,-250.89 "/>
<path fill="none" stroke="gray" d="M932,-250.89C938,-250.89 944,-256.89 944,-262.89"/>
<polyline fill="none" stroke="gray" points="944,-262.89 944,-1662.89 "/>
<path fill="none" stroke="gray" d="M944,-1662.89C944,-1668.89 938,-1674.89 932,-1674.89"/>
<polyline fill="none" stroke="gray" points="932,-1674.89 403,-1674.89 "/>
<path fill="none" stroke="gray" d="M403,-1674.89C397,-1674.89 391,-1668.89 391,-1662.89"/>
<polyline fill="none" stroke="gray" points="391,-1662.89 391,-262.89 "/>
<path fill="none" stroke="gray" d="M391,-262.89C391,-256.89 397,-250.89 403,-250.89"/>
<text text-anchor="middle" x="667.5" y="-1660.99" font-family="Times Roman,serif" font-size="11.00" fill="gray">Global</text>
</g>
<!-- \\TaskType -->
<g id="node2" class="node"><title>\\TaskType</title>
<polygon fill="none" stroke="black" points="872,-1644.89 788,-1644.89 788,-1608.89 872,-1608.89 872,-1644.89"/>
<text text-anchor="start" x="796" y="-1632.32" font-family="Courier,monospace" font-size="11.00">«abstract»</text>
<text text-anchor="start" x="802.5" y="-1619.12" font-family="Courier,monospace" font-size="11.00">TaskType</text>
</g>
<!-- \\TaskRunner -->
<g id="node3" class="node"><title>\\TaskRunner</title>
<polygon fill="none" stroke="black" points="872,-1536.89 788,-1536.89 788,-1500.89 872,-1500.89 872,-1536.89"/>
<text text-anchor="middle" x="830" y="-1515.99" font-family="Courier,monospace" font-size="11.00">TaskRunner</text>
</g>
<!-- \\Object -->
<g id="node32" class="node"><title>\\Object</title>
<ellipse fill="none" stroke="black" cx="455" cy="-1916.89" rx="45.9619" ry="18.3848"/>
<text text-anchor="middle" x="455" y="-1913.29" font-family="Times Roman,serif" font-size="14.00" fill="gray">\Object</text>
</g>
<!-- \\TaskRunner&#45;&gt;\\Object -->
<g id="edge3" class="edge"><title>\\TaskRunner&#45;&gt;\\Object</title>
<path fill="none" stroke="black" d="M787.772,-1519.43C765.872,-1521.96 740.354,-1528.82 724,-1545.89 615.954,-1658.69 766.255,-1783.38 652,-1889.89 613.699,-1925.6 551.623,-1928.47 507.394,-1924.88"/>
<polygon fill="none" stroke="black" points="507.688,-1921.39 497.403,-1923.94 507.029,-1928.36 507.688,-1921.39"/>
</g>
<!-- \\TaskProcess -->
<g id="node4" class="node"><title>\\TaskProcess</title>
<polygon fill="none" stroke="black" points="875,-1482.89 785,-1482.89 785,-1446.89 875,-1446.89 875,-1482.89"/>
<text text-anchor="middle" x="830" y="-1461.99" font-family="Courier,monospace" font-size="11.00">TaskProcess</text>
</g>
<!-- \\Symfony\\Component\\Process\\Process -->
<g id="node34" class="node"><title>\\Symfony\\Component\\Process\\Process</title>
<ellipse fill="none" stroke="black" cx="455" cy="-1862.89" rx="196.075" ry="18.3848"/>
<text text-anchor="middle" x="455" y="-1859.29" font-family="Times Roman,serif" font-size="14.00" fill="gray">\Symfony\Component\Process\Process</text>
</g>
<!-- \\TaskProcess&#45;&gt;\\Symfony\\Component\\Process\\Process -->
<g id="edge5" class="edge"><title>\\TaskProcess&#45;&gt;\\Symfony\\Component\\Process\\Process</title>
<path fill="none" stroke="black" d="M784.314,-1465.86C763.232,-1468.71 739.5,-1475.71 724,-1491.89 615.954,-1604.69 766.255,-1729.38 652,-1835.89 646.741,-1840.79 641.033,-1845.08 634.985,-1848.81"/>
<polygon fill="none" stroke="black" points="632.914,-1845.96 625.893,-1853.89 636.33,-1852.07 632.914,-1845.96"/>
</g>
<!-- \\TaskHelper -->
<g id="node5" class="node"><title>\\TaskHelper</title>
<polygon fill="none" stroke="black" points="872,-1428.89 788,-1428.89 788,-1392.89 872,-1392.89 872,-1428.89"/>
<text text-anchor="middle" x="830" y="-1407.99" font-family="Courier,monospace" font-size="11.00">TaskHelper</text>
</g>
<!-- \\AppHelper -->
<g id="node36" class="node"><title>\\AppHelper</title>
<ellipse fill="none" stroke="black" cx="455" cy="-1808.89" rx="65.0538" ry="18.3848"/>
<text text-anchor="middle" x="455" y="-1805.29" font-family="Times Roman,serif" font-size="14.00" fill="gray">\AppHelper</text>
</g>
<!-- \\TaskHelper&#45;&gt;\\AppHelper -->
<g id="edge7" class="edge"><title>\\TaskHelper&#45;&gt;\\AppHelper</title>
<path fill="none" stroke="black" d="M787.772,-1411.43C765.872,-1413.96 740.354,-1420.82 724,-1437.89 615.954,-1550.69 766.255,-1675.38 652,-1781.89 618.059,-1813.53 565.448,-1819.39 523.132,-1817.81"/>
<polygon fill="none" stroke="black" points="523.058,-1814.31 512.89,-1817.28 522.696,-1821.3 523.058,-1814.31"/>
</g>
<!-- \\TaskController -->
<g id="node6" class="node"><title>\\TaskController</title>
<polygon fill="none" stroke="black" points="885,-1374.89 775,-1374.89 775,-1338.89 885,-1338.89 885,-1374.89"/>
<text text-anchor="middle" x="830" y="-1353.99" font-family="Courier,monospace" font-size="11.00">TaskController</text>
</g>
<!-- \\AppController -->
<g id="node38" class="node"><title>\\AppController</title>
<ellipse fill="none" stroke="black" cx="455" cy="-1754.89" rx="82.0244" ry="18.3848"/>
<text text-anchor="middle" x="455" y="-1751.29" font-family="Times Roman,serif" font-size="14.00" fill="gray">\AppController</text>
</g>
<!-- \\TaskController&#45;&gt;\\AppController -->
<g id="edge9" class="edge"><title>\\TaskController&#45;&gt;\\AppController</title>
<path fill="none" stroke="black" d="M774.245,-1359.52C755.993,-1363.13 737.07,-1370.24 724,-1383.89 615.954,-1496.69 766.255,-1621.38 652,-1727.89 621.57,-1756.26 576.135,-1763.9 536.565,-1764.04"/>
<polygon fill="none" stroke="black" points="536.42,-1760.54 526.378,-1763.92 536.335,-1767.54 536.42,-1760.54"/>
</g>
<!-- \\TaskServerTask -->
<g id="node7" class="node"><title>\\TaskServerTask</title>
<polygon fill="none" stroke="black" points="510,-1158.89 400,-1158.89 400,-1122.89 510,-1122.89 510,-1158.89"/>
<text text-anchor="middle" x="455" y="-1137.99" font-family="Courier,monospace" font-size="11.00">TaskServerTask</text>
</g>
<!-- \\AdvancedTask -->
<g id="node40" class="node"><title>\\AdvancedTask</title>
<ellipse fill="none" stroke="black" cx="93" cy="-1140.89" rx="82.939" ry="18.3848"/>
<text text-anchor="middle" x="93" y="-1137.29" font-family="Times Roman,serif" font-size="14.00" fill="gray">\AdvancedTask</text>
</g>
<!-- \\TaskServerTask&#45;&gt;\\AdvancedTask -->
<g id="edge11" class="edge"><title>\\TaskServerTask&#45;&gt;\\AdvancedTask</title>
<path fill="none" stroke="black" d="M399.231,-1140.89C342.732,-1140.89 254.302,-1140.89 186.965,-1140.89"/>
<polygon fill="none" stroke="black" points="186.769,-1137.39 176.769,-1140.89 186.769,-1144.39 186.769,-1137.39"/>
</g>
<!-- \\TaskServerOldTask -->
<g id="node8" class="node"><title>\\TaskServerOldTask</title>
<polygon fill="none" stroke="black" points="895,-1158.89 765,-1158.89 765,-1122.89 895,-1122.89 895,-1158.89"/>
<text text-anchor="middle" x="830" y="-1137.99" font-family="Courier,monospace" font-size="11.00">TaskServerOldTask</text>
</g>
<!-- \\TaskServerOldTask&#45;&gt;\\TaskServerTask -->
<g id="edge13" class="edge"><title>\\TaskServerOldTask&#45;&gt;\\TaskServerTask</title>
<path fill="none" stroke="black" d="M764.251,-1140.89C695.82,-1140.89 589.27,-1140.89 520.815,-1140.89"/>
<polygon fill="none" stroke="black" points="520.584,-1137.39 510.584,-1140.89 520.584,-1144.39 520.584,-1137.39"/>
</g>
<!-- \\TaskShell -->
<g id="node9" class="node"><title>\\TaskShell</title>
<polygon fill="none" stroke="black" points="868,-1320.89 792,-1320.89 792,-1284.89 868,-1284.89 868,-1320.89"/>
<text text-anchor="middle" x="830" y="-1299.99" font-family="Courier,monospace" font-size="11.00">TaskShell</text>
</g>
<!-- \\AdvancedShell -->
<g id="node43" class="node"><title>\\AdvancedShell</title>
<ellipse fill="none" stroke="black" cx="455" cy="-1700.89" rx="85.7684" ry="18.3848"/>
<text text-anchor="middle" x="455" y="-1697.29" font-family="Times Roman,serif" font-size="14.00" fill="gray">\AdvancedShell</text>
</g>
<!-- \\TaskShell&#45;&gt;\\AdvancedShell -->
<g id="edge15" class="edge"><title>\\TaskShell&#45;&gt;\\AdvancedShell</title>
<path fill="none" stroke="black" d="M791.411,-1303.02C768.745,-1305.2 741.248,-1311.83 724,-1329.89 614.613,-1444.42 769.034,-1572.18 652,-1678.89 620.703,-1707.43 573.968,-1713.61 533.872,-1712.34"/>
<polygon fill="none" stroke="black" points="533.989,-1708.84 523.834,-1711.86 533.658,-1715.83 533.989,-1708.84"/>
</g>
<!-- \\TaskFixture -->
<g id="node10" class="node"><title>\\TaskFixture</title>
<polygon fill="none" stroke="black" points="500,-1216.89 410,-1216.89 410,-1180.89 500,-1180.89 500,-1216.89"/>
<text text-anchor="middle" x="455" y="-1195.99" font-family="Courier,monospace" font-size="11.00">TaskFixture</text>
</g>
<!-- \\CakeTestFixture -->
<g id="node45" class="node"><title>\\CakeTestFixture</title>
<ellipse fill="none" stroke="black" cx="93" cy="-1248.89" rx="92.1303" ry="18.3848"/>
<text text-anchor="middle" x="93" y="-1245.29" font-family="Times Roman,serif" font-size="14.00" fill="gray">\CakeTestFixture</text>
</g>
<!-- \\TaskFixture&#45;&gt;\\CakeTestFixture -->
<g id="edge17" class="edge"><title>\\TaskFixture&#45;&gt;\\CakeTestFixture</title>
<path fill="none" stroke="black" d="M409.13,-1203.27C369.145,-1207.26 309.63,-1213.63 258,-1220.89 229.428,-1224.91 198.194,-1230.02 170.663,-1234.77"/>
<polygon fill="none" stroke="black" points="169.952,-1231.35 160.7,-1236.51 171.152,-1238.24 169.952,-1231.35"/>
</g>
<!-- \\TaskProfilerFixture -->
<g id="node11" class="node"><title>\\TaskProfilerFixture</title>
<polygon fill="none" stroke="black" points="902,-1212.89 758,-1212.89 758,-1176.89 902,-1176.89 902,-1212.89"/>
<text text-anchor="middle" x="830" y="-1191.99" font-family="Courier,monospace" font-size="11.00">TaskProfilerFixture</text>
</g>
<!-- \\TaskProfilerFixture&#45;&gt;\\TaskFixture -->
<g id="edge19" class="edge"><title>\\TaskProfilerFixture&#45;&gt;\\TaskFixture</title>
<path fill="none" stroke="black" d="M757.252,-1195.67C685.176,-1196.43 576.342,-1197.6 510.824,-1198.29"/>
<polygon fill="none" stroke="black" points="510.655,-1194.8 500.693,-1198.4 510.729,-1201.8 510.655,-1194.8"/>
</g>
<!-- \\TaskStatisticsFixture -->
<g id="node12" class="node"><title>\\TaskStatisticsFixture</title>
<polygon fill="none" stroke="black" points="909,-1590.89 751,-1590.89 751,-1554.89 909,-1554.89 909,-1590.89"/>
<text text-anchor="middle" x="830" y="-1569.99" font-family="Courier,monospace" font-size="11.00">TaskStatisticsFixture</text>
</g>
<!-- \\TaskStatisticsFixture&#45;&gt;\\CakeTestFixture -->
<g id="edge21" class="edge"><title>\\TaskStatisticsFixture&#45;&gt;\\CakeTestFixture</title>
<path fill="none" stroke="black" d="M750.998,-1582.3C740.896,-1586.4 731.487,-1592.07 724,-1599.89 615.954,-1712.69 773.238,-1845.4 652,-1943.89 584.042,-1999.1 326.69,-1998.18 258,-1943.89 149.854,-1858.41 105.107,-1397.28 95.2018,-1277.39"/>
<polygon fill="none" stroke="black" points="98.671,-1276.87 94.3752,-1267.18 91.6938,-1277.43 98.671,-1276.87"/>
</g>
<!-- \\DependentTaskFixture -->
<g id="node13" class="node"><title>\\DependentTaskFixture</title>
<polygon fill="none" stroke="black" points="906,-1266.89 754,-1266.89 754,-1230.89 906,-1230.89 906,-1266.89"/>
<text text-anchor="middle" x="830" y="-1245.99" font-family="Courier,monospace" font-size="11.00">DependentTaskFixture</text>
</g>
<!-- \\DependentTaskFixture&#45;&gt;\\CakeTestFixture -->
<g id="edge23" class="edge"><title>\\DependentTaskFixture&#45;&gt;\\CakeTestFixture</title>
<path fill="none" stroke="black" d="M753.904,-1248.89C620.793,-1248.89 345.614,-1248.89 195.741,-1248.89"/>
<polygon fill="none" stroke="black" points="195.611,-1245.39 185.611,-1248.89 195.611,-1252.39 195.611,-1245.39"/>
</g>
<!-- \\TaskTypeTest -->
<g id="node14" class="node"><title>\\TaskTypeTest</title>
<polygon fill="none" stroke="black" points="879,-564.89 781,-564.89 781,-528.89 879,-528.89 879,-564.89"/>
<text text-anchor="middle" x="830" y="-543.99" font-family="Courier,monospace" font-size="11.00">TaskTypeTest</text>
</g>
<!-- \\CakeTestCase -->
<g id="node50" class="node"><title>\\CakeTestCase</title>
<ellipse fill="none" stroke="black" cx="455" cy="-224.89" rx="82.0244" ry="18.3848"/>
<text text-anchor="middle" x="455" y="-221.29" font-family="Times Roman,serif" font-size="14.00" fill="gray">\CakeTestCase</text>
</g>
<!-- \\TaskTypeTest&#45;&gt;\\CakeTestCase -->
<g id="edge25" class="edge"><title>\\TaskTypeTest&#45;&gt;\\CakeTestCase</title>
<path fill="none" stroke="black" d="M780.91,-545.001C760.885,-541.779 738.968,-534.732 724,-519.89 634.897,-431.536 746.991,-328.88 652,-246.89 619.818,-219.112 572.823,-213.02 532.805,-214.152"/>
<polygon fill="none" stroke="black" points="532.633,-210.656 522.794,-214.587 532.937,-217.65 532.633,-210.656"/>
</g>
<!-- \\TaskProcessTest -->
<g id="node15" class="node"><title>\\TaskProcessTest</title>
<polygon fill="none" stroke="black" points="889,-996.89 771,-996.89 771,-960.89 889,-960.89 889,-996.89"/>
<text text-anchor="middle" x="830" y="-975.99" font-family="Courier,monospace" font-size="11.00">TaskProcessTest</text>
</g>
<!-- \\TaskProcessTest&#45;&gt;\\CakeTestCase -->
<g id="edge27" class="edge"><title>\\TaskProcessTest&#45;&gt;\\CakeTestCase</title>
<path fill="none" stroke="black" d="M770.937,-976.496C753.416,-972.793 735.781,-965.552 724,-951.89 621.16,-832.624 762.829,-358.77 652,-246.89 620.564,-215.155 570.362,-209.945 528.505,-212.521"/>
<polygon fill="none" stroke="black" points="528.038,-209.047 518.337,-213.306 528.577,-216.026 528.038,-209.047"/>
</g>
<!-- \\TaskRunnerTest -->
<g id="node16" class="node"><title>\\TaskRunnerTest</title>
<polygon fill="none" stroke="black" points="885,-942.89 775,-942.89 775,-906.89 885,-906.89 885,-942.89"/>
<text text-anchor="middle" x="830" y="-921.99" font-family="Courier,monospace" font-size="11.00">TaskRunnerTest</text>
</g>
<!-- \\TaskRunnerTest&#45;&gt;\\CakeTestCase -->
<g id="edge29" class="edge"><title>\\TaskRunnerTest&#45;&gt;\\CakeTestCase</title>
<path fill="none" stroke="black" d="M774.321,-923.099C755.74,-919.618 736.586,-912.363 724,-897.89 532.983,-678.23 857.728,-452.836 652,-246.89 620.431,-215.287 570.231,-210.076 528.409,-212.617"/>
<polygon fill="none" stroke="black" points="527.954,-209.142 518.25,-213.394 528.487,-216.121 527.954,-209.142"/>
</g>
<!-- \\TaskHelperTest -->
<g id="node17" class="node"><title>\\TaskHelperTest</title>
<polygon fill="none" stroke="black" points="885,-888.89 775,-888.89 775,-852.89 885,-852.89 885,-888.89"/>
<text text-anchor="middle" x="830" y="-867.99" font-family="Courier,monospace" font-size="11.00">TaskHelperTest</text>
</g>
<!-- \\TaskHelperTest&#45;&gt;\\CakeTestCase -->
<g id="edge31" class="edge"><title>\\TaskHelperTest&#45;&gt;\\CakeTestCase</title>
<path fill="none" stroke="black" d="M774.399,-869.03C755.827,-865.543 736.657,-858.3 724,-843.89 547.634,-643.089 841.809,-435.034 652,-246.89 620.389,-215.555 570.435,-210.267 528.742,-212.705"/>
<polygon fill="none" stroke="black" points="528.326,-209.226 518.612,-213.455 528.843,-216.207 528.326,-209.226"/>
</g>
<!-- \\TaskControllerTest -->
<g id="node18" class="node"><title>\\TaskControllerTest</title>
<polygon fill="none" stroke="black" points="899,-510.89 761,-510.89 761,-474.89 899,-474.89 899,-510.89"/>
<text text-anchor="middle" x="830" y="-489.99" font-family="Courier,monospace" font-size="11.00">TaskControllerTest</text>
</g>
<!-- \\ControllerTestCase -->
<g id="node55" class="node"><title>\\ControllerTestCase</title>
<ellipse fill="none" stroke="black" cx="455" cy="-170.89" rx="106.773" ry="18.3848"/>
<text text-anchor="middle" x="455" y="-167.29" font-family="Times Roman,serif" font-size="14.00" fill="gray">\ControllerTestCase</text>
</g>
<!-- \\TaskControllerTest&#45;&gt;\\ControllerTestCase -->
<g id="edge33" class="edge"><title>\\TaskControllerTest&#45;&gt;\\ControllerTestCase</title>
<path fill="none" stroke="black" d="M760.89,-486.406C747.255,-482.269 734.069,-475.828 724,-465.89 636.222,-379.249 744.539,-279.425 652,-197.89 627.295,-176.122 593.651,-166.826 561.159,-163.732"/>
<polygon fill="none" stroke="black" points="561.362,-160.237 551.124,-162.963 560.828,-167.216 561.362,-160.237"/>
</g>
<!-- \\AllTaskTest -->
<g id="node19" class="node"><title>\\AllTaskTest</title>
<polygon fill="none" stroke="black" points="875,-456.89 785,-456.89 785,-420.89 875,-420.89 875,-456.89"/>
<text text-anchor="middle" x="830" y="-435.99" font-family="Courier,monospace" font-size="11.00">AllTaskTest</text>
</g>
<!-- \\PHPUnit_Framework_TestSuite -->
<g id="node57" class="node"><title>\\PHPUnit_Framework_TestSuite</title>
<ellipse fill="none" stroke="black" cx="455" cy="-116.89" rx="166.877" ry="18.3848"/>
<text text-anchor="middle" x="455" y="-113.29" font-family="Times Roman,serif" font-size="14.00" fill="gray">\PHPUnit_Framework_TestSuite</text>
</g>
<!-- \\AllTaskTest&#45;&gt;\\PHPUnit_Framework_TestSuite -->
<g id="edge35" class="edge"><title>\\AllTaskTest&#45;&gt;\\PHPUnit_Framework_TestSuite</title>
<path fill="none" stroke="black" d="M784.438,-437.496C763.514,-434.538 739.881,-427.564 724,-411.89 636.222,-325.249 744.539,-225.425 652,-143.89 643.77,-136.638 634.549,-130.771 624.708,-126.056"/>
<polygon fill="none" stroke="black" points="626.073,-122.833 615.508,-122.043 623.275,-129.249 626.073,-122.833"/>
</g>
<!-- \\TaskShellTest -->
<g id="node20" class="node"><title>\\TaskShellTest</title>
<polygon fill="none" stroke="black" points="882,-834.89 778,-834.89 778,-798.89 882,-798.89 882,-834.89"/>
<text text-anchor="middle" x="830" y="-813.99" font-family="Courier,monospace" font-size="11.00">TaskShellTest</text>
</g>
<!-- \\TaskShellTest&#45;&gt;\\CakeTestCase -->
<g id="edge37" class="edge"><title>\\TaskShellTest&#45;&gt;\\CakeTestCase</title>
<path fill="none" stroke="black" d="M777.793,-815.532C758.232,-812.286 737.499,-805.077 724,-789.89 562.27,-607.93 825.907,-417.248 652,-246.89 620.318,-215.854 570.609,-210.49 529.053,-212.817"/>
<polygon fill="none" stroke="black" points="528.679,-209.334 518.955,-213.539 529.179,-216.317 528.679,-209.334"/>
</g>
<!-- \\TaskServerTaskTest -->
<g id="node21" class="node"><title>\\TaskServerTaskTest</title>
<polygon fill="none" stroke="black" points="899,-780.89 761,-780.89 761,-744.89 899,-744.89 899,-780.89"/>
<text text-anchor="middle" x="830" y="-759.99" font-family="Courier,monospace" font-size="11.00">TaskServerTaskTest</text>
</g>
<!-- \\TaskServerTaskTest&#45;&gt;\\CakeTestCase -->
<g id="edge39" class="edge"><title>\\TaskServerTaskTest&#45;&gt;\\CakeTestCase</title>
<path fill="none" stroke="black" d="M760.815,-757.512C746.934,-753.342 733.665,-746.608 724,-735.89 576.886,-572.748 810.027,-399.484 652,-246.89 620.21,-216.192 570.745,-210.756 529.335,-212.962"/>
<polygon fill="none" stroke="black" points="529.007,-209.476 519.271,-213.653 529.487,-216.459 529.007,-209.476"/>
</g>
<!-- \\TaskServerTaskTestEventModel1 -->
<g id="node22" class="node"><title>\\TaskServerTaskTestEventModel1</title>
<polygon fill="none" stroke="black" points="936,-402.89 724,-402.89 724,-366.89 936,-366.89 936,-402.89"/>
<text text-anchor="middle" x="830" y="-381.99" font-family="Courier,monospace" font-size="11.00">TaskServerTaskTestEventModel1</text>
</g>
<!-- \\CakeEventListener -->
<g id="node61" class="node"><title>\\CakeEventListener</title>
<ellipse fill="none" stroke="black" cx="455" cy="-62.8895" rx="106.98" ry="18.3848"/>
<text text-anchor="middle" x="455" y="-59.2895" font-family="Times Roman,serif" font-size="14.00" fill="gray">\CakeEventListener</text>
</g>
<!-- \\TaskServerTaskTestEventModel1&#45;&gt;\\CakeEventListener -->
<g id="edge41" class="edge"><title>\\TaskServerTaskTestEventModel1&#45;&gt;\\CakeEventListener</title>
<path fill="none" stroke="black" stroke-dasharray="1,5" d="M735.089,-366.758C731.109,-364.166 727.379,-361.225 724,-357.89 636.222,-271.249 744.539,-171.425 652,-89.8895 627.412,-68.225 593.97,-58.9151 561.623,-55.7761"/>
<polygon fill="none" stroke="black" points="561.873,-52.285 551.63,-54.9932 561.326,-59.2636 561.873,-52.285"/>
</g>
<!-- \\TaskServerTest -->
<g id="node23" class="node"><title>\\TaskServerTest</title>
<polygon fill="none" stroke="black" points="885,-726.89 775,-726.89 775,-690.89 885,-690.89 885,-726.89"/>
<text text-anchor="middle" x="830" y="-705.99" font-family="Courier,monospace" font-size="11.00">TaskServerTest</text>
</g>
<!-- \\TaskServerTest&#45;&gt;\\CakeTestCase -->
<g id="edge43" class="edge"><title>\\TaskServerTest&#45;&gt;\\CakeTestCase</title>
<path fill="none" stroke="black" d="M774.469,-706.668C756.017,-703.13 736.907,-695.949 724,-681.89 591.473,-537.535 794.178,-381.75 652,-246.89 620.168,-216.696 571.184,-211.119 530.026,-213.129"/>
<polygon fill="none" stroke="black" points="529.774,-209.638 520.018,-213.771 530.222,-216.623 529.774,-209.638"/>
</g>
<!-- \\TaskProfilerTest -->
<g id="node24" class="node"><title>\\TaskProfilerTest</title>
<polygon fill="none" stroke="black" points="892,-672.89 768,-672.89 768,-636.89 892,-636.89 892,-672.89"/>
<text text-anchor="middle" x="830" y="-651.99" font-family="Courier,monospace" font-size="11.00">TaskProfilerTest</text>
</g>
<!-- \\TaskProfilerTest&#45;&gt;\\CakeTestCase -->
<g id="edge45" class="edge"><title>\\TaskProfilerTest&#45;&gt;\\CakeTestCase</title>
<path fill="none" stroke="black" d="M767.47,-650.938C751.359,-646.988 735.376,-640.001 724,-627.89 606.02,-502.277 778.372,-364.056 652,-246.89 620.011,-217.231 571.402,-211.549 530.474,-213.372"/>
<polygon fill="none" stroke="black" points="530.021,-209.893 520.249,-213.987 530.441,-216.88 530.021,-209.893"/>
</g>
<!-- \\TaskClientTest -->
<g id="node25" class="node"><title>\\TaskClientTest</title>
<polygon fill="none" stroke="black" points="885,-618.89 775,-618.89 775,-582.89 885,-582.89 885,-618.89"/>
<text text-anchor="middle" x="830" y="-597.99" font-family="Courier,monospace" font-size="11.00">TaskClientTest</text>
</g>
<!-- \\TaskClientTest&#45;&gt;\\CakeTestCase -->
<g id="edge47" class="edge"><title>\\TaskClientTest&#45;&gt;\\CakeTestCase</title>
<path fill="none" stroke="black" d="M774.325,-598.178C756.08,-594.569 737.141,-587.467 724,-573.89 620.506,-466.956 762.63,-346.422 652,-246.89 619.924,-218.032 572.016,-212.163 531.476,-213.688"/>
<polygon fill="none" stroke="black" points="531.143,-210.2 521.342,-214.225 531.514,-217.19 531.143,-210.2"/>
</g>
<!-- \\TaskModel -->
<g id="node26" class="node"><title>\\TaskModel</title>
<polygon fill="none" stroke="black" points="493,-1050.89 417,-1050.89 417,-1014.89 493,-1014.89 493,-1050.89"/>
<text text-anchor="middle" x="455" y="-1029.99" font-family="Courier,monospace" font-size="11.00">TaskModel</text>
</g>
<!-- \\AppModel -->
<g id="node66" class="node"><title>\\AppModel</title>
<ellipse fill="none" stroke="black" cx="93" cy="-524.89" rx="62.2254" ry="18.3848"/>
<text text-anchor="middle" x="93" y="-521.29" font-family="Times Roman,serif" font-size="14.00" fill="gray">\AppModel</text>
</g>
<!-- \\TaskModel&#45;&gt;\\AppModel -->
<g id="edge49" class="edge"><title>\\TaskModel&#45;&gt;\\AppModel</title>
<path fill="none" stroke="black" d="M416.363,-1039.82C372.972,-1045.3 302.784,-1046.91 258,-1010.89 183.204,-950.731 117.438,-647.61 98.4789,-553.084"/>
<polygon fill="none" stroke="black" points="101.879,-552.237 96.4976,-543.11 95.0133,-553.601 101.879,-552.237"/>
</g>
<!-- \\TaskProfiler -->
<g id="node27" class="node"><title>\\TaskProfiler</title>
<polygon fill="none" stroke="black" points="879,-348.89 781,-348.89 781,-312.89 879,-312.89 879,-348.89"/>
<text text-anchor="middle" x="830" y="-327.99" font-family="Courier,monospace" font-size="11.00">TaskProfiler</text>
</g>
<!-- \\TaskProfiler&#45;&gt;\\AppModel -->
<g id="edge51" class="edge"><title>\\TaskProfiler&#45;&gt;\\AppModel</title>
<path fill="none" stroke="black" d="M780.942,-328.968C760.923,-325.74 739.002,-318.697 724,-303.89 636.222,-217.249 746.153,-115.555 652,-35.8895 584.85,20.9278 541.984,-3.81325 455,-16.8895"/>
</g>
<!-- \\TaskClient -->
<g id="node28" class="node"><title>\\TaskClient</title>
<polygon fill="none" stroke="black" points="872,-1104.89 788,-1104.89 788,-1068.89 872,-1068.89 872,-1104.89"/>
<text text-anchor="middle" x="830" y="-1083.99" font-family="Courier,monospace" font-size="11.00">TaskClient</text>
</g>
<!-- \\TaskClient&#45;&gt;\\TaskModel -->
<g id="edge53" class="edge"><title>\\TaskClient&#45;&gt;\\TaskModel</title>
<path fill="none" stroke="black" d="M787.712,-1080.8C717.645,-1070.71 577.87,-1050.58 503.756,-1039.91"/>
<polygon fill="none" stroke="black" points="504.145,-1036.43 493.748,-1038.47 503.147,-1043.36 504.145,-1036.43"/>
</g>
<!-- \\TaskStatistics -->
<g id="node29" class="node"><title>\\TaskStatistics</title>
<polygon fill="none" stroke="black" points="885,-294.89 775,-294.89 775,-258.89 885,-258.89 885,-294.89"/>
<text text-anchor="middle" x="830" y="-273.99" font-family="Courier,monospace" font-size="11.00">TaskStatistics</text>
</g>
<!-- \\TaskStatistics&#45;&gt;\\AppModel -->
<g id="edge55" class="edge"><title>\\TaskStatistics&#45;&gt;\\AppModel</title>
<path fill="none" stroke="black" d="M822.81,-258.605C803.394,-211.971 745.006,-88.5739 652,-35.8895 575.465,7.4649 541.984,-3.81325 455,-16.8895"/>
<path fill="none" stroke="black" d="M455,-16.8895C368.016,-29.9658 326.905,18.7859 258,-35.8895 182.308,-95.9506 117.035,-401.925 98.3551,-496.799"/>
<polygon fill="none" stroke="black" points="94.8834,-496.317 96.405,-506.802 101.754,-497.656 94.8834,-496.317"/>
</g>
<!-- \\TaskServer -->
<g id="node30" class="node"><title>\\TaskServer</title>
<polygon fill="none" stroke="black" points="872,-1050.89 788,-1050.89 788,-1014.89 872,-1014.89 872,-1050.89"/>
<text text-anchor="middle" x="830" y="-1029.99" font-family="Courier,monospace" font-size="11.00">TaskServer</text>
</g>
<!-- \\TaskServer&#45;&gt;\\TaskModel -->
<g id="edge57" class="edge"><title>\\TaskServer&#45;&gt;\\TaskModel</title>
<path fill="none" stroke="black" d="M787.712,-1032.89C717.645,-1032.89 577.87,-1032.89 503.756,-1032.89"/>
<polygon fill="none" stroke="black" points="503.748,-1029.39 493.748,-1032.89 503.748,-1036.39 503.748,-1029.39"/>
</g>
</g>
</svg>
