<?xml version="1.0" encoding="UTF-8" standalone="no"?>
<!DOCTYPE svg PUBLIC "-//W3C//DTD SVG 1.1//EN"
 "http://www.w3.org/Graphics/SVG/1.1/DTD/svg11.dtd">
<!-- Generated by graphviz version 2.26.3 (20100126.1600)
 -->
<!-- Title: G Pages: 1 -->
<svg width="960pt" height="2024pt"
 viewBox="0.00 0.00 960.00 2024.00" xmlns="http://www.w3.org/2000/svg" xmlns:xlink="http://www.w3.org/1999/xlink">
<g id="graph1" class="graph" transform="scale(1 1) rotate(0) translate(4 2020)">
<title>G</title>
<polygon fill="white" stroke="white" points="-4,5 -4,-2020 957,-2020 957,5 -4,5"/>
<g id="graph2" class="cluster"><title>cluster_Global</title>
<polyline fill="none" stroke="gray" points="403,-530 932,-530 "/>
<path fill="none" stroke="gray" d="M932,-530C938,-530 944,-536 944,-542"/>
<polyline fill="none" stroke="gray" points="944,-542 944,-1996 "/>
<path fill="none" stroke="gray" d="M944,-1996C944,-2002 938,-2008 932,-2008"/>
<polyline fill="none" stroke="gray" points="932,-2008 403,-2008 "/>
<path fill="none" stroke="gray" d="M403,-2008C397,-2008 391,-2002 391,-1996"/>
<polyline fill="none" stroke="gray" points="391,-1996 391,-542 "/>
<path fill="none" stroke="gray" d="M391,-542C391,-536 397,-530 403,-530"/>
<text text-anchor="middle" x="667.5" y="-1994.1" font-family="Times Roman,serif" font-size="11.00" fill="gray">Global</text>
</g>
<!-- \\TaskHelper -->
<g id="node2" class="node"><title>\\TaskHelper</title>
<polygon fill="none" stroke="black" points="872,-1546 788,-1546 788,-1510 872,-1510 872,-1546"/>
<text text-anchor="middle" x="830" y="-1525.1" font-family="Courier,monospace" font-size="11.00">TaskHelper</text>
</g>
<!-- \\AppHelper -->
<g id="node33" class="node"><title>\\AppHelper</title>
<ellipse fill="none" stroke="black" cx="455" cy="-504" rx="65.0538" ry="18.3848"/>
<text text-anchor="middle" x="455" y="-500.4" font-family="Times Roman,serif" font-size="14.00" fill="gray">\AppHelper</text>
</g>
<!-- \\TaskHelper&#45;&gt;\\AppHelper -->
<g id="edge3" class="edge"><title>\\TaskHelper&#45;&gt;\\AppHelper</title>
<path fill="none" stroke="black" d="M787.914,-1528.4C765.494,-1526.22 739.431,-1519.41 724,-1501 584.447,-1334.49 802.716,-682.477 652,-526 618.223,-490.932 561.611,-487.906 517.72,-492.216"/>
<polygon fill="none" stroke="black" points="517.257,-488.746 507.712,-493.345 518.041,-495.702 517.257,-488.746"/>
</g>
<!-- \\TaskStatisticsFixture -->
<g id="node3" class="node"><title>\\TaskStatisticsFixture</title>
<polygon fill="none" stroke="black" points="909,-1978 751,-1978 751,-1942 909,-1942 909,-1978"/>
<text text-anchor="middle" x="830" y="-1957.1" font-family="Courier,monospace" font-size="11.00">TaskStatisticsFixture</text>
</g>
<!-- \\CakeTestFixture -->
<g id="node35" class="node"><title>\\CakeTestFixture</title>
<ellipse fill="none" stroke="black" cx="93" cy="-1869" rx="92.1303" ry="18.3848"/>
<text text-anchor="middle" x="93" y="-1865.4" font-family="Times Roman,serif" font-size="14.00" fill="gray">\CakeTestFixture</text>
</g>
<!-- \\TaskStatisticsFixture&#45;&gt;\\CakeTestFixture -->
<g id="edge5" class="edge"><title>\\TaskStatisticsFixture&#45;&gt;\\CakeTestFixture</title>
<path fill="none" stroke="black" d="M750.932,-1955.03C675,-1950.08 557.086,-1941.95 455,-1933"/>
</g>
<!-- \\TaskProfilerFixture -->
<g id="node4" class="node"><title>\\TaskProfilerFixture</title>
<polygon fill="none" stroke="black" points="902,-1870 758,-1870 758,-1834 902,-1834 902,-1870"/>
<text text-anchor="middle" x="830" y="-1849.1" font-family="Courier,monospace" font-size="11.00">TaskProfilerFixture</text>
</g>
<!-- \\TaskFixture -->
<g id="node5" class="node"><title>\\TaskFixture</title>
<polygon fill="none" stroke="black" points="500,-1879 410,-1879 410,-1843 500,-1843 500,-1879"/>
<text text-anchor="middle" x="455" y="-1858.1" font-family="Courier,monospace" font-size="11.00">TaskFixture</text>
</g>
<!-- \\TaskProfilerFixture&#45;&gt;\\TaskFixture -->
<g id="edge7" class="edge"><title>\\TaskProfilerFixture&#45;&gt;\\TaskFixture</title>
<path fill="none" stroke="black" d="M757.252,-1853.75C685.176,-1855.48 576.342,-1858.09 510.824,-1859.66"/>
<polygon fill="none" stroke="black" points="510.606,-1856.16 500.693,-1859.9 510.774,-1863.16 510.606,-1856.16"/>
</g>
<!-- \\TaskFixture&#45;&gt;\\CakeTestFixture -->
<g id="edge9" class="edge"><title>\\TaskFixture&#45;&gt;\\CakeTestFixture</title>
<path fill="none" stroke="black" d="M409.152,-1862.01C355.659,-1863.2 265.573,-1865.19 195.218,-1866.74"/>
<polygon fill="none" stroke="black" points="194.908,-1863.25 184.988,-1866.97 195.063,-1870.25 194.908,-1863.25"/>
</g>
<!-- \\DependentTaskFixture -->
<g id="node6" class="node"><title>\\DependentTaskFixture</title>
<polygon fill="none" stroke="black" points="906,-1924 754,-1924 754,-1888 906,-1888 906,-1924"/>
<text text-anchor="middle" x="830" y="-1903.1" font-family="Courier,monospace" font-size="11.00">DependentTaskFixture</text>
</g>
<!-- \\DependentTaskFixture&#45;&gt;\\CakeTestFixture -->
<g id="edge11" class="edge"><title>\\DependentTaskFixture&#45;&gt;\\CakeTestFixture</title>
<path fill="none" stroke="black" d="M753.813,-1918.6C678.007,-1929.46 558.387,-1942.07 455,-1933"/>
<path fill="none" stroke="black" d="M455,-1933C352.229,-1923.99 234.911,-1900.84 162.394,-1885"/>
<polygon fill="none" stroke="black" points="162.983,-1881.55 152.465,-1882.82 161.479,-1888.38 162.983,-1881.55"/>
</g>
<!-- \\TaskHelperTest -->
<g id="node7" class="node"><title>\\TaskHelperTest</title>
<polygon fill="none" stroke="black" points="885,-1060 775,-1060 775,-1024 885,-1024 885,-1060"/>
<text text-anchor="middle" x="830" y="-1039.1" font-family="Courier,monospace" font-size="11.00">TaskHelperTest</text>
</g>
<!-- \\CakeTestCase -->
<g id="node40" class="node"><title>\\CakeTestCase</title>
<ellipse fill="none" stroke="black" cx="455" cy="-450" rx="82.0244" ry="18.3848"/>
<text text-anchor="middle" x="455" y="-446.4" font-family="Times Roman,serif" font-size="14.00" fill="gray">\CakeTestCase</text>
</g>
<!-- \\TaskHelperTest&#45;&gt;\\CakeTestCase -->
<g id="edge13" class="edge"><title>\\TaskHelperTest&#45;&gt;\\CakeTestCase</title>
<path fill="none" stroke="black" d="M774.227,-1040C755.75,-1036.48 736.688,-1029.26 724,-1015 563.624,-834.784 822.314,-647.855 652,-477 621.894,-446.798 574.971,-439.457 534.472,-439.946"/>
<polygon fill="none" stroke="black" points="534.227,-436.451 524.328,-440.23 534.423,-443.449 534.227,-436.451"/>
</g>
<!-- \\TaskServerTest -->
<g id="node8" class="node"><title>\\TaskServerTest</title>
<polygon fill="none" stroke="black" points="885,-1492 775,-1492 775,-1456 885,-1456 885,-1492"/>
<text text-anchor="middle" x="830" y="-1471.1" font-family="Courier,monospace" font-size="11.00">TaskServerTest</text>
</g>
<!-- \\TaskServerTest&#45;&gt;\\CakeTestCase -->
<g id="edge15" class="edge"><title>\\TaskServerTest&#45;&gt;\\CakeTestCase</title>
<path fill="none" stroke="black" d="M774.308,-1472.51C755.611,-1469.07 736.384,-1461.77 724,-1447 585.128,-1281.37 800.02,-634.513 652,-477 622.189,-445.277 573.946,-438.256 532.664,-439.297"/>
<polygon fill="none" stroke="black" points="532.457,-435.803 522.609,-439.71 532.744,-442.797 532.457,-435.803"/>
</g>
<!-- \\TaskProfilerTest -->
<g id="node9" class="node"><title>\\TaskProfilerTest</title>
<polygon fill="none" stroke="black" points="892,-1438 768,-1438 768,-1402 892,-1402 892,-1438"/>
<text text-anchor="middle" x="830" y="-1417.1" font-family="Courier,monospace" font-size="11.00">TaskProfilerTest</text>
</g>
<!-- \\TaskProfilerTest&#45;&gt;\\CakeTestCase -->
<g id="edge17" class="edge"><title>\\TaskProfilerTest&#45;&gt;\\CakeTestCase</title>
<path fill="none" stroke="black" d="M767.426,-1417.03C751.016,-1413.13 734.887,-1405.93 724,-1393 592.475,-1236.82 792.15,-625.489 652,-477 622.12,-445.342 573.876,-438.321 532.611,-439.348"/>
<polygon fill="none" stroke="black" points="532.409,-435.853 522.56,-439.756 532.694,-442.847 532.409,-435.853"/>
</g>
<!-- \\TaskClientTest -->
<g id="node10" class="node"><title>\\TaskClientTest</title>
<polygon fill="none" stroke="black" points="885,-1384 775,-1384 775,-1348 885,-1348 885,-1384"/>
<text text-anchor="middle" x="830" y="-1363.1" font-family="Courier,monospace" font-size="11.00">TaskClientTest</text>
</g>
<!-- \\TaskClientTest&#45;&gt;\\CakeTestCase -->
<g id="edge19" class="edge"><title>\\TaskClientTest&#45;&gt;\\CakeTestCase</title>
<path fill="none" stroke="black" d="M774.383,-1364.44C755.693,-1361 736.452,-1353.71 724,-1339 599.82,-1192.27 784.281,-616.467 652,-477 622.152,-445.531 574.151,-438.447 533.005,-439.393"/>
<polygon fill="none" stroke="black" points="532.837,-435.897 522.98,-439.782 533.109,-442.892 532.837,-435.897"/>
</g>
<!-- \\TaskTypeTest -->
<g id="node11" class="node"><title>\\TaskTypeTest</title>
<polygon fill="none" stroke="black" points="879,-1330 781,-1330 781,-1294 879,-1294 879,-1330"/>
<text text-anchor="middle" x="830" y="-1309.1" font-family="Courier,monospace" font-size="11.00">TaskTypeTest</text>
</g>
<!-- \\TaskTypeTest&#45;&gt;\\CakeTestCase -->
<g id="edge21" class="edge"><title>\\TaskTypeTest&#45;&gt;\\CakeTestCase</title>
<path fill="none" stroke="black" d="M780.746,-1311.44C760.191,-1308.52 737.908,-1301.34 724,-1285 607.163,-1147.72 776.416,-607.449 652,-477 622.065,-445.614 574.062,-438.532 532.937,-439.458"/>
<polygon fill="none" stroke="black" points="532.777,-435.961 522.918,-439.841 533.045,-442.956 532.777,-435.961"/>
</g>
<!-- \\TaskRunnerTest -->
<g id="node12" class="node"><title>\\TaskRunnerTest</title>
<polygon fill="none" stroke="black" points="885,-1276 775,-1276 775,-1240 885,-1240 885,-1276"/>
<text text-anchor="middle" x="830" y="-1255.1" font-family="Courier,monospace" font-size="11.00">TaskRunnerTest</text>
</g>
<!-- \\TaskRunnerTest&#45;&gt;\\CakeTestCase -->
<g id="edge23" class="edge"><title>\\TaskRunnerTest&#45;&gt;\\CakeTestCase</title>
<path fill="none" stroke="black" d="M774.478,-1256.36C755.798,-1252.91 736.539,-1245.64 724,-1231 614.503,-1103.17 768.554,-598.434 652,-477 622.14,-445.89 574.516,-438.711 533.573,-439.517"/>
<polygon fill="none" stroke="black" points="533.191,-436.028 523.323,-439.884 533.442,-443.024 533.191,-436.028"/>
</g>
<!-- \\TaskProcessTest -->
<g id="node13" class="node"><title>\\TaskProcessTest</title>
<polygon fill="none" stroke="black" points="889,-1222 771,-1222 771,-1186 889,-1186 889,-1222"/>
<text text-anchor="middle" x="830" y="-1201.1" font-family="Courier,monospace" font-size="11.00">TaskProcessTest</text>
</g>
<!-- \\TaskProcessTest&#45;&gt;\\CakeTestCase -->
<g id="edge25" class="edge"><title>\\TaskProcessTest&#45;&gt;\\CakeTestCase</title>
<path fill="none" stroke="black" d="M770.943,-1201.6C753.422,-1197.9 735.786,-1190.66 724,-1177 621.839,-1058.61 760.695,-589.423 652,-477 622.027,-445.999 574.4,-438.823 533.484,-439.603"/>
<polygon fill="none" stroke="black" points="533.112,-436.113 523.241,-439.963 533.358,-443.109 533.112,-436.113"/>
</g>
<!-- \\TaskControllerTest -->
<g id="node14" class="node"><title>\\TaskControllerTest</title>
<polygon fill="none" stroke="black" points="899,-1006 761,-1006 761,-970 899,-970 899,-1006"/>
<text text-anchor="middle" x="830" y="-985.1" font-family="Courier,monospace" font-size="11.00">TaskControllerTest</text>
</g>
<!-- \\ControllerTestCase -->
<g id="node48" class="node"><title>\\ControllerTestCase</title>
<ellipse fill="none" stroke="black" cx="455" cy="-396" rx="106.773" ry="18.3848"/>
<text text-anchor="middle" x="455" y="-392.4" font-family="Times Roman,serif" font-size="14.00" fill="gray">\ControllerTestCase</text>
</g>
<!-- \\TaskControllerTest&#45;&gt;\\ControllerTestCase -->
<g id="edge27" class="edge"><title>\\TaskControllerTest&#45;&gt;\\ControllerTestCase</title>
<path fill="none" stroke="black" d="M760.984,-982.799C747.009,-978.63 733.658,-971.853 724,-961 563.624,-780.784 822.314,-593.855 652,-423 626.713,-397.633 589.562,-388.393 554.319,-386.375"/>
<polygon fill="none" stroke="black" points="554.077,-382.863 543.951,-385.98 553.81,-389.858 554.077,-382.863"/>
</g>
<!-- \\TaskShellTest -->
<g id="node15" class="node"><title>\\TaskShellTest</title>
<polygon fill="none" stroke="black" points="882,-1168 778,-1168 778,-1132 882,-1132 882,-1168"/>
<text text-anchor="middle" x="830" y="-1147.1" font-family="Courier,monospace" font-size="11.00">TaskShellTest</text>
</g>
<!-- \\TaskShellTest&#45;&gt;\\CakeTestCase -->
<g id="edge29" class="edge"><title>\\TaskShellTest&#45;&gt;\\CakeTestCase</title>
<path fill="none" stroke="black" d="M777.906,-1148.83C758.24,-1145.63 737.403,-1138.4 724,-1123 534.34,-905.088 853.684,-683.834 652,-477 622.006,-446.24 574.617,-439.007 533.834,-439.695"/>
<polygon fill="none" stroke="black" points="533.502,-436.204 523.622,-440.031 533.732,-443.2 533.502,-436.204"/>
</g>
<!-- \\TaskServerTaskTest -->
<g id="node16" class="node"><title>\\TaskServerTaskTest</title>
<polygon fill="none" stroke="black" points="899,-1114 761,-1114 761,-1078 899,-1078 899,-1114"/>
<text text-anchor="middle" x="830" y="-1093.1" font-family="Courier,monospace" font-size="11.00">TaskServerTaskTest</text>
</g>
<!-- \\TaskServerTaskTest&#45;&gt;\\CakeTestCase -->
<g id="edge31" class="edge"><title>\\TaskServerTaskTest&#45;&gt;\\CakeTestCase</title>
<path fill="none" stroke="black" d="M760.888,-1090.88C746.918,-1086.71 733.592,-1079.91 724,-1069 548.99,-869.945 837.991,-665.836 652,-477 621.964,-446.505 574.809,-439.216 534.165,-439.808"/>
<polygon fill="none" stroke="black" points="533.875,-436.315 523.986,-440.118 534.088,-443.311 533.875,-436.315"/>
</g>
<!-- \\TaskServerTaskTestEventModel1 -->
<g id="node17" class="node"><title>\\TaskServerTaskTestEventModel1</title>
<polygon fill="none" stroke="black" points="936,-952 724,-952 724,-916 936,-916 936,-952"/>
<text text-anchor="middle" x="830" y="-931.1" font-family="Courier,monospace" font-size="11.00">TaskServerTaskTestEventModel1</text>
</g>
<!-- \\CakeEventListener -->
<g id="node52" class="node"><title>\\CakeEventListener</title>
<ellipse fill="none" stroke="black" cx="455" cy="-342" rx="106.98" ry="18.3848"/>
<text text-anchor="middle" x="455" y="-338.4" font-family="Times Roman,serif" font-size="14.00" fill="gray">\CakeEventListener</text>
</g>
<!-- \\TaskServerTaskTestEventModel1&#45;&gt;\\CakeEventListener -->
<g id="edge33" class="edge"><title>\\TaskServerTaskTestEventModel1&#45;&gt;\\CakeEventListener</title>
<path fill="none" stroke="black" stroke-dasharray="1,5" d="M733.629,-915.723C730.141,-913.157 726.904,-910.263 724,-907 563.624,-726.784 822.314,-539.855 652,-369 626.824,-343.744 589.888,-334.474 554.782,-332.402"/>
<polygon fill="none" stroke="black" points="554.585,-328.891 544.453,-331.99 554.306,-335.886 554.585,-328.891"/>
</g>
<!-- \\AllTaskTest -->
<g id="node18" class="node"><title>\\AllTaskTest</title>
<polygon fill="none" stroke="black" points="875,-844 785,-844 785,-808 875,-808 875,-844"/>
<text text-anchor="middle" x="830" y="-823.1" font-family="Courier,monospace" font-size="11.00">AllTaskTest</text>
</g>
<!-- \\PHPUnit_Framework_TestSuite -->
<g id="node54" class="node"><title>\\PHPUnit_Framework_TestSuite</title>
<ellipse fill="none" stroke="black" cx="455" cy="-288" rx="166.877" ry="18.3848"/>
<text text-anchor="middle" x="455" y="-284.4" font-family="Times Roman,serif" font-size="14.00" fill="gray">\PHPUnit_Framework_TestSuite</text>
</g>
<!-- \\AllTaskTest&#45;&gt;\\PHPUnit_Framework_TestSuite -->
<g id="edge35" class="edge"><title>\\AllTaskTest&#45;&gt;\\PHPUnit_Framework_TestSuite</title>
<path fill="none" stroke="black" d="M784.433,-825.488C763.116,-822.785 739.146,-815.771 724,-799 578.238,-637.599 806.66,-467.896 652,-315 644.465,-307.551 635.906,-301.501 626.675,-296.62"/>
<polygon fill="none" stroke="black" points="628.163,-293.451 617.632,-292.291 625.141,-299.765 628.163,-293.451"/>
</g>
<!-- \\TaskStatistics -->
<g id="node19" class="node"><title>\\TaskStatistics</title>
<polygon fill="none" stroke="black" points="885,-1654 775,-1654 775,-1618 885,-1618 885,-1654"/>
<text text-anchor="middle" x="830" y="-1633.1" font-family="Courier,monospace" font-size="11.00">TaskStatistics</text>
</g>
<!-- \\AppModel -->
<g id="node56" class="node"><title>\\AppModel</title>
<ellipse fill="none" stroke="black" cx="93" cy="-1663" rx="62.2254" ry="18.3848"/>
<text text-anchor="middle" x="93" y="-1659.4" font-family="Times Roman,serif" font-size="14.00" fill="gray">\AppModel</text>
</g>
<!-- \\TaskStatistics&#45;&gt;\\AppModel -->
<g id="edge37" class="edge"><title>\\TaskStatistics&#45;&gt;\\AppModel</title>
<path fill="none" stroke="black" d="M774.314,-1633.46C700.999,-1630.7 568.141,-1627.71 455,-1636"/>
</g>
<!-- \\TaskServer -->
<g id="node20" class="node"><title>\\TaskServer</title>
<polygon fill="none" stroke="black" points="872,-1762 788,-1762 788,-1726 872,-1726 872,-1762"/>
<text text-anchor="middle" x="830" y="-1741.1" font-family="Courier,monospace" font-size="11.00">TaskServer</text>
</g>
<!-- \\TaskModel -->
<g id="node22" class="node"><title>\\TaskModel</title>
<polygon fill="none" stroke="black" points="493,-1708 417,-1708 417,-1672 493,-1672 493,-1708"/>
<text text-anchor="middle" x="455" y="-1687.1" font-family="Courier,monospace" font-size="11.00">TaskModel</text>
</g>
<!-- \\TaskServer&#45;&gt;\\TaskModel -->
<g id="edge39" class="edge"><title>\\TaskServer&#45;&gt;\\TaskModel</title>
<path fill="none" stroke="black" d="M787.712,-1737.91C717.645,-1727.82 577.87,-1707.69 503.756,-1697.02"/>
<polygon fill="none" stroke="black" points="504.145,-1693.54 493.748,-1695.58 503.147,-1700.47 504.145,-1693.54"/>
</g>
<!-- \\TaskProfiler -->
<g id="node21" class="node"><title>\\TaskProfiler</title>
<polygon fill="none" stroke="black" points="879,-1600 781,-1600 781,-1564 879,-1564 879,-1600"/>
<text text-anchor="middle" x="830" y="-1579.1" font-family="Courier,monospace" font-size="11.00">TaskProfiler</text>
</g>
<!-- \\TaskProfiler&#45;&gt;\\AppModel -->
<g id="edge41" class="edge"><title>\\TaskProfiler&#45;&gt;\\AppModel</title>
<path fill="none" stroke="black" d="M780.8,-1591.33C709.359,-1604.36 572.588,-1627.38 455,-1636"/>
<path fill="none" stroke="black" d="M455,-1636C353.55,-1643.44 236.122,-1652.23 163.194,-1657.71"/>
<polygon fill="none" stroke="black" points="162.915,-1654.22 153.205,-1658.46 163.44,-1661.2 162.915,-1654.22"/>
</g>
<!-- \\TaskModel&#45;&gt;\\AppModel -->
<g id="edge43" class="edge"><title>\\TaskModel&#45;&gt;\\AppModel</title>
<path fill="none" stroke="black" d="M416.26,-1687.11C356.073,-1682.62 239.194,-1673.9 163.698,-1668.27"/>
<polygon fill="none" stroke="black" points="163.562,-1664.75 153.33,-1667.5 163.042,-1671.73 163.562,-1664.75"/>
</g>
<!-- \\TaskClient -->
<g id="node23" class="node"><title>\\TaskClient</title>
<polygon fill="none" stroke="black" points="872,-1708 788,-1708 788,-1672 872,-1672 872,-1708"/>
<text text-anchor="middle" x="830" y="-1687.1" font-family="Courier,monospace" font-size="11.00">TaskClient</text>
</g>
<!-- \\TaskClient&#45;&gt;\\TaskModel -->
<g id="edge45" class="edge"><title>\\TaskClient&#45;&gt;\\TaskModel</title>
<path fill="none" stroke="black" d="M787.712,-1690C717.645,-1690 577.87,-1690 503.756,-1690"/>
<polygon fill="none" stroke="black" points="503.748,-1686.5 493.748,-1690 503.748,-1693.5 503.748,-1686.5"/>
</g>
<!-- \\TaskType -->
<g id="node24" class="node"><title>\\TaskType</title>
<polygon fill="none" stroke="black" points="872,-898 788,-898 788,-862 872,-862 872,-898"/>
<text text-anchor="start" x="796" y="-885.433" font-family="Courier,monospace" font-size="11.00">«abstract»</text>
<text text-anchor="start" x="802.5" y="-872.233" font-family="Courier,monospace" font-size="11.00">TaskType</text>
</g>
<!-- \\TaskRunner -->
<g id="node25" class="node"><title>\\TaskRunner</title>
<polygon fill="none" stroke="black" points="872,-790 788,-790 788,-754 872,-754 872,-790"/>
<text text-anchor="middle" x="830" y="-769.1" font-family="Courier,monospace" font-size="11.00">TaskRunner</text>
</g>
<!-- \\Object -->
<g id="node62" class="node"><title>\\Object</title>
<ellipse fill="none" stroke="black" cx="455" cy="-234" rx="45.9619" ry="18.3848"/>
<text text-anchor="middle" x="455" y="-230.4" font-family="Times Roman,serif" font-size="14.00" fill="gray">\Object</text>
</g>
<!-- \\TaskRunner&#45;&gt;\\Object -->
<g id="edge47" class="edge"><title>\\TaskRunner&#45;&gt;\\Object</title>
<path fill="none" stroke="black" d="M787.9,-771.893C765.761,-769.522 739.974,-762.688 724,-745 578.238,-583.599 806.66,-413.896 652,-261 614.534,-223.961 551.727,-221.488 507.108,-225.531"/>
<polygon fill="none" stroke="black" points="506.616,-222.063 497.033,-226.581 507.342,-229.026 506.616,-222.063"/>
</g>
<!-- \\TaskProcess -->
<g id="node26" class="node"><title>\\TaskProcess</title>
<polygon fill="none" stroke="black" points="875,-736 785,-736 785,-700 875,-700 875,-736"/>
<text text-anchor="middle" x="830" y="-715.1" font-family="Courier,monospace" font-size="11.00">TaskProcess</text>
</g>
<!-- \\Symfony\\Component\\Process\\Process -->
<g id="node64" class="node"><title>\\Symfony\\Component\\Process\\Process</title>
<ellipse fill="none" stroke="black" cx="455" cy="-180" rx="196.075" ry="18.3848"/>
<text text-anchor="middle" x="455" y="-176.4" font-family="Times Roman,serif" font-size="14.00" fill="gray">\Symfony\Component\Process\Process</text>
</g>
<!-- \\TaskProcess&#45;&gt;\\Symfony\\Component\\Process\\Process -->
<g id="edge49" class="edge"><title>\\TaskProcess&#45;&gt;\\Symfony\\Component\\Process\\Process</title>
<path fill="none" stroke="black" d="M784.433,-717.488C763.116,-714.785 739.146,-707.771 724,-691 578.238,-529.599 806.66,-359.896 652,-207 647.052,-202.108 641.661,-197.819 635.929,-194.069"/>
<polygon fill="none" stroke="black" points="637.685,-191.041 627.298,-188.951 634.115,-197.062 637.685,-191.041"/>
</g>
<!-- \\TaskController -->
<g id="node27" class="node"><title>\\TaskController</title>
<polygon fill="none" stroke="black" points="885,-682 775,-682 775,-646 885,-646 885,-682"/>
<text text-anchor="middle" x="830" y="-661.1" font-family="Courier,monospace" font-size="11.00">TaskController</text>
</g>
<!-- \\AppController -->
<g id="node66" class="node"><title>\\AppController</title>
<ellipse fill="none" stroke="black" cx="455" cy="-126" rx="82.0244" ry="18.3848"/>
<text text-anchor="middle" x="455" y="-122.4" font-family="Times Roman,serif" font-size="14.00" fill="gray">\AppController</text>
</g>
<!-- \\TaskController&#45;&gt;\\AppController -->
<g id="edge51" class="edge"><title>\\TaskController&#45;&gt;\\AppController</title>
<path fill="none" stroke="black" d="M774.342,-661.894C755.876,-658.368 736.792,-651.164 724,-637 578.238,-475.599 806.66,-305.896 652,-153 621.787,-123.131 575.093,-115.741 534.748,-116.119"/>
<polygon fill="none" stroke="black" points="534.551,-112.623 524.642,-116.374 534.727,-119.621 534.551,-112.623"/>
</g>
<!-- \\TaskShell -->
<g id="node28" class="node"><title>\\TaskShell</title>
<polygon fill="none" stroke="black" points="868,-628 792,-628 792,-592 868,-592 868,-628"/>
<text text-anchor="middle" x="830" y="-607.1" font-family="Courier,monospace" font-size="11.00">TaskShell</text>
</g>
<!-- \\AdvancedShell -->
<g id="node68" class="node"><title>\\AdvancedShell</title>
<ellipse fill="none" stroke="black" cx="455" cy="-72" rx="85.7684" ry="18.3848"/>
<text text-anchor="middle" x="455" y="-68.4" font-family="Times Roman,serif" font-size="14.00" fill="gray">\AdvancedShell</text>
</g>
<!-- \\TaskShell&#45;&gt;\\AdvancedShell -->
<g id="edge53" class="edge"><title>\\TaskShell&#45;&gt;\\AdvancedShell</title>
<path fill="none" stroke="black" d="M791.309,-610.227C768.458,-608.201 740.801,-601.604 724,-583 578.238,-421.599 806.66,-251.896 652,-99 622.641,-69.9759 577.721,-62.1767 538.186,-62.106"/>
<polygon fill="none" stroke="black" points="537.946,-58.609 527.998,-62.2543 538.048,-65.6083 537.946,-58.609"/>
</g>
<!-- \\TaskServerTask -->
<g id="node29" class="node"><title>\\TaskServerTask</title>
<polygon fill="none" stroke="black" points="510,-1816 400,-1816 400,-1780 510,-1780 510,-1816"/>
<text text-anchor="middle" x="455" y="-1795.1" font-family="Courier,monospace" font-size="11.00">TaskServerTask</text>
</g>
<!-- \\AdvancedTask -->
<g id="node70" class="node"><title>\\AdvancedTask</title>
<ellipse fill="none" stroke="black" cx="93" cy="-1798" rx="82.939" ry="18.3848"/>
<text text-anchor="middle" x="93" y="-1794.4" font-family="Times Roman,serif" font-size="14.00" fill="gray">\AdvancedTask</text>
</g>
<!-- \\TaskServerTask&#45;&gt;\\AdvancedTask -->
<g id="edge55" class="edge"><title>\\TaskServerTask&#45;&gt;\\AdvancedTask</title>
<path fill="none" stroke="black" d="M399.231,-1798C342.732,-1798 254.302,-1798 186.965,-1798"/>
<polygon fill="none" stroke="black" points="186.769,-1794.5 176.769,-1798 186.769,-1801.5 186.769,-1794.5"/>
</g>
<!-- \\TaskServerOldTask -->
<g id="node30" class="node"><title>\\TaskServerOldTask</title>
<polygon fill="none" stroke="black" points="895,-1816 765,-1816 765,-1780 895,-1780 895,-1816"/>
<text text-anchor="middle" x="830" y="-1795.1" font-family="Courier,monospace" font-size="11.00">TaskServerOldTask</text>
</g>
<!-- \\TaskServerOldTask&#45;&gt;\\TaskServerTask -->
<g id="edge57" class="edge"><title>\\TaskServerOldTask&#45;&gt;\\TaskServerTask</title>
<path fill="none" stroke="black" d="M764.251,-1798C695.82,-1798 589.27,-1798 520.815,-1798"/>
<polygon fill="none" stroke="black" points="520.584,-1794.5 510.584,-1798 520.584,-1801.5 520.584,-1794.5"/>
</g>
<!-- \\TaskSchema -->
<g id="node31" class="node"><title>\\TaskSchema</title>
<polygon fill="none" stroke="black" points="872,-574 788,-574 788,-538 872,-538 872,-574"/>
<text text-anchor="middle" x="830" y="-553.1" font-family="Courier,monospace" font-size="11.00">TaskSchema</text>
</g>
<!-- \\CakeSchema -->
<g id="node73" class="node"><title>\\CakeSchema</title>
<ellipse fill="none" stroke="black" cx="455" cy="-18" rx="77.0746" ry="18.3848"/>
<text text-anchor="middle" x="455" y="-14.4" font-family="Times Roman,serif" font-size="14.00" fill="gray">\CakeSchema</text>
</g>
<!-- \\TaskSchema&#45;&gt;\\CakeSchema -->
<g id="edge59" class="edge"><title>\\TaskSchema&#45;&gt;\\CakeSchema</title>
<path fill="none" stroke="black" d="M826.285,-537.727C808.972,-454.42 733.603,-111.79 652,-45 619.998,-18.8071 574.808,-11.2157 535.781,-10.5524"/>
<polygon fill="none" stroke="black" points="535.487,-7.05187 525.48,-10.5322 535.473,-14.0519 535.487,-7.05187"/>
</g>
</g>
</svg>
