<?xml version="1.0" encoding="UTF-8" standalone="no"?>
<!DOCTYPE svg PUBLIC "-//W3C//DTD SVG 1.1//EN"
 "http://www.w3.org/Graphics/SVG/1.1/DTD/svg11.dtd">
<!-- Generated by graphviz version 2.26.3 (20100126.1600)
 -->
<!-- Title: G Pages: 1 -->
<svg width="960pt" height="1954pt"
 viewBox="0.00 0.00 960.00 1954.00" xmlns="http://www.w3.org/2000/svg" xmlns:xlink="http://www.w3.org/1999/xlink">
<g id="graph1" class="graph" transform="scale(1 1) rotate(0) translate(4 1950)">
<title>G</title>
<polygon fill="white" stroke="white" points="-4,5 -4,-1950 957,-1950 957,5 -4,5"/>
<g id="graph2" class="cluster"><title>cluster_Global</title>
<polyline fill="none" stroke="gray" points="403,-514 932,-514 "/>
<path fill="none" stroke="gray" d="M932,-514C938,-514 944,-520 944,-526"/>
<polyline fill="none" stroke="gray" points="944,-526 944,-1926 "/>
<path fill="none" stroke="gray" d="M944,-1926C944,-1932 938,-1938 932,-1938"/>
<polyline fill="none" stroke="gray" points="932,-1938 403,-1938 "/>
<path fill="none" stroke="gray" d="M403,-1938C397,-1938 391,-1932 391,-1926"/>
<polyline fill="none" stroke="gray" points="391,-1926 391,-526 "/>
<path fill="none" stroke="gray" d="M391,-526C391,-520 397,-514 403,-514"/>
<text text-anchor="middle" x="667.5" y="-1924.1" font-family="Times Roman,serif" font-size="11.00" fill="gray">Global</text>
</g>
<!-- \\TaskModel -->
<g id="node2" class="node"><title>\\TaskModel</title>
<polygon fill="none" stroke="black" points="493,-1800 417,-1800 417,-1764 493,-1764 493,-1800"/>
<text text-anchor="middle" x="455" y="-1779.1" font-family="Courier,monospace" font-size="11.00">TaskModel</text>
</g>
<!-- \\AppModel -->
<g id="node32" class="node"><title>\\AppModel</title>
<ellipse fill="none" stroke="black" cx="93" cy="-1822" rx="62.2254" ry="18.3848"/>
<text text-anchor="middle" x="93" y="-1818.4" font-family="Times Roman,serif" font-size="14.00" fill="gray">\AppModel</text>
</g>
<!-- \\TaskModel&#45;&gt;\\AppModel -->
<g id="edge3" class="edge"><title>\\TaskModel&#45;&gt;\\AppModel</title>
<path fill="none" stroke="black" d="M416.26,-1786.28C355.463,-1793 236.82,-1806.11 161.416,-1814.44"/>
<polygon fill="none" stroke="black" points="160.629,-1811.01 151.074,-1815.58 161.398,-1817.96 160.629,-1811.01"/>
</g>
<!-- \\TaskServer -->
<g id="node3" class="node"><title>\\TaskServer</title>
<polygon fill="none" stroke="black" points="872,-1800 788,-1800 788,-1764 872,-1764 872,-1800"/>
<text text-anchor="middle" x="830" y="-1779.1" font-family="Courier,monospace" font-size="11.00">TaskServer</text>
</g>
<!-- \\TaskServer&#45;&gt;\\TaskModel -->
<g id="edge5" class="edge"><title>\\TaskServer&#45;&gt;\\TaskModel</title>
<path fill="none" stroke="black" d="M787.712,-1782C717.645,-1782 577.87,-1782 503.756,-1782"/>
<polygon fill="none" stroke="black" points="503.748,-1778.5 493.748,-1782 503.748,-1785.5 503.748,-1778.5"/>
</g>
<!-- \\TaskStatistics -->
<g id="node4" class="node"><title>\\TaskStatistics</title>
<polygon fill="none" stroke="black" points="885,-1908 775,-1908 775,-1872 885,-1872 885,-1908"/>
<text text-anchor="middle" x="830" y="-1887.1" font-family="Courier,monospace" font-size="11.00">TaskStatistics</text>
</g>
<!-- \\TaskStatistics&#45;&gt;\\AppModel -->
<g id="edge7" class="edge"><title>\\TaskStatistics&#45;&gt;\\AppModel</title>
<path fill="none" stroke="black" d="M774.441,-1885.46C701.264,-1879.6 568.557,-1869.41 455,-1863"/>
</g>
<!-- \\TaskProfiler -->
<g id="node5" class="node"><title>\\TaskProfiler</title>
<polygon fill="none" stroke="black" points="879,-1854 781,-1854 781,-1818 879,-1818 879,-1854"/>
<text text-anchor="middle" x="830" y="-1833.1" font-family="Courier,monospace" font-size="11.00">TaskProfiler</text>
</g>
<!-- \\TaskProfiler&#45;&gt;\\AppModel -->
<g id="edge9" class="edge"><title>\\TaskProfiler&#45;&gt;\\AppModel</title>
<path fill="none" stroke="black" d="M780.891,-1843.56C709.279,-1853.67 571.978,-1869.6 455,-1863"/>
<path fill="none" stroke="black" d="M455,-1863C351.025,-1857.13 231.048,-1841.85 158.666,-1831.69"/>
<polygon fill="none" stroke="black" points="158.731,-1828.17 148.339,-1830.23 157.751,-1835.1 158.731,-1828.17"/>
</g>
<!-- \\TaskClient -->
<g id="node6" class="node"><title>\\TaskClient</title>
<polygon fill="none" stroke="black" points="872,-1746 788,-1746 788,-1710 872,-1710 872,-1746"/>
<text text-anchor="middle" x="830" y="-1725.1" font-family="Courier,monospace" font-size="11.00">TaskClient</text>
</g>
<!-- \\TaskClient&#45;&gt;\\TaskModel -->
<g id="edge11" class="edge"><title>\\TaskClient&#45;&gt;\\TaskModel</title>
<path fill="none" stroke="black" d="M787.712,-1734.09C717.645,-1744.18 577.87,-1764.31 503.756,-1774.98"/>
<polygon fill="none" stroke="black" points="503.147,-1771.53 493.748,-1776.42 504.145,-1778.46 503.147,-1771.53"/>
</g>
<!-- \\TaskServerTask -->
<g id="node7" class="node"><title>\\TaskServerTask</title>
<polygon fill="none" stroke="black" points="510,-1692 400,-1692 400,-1656 510,-1656 510,-1692"/>
<text text-anchor="middle" x="455" y="-1671.1" font-family="Courier,monospace" font-size="11.00">TaskServerTask</text>
</g>
<!-- \\AdvancedTask -->
<g id="node38" class="node"><title>\\AdvancedTask</title>
<ellipse fill="none" stroke="black" cx="93" cy="-1674" rx="82.939" ry="18.3848"/>
<text text-anchor="middle" x="93" y="-1670.4" font-family="Times Roman,serif" font-size="14.00" fill="gray">\AdvancedTask</text>
</g>
<!-- \\TaskServerTask&#45;&gt;\\AdvancedTask -->
<g id="edge13" class="edge"><title>\\TaskServerTask&#45;&gt;\\AdvancedTask</title>
<path fill="none" stroke="black" d="M399.231,-1674C342.732,-1674 254.302,-1674 186.965,-1674"/>
<polygon fill="none" stroke="black" points="186.769,-1670.5 176.769,-1674 186.769,-1677.5 186.769,-1670.5"/>
</g>
<!-- \\TaskServerOldTask -->
<g id="node8" class="node"><title>\\TaskServerOldTask</title>
<polygon fill="none" stroke="black" points="895,-1692 765,-1692 765,-1656 895,-1656 895,-1692"/>
<text text-anchor="middle" x="830" y="-1671.1" font-family="Courier,monospace" font-size="11.00">TaskServerOldTask</text>
</g>
<!-- \\TaskServerOldTask&#45;&gt;\\TaskServerTask -->
<g id="edge15" class="edge"><title>\\TaskServerOldTask&#45;&gt;\\TaskServerTask</title>
<path fill="none" stroke="black" d="M764.251,-1674C695.82,-1674 589.27,-1674 520.815,-1674"/>
<polygon fill="none" stroke="black" points="520.584,-1670.5 510.584,-1674 520.584,-1677.5 520.584,-1670.5"/>
</g>
<!-- \\TaskShell -->
<g id="node9" class="node"><title>\\TaskShell</title>
<polygon fill="none" stroke="black" points="868,-1584 792,-1584 792,-1548 868,-1548 868,-1584"/>
<text text-anchor="middle" x="830" y="-1563.1" font-family="Courier,monospace" font-size="11.00">TaskShell</text>
</g>
<!-- \\AdvancedShell -->
<g id="node41" class="node"><title>\\AdvancedShell</title>
<ellipse fill="none" stroke="black" cx="455" cy="-488" rx="85.7684" ry="18.3848"/>
<text text-anchor="middle" x="455" y="-484.4" font-family="Times Roman,serif" font-size="14.00" fill="gray">\AdvancedShell</text>
</g>
<!-- \\TaskShell&#45;&gt;\\AdvancedShell -->
<g id="edge17" class="edge"><title>\\TaskShell&#45;&gt;\\AdvancedShell</title>
<path fill="none" stroke="black" d="M791.314,-1566.72C768.165,-1564.92 740.186,-1558.39 724,-1539 577.098,-1363.03 810.701,-675.404 652,-510 621.294,-477.998 571.579,-472.641 529.775,-475.212"/>
<polygon fill="none" stroke="black" points="529.311,-471.738 519.611,-475.999 529.852,-478.717 529.311,-471.738"/>
</g>
<!-- \\TaskHelper -->
<g id="node10" class="node"><title>\\TaskHelper</title>
<polygon fill="none" stroke="black" points="872,-1530 788,-1530 788,-1494 872,-1494 872,-1530"/>
<text text-anchor="middle" x="830" y="-1509.1" font-family="Courier,monospace" font-size="11.00">TaskHelper</text>
</g>
<!-- \\AppHelper -->
<g id="node43" class="node"><title>\\AppHelper</title>
<ellipse fill="none" stroke="black" cx="455" cy="-434" rx="65.0538" ry="18.3848"/>
<text text-anchor="middle" x="455" y="-430.4" font-family="Times Roman,serif" font-size="14.00" fill="gray">\AppHelper</text>
</g>
<!-- \\TaskHelper&#45;&gt;\\AppHelper -->
<g id="edge19" class="edge"><title>\\TaskHelper&#45;&gt;\\AppHelper</title>
<path fill="none" stroke="black" d="M787.89,-1512.42C765.461,-1510.25 739.398,-1503.44 724,-1485 577.779,-1309.91 807.893,-627.538 652,-461 619.349,-426.119 564.421,-421.062 520.847,-423.777"/>
<polygon fill="none" stroke="black" points="520.305,-420.308 510.604,-424.568 520.844,-427.287 520.305,-420.308"/>
</g>
<!-- \\TaskRunner -->
<g id="node11" class="node"><title>\\TaskRunner</title>
<polygon fill="none" stroke="black" points="872,-1422 788,-1422 788,-1386 872,-1386 872,-1422"/>
<text text-anchor="middle" x="830" y="-1401.1" font-family="Courier,monospace" font-size="11.00">TaskRunner</text>
</g>
<!-- \\Object -->
<g id="node45" class="node"><title>\\Object</title>
<ellipse fill="none" stroke="black" cx="455" cy="-380" rx="45.9619" ry="18.3848"/>
<text text-anchor="middle" x="455" y="-376.4" font-family="Times Roman,serif" font-size="14.00" fill="gray">\Object</text>
</g>
<!-- \\TaskRunner&#45;&gt;\\Object -->
<g id="edge21" class="edge"><title>\\TaskRunner&#45;&gt;\\Object</title>
<path fill="none" stroke="black" d="M787.917,-1404.39C765.498,-1402.22 739.434,-1395.41 724,-1377 585.128,-1211.37 800.02,-564.513 652,-407 615.703,-368.375 552.08,-366.369 506.967,-370.951"/>
<polygon fill="none" stroke="black" points="506.316,-367.503 496.784,-372.128 507.119,-374.457 506.316,-367.503"/>
</g>
<!-- \\TaskType -->
<g id="node12" class="node"><title>\\TaskType</title>
<polygon fill="none" stroke="black" points="872,-1476 788,-1476 788,-1440 872,-1440 872,-1476"/>
<text text-anchor="start" x="796" y="-1463.43" font-family="Courier,monospace" font-size="11.00">«abstract»</text>
<text text-anchor="start" x="802.5" y="-1450.23" font-family="Courier,monospace" font-size="11.00">TaskType</text>
</g>
<!-- \\TaskProcess -->
<g id="node13" class="node"><title>\\TaskProcess</title>
<polygon fill="none" stroke="black" points="875,-1368 785,-1368 785,-1332 875,-1332 875,-1368"/>
<text text-anchor="middle" x="830" y="-1347.1" font-family="Courier,monospace" font-size="11.00">TaskProcess</text>
</g>
<!-- \\Symfony\\Component\\Process\\Process -->
<g id="node47" class="node"><title>\\Symfony\\Component\\Process\\Process</title>
<ellipse fill="none" stroke="black" cx="455" cy="-326" rx="196.075" ry="18.3848"/>
<text text-anchor="middle" x="455" y="-322.4" font-family="Times Roman,serif" font-size="14.00" fill="gray">\Symfony\Component\Process\Process</text>
</g>
<!-- \\TaskProcess&#45;&gt;\\Symfony\\Component\\Process\\Process -->
<g id="edge23" class="edge"><title>\\TaskProcess&#45;&gt;\\Symfony\\Component\\Process\\Process</title>
<path fill="none" stroke="black" d="M784.434,-1350.02C762.847,-1347.49 738.641,-1340.46 724,-1323 585.128,-1157.37 800.02,-510.513 652,-353 647.423,-348.13 642.412,-343.842 637.059,-340.076"/>
<polygon fill="none" stroke="black" points="638.698,-336.972 628.377,-334.579 634.954,-342.886 638.698,-336.972"/>
</g>
<!-- \\DependentTaskFixture -->
<g id="node14" class="node"><title>\\DependentTaskFixture</title>
<polygon fill="none" stroke="black" points="906,-1314 754,-1314 754,-1278 906,-1278 906,-1314"/>
<text text-anchor="middle" x="830" y="-1293.1" font-family="Courier,monospace" font-size="11.00">DependentTaskFixture</text>
</g>
<!-- \\CakeTestFixture -->
<g id="node49" class="node"><title>\\CakeTestFixture</title>
<ellipse fill="none" stroke="black" cx="93" cy="-615" rx="92.1303" ry="18.3848"/>
<text text-anchor="middle" x="93" y="-611.4" font-family="Times Roman,serif" font-size="14.00" fill="gray">\CakeTestFixture</text>
</g>
<!-- \\DependentTaskFixture&#45;&gt;\\CakeTestFixture -->
<g id="edge25" class="edge"><title>\\DependentTaskFixture&#45;&gt;\\CakeTestFixture</title>
<path fill="none" stroke="black" d="M753.74,-1288.94C742.338,-1284.66 731.809,-1278.31 724,-1269 585.128,-1103.37 803.145,-453.516 652,-299 590.491,-236.119 540.628,-300.126 455,-280"/>
</g>
<!-- \\TaskProfilerFixture -->
<g id="node15" class="node"><title>\\TaskProfilerFixture</title>
<polygon fill="none" stroke="black" points="902,-1638 758,-1638 758,-1602 902,-1602 902,-1638"/>
<text text-anchor="middle" x="830" y="-1617.1" font-family="Courier,monospace" font-size="11.00">TaskProfilerFixture</text>
</g>
<!-- \\TaskFixture -->
<g id="node17" class="node"><title>\\TaskFixture</title>
<polygon fill="none" stroke="black" points="500,-1303 410,-1303 410,-1267 500,-1267 500,-1303"/>
<text text-anchor="middle" x="455" y="-1282.1" font-family="Courier,monospace" font-size="11.00">TaskFixture</text>
</g>
<!-- \\TaskProfilerFixture&#45;&gt;\\TaskFixture -->
<g id="edge27" class="edge"><title>\\TaskProfilerFixture&#45;&gt;\\TaskFixture</title>
<path fill="none" stroke="black" d="M757.478,-1607.78C745.788,-1604.08 734.192,-1599.27 724,-1593 603.15,-1518.71 507.076,-1372.76 470.723,-1312.26"/>
<polygon fill="none" stroke="black" points="473.522,-1310.12 465.407,-1303.31 467.504,-1313.7 473.522,-1310.12"/>
</g>
<!-- \\TaskStatisticsFixture -->
<g id="node16" class="node"><title>\\TaskStatisticsFixture</title>
<polygon fill="none" stroke="black" points="909,-1260 751,-1260 751,-1224 909,-1224 909,-1260"/>
<text text-anchor="middle" x="830" y="-1239.1" font-family="Courier,monospace" font-size="11.00">TaskStatisticsFixture</text>
</g>
<!-- \\TaskStatisticsFixture&#45;&gt;\\CakeTestFixture -->
<g id="edge29" class="edge"><title>\\TaskStatisticsFixture&#45;&gt;\\CakeTestFixture</title>
<path fill="none" stroke="black" d="M750.854,-1233.76C740.577,-1229.52 731.156,-1223.5 724,-1215 592.475,-1058.82 795.095,-444.652 652,-299 590.355,-236.253 540.628,-300.126 455,-280"/>
<path fill="none" stroke="black" d="M455,-280C369.372,-259.874 330.95,-249.852 258,-299 155.136,-368.301 112.206,-522.755 98.4113,-586.57"/>
<polygon fill="none" stroke="black" points="94.9139,-586.198 96.3038,-596.701 101.767,-587.623 94.9139,-586.198"/>
</g>
<!-- \\TaskFixture&#45;&gt;\\CakeTestFixture -->
<g id="edge31" class="edge"><title>\\TaskFixture&#45;&gt;\\CakeTestFixture</title>
<path fill="none" stroke="black" d="M409.359,-1293.39C365.269,-1298.71 299.269,-1298.93 258,-1263 161.199,-1178.72 108.522,-756.596 95.9639,-643.121"/>
<polygon fill="none" stroke="black" points="99.4373,-642.687 94.8737,-633.125 92.4786,-643.446 99.4373,-642.687"/>
</g>
<!-- \\TaskClientTest -->
<g id="node18" class="node"><title>\\TaskClientTest</title>
<polygon fill="none" stroke="black" points="885,-774 775,-774 775,-738 885,-738 885,-774"/>
<text text-anchor="middle" x="830" y="-753.1" font-family="Courier,monospace" font-size="11.00">TaskClientTest</text>
</g>
<!-- \\CakeTestCase -->
<g id="node54" class="node"><title>\\CakeTestCase</title>
<ellipse fill="none" stroke="black" cx="455" cy="-234" rx="82.0244" ry="18.3848"/>
<text text-anchor="middle" x="455" y="-230.4" font-family="Times Roman,serif" font-size="14.00" fill="gray">\CakeTestCase</text>
</g>
<!-- \\TaskClientTest&#45;&gt;\\CakeTestCase -->
<g id="edge33" class="edge"><title>\\TaskClientTest&#45;&gt;\\CakeTestCase</title>
<path fill="none" stroke="black" d="M774.393,-753.848C755.933,-750.317 736.838,-743.122 724,-729 583.913,-574.908 798.757,-413.752 652,-266 623.135,-236.94 578.923,-227.894 539.692,-226.575"/>
<polygon fill="none" stroke="black" points="539.633,-223.074 529.573,-226.398 539.511,-230.073 539.633,-223.074"/>
</g>
<!-- \\TaskProfilerTest -->
<g id="node19" class="node"><title>\\TaskProfilerTest</title>
<polygon fill="none" stroke="black" points="892,-1206 768,-1206 768,-1170 892,-1170 892,-1206"/>
<text text-anchor="middle" x="830" y="-1185.1" font-family="Courier,monospace" font-size="11.00">TaskProfilerTest</text>
</g>
<!-- \\TaskProfilerTest&#45;&gt;\\CakeTestCase -->
<g id="edge35" class="edge"><title>\\TaskProfilerTest&#45;&gt;\\CakeTestCase</title>
<path fill="none" stroke="black" d="M767.441,-1185.01C751.031,-1181.12 734.899,-1173.92 724,-1161 595.332,-1008.5 787.28,-412.67 652,-266 623.521,-235.124 577.839,-226.314 537.632,-225.596"/>
<polygon fill="none" stroke="black" points="537.548,-222.096 527.542,-225.579 537.536,-229.096 537.548,-222.096"/>
</g>
<!-- \\TaskServerTest -->
<g id="node20" class="node"><title>\\TaskServerTest</title>
<polygon fill="none" stroke="black" points="885,-1152 775,-1152 775,-1116 885,-1116 885,-1152"/>
<text text-anchor="middle" x="830" y="-1131.1" font-family="Courier,monospace" font-size="11.00">TaskServerTest</text>
</g>
<!-- \\TaskServerTest&#45;&gt;\\CakeTestCase -->
<g id="edge37" class="edge"><title>\\TaskServerTest&#45;&gt;\\CakeTestCase</title>
<path fill="none" stroke="black" d="M774.399,-1132.43C755.712,-1128.99 736.467,-1121.7 724,-1107 602.676,-963.948 779.525,-403.553 652,-266 623.551,-235.314 578.103,-226.458 538.025,-225.665"/>
<polygon fill="none" stroke="black" points="537.978,-222.165 527.965,-225.629 537.952,-229.165 537.978,-222.165"/>
</g>
<!-- \\TaskShellTest -->
<g id="node21" class="node"><title>\\TaskShellTest</title>
<polygon fill="none" stroke="black" points="882,-1098 778,-1098 778,-1062 882,-1062 882,-1098"/>
<text text-anchor="middle" x="830" y="-1077.1" font-family="Courier,monospace" font-size="11.00">TaskShellTest</text>
</g>
<!-- \\TaskShellTest&#45;&gt;\\CakeTestCase -->
<g id="edge39" class="edge"><title>\\TaskShellTest&#45;&gt;\\CakeTestCase</title>
<path fill="none" stroke="black" d="M777.752,-1078.96C758.063,-1075.78 737.25,-1068.53 724,-1053 610.018,-919.395 771.773,-394.439 652,-266 623.462,-235.397 578.008,-226.546 537.95,-225.735"/>
<polygon fill="none" stroke="black" points="537.91,-222.235 527.896,-225.693 537.881,-229.235 537.91,-222.235"/>
</g>
<!-- \\TaskServerTaskTest -->
<g id="node22" class="node"><title>\\TaskServerTaskTest</title>
<polygon fill="none" stroke="black" points="899,-1044 761,-1044 761,-1008 899,-1008 899,-1044"/>
<text text-anchor="middle" x="830" y="-1023.1" font-family="Courier,monospace" font-size="11.00">TaskServerTaskTest</text>
</g>
<!-- \\TaskServerTaskTest&#45;&gt;\\CakeTestCase -->
<g id="edge41" class="edge"><title>\\TaskServerTaskTest&#45;&gt;\\CakeTestCase</title>
<path fill="none" stroke="black" d="M760.975,-1021.13C746.914,-1016.95 733.528,-1010.09 724,-999 617.356,-874.839 764.025,-385.328 652,-266 623.469,-235.609 578.247,-226.715 538.323,-225.825"/>
<polygon fill="none" stroke="black" points="538.322,-222.325 528.301,-225.763 538.279,-229.325 538.322,-222.325"/>
</g>
<!-- \\TaskServerTaskTestEventModel1 -->
<g id="node23" class="node"><title>\\TaskServerTaskTestEventModel1</title>
<polygon fill="none" stroke="black" points="936,-720 724,-720 724,-684 936,-684 936,-720"/>
<text text-anchor="middle" x="830" y="-699.1" font-family="Courier,monospace" font-size="11.00">TaskServerTaskTestEventModel1</text>
</g>
<!-- \\CakeEventListener -->
<g id="node60" class="node"><title>\\CakeEventListener</title>
<ellipse fill="none" stroke="black" cx="455" cy="-180" rx="106.98" ry="18.3848"/>
<text text-anchor="middle" x="455" y="-176.4" font-family="Times Roman,serif" font-size="14.00" fill="gray">\CakeEventListener</text>
</g>
<!-- \\TaskServerTaskTestEventModel1&#45;&gt;\\CakeEventListener -->
<g id="edge43" class="edge"><title>\\TaskServerTaskTestEventModel1&#45;&gt;\\CakeEventListener</title>
<path fill="none" stroke="black" stroke-dasharray="1,5" d="M734.167,-683.983C730.484,-681.354 727.063,-678.375 724,-675 582.562,-519.169 802.027,-354.58 652,-207 626.857,-182.267 590.407,-172.975 555.679,-170.739"/>
<polygon fill="none" stroke="black" points="555.606,-167.232 545.458,-170.274 555.288,-174.224 555.606,-167.232"/>
</g>
<!-- \\AllTaskTest -->
<g id="node24" class="node"><title>\\AllTaskTest</title>
<polygon fill="none" stroke="black" points="875,-666 785,-666 785,-630 875,-630 875,-666"/>
<text text-anchor="middle" x="830" y="-645.1" font-family="Courier,monospace" font-size="11.00">AllTaskTest</text>
</g>
<!-- \\PHPUnit_Framework_TestSuite -->
<g id="node62" class="node"><title>\\PHPUnit_Framework_TestSuite</title>
<ellipse fill="none" stroke="black" cx="455" cy="-126" rx="166.877" ry="18.3848"/>
<text text-anchor="middle" x="455" y="-122.4" font-family="Times Roman,serif" font-size="14.00" fill="gray">\PHPUnit_Framework_TestSuite</text>
</g>
<!-- \\AllTaskTest&#45;&gt;\\PHPUnit_Framework_TestSuite -->
<g id="edge45" class="edge"><title>\\AllTaskTest&#45;&gt;\\PHPUnit_Framework_TestSuite</title>
<path fill="none" stroke="black" d="M784.469,-647.456C763.16,-644.744 739.188,-637.734 724,-621 582.562,-465.169 802.027,-300.58 652,-153 644.447,-145.57 635.873,-139.534 626.632,-134.663"/>
<polygon fill="none" stroke="black" points="628.112,-131.491 617.58,-130.343 625.098,-137.809 628.112,-131.491"/>
</g>
<!-- \\TaskHelperTest -->
<g id="node25" class="node"><title>\\TaskHelperTest</title>
<polygon fill="none" stroke="black" points="885,-990 775,-990 775,-954 885,-954 885,-990"/>
<text text-anchor="middle" x="830" y="-969.1" font-family="Courier,monospace" font-size="11.00">TaskHelperTest</text>
</g>
<!-- \\TaskHelperTest&#45;&gt;\\CakeTestCase -->
<g id="edge47" class="edge"><title>\\TaskHelperTest&#45;&gt;\\CakeTestCase</title>
<path fill="none" stroke="black" d="M774.285,-970.24C755.701,-966.763 736.553,-959.502 724,-945 525.381,-715.557 860.561,-486.445 652,-266 623.352,-235.719 578.123,-226.832 538.225,-225.918"/>
<polygon fill="none" stroke="black" points="538.233,-222.418 528.209,-225.849 538.185,-229.418 538.233,-222.418"/>
</g>
<!-- \\TaskProcessTest -->
<g id="node26" class="node"><title>\\TaskProcessTest</title>
<polygon fill="none" stroke="black" points="889,-936 771,-936 771,-900 889,-900 889,-936"/>
<text text-anchor="middle" x="830" y="-915.1" font-family="Courier,monospace" font-size="11.00">TaskProcessTest</text>
</g>
<!-- \\TaskProcessTest&#45;&gt;\\CakeTestCase -->
<g id="edge49" class="edge"><title>\\TaskProcessTest&#45;&gt;\\CakeTestCase</title>
<path fill="none" stroke="black" d="M770.765,-915.457C753.341,-911.731 735.807,-904.515 724,-891 540.039,-680.423 845.084,-468.245 652,-266 623.386,-236.028 578.515,-227.076 538.821,-226.045"/>
<polygon fill="none" stroke="black" points="538.619,-222.543 528.586,-225.947 538.552,-229.543 538.619,-222.543"/>
</g>
<!-- \\TaskRunnerTest -->
<g id="node27" class="node"><title>\\TaskRunnerTest</title>
<polygon fill="none" stroke="black" points="885,-882 775,-882 775,-846 885,-846 885,-882"/>
<text text-anchor="middle" x="830" y="-861.1" font-family="Courier,monospace" font-size="11.00">TaskRunnerTest</text>
</g>
<!-- \\TaskRunnerTest&#45;&gt;\\CakeTestCase -->
<g id="edge51" class="edge"><title>\\TaskRunnerTest&#45;&gt;\\CakeTestCase</title>
<path fill="none" stroke="black" d="M774.442,-862.103C755.874,-858.612 736.696,-851.377 724,-837 554.683,-645.274 829.621,-450.059 652,-266 623.336,-236.297 578.689,-227.309 539.142,-226.189"/>
<polygon fill="none" stroke="black" points="538.985,-222.687 528.944,-226.067 538.901,-229.686 538.985,-222.687"/>
</g>
<!-- \\TaskTypeTest -->
<g id="node28" class="node"><title>\\TaskTypeTest</title>
<polygon fill="none" stroke="black" points="879,-828 781,-828 781,-792 879,-792 879,-828"/>
<text text-anchor="middle" x="830" y="-807.1" font-family="Courier,monospace" font-size="11.00">TaskTypeTest</text>
</g>
<!-- \\TaskTypeTest&#45;&gt;\\CakeTestCase -->
<g id="edge53" class="edge"><title>\\TaskTypeTest&#45;&gt;\\CakeTestCase</title>
<path fill="none" stroke="black" d="M780.848,-809.068C760.441,-806.064 738.245,-798.922 724,-783 569.31,-610.104 814.177,-431.893 652,-266 623.256,-236.597 578.829,-227.578 539.435,-226.362"/>
<polygon fill="none" stroke="black" points="539.326,-222.86 529.276,-226.214 539.224,-229.86 539.326,-222.86"/>
</g>
<!-- \\TaskControllerTest -->
<g id="node29" class="node"><title>\\TaskControllerTest</title>
<polygon fill="none" stroke="black" points="899,-612 761,-612 761,-576 899,-576 899,-612"/>
<text text-anchor="middle" x="830" y="-591.1" font-family="Courier,monospace" font-size="11.00">TaskControllerTest</text>
</g>
<!-- \\ControllerTestCase -->
<g id="node68" class="node"><title>\\ControllerTestCase</title>
<ellipse fill="none" stroke="black" cx="455" cy="-72" rx="106.773" ry="18.3848"/>
<text text-anchor="middle" x="455" y="-68.4" font-family="Times Roman,serif" font-size="14.00" fill="gray">\ControllerTestCase</text>
</g>
<!-- \\TaskControllerTest&#45;&gt;\\ControllerTestCase -->
<g id="edge55" class="edge"><title>\\TaskControllerTest&#45;&gt;\\ControllerTestCase</title>
<path fill="none" stroke="black" d="M760.866,-588.577C746.983,-584.408 733.7,-577.687 724,-567 582.562,-411.169 802.027,-246.58 652,-99 626.801,-74.2122 590.245,-64.9338 555.447,-62.7237"/>
<polygon fill="none" stroke="black" points="555.352,-59.2161 545.206,-62.2677 555.04,-66.2091 555.352,-59.2161"/>
</g>
<!-- \\TaskController -->
<g id="node30" class="node"><title>\\TaskController</title>
<polygon fill="none" stroke="black" points="885,-558 775,-558 775,-522 885,-522 885,-558"/>
<text text-anchor="middle" x="830" y="-537.1" font-family="Courier,monospace" font-size="11.00">TaskController</text>
</g>
<!-- \\AppController -->
<g id="node70" class="node"><title>\\AppController</title>
<ellipse fill="none" stroke="black" cx="455" cy="-18" rx="82.0244" ry="18.3848"/>
<text text-anchor="middle" x="455" y="-14.4" font-family="Times Roman,serif" font-size="14.00" fill="gray">\AppController</text>
</g>
<!-- \\TaskController&#45;&gt;\\AppController -->
<g id="edge57" class="edge"><title>\\TaskController&#45;&gt;\\AppController</title>
<path fill="none" stroke="black" d="M826.077,-521.749C808.15,-440.081 731.475,-109.387 652,-45 621.098,-19.9649 578.114,-11.9944 540.179,-10.7998"/>
<polygon fill="none" stroke="black" points="540.199,-7.29973 530.142,-10.6345 540.083,-14.2988 540.199,-7.29973"/>
</g>
</g>
</svg>
