<?xml version="1.0" encoding="UTF-8" standalone="no"?>
<!DOCTYPE svg PUBLIC "-//W3C//DTD SVG 1.1//EN"
 "http://www.w3.org/Graphics/SVG/1.1/DTD/svg11.dtd">
<!-- Generated by graphviz version 2.26.3 (20100126.1600)
 -->
<!-- Title: G Pages: 1 -->
<svg width="960pt" height="1857pt"
 viewBox="0.00 0.00 960.00 1857.31" xmlns="http://www.w3.org/2000/svg" xmlns:xlink="http://www.w3.org/1999/xlink">
<g id="graph1" class="graph" transform="scale(1 1) rotate(0) translate(4 1853.31)">
<title>G</title>
<polygon fill="white" stroke="white" points="-4,5 -4,-1853.31 957,-1853.31 957,5 -4,5"/>
<g id="graph2" class="cluster"><title>cluster_Global</title>
<polyline fill="none" stroke="gray" points="413,-579.311 932,-579.311 "/>
<path fill="none" stroke="gray" d="M932,-579.311C938,-579.311 944,-585.311 944,-591.311"/>
<polyline fill="none" stroke="gray" points="944,-591.311 944,-1829.31 "/>
<path fill="none" stroke="gray" d="M944,-1829.31C944,-1835.31 938,-1841.31 932,-1841.31"/>
<polyline fill="none" stroke="gray" points="932,-1841.31 413,-1841.31 "/>
<path fill="none" stroke="gray" d="M413,-1841.31C407,-1841.31 401,-1835.31 401,-1829.31"/>
<polyline fill="none" stroke="gray" points="401,-1829.31 401,-591.311 "/>
<path fill="none" stroke="gray" d="M401,-591.311C401,-585.311 407,-579.311 413,-579.311"/>
<text text-anchor="middle" x="672.5" y="-1827.41" font-family="Times Roman,serif" font-size="11.00" fill="gray">Global</text>
</g>
<!-- \\TaskHelper -->
<g id="node2" class="node"><title>\\TaskHelper</title>
<polygon fill="none" stroke="black" points="872,-1649.31 788,-1649.31 788,-1613.31 872,-1613.31 872,-1649.31"/>
<text text-anchor="middle" x="830" y="-1628.41" font-family="Courier,monospace" font-size="11.00">TaskHelper</text>
</g>
<!-- \\AppHelper -->
<g id="node28" class="node"><title>\\AppHelper</title>
<ellipse fill="none" stroke="black" cx="455" cy="-553.311" rx="65.0538" ry="18.3848"/>
<text text-anchor="middle" x="455" y="-549.711" font-family="Times Roman,serif" font-size="14.00" fill="gray">\AppHelper</text>
</g>
<!-- \\TaskHelper&#45;&gt;\\AppHelper -->
<g id="edge3" class="edge"><title>\\TaskHelper&#45;&gt;\\AppHelper</title>
<path fill="none" stroke="black" d="M787.887,-1631.73C765.458,-1629.56 739.395,-1622.75 724,-1604.31 577.098,-1428.34 810.701,-740.715 652,-575.311 618.291,-540.179 561.672,-537.159 517.761,-541.488"/>
<polygon fill="none" stroke="black" points="517.29,-538.019 507.748,-542.622 518.078,-544.974 517.29,-538.019"/>
</g>
<!-- \\TaskController -->
<g id="node3" class="node"><title>\\TaskController</title>
<polygon fill="none" stroke="black" points="885,-1541.31 775,-1541.31 775,-1505.31 885,-1505.31 885,-1541.31"/>
<text text-anchor="middle" x="830" y="-1520.41" font-family="Courier,monospace" font-size="11.00">TaskController</text>
</g>
<!-- \\AppController -->
<g id="node30" class="node"><title>\\AppController</title>
<ellipse fill="none" stroke="black" cx="455" cy="-499.311" rx="82.0244" ry="18.3848"/>
<text text-anchor="middle" x="455" y="-495.711" font-family="Times Roman,serif" font-size="14.00" fill="gray">\AppController</text>
</g>
<!-- \\TaskController&#45;&gt;\\AppController -->
<g id="edge5" class="edge"><title>\\TaskController&#45;&gt;\\AppController</title>
<path fill="none" stroke="black" d="M774.308,-1521.82C755.611,-1518.38 736.384,-1511.08 724,-1496.31 585.128,-1330.68 800.02,-683.824 652,-526.311 622.189,-494.588 573.946,-487.567 532.664,-488.609"/>
<polygon fill="none" stroke="black" points="532.457,-485.114 522.609,-489.021 532.744,-492.108 532.457,-485.114"/>
</g>
<!-- \\TaskShell -->
<g id="node4" class="node"><title>\\TaskShell</title>
<polygon fill="none" stroke="black" points="868,-1487.31 792,-1487.31 792,-1451.31 868,-1451.31 868,-1487.31"/>
<text text-anchor="middle" x="830" y="-1466.41" font-family="Courier,monospace" font-size="11.00">TaskShell</text>
</g>
<!-- \\AdvancedShell -->
<g id="node32" class="node"><title>\\AdvancedShell</title>
<ellipse fill="none" stroke="black" cx="455" cy="-445.311" rx="85.7684" ry="18.3848"/>
<text text-anchor="middle" x="455" y="-441.711" font-family="Times Roman,serif" font-size="14.00" fill="gray">\AdvancedShell</text>
</g>
<!-- \\TaskShell&#45;&gt;\\AdvancedShell -->
<g id="edge7" class="edge"><title>\\TaskShell&#45;&gt;\\AdvancedShell</title>
<path fill="none" stroke="black" d="M791.342,-1470.01C768.204,-1468.2 740.227,-1461.67 724,-1442.31 585.128,-1276.68 800.02,-629.824 652,-472.311 622.906,-441.351 576.256,-433.919 535.654,-434.548"/>
<polygon fill="none" stroke="black" points="535.359,-431.055 525.476,-434.872 535.582,-438.052 535.359,-431.055"/>
</g>
<!-- \\TaskServerTask -->
<g id="node5" class="node"><title>\\TaskServerTask</title>
<polygon fill="none" stroke="black" points="885,-1433.31 775,-1433.31 775,-1397.31 885,-1397.31 885,-1433.31"/>
<text text-anchor="middle" x="830" y="-1412.41" font-family="Courier,monospace" font-size="11.00">TaskServerTask</text>
</g>
<!-- \\AdvancedTask -->
<g id="node34" class="node"><title>\\AdvancedTask</title>
<ellipse fill="none" stroke="black" cx="455" cy="-391.311" rx="82.939" ry="18.3848"/>
<text text-anchor="middle" x="455" y="-387.711" font-family="Times Roman,serif" font-size="14.00" fill="gray">\AdvancedTask</text>
</g>
<!-- \\TaskServerTask&#45;&gt;\\AdvancedTask -->
<g id="edge9" class="edge"><title>\\TaskServerTask&#45;&gt;\\AdvancedTask</title>
<path fill="none" stroke="black" d="M774.308,-1413.82C755.611,-1410.38 736.384,-1403.08 724,-1388.31 585.128,-1222.68 800.02,-575.824 652,-418.311 622.407,-386.821 574.652,-379.671 533.572,-380.587"/>
<polygon fill="none" stroke="black" points="533.42,-377.09 523.561,-380.969 533.687,-384.085 533.42,-377.09"/>
</g>
<!-- \\TaskType -->
<g id="node6" class="node"><title>\\TaskType</title>
<polygon fill="none" stroke="black" points="872,-1595.31 788,-1595.31 788,-1559.31 872,-1559.31 872,-1595.31"/>
<text text-anchor="start" x="796" y="-1582.74" font-family="Courier,monospace" font-size="11.00">«abstract»</text>
<text text-anchor="start" x="802.5" y="-1569.54" font-family="Courier,monospace" font-size="11.00">TaskType</text>
</g>
<!-- \\TaskRunner -->
<g id="node7" class="node"><title>\\TaskRunner</title>
<polygon fill="none" stroke="black" points="872,-1325.31 788,-1325.31 788,-1289.31 872,-1289.31 872,-1325.31"/>
<text text-anchor="middle" x="830" y="-1304.41" font-family="Courier,monospace" font-size="11.00">TaskRunner</text>
</g>
<!-- \\Object -->
<g id="node36" class="node"><title>\\Object</title>
<ellipse fill="none" stroke="black" cx="455" cy="-337.311" rx="45.9619" ry="18.3848"/>
<text text-anchor="middle" x="455" y="-333.711" font-family="Times Roman,serif" font-size="14.00" fill="gray">\Object</text>
</g>
<!-- \\TaskRunner&#45;&gt;\\Object -->
<g id="edge11" class="edge"><title>\\TaskRunner&#45;&gt;\\Object</title>
<path fill="none" stroke="black" d="M787.948,-1307.68C765.538,-1305.49 739.474,-1298.69 724,-1280.31 592.475,-1124.13 792.15,-512.8 652,-364.311 615.619,-325.765 552.013,-323.744 506.927,-328.301"/>
<polygon fill="none" stroke="black" points="506.284,-324.851 496.75,-329.471 507.084,-331.805 506.284,-324.851"/>
</g>
<!-- \\TaskProcess -->
<g id="node8" class="node"><title>\\TaskProcess</title>
<polygon fill="none" stroke="black" points="875,-1271.31 785,-1271.31 785,-1235.31 875,-1235.31 875,-1271.31"/>
<text text-anchor="middle" x="830" y="-1250.41" font-family="Courier,monospace" font-size="11.00">TaskProcess</text>
</g>
<!-- \\Symfony\\Component\\Process\\Process -->
<g id="node38" class="node"><title>\\Symfony\\Component\\Process\\Process</title>
<ellipse fill="none" stroke="black" cx="455" cy="-283.311" rx="196.075" ry="18.3848"/>
<text text-anchor="middle" x="455" y="-279.711" font-family="Times Roman,serif" font-size="14.00" fill="gray">\Symfony\Component\Process\Process</text>
</g>
<!-- \\TaskProcess&#45;&gt;\\Symfony\\Component\\Process\\Process -->
<g id="edge13" class="edge"><title>\\TaskProcess&#45;&gt;\\Symfony\\Component\\Process\\Process</title>
<path fill="none" stroke="black" d="M784.466,-1253.31C762.888,-1250.76 738.679,-1243.74 724,-1226.31 592.475,-1070.13 792.15,-458.8 652,-310.311 647.413,-305.451 642.393,-301.172 637.032,-297.413"/>
<polygon fill="none" stroke="black" points="638.664,-294.304 628.339,-291.926 634.927,-300.223 638.664,-294.304"/>
</g>
<!-- \\TaskClient -->
<g id="node9" class="node"><title>\\TaskClient</title>
<polygon fill="none" stroke="black" points="872,-1757.31 788,-1757.31 788,-1721.31 872,-1721.31 872,-1757.31"/>
<text text-anchor="middle" x="830" y="-1736.41" font-family="Courier,monospace" font-size="11.00">TaskClient</text>
</g>
<!-- \\TaskModel -->
<g id="node10" class="node"><title>\\TaskModel</title>
<polygon fill="none" stroke="black" points="493,-1757.31 417,-1757.31 417,-1721.31 493,-1721.31 493,-1757.31"/>
<text text-anchor="middle" x="455" y="-1736.41" font-family="Courier,monospace" font-size="11.00">TaskModel</text>
</g>
<!-- \\TaskClient&#45;&gt;\\TaskModel -->
<g id="edge15" class="edge"><title>\\TaskClient&#45;&gt;\\TaskModel</title>
<path fill="none" stroke="black" d="M787.712,-1739.31C717.645,-1739.31 577.87,-1739.31 503.756,-1739.31"/>
<polygon fill="none" stroke="black" points="503.748,-1735.81 493.748,-1739.31 503.748,-1742.81 503.748,-1735.81"/>
</g>
<!-- \\AppModel -->
<g id="node41" class="node"><title>\\AppModel</title>
<ellipse fill="none" stroke="black" cx="93" cy="-1739.31" rx="62.2254" ry="18.3848"/>
<text text-anchor="middle" x="93" y="-1735.71" font-family="Times Roman,serif" font-size="14.00" fill="gray">\AppModel</text>
</g>
<!-- \\TaskModel&#45;&gt;\\AppModel -->
<g id="edge17" class="edge"><title>\\TaskModel&#45;&gt;\\AppModel</title>
<path fill="none" stroke="black" d="M416.26,-1739.31C356.596,-1739.31 241.219,-1739.31 165.674,-1739.31"/>
<polygon fill="none" stroke="black" points="165.288,-1735.81 155.288,-1739.31 165.288,-1742.81 165.288,-1735.81"/>
</g>
<!-- \\TaskProfiler -->
<g id="node11" class="node"><title>\\TaskProfiler</title>
<polygon fill="none" stroke="black" points="879,-1379.31 781,-1379.31 781,-1343.31 879,-1343.31 879,-1379.31"/>
<text text-anchor="middle" x="830" y="-1358.41" font-family="Courier,monospace" font-size="11.00">TaskProfiler</text>
</g>
<!-- \\TaskServer -->
<g id="node12" class="node"><title>\\TaskServer</title>
<polygon fill="none" stroke="black" points="872,-1811.31 788,-1811.31 788,-1775.31 872,-1775.31 872,-1811.31"/>
<text text-anchor="middle" x="830" y="-1790.41" font-family="Courier,monospace" font-size="11.00">TaskServer</text>
</g>
<!-- \\TaskServer&#45;&gt;\\TaskModel -->
<g id="edge19" class="edge"><title>\\TaskServer&#45;&gt;\\TaskModel</title>
<path fill="none" stroke="black" d="M787.712,-1787.22C717.645,-1777.13 577.87,-1757 503.756,-1746.33"/>
<polygon fill="none" stroke="black" points="504.145,-1742.85 493.748,-1744.89 503.147,-1749.78 504.145,-1742.85"/>
</g>
<!-- \\TaskControllerTest -->
<g id="node13" class="node"><title>\\TaskControllerTest</title>
<polygon fill="none" stroke="black" points="899,-1217.31 761,-1217.31 761,-1181.31 899,-1181.31 899,-1217.31"/>
<text text-anchor="middle" x="830" y="-1196.41" font-family="Courier,monospace" font-size="11.00">TaskControllerTest</text>
</g>
<!-- \\ControllerTestCase -->
<g id="node44" class="node"><title>\\ControllerTestCase</title>
<ellipse fill="none" stroke="black" cx="455" cy="-229.311" rx="106.773" ry="18.3848"/>
<text text-anchor="middle" x="455" y="-225.711" font-family="Times Roman,serif" font-size="14.00" fill="gray">\ControllerTestCase</text>
</g>
<!-- \\TaskControllerTest&#45;&gt;\\ControllerTestCase -->
<g id="edge21" class="edge"><title>\\TaskControllerTest&#45;&gt;\\ControllerTestCase</title>
<path fill="none" stroke="black" d="M760.816,-1194.57C746.762,-1190.4 733.419,-1183.5 724,-1172.31 592.475,-1016.13 792.15,-404.8 652,-256.311 626.497,-229.291 587.616,-220.218 551.114,-218.778"/>
<polygon fill="none" stroke="black" points="550.966,-215.274 540.895,-218.566 550.82,-222.273 550.966,-215.274"/>
</g>
<!-- \\TaskShellTest -->
<g id="node14" class="node"><title>\\TaskShellTest</title>
<polygon fill="none" stroke="black" points="882,-785.311 778,-785.311 778,-749.311 882,-749.311 882,-785.311"/>
<text text-anchor="middle" x="830" y="-764.411" font-family="Courier,monospace" font-size="11.00">TaskShellTest</text>
</g>
<!-- \\CakeTestCase -->
<g id="node46" class="node"><title>\\CakeTestCase</title>
<ellipse fill="none" stroke="black" cx="455" cy="-175.311" rx="82.0244" ry="18.3848"/>
<text text-anchor="middle" x="455" y="-171.711" font-family="Times Roman,serif" font-size="14.00" fill="gray">\CakeTestCase</text>
</g>
<!-- \\TaskShellTest&#45;&gt;\\CakeTestCase -->
<g id="edge23" class="edge"><title>\\TaskShellTest&#45;&gt;\\CakeTestCase</title>
<path fill="none" stroke="black" d="M777.802,-765.945C758.242,-762.698 737.508,-755.491 724,-740.311 563.624,-560.095 822.314,-373.166 652,-202.311 621.894,-172.109 574.971,-164.768 534.472,-165.257"/>
<polygon fill="none" stroke="black" points="534.227,-161.763 524.328,-165.541 534.423,-168.76 534.227,-161.763"/>
</g>
<!-- \\TaskServerTaskTest -->
<g id="node15" class="node"><title>\\TaskServerTaskTest</title>
<polygon fill="none" stroke="black" points="899,-1163.31 761,-1163.31 761,-1127.31 899,-1127.31 899,-1163.31"/>
<text text-anchor="middle" x="830" y="-1142.41" font-family="Courier,monospace" font-size="11.00">TaskServerTaskTest</text>
</g>
<!-- \\TaskServerTaskTest&#45;&gt;\\CakeTestCase -->
<g id="edge25" class="edge"><title>\\TaskServerTaskTest&#45;&gt;\\CakeTestCase</title>
<path fill="none" stroke="black" d="M760.816,-1140.57C746.762,-1136.4 733.419,-1129.5 724,-1118.31 592.475,-962.132 792.15,-350.8 652,-202.311 622.12,-170.653 573.876,-163.633 532.611,-164.659"/>
<polygon fill="none" stroke="black" points="532.409,-161.164 522.56,-165.067 532.694,-168.158 532.409,-161.164"/>
</g>
<!-- \\TaskServerTaskTestEventModel1 -->
<g id="node16" class="node"><title>\\TaskServerTaskTestEventModel1</title>
<polygon fill="none" stroke="black" points="936,-731.311 724,-731.311 724,-695.311 936,-695.311 936,-731.311"/>
<text text-anchor="middle" x="830" y="-710.411" font-family="Courier,monospace" font-size="11.00">TaskServerTaskTestEventModel1</text>
</g>
<!-- \\CakeEventListener -->
<g id="node49" class="node"><title>\\CakeEventListener</title>
<ellipse fill="none" stroke="black" cx="455" cy="-121.311" rx="106.98" ry="18.3848"/>
<text text-anchor="middle" x="455" y="-117.711" font-family="Times Roman,serif" font-size="14.00" fill="gray">\CakeEventListener</text>
</g>
<!-- \\TaskServerTaskTestEventModel1&#45;&gt;\\CakeEventListener -->
<g id="edge27" class="edge"><title>\\TaskServerTaskTestEventModel1&#45;&gt;\\CakeEventListener</title>
<path fill="none" stroke="black" stroke-dasharray="1,5" d="M733.629,-695.035C730.141,-692.469 726.904,-689.574 724,-686.311 563.624,-506.095 822.314,-319.166 652,-148.311 626.824,-123.055 589.888,-113.785 554.782,-111.713"/>
<polygon fill="none" stroke="black" points="554.585,-108.202 544.453,-111.301 554.306,-115.197 554.585,-108.202"/>
</g>
<!-- \\AllTaskTest -->
<g id="node17" class="node"><title>\\AllTaskTest</title>
<polygon fill="none" stroke="black" points="875,-677.311 785,-677.311 785,-641.311 875,-641.311 875,-677.311"/>
<text text-anchor="middle" x="830" y="-656.411" font-family="Courier,monospace" font-size="11.00">AllTaskTest</text>
</g>
<!-- \\PHPUnit_Framework_TestSuite -->
<g id="node51" class="node"><title>\\PHPUnit_Framework_TestSuite</title>
<ellipse fill="none" stroke="black" cx="455" cy="-67.3112" rx="166.877" ry="18.3848"/>
<text text-anchor="middle" x="455" y="-63.7112" font-family="Times Roman,serif" font-size="14.00" fill="gray">\PHPUnit_Framework_TestSuite</text>
</g>
<!-- \\AllTaskTest&#45;&gt;\\PHPUnit_Framework_TestSuite -->
<g id="edge29" class="edge"><title>\\AllTaskTest&#45;&gt;\\PHPUnit_Framework_TestSuite</title>
<path fill="none" stroke="black" d="M784.327,-658.894C762.984,-656.214 739.023,-649.193 724,-632.311 563.624,-452.095 822.314,-265.166 652,-94.3112 644.52,-86.8075 636.002,-80.715 626.803,-75.8031"/>
<polygon fill="none" stroke="black" points="628.312,-72.6453 617.785,-71.4479 625.268,-78.9487 628.312,-72.6453"/>
</g>
<!-- \\TaskProcessTest -->
<g id="node18" class="node"><title>\\TaskProcessTest</title>
<polygon fill="none" stroke="black" points="889,-1109.31 771,-1109.31 771,-1073.31 889,-1073.31 889,-1109.31"/>
<text text-anchor="middle" x="830" y="-1088.41" font-family="Courier,monospace" font-size="11.00">TaskProcessTest</text>
</g>
<!-- \\TaskProcessTest&#45;&gt;\\CakeTestCase -->
<g id="edge31" class="edge"><title>\\TaskProcessTest&#45;&gt;\\CakeTestCase</title>
<path fill="none" stroke="black" d="M770.787,-1089.05C753.257,-1085.35 735.655,-1078.08 724,-1064.31 599.82,-917.584 784.281,-341.779 652,-202.311 622.152,-170.842 574.151,-163.759 533.005,-164.705"/>
<polygon fill="none" stroke="black" points="532.837,-161.208 522.98,-165.093 533.109,-168.203 532.837,-161.208"/>
</g>
<!-- \\TaskTypeTest -->
<g id="node19" class="node"><title>\\TaskTypeTest</title>
<polygon fill="none" stroke="black" points="879,-1055.31 781,-1055.31 781,-1019.31 879,-1019.31 879,-1055.31"/>
<text text-anchor="middle" x="830" y="-1034.41" font-family="Courier,monospace" font-size="11.00">TaskTypeTest</text>
</g>
<!-- \\TaskTypeTest&#45;&gt;\\CakeTestCase -->
<g id="edge33" class="edge"><title>\\TaskTypeTest&#45;&gt;\\CakeTestCase</title>
<path fill="none" stroke="black" d="M780.746,-1036.75C760.191,-1033.83 737.908,-1026.65 724,-1010.31 607.163,-873.033 776.416,-332.76 652,-202.311 622.065,-170.925 574.062,-163.843 532.937,-164.769"/>
<polygon fill="none" stroke="black" points="532.777,-161.272 522.918,-165.152 533.045,-168.267 532.777,-161.272"/>
</g>
<!-- \\TaskRunnerTest -->
<g id="node20" class="node"><title>\\TaskRunnerTest</title>
<polygon fill="none" stroke="black" points="885,-1001.31 775,-1001.31 775,-965.311 885,-965.311 885,-1001.31"/>
<text text-anchor="middle" x="830" y="-980.411" font-family="Courier,monospace" font-size="11.00">TaskRunnerTest</text>
</g>
<!-- \\TaskRunnerTest&#45;&gt;\\CakeTestCase -->
<g id="edge35" class="edge"><title>\\TaskRunnerTest&#45;&gt;\\CakeTestCase</title>
<path fill="none" stroke="black" d="M774.478,-981.675C755.798,-978.225 736.539,-970.95 724,-956.311 614.503,-828.478 768.554,-323.745 652,-202.311 622.14,-171.201 574.516,-164.022 533.573,-164.828"/>
<polygon fill="none" stroke="black" points="533.191,-161.339 523.323,-165.195 533.442,-168.335 533.191,-161.339"/>
</g>
<!-- \\TaskClientTest -->
<g id="node21" class="node"><title>\\TaskClientTest</title>
<polygon fill="none" stroke="black" points="885,-947.311 775,-947.311 775,-911.311 885,-911.311 885,-947.311"/>
<text text-anchor="middle" x="830" y="-926.411" font-family="Courier,monospace" font-size="11.00">TaskClientTest</text>
</g>
<!-- \\TaskClientTest&#45;&gt;\\CakeTestCase -->
<g id="edge37" class="edge"><title>\\TaskClientTest&#45;&gt;\\CakeTestCase</title>
<path fill="none" stroke="black" d="M774.26,-927.573C755.673,-924.098 736.531,-916.833 724,-902.311 621.839,-783.919 760.695,-314.734 652,-202.311 622.027,-171.31 574.4,-164.134 533.484,-164.914"/>
<polygon fill="none" stroke="black" points="533.112,-161.425 523.241,-165.274 533.358,-168.42 533.112,-161.425"/>
</g>
<!-- \\TaskProfilerTest -->
<g id="node22" class="node"><title>\\TaskProfilerTest</title>
<polygon fill="none" stroke="black" points="892,-893.311 768,-893.311 768,-857.311 892,-857.311 892,-893.311"/>
<text text-anchor="middle" x="830" y="-872.411" font-family="Courier,monospace" font-size="11.00">TaskProfilerTest</text>
</g>
<!-- \\TaskProfilerTest&#45;&gt;\\CakeTestCase -->
<g id="edge39" class="edge"><title>\\TaskProfilerTest&#45;&gt;\\CakeTestCase</title>
<path fill="none" stroke="black" d="M767.416,-872.042C751.107,-868.127 735.034,-860.989 724,-848.311 534.34,-630.399 853.684,-409.145 652,-202.311 622.006,-171.552 574.617,-164.318 533.834,-165.006"/>
<polygon fill="none" stroke="black" points="533.502,-161.515 523.622,-165.342 533.732,-168.511 533.502,-161.515"/>
</g>
<!-- \\TaskServerTest -->
<g id="node23" class="node"><title>\\TaskServerTest</title>
<polygon fill="none" stroke="black" points="885,-839.311 775,-839.311 775,-803.311 885,-803.311 885,-839.311"/>
<text text-anchor="middle" x="830" y="-818.411" font-family="Courier,monospace" font-size="11.00">TaskServerTest</text>
</g>
<!-- \\TaskServerTest&#45;&gt;\\CakeTestCase -->
<g id="edge41" class="edge"><title>\\TaskServerTest&#45;&gt;\\CakeTestCase</title>
<path fill="none" stroke="black" d="M774.407,-819.445C755.835,-815.957 736.665,-808.716 724,-794.311 548.99,-595.256 837.991,-391.147 652,-202.311 621.964,-171.816 574.809,-164.527 534.165,-165.119"/>
<polygon fill="none" stroke="black" points="533.875,-161.626 523.986,-165.43 534.088,-168.623 533.875,-161.626"/>
</g>
<!-- \\TaskFixture -->
<g id="node24" class="node"><title>\\TaskFixture</title>
<polygon fill="none" stroke="black" points="500,-1703.31 410,-1703.31 410,-1667.31 500,-1667.31 500,-1703.31"/>
<text text-anchor="middle" x="455" y="-1682.41" font-family="Courier,monospace" font-size="11.00">TaskFixture</text>
</g>
<!-- \\CakeTestFixture -->
<g id="node59" class="node"><title>\\CakeTestFixture</title>
<ellipse fill="none" stroke="black" cx="93" cy="-853.311" rx="92.1303" ry="18.3848"/>
<text text-anchor="middle" x="93" y="-849.711" font-family="Times Roman,serif" font-size="14.00" fill="gray">\CakeTestFixture</text>
</g>
<!-- \\TaskFixture&#45;&gt;\\CakeTestFixture -->
<g id="edge43" class="edge"><title>\\TaskFixture&#45;&gt;\\CakeTestFixture</title>
<path fill="none" stroke="black" d="M409.397,-1694.08C365.018,-1699.77 298.515,-1700.34 258,-1663.31 138.989,-1554.53 101.779,-1012.67 94.4592,-881.796"/>
<polygon fill="none" stroke="black" points="97.9329,-881.216 93.8941,-871.421 90.9433,-881.597 97.9329,-881.216"/>
</g>
<!-- \\TaskProfilerFixture -->
<g id="node25" class="node"><title>\\TaskProfilerFixture</title>
<polygon fill="none" stroke="black" points="902,-1703.31 758,-1703.31 758,-1667.31 902,-1667.31 902,-1703.31"/>
<text text-anchor="middle" x="830" y="-1682.41" font-family="Courier,monospace" font-size="11.00">TaskProfilerFixture</text>
</g>
<!-- \\TaskProfilerFixture&#45;&gt;\\TaskFixture -->
<g id="edge45" class="edge"><title>\\TaskProfilerFixture&#45;&gt;\\TaskFixture</title>
<path fill="none" stroke="black" d="M757.252,-1685.31C685.176,-1685.31 576.342,-1685.31 510.824,-1685.31"/>
<polygon fill="none" stroke="black" points="510.693,-1681.81 500.693,-1685.31 510.693,-1688.81 510.693,-1681.81"/>
</g>
<!-- \\DependentTaskFixture -->
<g id="node26" class="node"><title>\\DependentTaskFixture</title>
<polygon fill="none" stroke="black" points="906,-623.311 754,-623.311 754,-587.311 906,-587.311 906,-623.311"/>
<text text-anchor="middle" x="830" y="-602.411" font-family="Courier,monospace" font-size="11.00">DependentTaskFixture</text>
</g>
<!-- \\DependentTaskFixture&#45;&gt;\\CakeTestFixture -->
<g id="edge47" class="edge"><title>\\DependentTaskFixture&#45;&gt;\\CakeTestFixture</title>
<path fill="none" stroke="black" d="M827.195,-587.276C812.985,-498.474 745.918,-109.192 652,-40.3112 581.397,11.4694 325.789,15.102 258,-40.3112 132.458,-142.934 100.111,-694.001 94.1404,-825.243"/>
<polygon fill="none" stroke="black" points="90.6411,-825.152 93.698,-835.296 97.6343,-825.46 90.6411,-825.152"/>
</g>
</g>
</svg>
