<?xml version="1.0" encoding="UTF-8" standalone="no"?>
<!DOCTYPE svg PUBLIC "-//W3C//DTD SVG 1.1//EN"
 "http://www.w3.org/Graphics/SVG/1.1/DTD/svg11.dtd">
<!-- Generated by graphviz version 2.26.3 (20100126.1600)
 -->
<!-- Title: G Pages: 1 -->
<svg width="960pt" height="1998pt"
 viewBox="0.00 0.00 960.00 1998.24" xmlns="http://www.w3.org/2000/svg" xmlns:xlink="http://www.w3.org/1999/xlink">
<g id="graph1" class="graph" transform="scale(1 1) rotate(0) translate(4 1994.24)">
<title>G</title>
<polygon fill="white" stroke="white" points="-4,5 -4,-1994.24 957,-1994.24 957,5 -4,5"/>
<g id="graph2" class="cluster"><title>cluster_Global</title>
<polyline fill="none" stroke="gray" points="403,-466.812 932,-466.812 "/>
<path fill="none" stroke="gray" d="M932,-466.812C938,-466.812 944,-472.812 944,-478.812"/>
<polyline fill="none" stroke="gray" points="944,-478.812 944,-1878.81 "/>
<path fill="none" stroke="gray" d="M944,-1878.81C944,-1884.81 938,-1890.81 932,-1890.81"/>
<polyline fill="none" stroke="gray" points="932,-1890.81 403,-1890.81 "/>
<path fill="none" stroke="gray" d="M403,-1890.81C397,-1890.81 391,-1884.81 391,-1878.81"/>
<polyline fill="none" stroke="gray" points="391,-1878.81 391,-478.812 "/>
<path fill="none" stroke="gray" d="M391,-478.812C391,-472.812 397,-466.812 403,-466.812"/>
<text text-anchor="middle" x="667.5" y="-1876.91" font-family="Times Roman,serif" font-size="11.00" fill="gray">Global</text>
</g>
<!-- \\TaskController -->
<g id="node2" class="node"><title>\\TaskController</title>
<polygon fill="none" stroke="black" points="885,-1806.81 775,-1806.81 775,-1770.81 885,-1770.81 885,-1806.81"/>
<text text-anchor="middle" x="830" y="-1785.91" font-family="Courier,monospace" font-size="11.00">TaskController</text>
</g>
<!-- \\AppController -->
<g id="node32" class="node"><title>\\AppController</title>
<ellipse fill="none" stroke="black" cx="455" cy="-1916.81" rx="82.0244" ry="18.3848"/>
<text text-anchor="middle" x="455" y="-1913.21" font-family="Times Roman,serif" font-size="14.00" fill="gray">\AppController</text>
</g>
<!-- \\TaskController&#45;&gt;\\AppController -->
<g id="edge3" class="edge"><title>\\TaskController&#45;&gt;\\AppController</title>
<path fill="none" stroke="black" d="M774.494,-1796.59C757.468,-1800.61 739.224,-1806.67 724,-1815.81 683.268,-1840.26 694.323,-1873.23 652,-1894.81 619.63,-1911.31 580.453,-1917.95 545.589,-1920.04"/>
<polygon fill="none" stroke="black" points="545.22,-1916.56 535.401,-1920.54 545.559,-1923.55 545.22,-1916.56"/>
</g>
<!-- \\TaskStatisticsFixture -->
<g id="node3" class="node"><title>\\TaskStatisticsFixture</title>
<polygon fill="none" stroke="black" points="909,-1860.81 751,-1860.81 751,-1824.81 909,-1824.81 909,-1860.81"/>
<text text-anchor="middle" x="830" y="-1839.91" font-family="Courier,monospace" font-size="11.00">TaskStatisticsFixture</text>
</g>
<!-- \\CakeTestFixture -->
<g id="node34" class="node"><title>\\CakeTestFixture</title>
<ellipse fill="none" stroke="black" cx="93" cy="-1734.81" rx="92.1303" ry="18.3848"/>
<text text-anchor="middle" x="93" y="-1731.21" font-family="Times Roman,serif" font-size="14.00" fill="gray">\CakeTestFixture</text>
</g>
<!-- \\TaskStatisticsFixture&#45;&gt;\\CakeTestFixture -->
<g id="edge5" class="edge"><title>\\TaskStatisticsFixture&#45;&gt;\\CakeTestFixture</title>
<path fill="none" stroke="black" d="M807.255,-1860.94C774.97,-1885.39 712.979,-1927.72 652,-1943.81 482.687,-1988.5 415.583,-2020.18 258,-1943.81 179.35,-1905.7 126.879,-1809.9 104.814,-1762.4"/>
<polygon fill="none" stroke="black" points="107.886,-1760.69 100.569,-1753.03 101.51,-1763.58 107.886,-1760.69"/>
</g>
<!-- \\DependentTaskFixture -->
<g id="node4" class="node"><title>\\DependentTaskFixture</title>
<polygon fill="none" stroke="black" points="906,-1752.81 754,-1752.81 754,-1716.81 906,-1716.81 906,-1752.81"/>
<text text-anchor="middle" x="830" y="-1731.91" font-family="Courier,monospace" font-size="11.00">DependentTaskFixture</text>
</g>
<!-- \\DependentTaskFixture&#45;&gt;\\CakeTestFixture -->
<g id="edge7" class="edge"><title>\\DependentTaskFixture&#45;&gt;\\CakeTestFixture</title>
<path fill="none" stroke="black" d="M753.904,-1734.81C620.793,-1734.81 345.614,-1734.81 195.741,-1734.81"/>
<polygon fill="none" stroke="black" points="195.611,-1731.31 185.611,-1734.81 195.611,-1738.31 195.611,-1731.31"/>
</g>
<!-- \\TaskFixture -->
<g id="node5" class="node"><title>\\TaskFixture</title>
<polygon fill="none" stroke="black" points="500,-1702.81 410,-1702.81 410,-1666.81 500,-1666.81 500,-1702.81"/>
<text text-anchor="middle" x="455" y="-1681.91" font-family="Courier,monospace" font-size="11.00">TaskFixture</text>
</g>
<!-- \\TaskFixture&#45;&gt;\\CakeTestFixture -->
<g id="edge9" class="edge"><title>\\TaskFixture&#45;&gt;\\CakeTestFixture</title>
<path fill="none" stroke="black" d="M409.13,-1689.19C369.145,-1693.18 309.63,-1699.55 258,-1706.81 229.428,-1710.83 198.194,-1715.94 170.663,-1720.7"/>
<polygon fill="none" stroke="black" points="169.952,-1717.27 160.7,-1722.43 171.152,-1724.16 169.952,-1717.27"/>
</g>
<!-- \\TaskProfilerFixture -->
<g id="node6" class="node"><title>\\TaskProfilerFixture</title>
<polygon fill="none" stroke="black" points="902,-1698.81 758,-1698.81 758,-1662.81 902,-1662.81 902,-1698.81"/>
<text text-anchor="middle" x="830" y="-1677.91" font-family="Courier,monospace" font-size="11.00">TaskProfilerFixture</text>
</g>
<!-- \\TaskProfilerFixture&#45;&gt;\\TaskFixture -->
<g id="edge11" class="edge"><title>\\TaskProfilerFixture&#45;&gt;\\TaskFixture</title>
<path fill="none" stroke="black" d="M757.252,-1681.59C685.176,-1682.36 576.342,-1683.52 510.824,-1684.22"/>
<polygon fill="none" stroke="black" points="510.655,-1680.72 500.693,-1684.32 510.729,-1687.72 510.655,-1680.72"/>
</g>
<!-- \\TaskControllerTest -->
<g id="node7" class="node"><title>\\TaskControllerTest</title>
<polygon fill="none" stroke="black" points="899,-1482.81 761,-1482.81 761,-1446.81 899,-1446.81 899,-1482.81"/>
<text text-anchor="middle" x="830" y="-1461.91" font-family="Courier,monospace" font-size="11.00">TaskControllerTest</text>
</g>
<!-- \\ControllerTestCase -->
<g id="node39" class="node"><title>\\ControllerTestCase</title>
<ellipse fill="none" stroke="black" cx="455" cy="-440.812" rx="106.773" ry="18.3848"/>
<text text-anchor="middle" x="455" y="-437.212" font-family="Times Roman,serif" font-size="14.00" fill="gray">\ControllerTestCase</text>
</g>
<!-- \\TaskControllerTest&#45;&gt;\\ControllerTestCase -->
<g id="edge13" class="edge"><title>\\TaskControllerTest&#45;&gt;\\ControllerTestCase</title>
<path fill="none" stroke="black" d="M760.777,-1460.11C746.725,-1455.93 733.393,-1449.02 724,-1437.81 584.447,-1271.3 802.716,-619.289 652,-462.812 623.889,-433.626 579.959,-426.634 540.711,-427.594"/>
<polygon fill="none" stroke="black" points="540.427,-424.103 530.581,-428.017 540.718,-431.097 540.427,-424.103"/>
</g>
<!-- \\TaskHelperTest -->
<g id="node8" class="node"><title>\\TaskHelperTest</title>
<polygon fill="none" stroke="black" points="885,-1158.81 775,-1158.81 775,-1122.81 885,-1122.81 885,-1158.81"/>
<text text-anchor="middle" x="830" y="-1137.91" font-family="Courier,monospace" font-size="11.00">TaskHelperTest</text>
</g>
<!-- \\CakeTestCase -->
<g id="node41" class="node"><title>\\CakeTestCase</title>
<ellipse fill="none" stroke="black" cx="455" cy="-386.812" rx="82.0244" ry="18.3848"/>
<text text-anchor="middle" x="455" y="-383.212" font-family="Times Roman,serif" font-size="14.00" fill="gray">\CakeTestCase</text>
</g>
<!-- \\TaskHelperTest&#45;&gt;\\CakeTestCase -->
<g id="edge15" class="edge"><title>\\TaskHelperTest&#45;&gt;\\CakeTestCase</title>
<path fill="none" stroke="black" d="M774.26,-1139.07C755.673,-1135.6 736.531,-1128.33 724,-1113.81 621.839,-995.42 760.695,-526.234 652,-413.812 622.027,-382.81 574.4,-375.634 533.484,-376.414"/>
<polygon fill="none" stroke="black" points="533.112,-372.925 523.241,-376.774 533.358,-379.921 533.112,-372.925"/>
</g>
<!-- \\TaskProcessTest -->
<g id="node9" class="node"><title>\\TaskProcessTest</title>
<polygon fill="none" stroke="black" points="889,-1104.81 771,-1104.81 771,-1068.81 889,-1068.81 889,-1104.81"/>
<text text-anchor="middle" x="830" y="-1083.91" font-family="Courier,monospace" font-size="11.00">TaskProcessTest</text>
</g>
<!-- \\TaskProcessTest&#45;&gt;\\CakeTestCase -->
<g id="edge17" class="edge"><title>\\TaskProcessTest&#45;&gt;\\CakeTestCase</title>
<path fill="none" stroke="black" d="M770.735,-1084.3C753.309,-1080.57 735.782,-1073.35 724,-1059.81 534.34,-841.899 853.684,-620.645 652,-413.812 622.006,-383.052 574.617,-375.818 533.834,-376.507"/>
<polygon fill="none" stroke="black" points="533.502,-373.016 523.622,-376.843 533.732,-380.012 533.502,-373.016"/>
</g>
<!-- \\TaskRunnerTest -->
<g id="node10" class="node"><title>\\TaskRunnerTest</title>
<polygon fill="none" stroke="black" points="885,-1050.81 775,-1050.81 775,-1014.81 885,-1014.81 885,-1050.81"/>
<text text-anchor="middle" x="830" y="-1029.91" font-family="Courier,monospace" font-size="11.00">TaskRunnerTest</text>
</g>
<!-- \\TaskRunnerTest&#45;&gt;\\CakeTestCase -->
<g id="edge19" class="edge"><title>\\TaskRunnerTest&#45;&gt;\\CakeTestCase</title>
<path fill="none" stroke="black" d="M774.407,-1030.95C755.835,-1027.46 736.665,-1020.22 724,-1005.81 548.99,-806.756 837.991,-602.647 652,-413.812 621.964,-383.316 574.809,-376.027 534.165,-376.619"/>
<polygon fill="none" stroke="black" points="533.875,-373.126 523.986,-376.93 534.088,-380.123 533.875,-373.126"/>
</g>
<!-- \\TaskTypeTest -->
<g id="node11" class="node"><title>\\TaskTypeTest</title>
<polygon fill="none" stroke="black" points="879,-996.812 781,-996.812 781,-960.812 879,-960.812 879,-996.812"/>
<text text-anchor="middle" x="830" y="-975.912" font-family="Courier,monospace" font-size="11.00">TaskTypeTest</text>
</g>
<!-- \\TaskTypeTest&#45;&gt;\\CakeTestCase -->
<g id="edge21" class="edge"><title>\\TaskTypeTest&#45;&gt;\\CakeTestCase</title>
<path fill="none" stroke="black" d="M780.808,-977.916C760.393,-974.918 738.203,-967.771 724,-951.812 563.624,-771.596 822.314,-584.666 652,-413.812 621.894,-383.61 574.971,-376.268 534.472,-376.758"/>
<polygon fill="none" stroke="black" points="534.227,-373.263 524.328,-377.042 534.423,-380.26 534.227,-373.263"/>
</g>
<!-- \\TaskServerTaskTest -->
<g id="node12" class="node"><title>\\TaskServerTaskTest</title>
<polygon fill="none" stroke="black" points="899,-1428.81 761,-1428.81 761,-1392.81 899,-1392.81 899,-1428.81"/>
<text text-anchor="middle" x="830" y="-1407.91" font-family="Courier,monospace" font-size="11.00">TaskServerTaskTest</text>
</g>
<!-- \\TaskServerTaskTest&#45;&gt;\\CakeTestCase -->
<g id="edge23" class="edge"><title>\\TaskServerTaskTest&#45;&gt;\\CakeTestCase</title>
<path fill="none" stroke="black" d="M760.78,-1406.11C746.728,-1401.92 733.395,-1395.02 724,-1383.81 585.128,-1218.18 800.02,-571.324 652,-413.812 622.189,-382.089 573.946,-375.067 532.664,-376.109"/>
<polygon fill="none" stroke="black" points="532.457,-372.614 522.609,-376.522 532.744,-379.609 532.457,-372.614"/>
</g>
<!-- \\TaskServerTaskTestEventModel1 -->
<g id="node13" class="node"><title>\\TaskServerTaskTestEventModel1</title>
<polygon fill="none" stroke="black" points="936,-942.812 724,-942.812 724,-906.812 936,-906.812 936,-942.812"/>
<text text-anchor="middle" x="830" y="-921.912" font-family="Courier,monospace" font-size="11.00">TaskServerTaskTestEventModel1</text>
</g>
<!-- \\CakeEventListener -->
<g id="node47" class="node"><title>\\CakeEventListener</title>
<ellipse fill="none" stroke="black" cx="455" cy="-332.812" rx="106.98" ry="18.3848"/>
<text text-anchor="middle" x="455" y="-329.212" font-family="Times Roman,serif" font-size="14.00" fill="gray">\CakeEventListener</text>
</g>
<!-- \\TaskServerTaskTestEventModel1&#45;&gt;\\CakeEventListener -->
<g id="edge25" class="edge"><title>\\TaskServerTaskTestEventModel1&#45;&gt;\\CakeEventListener</title>
<path fill="none" stroke="black" stroke-dasharray="1,5" d="M733.629,-906.535C730.141,-903.969 726.904,-901.074 724,-897.812 563.624,-717.596 822.314,-530.666 652,-359.812 626.824,-334.555 589.888,-325.286 554.782,-323.213"/>
<polygon fill="none" stroke="black" points="554.585,-319.703 544.453,-322.801 554.306,-326.697 554.585,-319.703"/>
</g>
<!-- \\TaskShellTest -->
<g id="node14" class="node"><title>\\TaskShellTest</title>
<polygon fill="none" stroke="black" points="882,-1374.81 778,-1374.81 778,-1338.81 882,-1338.81 882,-1374.81"/>
<text text-anchor="middle" x="830" y="-1353.91" font-family="Courier,monospace" font-size="11.00">TaskShellTest</text>
</g>
<!-- \\TaskShellTest&#45;&gt;\\CakeTestCase -->
<g id="edge27" class="edge"><title>\\TaskShellTest&#45;&gt;\\CakeTestCase</title>
<path fill="none" stroke="black" d="M777.926,-1355.9C758.141,-1352.76 737.211,-1345.5 724,-1329.81 592.475,-1173.63 792.15,-562.3 652,-413.812 622.12,-382.154 573.876,-375.133 532.611,-376.159"/>
<polygon fill="none" stroke="black" points="532.409,-372.664 522.56,-376.568 532.694,-379.659 532.409,-372.664"/>
</g>
<!-- \\TaskProfilerTest -->
<g id="node15" class="node"><title>\\TaskProfilerTest</title>
<polygon fill="none" stroke="black" points="892,-1320.81 768,-1320.81 768,-1284.81 892,-1284.81 892,-1320.81"/>
<text text-anchor="middle" x="830" y="-1299.91" font-family="Courier,monospace" font-size="11.00">TaskProfilerTest</text>
</g>
<!-- \\TaskProfilerTest&#45;&gt;\\CakeTestCase -->
<g id="edge29" class="edge"><title>\\TaskProfilerTest&#45;&gt;\\CakeTestCase</title>
<path fill="none" stroke="black" d="M767.466,-1299.8C751.057,-1295.91 734.919,-1288.71 724,-1275.81 599.82,-1129.08 784.281,-553.279 652,-413.812 622.152,-382.343 574.151,-375.259 533.005,-376.205"/>
<polygon fill="none" stroke="black" points="532.837,-372.709 522.98,-376.593 533.109,-379.703 532.837,-372.709"/>
</g>
<!-- \\TaskServerTest -->
<g id="node16" class="node"><title>\\TaskServerTest</title>
<polygon fill="none" stroke="black" points="885,-1266.81 775,-1266.81 775,-1230.81 885,-1230.81 885,-1266.81"/>
<text text-anchor="middle" x="830" y="-1245.91" font-family="Courier,monospace" font-size="11.00">TaskServerTest</text>
</g>
<!-- \\TaskServerTest&#45;&gt;\\CakeTestCase -->
<g id="edge31" class="edge"><title>\\TaskServerTest&#45;&gt;\\CakeTestCase</title>
<path fill="none" stroke="black" d="M774.427,-1247.22C755.743,-1243.77 736.493,-1236.49 724,-1221.81 607.163,-1084.53 776.416,-544.26 652,-413.812 622.065,-382.425 574.062,-375.343 532.937,-376.269"/>
<polygon fill="none" stroke="black" points="532.777,-372.773 522.918,-376.653 533.045,-379.768 532.777,-372.773"/>
</g>
<!-- \\TaskClientTest -->
<g id="node17" class="node"><title>\\TaskClientTest</title>
<polygon fill="none" stroke="black" points="885,-1212.81 775,-1212.81 775,-1176.81 885,-1176.81 885,-1212.81"/>
<text text-anchor="middle" x="830" y="-1191.91" font-family="Courier,monospace" font-size="11.00">TaskClientTest</text>
</g>
<!-- \\TaskClientTest&#45;&gt;\\CakeTestCase -->
<g id="edge33" class="edge"><title>\\TaskClientTest&#45;&gt;\\CakeTestCase</title>
<path fill="none" stroke="black" d="M774.478,-1193.18C755.798,-1189.73 736.539,-1182.45 724,-1167.81 614.503,-1039.98 768.554,-535.245 652,-413.812 622.14,-382.701 574.516,-375.523 533.573,-376.328"/>
<polygon fill="none" stroke="black" points="533.191,-372.84 523.323,-376.695 533.442,-379.835 533.191,-372.84"/>
</g>
<!-- \\AllTaskTest -->
<g id="node18" class="node"><title>\\AllTaskTest</title>
<polygon fill="none" stroke="black" points="875,-834.812 785,-834.812 785,-798.812 875,-798.812 875,-834.812"/>
<text text-anchor="middle" x="830" y="-813.912" font-family="Courier,monospace" font-size="11.00">AllTaskTest</text>
</g>
<!-- \\PHPUnit_Framework_TestSuite -->
<g id="node53" class="node"><title>\\PHPUnit_Framework_TestSuite</title>
<ellipse fill="none" stroke="black" cx="455" cy="-278.812" rx="166.877" ry="18.3848"/>
<text text-anchor="middle" x="455" y="-275.212" font-family="Times Roman,serif" font-size="14.00" fill="gray">\PHPUnit_Framework_TestSuite</text>
</g>
<!-- \\AllTaskTest&#45;&gt;\\PHPUnit_Framework_TestSuite -->
<g id="edge35" class="edge"><title>\\AllTaskTest&#45;&gt;\\PHPUnit_Framework_TestSuite</title>
<path fill="none" stroke="black" d="M784.433,-816.3C763.116,-813.596 739.146,-806.583 724,-789.812 578.238,-628.411 806.66,-458.707 652,-305.812 644.465,-298.363 635.906,-292.312 626.675,-287.431"/>
<polygon fill="none" stroke="black" points="628.163,-284.263 617.632,-283.102 625.141,-290.577 628.163,-284.263"/>
</g>
<!-- \\TaskHelper -->
<g id="node19" class="node"><title>\\TaskHelper</title>
<polygon fill="none" stroke="black" points="872,-780.812 788,-780.812 788,-744.812 872,-744.812 872,-780.812"/>
<text text-anchor="middle" x="830" y="-759.912" font-family="Courier,monospace" font-size="11.00">TaskHelper</text>
</g>
<!-- \\AppHelper -->
<g id="node55" class="node"><title>\\AppHelper</title>
<ellipse fill="none" stroke="black" cx="455" cy="-224.812" rx="65.0538" ry="18.3848"/>
<text text-anchor="middle" x="455" y="-221.212" font-family="Times Roman,serif" font-size="14.00" fill="gray">\AppHelper</text>
</g>
<!-- \\TaskHelper&#45;&gt;\\AppHelper -->
<g id="edge37" class="edge"><title>\\TaskHelper&#45;&gt;\\AppHelper</title>
<path fill="none" stroke="black" d="M787.9,-762.705C765.761,-760.333 739.974,-753.499 724,-735.812 578.238,-574.411 806.66,-404.707 652,-251.812 618.477,-218.671 564.665,-213.203 521.748,-215.315"/>
<polygon fill="none" stroke="black" points="521.409,-211.83 511.652,-215.959 521.854,-218.816 521.409,-211.83"/>
</g>
<!-- \\TaskRunner -->
<g id="node20" class="node"><title>\\TaskRunner</title>
<polygon fill="none" stroke="black" points="872,-726.812 788,-726.812 788,-690.812 872,-690.812 872,-726.812"/>
<text text-anchor="middle" x="830" y="-705.912" font-family="Courier,monospace" font-size="11.00">TaskRunner</text>
</g>
<!-- \\Object -->
<g id="node57" class="node"><title>\\Object</title>
<ellipse fill="none" stroke="black" cx="455" cy="-170.812" rx="45.9619" ry="18.3848"/>
<text text-anchor="middle" x="455" y="-167.212" font-family="Times Roman,serif" font-size="14.00" fill="gray">\Object</text>
</g>
<!-- \\TaskRunner&#45;&gt;\\Object -->
<g id="edge39" class="edge"><title>\\TaskRunner&#45;&gt;\\Object</title>
<path fill="none" stroke="black" d="M787.9,-708.705C765.761,-706.333 739.974,-699.499 724,-681.812 578.238,-520.411 806.66,-350.707 652,-197.812 614.534,-160.773 551.727,-158.299 507.108,-162.343"/>
<polygon fill="none" stroke="black" points="506.616,-158.875 497.033,-163.393 507.342,-165.837 506.616,-158.875"/>
</g>
<!-- \\TaskType -->
<g id="node21" class="node"><title>\\TaskType</title>
<polygon fill="none" stroke="black" points="872,-888.812 788,-888.812 788,-852.812 872,-852.812 872,-888.812"/>
<text text-anchor="start" x="796" y="-876.245" font-family="Courier,monospace" font-size="11.00">«abstract»</text>
<text text-anchor="start" x="802.5" y="-863.045" font-family="Courier,monospace" font-size="11.00">TaskType</text>
</g>
<!-- \\TaskProcess -->
<g id="node22" class="node"><title>\\TaskProcess</title>
<polygon fill="none" stroke="black" points="875,-672.812 785,-672.812 785,-636.812 875,-636.812 875,-672.812"/>
<text text-anchor="middle" x="830" y="-651.912" font-family="Courier,monospace" font-size="11.00">TaskProcess</text>
</g>
<!-- \\Symfony\\Component\\Process\\Process -->
<g id="node59" class="node"><title>\\Symfony\\Component\\Process\\Process</title>
<ellipse fill="none" stroke="black" cx="455" cy="-116.812" rx="196.075" ry="18.3848"/>
<text text-anchor="middle" x="455" y="-113.212" font-family="Times Roman,serif" font-size="14.00" fill="gray">\Symfony\Component\Process\Process</text>
</g>
<!-- \\TaskProcess&#45;&gt;\\Symfony\\Component\\Process\\Process -->
<g id="edge41" class="edge"><title>\\TaskProcess&#45;&gt;\\Symfony\\Component\\Process\\Process</title>
<path fill="none" stroke="black" d="M784.433,-654.3C763.116,-651.596 739.146,-644.583 724,-627.812 578.238,-466.411 806.66,-296.707 652,-143.812 647.052,-138.92 641.661,-134.631 635.929,-130.88"/>
<polygon fill="none" stroke="black" points="637.685,-127.852 627.298,-125.763 634.115,-133.873 637.685,-127.852"/>
</g>
<!-- \\TaskShell -->
<g id="node23" class="node"><title>\\TaskShell</title>
<polygon fill="none" stroke="black" points="868,-618.812 792,-618.812 792,-582.812 868,-582.812 868,-618.812"/>
<text text-anchor="middle" x="830" y="-597.912" font-family="Courier,monospace" font-size="11.00">TaskShell</text>
</g>
<!-- \\AdvancedShell -->
<g id="node61" class="node"><title>\\AdvancedShell</title>
<ellipse fill="none" stroke="black" cx="455" cy="-62.8116" rx="85.7684" ry="18.3848"/>
<text text-anchor="middle" x="455" y="-59.2116" font-family="Times Roman,serif" font-size="14.00" fill="gray">\AdvancedShell</text>
</g>
<!-- \\TaskShell&#45;&gt;\\AdvancedShell -->
<g id="edge43" class="edge"><title>\\TaskShell&#45;&gt;\\AdvancedShell</title>
<path fill="none" stroke="black" d="M791.309,-601.038C768.458,-599.012 740.801,-592.415 724,-573.812 578.238,-412.411 806.66,-242.707 652,-89.8116 622.641,-60.7874 577.721,-52.9883 538.186,-52.9176"/>
<polygon fill="none" stroke="black" points="537.946,-49.4206 527.998,-53.0659 538.048,-56.4199 537.946,-49.4206"/>
</g>
<!-- \\TaskServerOldTask -->
<g id="node24" class="node"><title>\\TaskServerOldTask</title>
<polygon fill="none" stroke="black" points="895,-1644.81 765,-1644.81 765,-1608.81 895,-1608.81 895,-1644.81"/>
<text text-anchor="middle" x="830" y="-1623.91" font-family="Courier,monospace" font-size="11.00">TaskServerOldTask</text>
</g>
<!-- \\TaskServerTask -->
<g id="node25" class="node"><title>\\TaskServerTask</title>
<polygon fill="none" stroke="black" points="510,-1644.81 400,-1644.81 400,-1608.81 510,-1608.81 510,-1644.81"/>
<text text-anchor="middle" x="455" y="-1623.91" font-family="Courier,monospace" font-size="11.00">TaskServerTask</text>
</g>
<!-- \\TaskServerOldTask&#45;&gt;\\TaskServerTask -->
<g id="edge45" class="edge"><title>\\TaskServerOldTask&#45;&gt;\\TaskServerTask</title>
<path fill="none" stroke="black" d="M764.251,-1626.81C695.82,-1626.81 589.27,-1626.81 520.815,-1626.81"/>
<polygon fill="none" stroke="black" points="520.584,-1623.31 510.584,-1626.81 520.584,-1630.31 520.584,-1623.31"/>
</g>
<!-- \\AdvancedTask -->
<g id="node64" class="node"><title>\\AdvancedTask</title>
<ellipse fill="none" stroke="black" cx="93" cy="-1626.81" rx="82.939" ry="18.3848"/>
<text text-anchor="middle" x="93" y="-1623.21" font-family="Times Roman,serif" font-size="14.00" fill="gray">\AdvancedTask</text>
</g>
<!-- \\TaskServerTask&#45;&gt;\\AdvancedTask -->
<g id="edge47" class="edge"><title>\\TaskServerTask&#45;&gt;\\AdvancedTask</title>
<path fill="none" stroke="black" d="M399.231,-1626.81C342.732,-1626.81 254.302,-1626.81 186.965,-1626.81"/>
<polygon fill="none" stroke="black" points="186.769,-1623.31 176.769,-1626.81 186.769,-1630.31 186.769,-1623.31"/>
</g>
<!-- \\TaskStatistics -->
<g id="node26" class="node"><title>\\TaskStatistics</title>
<polygon fill="none" stroke="black" points="885,-564.812 775,-564.812 775,-528.812 885,-528.812 885,-564.812"/>
<text text-anchor="middle" x="830" y="-543.912" font-family="Courier,monospace" font-size="11.00">TaskStatistics</text>
</g>
<!-- \\AppModel -->
<g id="node66" class="node"><title>\\AppModel</title>
<ellipse fill="none" stroke="black" cx="93" cy="-767.812" rx="62.2254" ry="18.3848"/>
<text text-anchor="middle" x="93" y="-764.212" font-family="Times Roman,serif" font-size="14.00" fill="gray">\AppModel</text>
</g>
<!-- \\TaskStatistics&#45;&gt;\\AppModel -->
<g id="edge49" class="edge"><title>\\TaskStatistics&#45;&gt;\\AppModel</title>
<path fill="none" stroke="black" d="M774.342,-544.706C755.876,-541.18 736.792,-533.976 724,-519.812 578.238,-358.411 809.691,-185.579 652,-35.8116 588.22,24.7639 542.559,-8.40346 455,-16.8116"/>
</g>
<!-- \\TaskClient -->
<g id="node27" class="node"><title>\\TaskClient</title>
<polygon fill="none" stroke="black" points="872,-1590.81 788,-1590.81 788,-1554.81 872,-1554.81 872,-1590.81"/>
<text text-anchor="middle" x="830" y="-1569.91" font-family="Courier,monospace" font-size="11.00">TaskClient</text>
</g>
<!-- \\TaskModel -->
<g id="node28" class="node"><title>\\TaskModel</title>
<polygon fill="none" stroke="black" points="493,-1536.81 417,-1536.81 417,-1500.81 493,-1500.81 493,-1536.81"/>
<text text-anchor="middle" x="455" y="-1515.91" font-family="Courier,monospace" font-size="11.00">TaskModel</text>
</g>
<!-- \\TaskClient&#45;&gt;\\TaskModel -->
<g id="edge51" class="edge"><title>\\TaskClient&#45;&gt;\\TaskModel</title>
<path fill="none" stroke="black" d="M787.712,-1566.72C717.645,-1556.63 577.87,-1536.5 503.756,-1525.83"/>
<polygon fill="none" stroke="black" points="504.145,-1522.35 493.748,-1524.39 503.147,-1529.28 504.145,-1522.35"/>
</g>
<!-- \\TaskModel&#45;&gt;\\AppModel -->
<g id="edge53" class="edge"><title>\\TaskModel&#45;&gt;\\AppModel</title>
<path fill="none" stroke="black" d="M416.445,-1526.46C372.468,-1532.78 301.094,-1535.35 258,-1496.81 150.146,-1400.35 104.986,-918.693 95.1398,-796.19"/>
<polygon fill="none" stroke="black" points="98.6196,-795.794 94.3441,-786.1 91.6412,-796.344 98.6196,-795.794"/>
</g>
<!-- \\TaskProfiler -->
<g id="node29" class="node"><title>\\TaskProfiler</title>
<polygon fill="none" stroke="black" points="879,-510.812 781,-510.812 781,-474.812 879,-474.812 879,-510.812"/>
<text text-anchor="middle" x="830" y="-489.912" font-family="Courier,monospace" font-size="11.00">TaskProfiler</text>
</g>
<!-- \\TaskProfiler&#45;&gt;\\AppModel -->
<g id="edge55" class="edge"><title>\\TaskProfiler&#45;&gt;\\AppModel</title>
<path fill="none" stroke="black" d="M829.266,-474.468C825.36,-403.943 801.037,-148.585 652,-35.8116 581.856,17.265 542.559,-8.40346 455,-16.8116"/>
<path fill="none" stroke="black" d="M455,-16.8116C367.441,-25.2197 323.978,22.3622 258,-35.8116 148.921,-131.988 104.604,-617.16 95.0535,-739.678"/>
<polygon fill="none" stroke="black" points="91.5553,-739.522 94.2829,-749.76 98.5349,-740.056 91.5553,-739.522"/>
</g>
<!-- \\TaskServer -->
<g id="node30" class="node"><title>\\TaskServer</title>
<polygon fill="none" stroke="black" points="872,-1536.81 788,-1536.81 788,-1500.81 872,-1500.81 872,-1536.81"/>
<text text-anchor="middle" x="830" y="-1515.91" font-family="Courier,monospace" font-size="11.00">TaskServer</text>
</g>
<!-- \\TaskServer&#45;&gt;\\TaskModel -->
<g id="edge57" class="edge"><title>\\TaskServer&#45;&gt;\\TaskModel</title>
<path fill="none" stroke="black" d="M787.712,-1518.81C717.645,-1518.81 577.87,-1518.81 503.756,-1518.81"/>
<polygon fill="none" stroke="black" points="503.748,-1515.31 493.748,-1518.81 503.748,-1522.31 503.748,-1515.31"/>
</g>
</g>
</svg>
