<?xml version="1.0" encoding="UTF-8" standalone="no"?>
<!DOCTYPE svg PUBLIC "-//W3C//DTD SVG 1.1//EN"
 "http://www.w3.org/Graphics/SVG/1.1/DTD/svg11.dtd">
<!-- Generated by graphviz version 2.26.3 (20100126.1600)
 -->
<!-- Title: G Pages: 1 -->
<svg width="960pt" height="1997pt"
 viewBox="0.00 0.00 960.00 1997.27" xmlns="http://www.w3.org/2000/svg" xmlns:xlink="http://www.w3.org/1999/xlink">
<g id="graph1" class="graph" transform="scale(1 1) rotate(0) translate(4 1993.27)">
<title>G</title>
<polygon fill="white" stroke="white" points="-4,5 -4,-1993.27 957,-1993.27 957,5 -4,5"/>
<g id="graph2" class="cluster"><title>cluster_Global</title>
<polyline fill="none" stroke="gray" points="413,-260 932,-260 "/>
<path fill="none" stroke="gray" d="M932,-260C938,-260 944,-266 944,-272"/>
<polyline fill="none" stroke="gray" points="944,-272 944,-1672 "/>
<path fill="none" stroke="gray" d="M944,-1672C944,-1678 938,-1684 932,-1684"/>
<polyline fill="none" stroke="gray" points="932,-1684 413,-1684 "/>
<path fill="none" stroke="gray" d="M413,-1684C407,-1684 401,-1678 401,-1672"/>
<polyline fill="none" stroke="gray" points="401,-1672 401,-272 "/>
<path fill="none" stroke="gray" d="M401,-272C401,-266 407,-260 413,-260"/>
<text text-anchor="middle" x="672.5" y="-1670.1" font-family="Times Roman,serif" font-size="11.00" fill="gray">Global</text>
</g>
<!-- \\TaskHelper -->
<g id="node2" class="node"><title>\\TaskHelper</title>
<polygon fill="none" stroke="black" points="872,-1600 788,-1600 788,-1564 872,-1564 872,-1600"/>
<text text-anchor="middle" x="830" y="-1579.1" font-family="Courier,monospace" font-size="11.00">TaskHelper</text>
</g>
<!-- \\AppHelper -->
<g id="node31" class="node"><title>\\AppHelper</title>
<ellipse fill="none" stroke="black" cx="455" cy="-1926" rx="65.0538" ry="18.3848"/>
<text text-anchor="middle" x="455" y="-1922.4" font-family="Times Roman,serif" font-size="14.00" fill="gray">\AppHelper</text>
</g>
<!-- \\TaskHelper&#45;&gt;\\AppHelper -->
<g id="edge3" class="edge"><title>\\TaskHelper&#45;&gt;\\AppHelper</title>
<path fill="none" stroke="black" d="M787.757,-1582.81C765.989,-1585.44 740.6,-1592.3 724,-1609 630.38,-1703.19 750.799,-1810.26 652,-1899 617.716,-1929.79 565.619,-1935.81 523.61,-1934.52"/>
<polygon fill="none" stroke="black" points="523.587,-1931.02 513.44,-1934.07 523.272,-1938.01 523.587,-1931.02"/>
</g>
<!-- \\TaskHelperTest -->
<g id="node3" class="node"><title>\\TaskHelperTest</title>
<polygon fill="none" stroke="black" points="885,-1168 775,-1168 775,-1132 885,-1132 885,-1168"/>
<text text-anchor="middle" x="830" y="-1147.1" font-family="Courier,monospace" font-size="11.00">TaskHelperTest</text>
</g>
<!-- \\CakeTestCase -->
<g id="node33" class="node"><title>\\CakeTestCase</title>
<ellipse fill="none" stroke="black" cx="455" cy="-1872" rx="82.0244" ry="18.3848"/>
<text text-anchor="middle" x="455" y="-1868.4" font-family="Times Roman,serif" font-size="14.00" fill="gray">\CakeTestCase</text>
</g>
<!-- \\TaskHelperTest&#45;&gt;\\CakeTestCase -->
<g id="edge5" class="edge"><title>\\TaskHelperTest&#45;&gt;\\CakeTestCase</title>
<path fill="none" stroke="black" d="M774.299,-1151.77C755.716,-1155.25 736.566,-1162.51 724,-1177 528.368,-1402.6 860.082,-1630.83 652,-1845 622.062,-1875.81 574.674,-1883.05 533.878,-1882.35"/>
<polygon fill="none" stroke="black" points="533.774,-1878.84 523.663,-1882.01 533.541,-1885.84 533.774,-1878.84"/>
</g>
<!-- \\TaskProfilerTest -->
<g id="node4" class="node"><title>\\TaskProfilerTest</title>
<polygon fill="none" stroke="black" points="892,-1114 768,-1114 768,-1078 892,-1078 892,-1114"/>
<text text-anchor="middle" x="830" y="-1093.1" font-family="Courier,monospace" font-size="11.00">TaskProfilerTest</text>
</g>
<!-- \\TaskProfilerTest&#45;&gt;\\CakeTestCase -->
<g id="edge7" class="edge"><title>\\TaskProfilerTest&#45;&gt;\\CakeTestCase</title>
<path fill="none" stroke="black" d="M767.322,-1099.19C751.01,-1103.1 734.96,-1110.26 724,-1123 618.851,-1245.24 763.896,-1728.91 652,-1845 622.075,-1876.05 574.449,-1883.22 533.522,-1882.43"/>
<polygon fill="none" stroke="black" points="533.394,-1878.93 523.276,-1882.07 533.146,-1885.92 533.394,-1878.93"/>
</g>
<!-- \\TaskServerTest -->
<g id="node5" class="node"><title>\\TaskServerTest</title>
<polygon fill="none" stroke="black" points="885,-1546 775,-1546 775,-1510 885,-1510 885,-1546"/>
<text text-anchor="middle" x="830" y="-1525.1" font-family="Courier,monospace" font-size="11.00">TaskServerTest</text>
</g>
<!-- \\TaskServerTest&#45;&gt;\\CakeTestCase -->
<g id="edge9" class="edge"><title>\\TaskServerTest&#45;&gt;\\CakeTestCase</title>
<path fill="none" stroke="black" d="M774.251,-1530.96C756.109,-1534.61 737.254,-1541.67 724,-1555 630.38,-1649.19 750.799,-1756.26 652,-1845 621.47,-1872.42 576.814,-1880.2 537.735,-1880.66"/>
<polygon fill="none" stroke="black" points="537.42,-1877.16 527.406,-1880.62 537.392,-1884.16 537.42,-1877.16"/>
</g>
<!-- \\TaskClientTest -->
<g id="node6" class="node"><title>\\TaskClientTest</title>
<polygon fill="none" stroke="black" points="885,-1492 775,-1492 775,-1456 885,-1456 885,-1492"/>
<text text-anchor="middle" x="830" y="-1471.1" font-family="Courier,monospace" font-size="11.00">TaskClientTest</text>
</g>
<!-- \\TaskClientTest&#45;&gt;\\CakeTestCase -->
<g id="edge11" class="edge"><title>\\TaskClientTest&#45;&gt;\\CakeTestCase</title>
<path fill="none" stroke="black" d="M774.245,-1476.64C755.993,-1480.24 737.07,-1487.35 724,-1501 615.954,-1613.81 766.255,-1738.49 652,-1845 621.57,-1873.37 576.135,-1881.01 536.565,-1881.15"/>
<polygon fill="none" stroke="black" points="536.42,-1877.65 526.378,-1881.03 536.335,-1884.65 536.42,-1877.65"/>
</g>
<!-- \\TaskProcessTest -->
<g id="node7" class="node"><title>\\TaskProcessTest</title>
<polygon fill="none" stroke="black" points="889,-1438 771,-1438 771,-1402 889,-1402 889,-1438"/>
<text text-anchor="middle" x="830" y="-1417.1" font-family="Courier,monospace" font-size="11.00">TaskProcessTest</text>
</g>
<!-- \\TaskProcessTest&#45;&gt;\\CakeTestCase -->
<g id="edge13" class="edge"><title>\\TaskProcessTest&#45;&gt;\\CakeTestCase</title>
<path fill="none" stroke="black" d="M770.724,-1423.12C753.508,-1426.91 736.105,-1434.01 724,-1447 601.445,-1578.51 781.798,-1720.64 652,-1845 621.553,-1874.17 575.311,-1881.65 535.279,-1881.5"/>
<polygon fill="none" stroke="black" points="535.314,-1878 525.248,-1881.31 535.178,-1885 535.314,-1878"/>
</g>
<!-- \\TaskRunnerTest -->
<g id="node8" class="node"><title>\\TaskRunnerTest</title>
<polygon fill="none" stroke="black" points="885,-1384 775,-1384 775,-1348 885,-1348 885,-1384"/>
<text text-anchor="middle" x="830" y="-1363.1" font-family="Courier,monospace" font-size="11.00">TaskRunnerTest</text>
</g>
<!-- \\TaskRunnerTest&#45;&gt;\\CakeTestCase -->
<g id="edge15" class="edge"><title>\\TaskRunnerTest&#45;&gt;\\CakeTestCase</title>
<path fill="none" stroke="black" d="M774.422,-1368.18C755.965,-1371.71 736.864,-1378.9 724,-1393 586.884,-1543.27 797.397,-1702.73 652,-1845 621.747,-1874.6 575.284,-1882.04 535.078,-1881.76"/>
<polygon fill="none" stroke="black" points="535.081,-1878.26 525.004,-1881.53 534.922,-1885.26 535.081,-1878.26"/>
</g>
<!-- \\TaskTypeTest -->
<g id="node9" class="node"><title>\\TaskTypeTest</title>
<polygon fill="none" stroke="black" points="879,-1330 781,-1330 781,-1294 879,-1294 879,-1330"/>
<text text-anchor="middle" x="830" y="-1309.1" font-family="Courier,monospace" font-size="11.00">TaskTypeTest</text>
</g>
<!-- \\TaskTypeTest&#45;&gt;\\CakeTestCase -->
<g id="edge17" class="edge"><title>\\TaskTypeTest&#45;&gt;\\CakeTestCase</title>
<path fill="none" stroke="black" d="M780.87,-1312.95C760.467,-1315.96 738.269,-1323.1 724,-1339 572.287,-1508.06 813.034,-1684.79 652,-1845 621.769,-1875.08 574.842,-1882.41 534.372,-1881.95"/>
<polygon fill="none" stroke="black" points="534.328,-1878.45 524.236,-1881.68 534.137,-1885.45 534.328,-1878.45"/>
</g>
<!-- \\AllTaskTest -->
<g id="node10" class="node"><title>\\AllTaskTest</title>
<polygon fill="none" stroke="black" points="875,-1060 785,-1060 785,-1024 875,-1024 875,-1060"/>
<text text-anchor="middle" x="830" y="-1039.1" font-family="Courier,monospace" font-size="11.00">AllTaskTest</text>
</g>
<!-- \\PHPUnit_Framework_TestSuite -->
<g id="node41" class="node"><title>\\PHPUnit_Framework_TestSuite</title>
<ellipse fill="none" stroke="black" cx="455" cy="-1818" rx="166.877" ry="18.3848"/>
<text text-anchor="middle" x="455" y="-1814.4" font-family="Times Roman,serif" font-size="14.00" fill="gray">\PHPUnit_Framework_TestSuite</text>
</g>
<!-- \\AllTaskTest&#45;&gt;\\PHPUnit_Framework_TestSuite -->
<g id="edge19" class="edge"><title>\\AllTaskTest&#45;&gt;\\PHPUnit_Framework_TestSuite</title>
<path fill="none" stroke="black" d="M784.351,-1042.17C762.879,-1044.77 738.799,-1051.8 724,-1069 618.851,-1191.24 763.896,-1674.91 652,-1791 644.813,-1798.46 636.605,-1804.54 627.714,-1809.46"/>
<polygon fill="none" stroke="black" points="625.992,-1806.41 618.608,-1814.01 629.119,-1812.67 625.992,-1806.41"/>
</g>
<!-- \\TaskControllerTest -->
<g id="node11" class="node"><title>\\TaskControllerTest</title>
<polygon fill="none" stroke="black" points="899,-1006 761,-1006 761,-970 899,-970 899,-1006"/>
<text text-anchor="middle" x="830" y="-985.1" font-family="Courier,monospace" font-size="11.00">TaskControllerTest</text>
</g>
<!-- \\ControllerTestCase -->
<g id="node43" class="node"><title>\\ControllerTestCase</title>
<ellipse fill="none" stroke="black" cx="455" cy="-1764" rx="106.773" ry="18.3848"/>
<text text-anchor="middle" x="455" y="-1760.4" font-family="Times Roman,serif" font-size="14.00" fill="gray">\ControllerTestCase</text>
</g>
<!-- \\TaskControllerTest&#45;&gt;\\ControllerTestCase -->
<g id="edge21" class="edge"><title>\\TaskControllerTest&#45;&gt;\\ControllerTestCase</title>
<path fill="none" stroke="black" d="M760.987,-992.882C746.925,-997.055 733.536,-1003.91 724,-1015 618.851,-1137.24 763.896,-1620.91 652,-1737 626.544,-1763.41 588.279,-1772.55 552.225,-1774.2"/>
<polygon fill="none" stroke="black" points="552.027,-1770.71 542.127,-1774.48 552.219,-1777.7 552.027,-1770.71"/>
</g>
<!-- \\TaskShellTest -->
<g id="node12" class="node"><title>\\TaskShellTest</title>
<polygon fill="none" stroke="black" points="882,-1276 778,-1276 778,-1240 882,-1240 882,-1276"/>
<text text-anchor="middle" x="830" y="-1255.1" font-family="Courier,monospace" font-size="11.00">TaskShellTest</text>
</g>
<!-- \\TaskShellTest&#45;&gt;\\CakeTestCase -->
<g id="edge23" class="edge"><title>\\TaskShellTest&#45;&gt;\\CakeTestCase</title>
<path fill="none" stroke="black" d="M777.762,-1259.33C758.197,-1262.57 737.469,-1269.79 724,-1285 557.665,-1472.89 828.698,-1666.82 652,-1845 621.86,-1875.39 574.702,-1882.68 534.082,-1882.11"/>
<polygon fill="none" stroke="black" points="534.01,-1878.61 523.91,-1881.81 533.801,-1885.6 534.01,-1878.61"/>
</g>
<!-- \\TaskServerTaskTest -->
<g id="node13" class="node"><title>\\TaskServerTaskTest</title>
<polygon fill="none" stroke="black" points="899,-1222 761,-1222 761,-1186 899,-1186 899,-1222"/>
<text text-anchor="middle" x="830" y="-1201.1" font-family="Courier,monospace" font-size="11.00">TaskServerTaskTest</text>
</g>
<!-- \\TaskServerTaskTest&#45;&gt;\\CakeTestCase -->
<g id="edge25" class="edge"><title>\\TaskServerTaskTest&#45;&gt;\\CakeTestCase</title>
<path fill="none" stroke="black" d="M760.853,-1209.09C746.885,-1213.26 733.569,-1220.07 724,-1231 543.023,-1437.74 844.383,-1648.83 652,-1845 621.918,-1875.67 574.526,-1882.9 533.764,-1882.24"/>
<polygon fill="none" stroke="black" points="533.666,-1878.73 523.558,-1881.91 533.44,-1885.73 533.666,-1878.73"/>
</g>
<!-- \\TaskServerTaskTestEventModel1 -->
<g id="node14" class="node"><title>\\TaskServerTaskTestEventModel1</title>
<polygon fill="none" stroke="black" points="936,-952 724,-952 724,-916 936,-916 936,-952"/>
<text text-anchor="middle" x="830" y="-931.1" font-family="Courier,monospace" font-size="11.00">TaskServerTaskTestEventModel1</text>
</g>
<!-- \\CakeEventListener -->
<g id="node47" class="node"><title>\\CakeEventListener</title>
<ellipse fill="none" stroke="black" cx="455" cy="-1710" rx="106.98" ry="18.3848"/>
<text text-anchor="middle" x="455" y="-1706.4" font-family="Times Roman,serif" font-size="14.00" fill="gray">\CakeEventListener</text>
</g>
<!-- \\TaskServerTaskTestEventModel1&#45;&gt;\\CakeEventListener -->
<g id="edge27" class="edge"><title>\\TaskServerTaskTestEventModel1&#45;&gt;\\CakeEventListener</title>
<path fill="none" stroke="black" stroke-dasharray="1,5" d="M733.489,-952.154C730.038,-954.753 726.847,-957.688 724,-961 618.171,-1084.11 766.076,-1572.49 652,-1688 624.03,-1716.32 581.12,-1723.54 542.48,-1722.95"/>
<polygon fill="none" stroke="black" points="542.347,-1719.44 532.237,-1722.61 542.116,-1726.44 542.347,-1719.44"/>
</g>
<!-- \\TaskProfilerFixture -->
<g id="node15" class="node"><title>\\TaskProfilerFixture</title>
<polygon fill="none" stroke="black" points="902,-790 758,-790 758,-754 902,-754 902,-790"/>
<text text-anchor="middle" x="830" y="-769.1" font-family="Courier,monospace" font-size="11.00">TaskProfilerFixture</text>
</g>
<!-- \\TaskFixture -->
<g id="node16" class="node"><title>\\TaskFixture</title>
<polygon fill="none" stroke="black" points="500,-763 410,-763 410,-727 500,-727 500,-763"/>
<text text-anchor="middle" x="455" y="-742.1" font-family="Courier,monospace" font-size="11.00">TaskFixture</text>
</g>
<!-- \\TaskProfilerFixture&#45;&gt;\\TaskFixture -->
<g id="edge29" class="edge"><title>\\TaskProfilerFixture&#45;&gt;\\TaskFixture</title>
<path fill="none" stroke="black" d="M757.252,-766.762C685.176,-761.573 576.342,-753.737 510.824,-749.019"/>
<polygon fill="none" stroke="black" points="510.918,-745.517 500.693,-748.29 510.415,-752.499 510.918,-745.517"/>
</g>
<!-- \\CakeTestFixture -->
<g id="node50" class="node"><title>\\CakeTestFixture</title>
<ellipse fill="none" stroke="black" cx="93" cy="-691" rx="92.1303" ry="18.3848"/>
<text text-anchor="middle" x="93" y="-687.4" font-family="Times Roman,serif" font-size="14.00" fill="gray">\CakeTestFixture</text>
</g>
<!-- \\TaskFixture&#45;&gt;\\CakeTestFixture -->
<g id="edge31" class="edge"><title>\\TaskFixture&#45;&gt;\\CakeTestFixture</title>
<path fill="none" stroke="black" d="M409.481,-740.963C369.465,-737.165 309.711,-730.889 258,-723 227.552,-718.355 194.161,-712.1 165.431,-706.353"/>
<polygon fill="none" stroke="black" points="165.97,-702.891 155.475,-704.344 164.585,-709.753 165.97,-702.891"/>
</g>
<!-- \\DependentTaskFixture -->
<g id="node17" class="node"><title>\\DependentTaskFixture</title>
<polygon fill="none" stroke="black" points="906,-682 754,-682 754,-646 906,-646 906,-682"/>
<text text-anchor="middle" x="830" y="-661.1" font-family="Courier,monospace" font-size="11.00">DependentTaskFixture</text>
</g>
<!-- \\DependentTaskFixture&#45;&gt;\\CakeTestFixture -->
<g id="edge33" class="edge"><title>\\DependentTaskFixture&#45;&gt;\\CakeTestFixture</title>
<path fill="none" stroke="black" d="M753.749,-660.741C677.895,-658.266 558.239,-656.433 455,-664"/>
</g>
<!-- \\TaskStatisticsFixture -->
<g id="node18" class="node"><title>\\TaskStatisticsFixture</title>
<polygon fill="none" stroke="black" points="909,-628 751,-628 751,-592 909,-592 909,-628"/>
<text text-anchor="middle" x="830" y="-607.1" font-family="Courier,monospace" font-size="11.00">TaskStatisticsFixture</text>
</g>
<!-- \\TaskStatisticsFixture&#45;&gt;\\CakeTestFixture -->
<g id="edge35" class="edge"><title>\\TaskStatisticsFixture&#45;&gt;\\CakeTestFixture</title>
<path fill="none" stroke="black" d="M750.976,-624.658C675.325,-637.911 557.828,-656.463 455,-664"/>
<path fill="none" stroke="black" d="M455,-664C364.955,-670.6 262.324,-678.268 189.393,-683.743"/>
<polygon fill="none" stroke="black" points="189.013,-680.261 179.303,-684.5 189.537,-687.242 189.013,-680.261"/>
</g>
<!-- \\TaskClient -->
<g id="node19" class="node"><title>\\TaskClient</title>
<polygon fill="none" stroke="black" points="872,-844 788,-844 788,-808 872,-808 872,-844"/>
<text text-anchor="middle" x="830" y="-823.1" font-family="Courier,monospace" font-size="11.00">TaskClient</text>
</g>
<!-- \\TaskModel -->
<g id="node22" class="node"><title>\\TaskModel</title>
<polygon fill="none" stroke="black" points="493,-898 417,-898 417,-862 493,-862 493,-898"/>
<text text-anchor="middle" x="455" y="-877.1" font-family="Courier,monospace" font-size="11.00">TaskModel</text>
</g>
<!-- \\TaskClient&#45;&gt;\\TaskModel -->
<g id="edge37" class="edge"><title>\\TaskClient&#45;&gt;\\TaskModel</title>
<path fill="none" stroke="black" d="M787.712,-832.09C717.645,-842.179 577.87,-862.307 503.756,-872.979"/>
<polygon fill="none" stroke="black" points="503.147,-869.531 493.748,-874.42 504.145,-876.459 503.147,-869.531"/>
</g>
<!-- \\TaskProfiler -->
<g id="node20" class="node"><title>\\TaskProfiler</title>
<polygon fill="none" stroke="black" points="879,-736 781,-736 781,-700 879,-700 879,-736"/>
<text text-anchor="middle" x="830" y="-715.1" font-family="Courier,monospace" font-size="11.00">TaskProfiler</text>
</g>
<!-- \\TaskStatistics -->
<g id="node21" class="node"><title>\\TaskStatistics</title>
<polygon fill="none" stroke="black" points="885,-1654 775,-1654 775,-1618 885,-1618 885,-1654"/>
<text text-anchor="middle" x="830" y="-1633.1" font-family="Courier,monospace" font-size="11.00">TaskStatistics</text>
</g>
<!-- \\AppModel -->
<g id="node55" class="node"><title>\\AppModel</title>
<ellipse fill="none" stroke="black" cx="93" cy="-1426" rx="62.2254" ry="18.3848"/>
<text text-anchor="middle" x="93" y="-1422.4" font-family="Times Roman,serif" font-size="14.00" fill="gray">\AppModel</text>
</g>
<!-- \\TaskStatistics&#45;&gt;\\AppModel -->
<g id="edge39" class="edge"><title>\\TaskStatistics&#45;&gt;\\AppModel</title>
<path fill="none" stroke="black" d="M826.441,-1654.08C814.202,-1710.73 768.024,-1885.09 652,-1953 576.438,-1997.23 328.557,-2004.84 258,-1953 174.046,-1891.31 113.719,-1554.55 97.4102,-1454.22"/>
<polygon fill="none" stroke="black" points="100.846,-1453.54 95.8037,-1444.22 93.9341,-1454.65 100.846,-1453.54"/>
</g>
<!-- \\TaskModel&#45;&gt;\\AppModel -->
<g id="edge41" class="edge"><title>\\TaskModel&#45;&gt;\\AppModel</title>
<path fill="none" stroke="black" d="M416.217,-872.888C372.692,-867.248 302.38,-865.485 258,-902 178.056,-967.776 115.044,-1298.81 97.7361,-1397.92"/>
<polygon fill="none" stroke="black" points="94.2818,-1397.36 96.0276,-1407.81 101.18,-1398.55 94.2818,-1397.36"/>
</g>
<!-- \\TaskServer -->
<g id="node23" class="node"><title>\\TaskServer</title>
<polygon fill="none" stroke="black" points="872,-898 788,-898 788,-862 872,-862 872,-898"/>
<text text-anchor="middle" x="830" y="-877.1" font-family="Courier,monospace" font-size="11.00">TaskServer</text>
</g>
<!-- \\TaskServer&#45;&gt;\\TaskModel -->
<g id="edge43" class="edge"><title>\\TaskServer&#45;&gt;\\TaskModel</title>
<path fill="none" stroke="black" d="M787.712,-880C717.645,-880 577.87,-880 503.756,-880"/>
<polygon fill="none" stroke="black" points="503.748,-876.5 493.748,-880 503.748,-883.5 503.748,-876.5"/>
</g>
<!-- \\TaskProcess -->
<g id="node24" class="node"><title>\\TaskProcess</title>
<polygon fill="none" stroke="black" points="875,-574 785,-574 785,-538 875,-538 875,-574"/>
<text text-anchor="middle" x="830" y="-553.1" font-family="Courier,monospace" font-size="11.00">TaskProcess</text>
</g>
<!-- \\Symfony\\Component\\Process\\Process -->
<g id="node59" class="node"><title>\\Symfony\\Component\\Process\\Process</title>
<ellipse fill="none" stroke="black" cx="455" cy="-234" rx="196.075" ry="18.3848"/>
<text text-anchor="middle" x="455" y="-230.4" font-family="Times Roman,serif" font-size="14.00" fill="gray">\Symfony\Component\Process\Process</text>
</g>
<!-- \\TaskProcess&#45;&gt;\\Symfony\\Component\\Process\\Process -->
<g id="edge45" class="edge"><title>\\TaskProcess&#45;&gt;\\Symfony\\Component\\Process\\Process</title>
<path fill="none" stroke="black" d="M784.406,-554.639C763.475,-551.688 739.845,-544.711 724,-529 634.897,-440.646 746.991,-337.991 652,-256 648.385,-252.88 644.584,-250.034 640.626,-247.44"/>
<polygon fill="none" stroke="black" points="642.111,-244.252 631.725,-242.159 638.54,-250.272 642.111,-244.252"/>
</g>
<!-- \\TaskType -->
<g id="node25" class="node"><title>\\TaskType</title>
<polygon fill="none" stroke="black" points="872,-520 788,-520 788,-484 872,-484 872,-520"/>
<text text-anchor="start" x="796" y="-507.433" font-family="Courier,monospace" font-size="11.00">«abstract»</text>
<text text-anchor="start" x="802.5" y="-494.233" font-family="Courier,monospace" font-size="11.00">TaskType</text>
</g>
<!-- \\TaskRunner -->
<g id="node26" class="node"><title>\\TaskRunner</title>
<polygon fill="none" stroke="black" points="872,-466 788,-466 788,-430 872,-430 872,-466"/>
<text text-anchor="middle" x="830" y="-445.1" font-family="Courier,monospace" font-size="11.00">TaskRunner</text>
</g>
<!-- \\Object -->
<g id="node61" class="node"><title>\\Object</title>
<ellipse fill="none" stroke="black" cx="455" cy="-180" rx="45.9619" ry="18.3848"/>
<text text-anchor="middle" x="455" y="-176.4" font-family="Times Roman,serif" font-size="14.00" fill="gray">\Object</text>
</g>
<!-- \\TaskRunner&#45;&gt;\\Object -->
<g id="edge47" class="edge"><title>\\TaskRunner&#45;&gt;\\Object</title>
<path fill="none" stroke="black" d="M787.763,-446.572C766.265,-443.738 741.125,-436.885 724,-421 650.427,-352.757 729.316,-270.971 652,-207 612.356,-174.199 552.095,-170.441 508.663,-173.025"/>
<polygon fill="none" stroke="black" points="508.282,-169.544 498.561,-173.757 508.788,-176.525 508.282,-169.544"/>
</g>
<!-- \\TaskController -->
<g id="node27" class="node"><title>\\TaskController</title>
<polygon fill="none" stroke="black" points="885,-412 775,-412 775,-376 885,-376 885,-412"/>
<text text-anchor="middle" x="830" y="-391.1" font-family="Courier,monospace" font-size="11.00">TaskController</text>
</g>
<!-- \\AppController -->
<g id="node63" class="node"><title>\\AppController</title>
<ellipse fill="none" stroke="black" cx="455" cy="-126" rx="82.0244" ry="18.3848"/>
<text text-anchor="middle" x="455" y="-122.4" font-family="Times Roman,serif" font-size="14.00" fill="gray">\AppController</text>
</g>
<!-- \\TaskController&#45;&gt;\\AppController -->
<g id="edge49" class="edge"><title>\\TaskController&#45;&gt;\\AppController</title>
<path fill="none" stroke="black" d="M774.301,-390.304C756.376,-386.579 737.645,-379.656 724,-367 650.427,-298.757 729.316,-216.971 652,-153 621.114,-127.445 577.714,-119.519 539.508,-118.486"/>
<polygon fill="none" stroke="black" points="539.443,-114.985 529.402,-118.366 539.36,-121.984 539.443,-114.985"/>
</g>
<!-- \\TaskServerTask -->
<g id="node28" class="node"><title>\\TaskServerTask</title>
<polygon fill="none" stroke="black" points="885,-358 775,-358 775,-322 885,-322 885,-358"/>
<text text-anchor="middle" x="830" y="-337.1" font-family="Courier,monospace" font-size="11.00">TaskServerTask</text>
</g>
<!-- \\AdvancedTask -->
<g id="node65" class="node"><title>\\AdvancedTask</title>
<ellipse fill="none" stroke="black" cx="455" cy="-72" rx="82.939" ry="18.3848"/>
<text text-anchor="middle" x="455" y="-68.4" font-family="Times Roman,serif" font-size="14.00" fill="gray">\AdvancedTask</text>
</g>
<!-- \\TaskServerTask&#45;&gt;\\AdvancedTask -->
<g id="edge51" class="edge"><title>\\TaskServerTask&#45;&gt;\\AdvancedTask</title>
<path fill="none" stroke="black" d="M774.301,-336.304C756.376,-332.579 737.645,-325.656 724,-313 650.427,-244.757 729.316,-162.971 652,-99 621.481,-73.7483 578.742,-65.7091 540.869,-64.5254"/>
<polygon fill="none" stroke="black" points="540.9,-61.0255 530.845,-64.3649 540.787,-68.0246 540.9,-61.0255"/>
</g>
<!-- \\TaskShell -->
<g id="node29" class="node"><title>\\TaskShell</title>
<polygon fill="none" stroke="black" points="868,-304 792,-304 792,-268 868,-268 868,-304"/>
<text text-anchor="middle" x="830" y="-283.1" font-family="Courier,monospace" font-size="11.00">TaskShell</text>
</g>
<!-- \\AdvancedShell -->
<g id="node67" class="node"><title>\\AdvancedShell</title>
<ellipse fill="none" stroke="black" cx="455" cy="-18" rx="85.7684" ry="18.3848"/>
<text text-anchor="middle" x="455" y="-14.4" font-family="Times Roman,serif" font-size="14.00" fill="gray">\AdvancedShell</text>
</g>
<!-- \\TaskShell&#45;&gt;\\AdvancedShell -->
<g id="edge53" class="edge"><title>\\TaskShell&#45;&gt;\\AdvancedShell</title>
<path fill="none" stroke="black" d="M822.685,-267.932C802.97,-221.813 743.932,-99.5365 652,-45 621.999,-27.2028 584.989,-19.2486 551.178,-16.1399"/>
<polygon fill="none" stroke="black" points="551.042,-12.6185 540.799,-15.3252 550.494,-19.5971 551.042,-12.6185"/>
</g>
</g>
</svg>
