<?xml version="1.0" encoding="UTF-8" standalone="no"?>
<!DOCTYPE svg PUBLIC "-//W3C//DTD SVG 1.1//EN"
 "http://www.w3.org/Graphics/SVG/1.1/DTD/svg11.dtd">
<!-- Generated by graphviz version 2.26.3 (20100126.1600)
 -->
<!-- Title: G Pages: 1 -->
<svg width="960pt" height="2037pt"
 viewBox="0.00 0.00 960.00 2036.69" xmlns="http://www.w3.org/2000/svg" xmlns:xlink="http://www.w3.org/1999/xlink">
<g id="graph1" class="graph" transform="scale(1 1) rotate(0) translate(4 2032.69)">
<title>G</title>
<polygon fill="white" stroke="white" points="-4,5 -4,-2032.69 957,-2032.69 957,5 -4,5"/>
<g id="graph2" class="cluster"><title>cluster_Global</title>
<polyline fill="none" stroke="gray" points="413,-245.984 932,-245.984 "/>
<path fill="none" stroke="gray" d="M932,-245.984C938,-245.984 944,-251.984 944,-257.984"/>
<polyline fill="none" stroke="gray" points="944,-257.984 944,-1657.98 "/>
<path fill="none" stroke="gray" d="M944,-1657.98C944,-1663.98 938,-1669.98 932,-1669.98"/>
<polyline fill="none" stroke="gray" points="932,-1669.98 413,-1669.98 "/>
<path fill="none" stroke="gray" d="M413,-1669.98C407,-1669.98 401,-1663.98 401,-1657.98"/>
<polyline fill="none" stroke="gray" points="401,-1657.98 401,-257.984 "/>
<path fill="none" stroke="gray" d="M401,-257.984C401,-251.984 407,-245.984 413,-245.984"/>
<text text-anchor="middle" x="672.5" y="-1656.08" font-family="Times Roman,serif" font-size="11.00" fill="gray">Global</text>
</g>
<!-- \\TaskHelper -->
<g id="node2" class="node"><title>\\TaskHelper</title>
<polygon fill="none" stroke="black" points="872,-1585.98 788,-1585.98 788,-1549.98 872,-1549.98 872,-1585.98"/>
<text text-anchor="middle" x="830" y="-1565.08" font-family="Courier,monospace" font-size="11.00">TaskHelper</text>
</g>
<!-- \\AppHelper -->
<g id="node31" class="node"><title>\\AppHelper</title>
<ellipse fill="none" stroke="black" cx="455" cy="-1965.98" rx="65.0538" ry="18.3848"/>
<text text-anchor="middle" x="455" y="-1962.38" font-family="Times Roman,serif" font-size="14.00" fill="gray">\AppHelper</text>
</g>
<!-- \\TaskHelper&#45;&gt;\\AppHelper -->
<g id="edge3" class="edge"><title>\\TaskHelper&#45;&gt;\\AppHelper</title>
<path fill="none" stroke="black" d="M787.772,-1568.52C765.872,-1571.06 740.354,-1577.91 724,-1594.98 615.954,-1707.79 766.255,-1832.47 652,-1938.98 618.059,-1970.63 565.448,-1976.48 523.132,-1974.91"/>
<polygon fill="none" stroke="black" points="523.058,-1971.4 512.89,-1974.38 522.696,-1978.39 523.058,-1971.4"/>
</g>
<!-- \\TaskController -->
<g id="node3" class="node"><title>\\TaskController</title>
<polygon fill="none" stroke="black" points="885,-1531.98 775,-1531.98 775,-1495.98 885,-1495.98 885,-1531.98"/>
<text text-anchor="middle" x="830" y="-1511.08" font-family="Courier,monospace" font-size="11.00">TaskController</text>
</g>
<!-- \\AppController -->
<g id="node33" class="node"><title>\\AppController</title>
<ellipse fill="none" stroke="black" cx="455" cy="-1911.98" rx="82.0244" ry="18.3848"/>
<text text-anchor="middle" x="455" y="-1908.38" font-family="Times Roman,serif" font-size="14.00" fill="gray">\AppController</text>
</g>
<!-- \\TaskController&#45;&gt;\\AppController -->
<g id="edge5" class="edge"><title>\\TaskController&#45;&gt;\\AppController</title>
<path fill="none" stroke="black" d="M774.245,-1516.62C755.993,-1520.22 737.07,-1527.34 724,-1540.98 615.954,-1653.79 766.255,-1778.47 652,-1884.98 621.57,-1913.35 576.135,-1920.99 536.565,-1921.14"/>
<polygon fill="none" stroke="black" points="536.42,-1917.64 526.378,-1921.01 536.335,-1924.64 536.42,-1917.64"/>
</g>
<!-- \\TaskShell -->
<g id="node4" class="node"><title>\\TaskShell</title>
<polygon fill="none" stroke="black" points="868,-1477.98 792,-1477.98 792,-1441.98 868,-1441.98 868,-1477.98"/>
<text text-anchor="middle" x="830" y="-1457.08" font-family="Courier,monospace" font-size="11.00">TaskShell</text>
</g>
<!-- \\AdvancedShell -->
<g id="node35" class="node"><title>\\AdvancedShell</title>
<ellipse fill="none" stroke="black" cx="455" cy="-1857.98" rx="85.7684" ry="18.3848"/>
<text text-anchor="middle" x="455" y="-1854.38" font-family="Times Roman,serif" font-size="14.00" fill="gray">\AdvancedShell</text>
</g>
<!-- \\TaskShell&#45;&gt;\\AdvancedShell -->
<g id="edge7" class="edge"><title>\\TaskShell&#45;&gt;\\AdvancedShell</title>
<path fill="none" stroke="black" d="M791.43,-1460.13C768.77,-1462.32 741.274,-1468.95 724,-1486.98 615.954,-1599.79 766.255,-1724.47 652,-1830.98 622.446,-1858.53 578.738,-1866.54 539.996,-1867.11"/>
<polygon fill="none" stroke="black" points="539.748,-1863.61 529.742,-1867.09 539.736,-1870.61 539.748,-1863.61"/>
</g>
<!-- \\TaskServerTask -->
<g id="node5" class="node"><title>\\TaskServerTask</title>
<polygon fill="none" stroke="black" points="885,-1369.98 775,-1369.98 775,-1333.98 885,-1333.98 885,-1369.98"/>
<text text-anchor="middle" x="830" y="-1349.08" font-family="Courier,monospace" font-size="11.00">TaskServerTask</text>
</g>
<!-- \\AdvancedTask -->
<g id="node37" class="node"><title>\\AdvancedTask</title>
<ellipse fill="none" stroke="black" cx="455" cy="-1803.98" rx="82.939" ry="18.3848"/>
<text text-anchor="middle" x="455" y="-1800.38" font-family="Times Roman,serif" font-size="14.00" fill="gray">\AdvancedTask</text>
</g>
<!-- \\TaskServerTask&#45;&gt;\\AdvancedTask -->
<g id="edge9" class="edge"><title>\\TaskServerTask&#45;&gt;\\AdvancedTask</title>
<path fill="none" stroke="black" d="M774.31,-1354.37C755.954,-1357.93 736.947,-1365.09 724,-1378.98 601.445,-1510.49 781.798,-1652.62 652,-1776.98 621.961,-1805.76 576.549,-1813.43 536.893,-1813.49"/>
<polygon fill="none" stroke="black" points="536.732,-1809.98 526.682,-1813.34 536.63,-1816.98 536.732,-1809.98"/>
</g>
<!-- \\TaskType -->
<g id="node6" class="node"><title>\\TaskType</title>
<polygon fill="none" stroke="black" points="872,-1423.98 788,-1423.98 788,-1387.98 872,-1387.98 872,-1423.98"/>
<text text-anchor="start" x="796" y="-1411.42" font-family="Courier,monospace" font-size="11.00">«abstract»</text>
<text text-anchor="start" x="802.5" y="-1398.22" font-family="Courier,monospace" font-size="11.00">TaskType</text>
</g>
<!-- \\TaskRunner -->
<g id="node7" class="node"><title>\\TaskRunner</title>
<polygon fill="none" stroke="black" points="872,-1315.98 788,-1315.98 788,-1279.98 872,-1279.98 872,-1315.98"/>
<text text-anchor="middle" x="830" y="-1295.08" font-family="Courier,monospace" font-size="11.00">TaskRunner</text>
</g>
<!-- \\Object -->
<g id="node39" class="node"><title>\\Object</title>
<ellipse fill="none" stroke="black" cx="455" cy="-1749.98" rx="45.9619" ry="18.3848"/>
<text text-anchor="middle" x="455" y="-1746.38" font-family="Times Roman,serif" font-size="14.00" fill="gray">\Object</text>
</g>
<!-- \\TaskRunner&#45;&gt;\\Object -->
<g id="edge11" class="edge"><title>\\TaskRunner&#45;&gt;\\Object</title>
<path fill="none" stroke="black" d="M787.851,-1298.32C765.835,-1300.77 740.184,-1307.62 724,-1324.98 601.445,-1456.49 781.798,-1598.62 652,-1722.98 614.075,-1759.32 551.644,-1762 507.232,-1758.2"/>
<polygon fill="none" stroke="black" points="507.499,-1754.71 497.202,-1757.2 506.808,-1761.67 507.499,-1754.71"/>
</g>
<!-- \\TaskProcess -->
<g id="node8" class="node"><title>\\TaskProcess</title>
<polygon fill="none" stroke="black" points="875,-1261.98 785,-1261.98 785,-1225.98 875,-1225.98 875,-1261.98"/>
<text text-anchor="middle" x="830" y="-1241.08" font-family="Courier,monospace" font-size="11.00">TaskProcess</text>
</g>
<!-- \\Symfony\\Component\\Process\\Process -->
<g id="node41" class="node"><title>\\Symfony\\Component\\Process\\Process</title>
<ellipse fill="none" stroke="black" cx="455" cy="-1695.98" rx="196.075" ry="18.3848"/>
<text text-anchor="middle" x="455" y="-1692.38" font-family="Times Roman,serif" font-size="14.00" fill="gray">\Symfony\Component\Process\Process</text>
</g>
<!-- \\TaskProcess&#45;&gt;\\Symfony\\Component\\Process\\Process -->
<g id="edge13" class="edge"><title>\\TaskProcess&#45;&gt;\\Symfony\\Component\\Process\\Process</title>
<path fill="none" stroke="black" d="M784.373,-1244.72C763.174,-1247.5 739.324,-1254.5 724,-1270.98 600.099,-1404.23 784.805,-1549.61 652,-1673.98 648.587,-1677.18 644.982,-1680.1 641.214,-1682.76"/>
<polygon fill="none" stroke="black" points="639.263,-1679.85 632.718,-1688.19 643.03,-1685.75 639.263,-1679.85"/>
</g>
<!-- \\TaskStatistics -->
<g id="node9" class="node"><title>\\TaskStatistics</title>
<polygon fill="none" stroke="black" points="885,-1639.98 775,-1639.98 775,-1603.98 885,-1603.98 885,-1639.98"/>
<text text-anchor="middle" x="830" y="-1619.08" font-family="Courier,monospace" font-size="11.00">TaskStatistics</text>
</g>
<!-- \\AppModel -->
<g id="node43" class="node"><title>\\AppModel</title>
<ellipse fill="none" stroke="black" cx="93" cy="-1600.98" rx="62.2254" ry="18.3848"/>
<text text-anchor="middle" x="93" y="-1597.38" font-family="Times Roman,serif" font-size="14.00" fill="gray">\AppModel</text>
</g>
<!-- \\TaskStatistics&#45;&gt;\\AppModel -->
<g id="edge15" class="edge"><title>\\TaskStatistics&#45;&gt;\\AppModel</title>
<path fill="none" stroke="black" d="M827.886,-1640.31C819.532,-1703.18 782.598,-1910.79 652,-1992.98 577.898,-2039.62 330.938,-2041.42 258,-1992.98 130.777,-1908.5 101.425,-1704.66 94.8427,-1629.46"/>
<polygon fill="none" stroke="black" points="98.3184,-1629.02 94.0278,-1619.33 91.3409,-1629.58 98.3184,-1629.02"/>
</g>
<!-- \\TaskClient -->
<g id="node10" class="node"><title>\\TaskClient</title>
<polygon fill="none" stroke="black" points="872,-1207.98 788,-1207.98 788,-1171.98 872,-1171.98 872,-1207.98"/>
<text text-anchor="middle" x="830" y="-1187.08" font-family="Courier,monospace" font-size="11.00">TaskClient</text>
</g>
<!-- \\TaskModel -->
<g id="node11" class="node"><title>\\TaskModel</title>
<polygon fill="none" stroke="black" points="493,-1207.98 417,-1207.98 417,-1171.98 493,-1171.98 493,-1207.98"/>
<text text-anchor="middle" x="455" y="-1187.08" font-family="Courier,monospace" font-size="11.00">TaskModel</text>
</g>
<!-- \\TaskClient&#45;&gt;\\TaskModel -->
<g id="edge17" class="edge"><title>\\TaskClient&#45;&gt;\\TaskModel</title>
<path fill="none" stroke="black" d="M787.712,-1189.98C717.645,-1189.98 577.87,-1189.98 503.756,-1189.98"/>
<polygon fill="none" stroke="black" points="503.748,-1186.48 493.748,-1189.98 503.748,-1193.48 503.748,-1186.48"/>
</g>
<!-- \\TaskModel&#45;&gt;\\AppModel -->
<g id="edge19" class="edge"><title>\\TaskModel&#45;&gt;\\AppModel</title>
<path fill="none" stroke="black" d="M416.447,-1183.62C373.458,-1178.74 303.945,-1177.75 258,-1211.98 136.868,-1302.25 103.848,-1499.01 95.5654,-1572.52"/>
<polygon fill="none" stroke="black" points="92.0456,-1572.52 94.4768,-1582.84 99.007,-1573.26 92.0456,-1572.52"/>
</g>
<!-- \\TaskProfiler -->
<g id="node12" class="node"><title>\\TaskProfiler</title>
<polygon fill="none" stroke="black" points="879,-1153.98 781,-1153.98 781,-1117.98 879,-1117.98 879,-1153.98"/>
<text text-anchor="middle" x="830" y="-1133.08" font-family="Courier,monospace" font-size="11.00">TaskProfiler</text>
</g>
<!-- \\TaskServer -->
<g id="node13" class="node"><title>\\TaskServer</title>
<polygon fill="none" stroke="black" points="872,-1099.98 788,-1099.98 788,-1063.98 872,-1063.98 872,-1099.98"/>
<text text-anchor="middle" x="830" y="-1079.08" font-family="Courier,monospace" font-size="11.00">TaskServer</text>
</g>
<!-- \\TaskServer&#45;&gt;\\TaskModel -->
<g id="edge21" class="edge"><title>\\TaskServer&#45;&gt;\\TaskModel</title>
<path fill="none" stroke="black" d="M787.849,-1092.28C768.365,-1097.15 744.951,-1103.16 724,-1108.98 646.359,-1130.55 556.892,-1158.02 503.201,-1174.79"/>
<polygon fill="none" stroke="black" points="502.102,-1171.46 493.603,-1177.79 504.192,-1178.14 502.102,-1171.46"/>
</g>
<!-- \\TaskHelperTest -->
<g id="node14" class="node"><title>\\TaskHelperTest</title>
<polygon fill="none" stroke="black" points="885,-559.984 775,-559.984 775,-523.984 885,-523.984 885,-559.984"/>
<text text-anchor="middle" x="830" y="-539.084" font-family="Courier,monospace" font-size="11.00">TaskHelperTest</text>
</g>
<!-- \\CakeTestCase -->
<g id="node48" class="node"><title>\\CakeTestCase</title>
<ellipse fill="none" stroke="black" cx="455" cy="-219.984" rx="82.0244" ry="18.3848"/>
<text text-anchor="middle" x="455" y="-216.384" font-family="Times Roman,serif" font-size="14.00" fill="gray">\CakeTestCase</text>
</g>
<!-- \\TaskHelperTest&#45;&gt;\\CakeTestCase -->
<g id="edge23" class="edge"><title>\\TaskHelperTest&#45;&gt;\\CakeTestCase</title>
<path fill="none" stroke="black" d="M774.36,-538.911C756.227,-535.259 737.35,-528.222 724,-514.984 634.897,-426.63 746.991,-323.975 652,-241.984 619.818,-214.206 572.823,-208.114 532.805,-209.246"/>
<polygon fill="none" stroke="black" points="532.633,-205.751 522.794,-209.681 532.937,-212.744 532.633,-205.751"/>
</g>
<!-- \\TaskControllerTest -->
<g id="node15" class="node"><title>\\TaskControllerTest</title>
<polygon fill="none" stroke="black" points="899,-505.984 761,-505.984 761,-469.984 899,-469.984 899,-505.984"/>
<text text-anchor="middle" x="830" y="-485.084" font-family="Courier,monospace" font-size="11.00">TaskControllerTest</text>
</g>
<!-- \\ControllerTestCase -->
<g id="node50" class="node"><title>\\ControllerTestCase</title>
<ellipse fill="none" stroke="black" cx="455" cy="-165.984" rx="106.773" ry="18.3848"/>
<text text-anchor="middle" x="455" y="-162.384" font-family="Times Roman,serif" font-size="14.00" fill="gray">\ControllerTestCase</text>
</g>
<!-- \\TaskControllerTest&#45;&gt;\\ControllerTestCase -->
<g id="edge25" class="edge"><title>\\TaskControllerTest&#45;&gt;\\ControllerTestCase</title>
<path fill="none" stroke="black" d="M760.89,-481.5C747.255,-477.363 734.069,-470.922 724,-460.984 636.222,-374.344 744.539,-274.519 652,-192.984 627.295,-171.216 593.651,-161.921 561.159,-158.826"/>
<polygon fill="none" stroke="black" points="561.362,-155.331 551.124,-158.058 560.828,-162.311 561.362,-155.331"/>
</g>
<!-- \\TaskShellTest -->
<g id="node16" class="node"><title>\\TaskShellTest</title>
<polygon fill="none" stroke="black" points="882,-991.984 778,-991.984 778,-955.984 882,-955.984 882,-991.984"/>
<text text-anchor="middle" x="830" y="-971.084" font-family="Courier,monospace" font-size="11.00">TaskShellTest</text>
</g>
<!-- \\TaskShellTest&#45;&gt;\\CakeTestCase -->
<g id="edge27" class="edge"><title>\\TaskShellTest&#45;&gt;\\CakeTestCase</title>
<path fill="none" stroke="black" d="M777.834,-972.876C758.158,-969.682 737.331,-962.445 724,-946.984 621.16,-827.718 762.829,-353.865 652,-241.984 620.564,-210.25 570.362,-205.04 528.505,-207.615"/>
<polygon fill="none" stroke="black" points="528.038,-204.141 518.337,-208.401 528.577,-211.12 528.038,-204.141"/>
</g>
<!-- \\TaskServerTaskTest -->
<g id="node17" class="node"><title>\\TaskServerTaskTest</title>
<polygon fill="none" stroke="black" points="899,-937.984 761,-937.984 761,-901.984 899,-901.984 899,-937.984"/>
<text text-anchor="middle" x="830" y="-917.084" font-family="Courier,monospace" font-size="11.00">TaskServerTaskTest</text>
</g>
<!-- \\TaskServerTaskTest&#45;&gt;\\CakeTestCase -->
<g id="edge29" class="edge"><title>\\TaskServerTaskTest&#45;&gt;\\CakeTestCase</title>
<path fill="none" stroke="black" d="M760.8,-914.945C746.834,-910.768 733.533,-903.946 724,-892.984 532.983,-673.325 857.728,-447.93 652,-241.984 620.431,-210.382 570.231,-205.17 528.409,-207.712"/>
<polygon fill="none" stroke="black" points="527.954,-204.236 518.25,-208.488 528.487,-211.216 527.954,-204.236"/>
</g>
<!-- \\TaskServerTaskTestEventModel1 -->
<g id="node18" class="node"><title>\\TaskServerTaskTestEventModel1</title>
<polygon fill="none" stroke="black" points="936,-451.984 724,-451.984 724,-415.984 936,-415.984 936,-451.984"/>
<text text-anchor="middle" x="830" y="-431.084" font-family="Courier,monospace" font-size="11.00">TaskServerTaskTestEventModel1</text>
</g>
<!-- \\CakeEventListener -->
<g id="node54" class="node"><title>\\CakeEventListener</title>
<ellipse fill="none" stroke="black" cx="455" cy="-111.984" rx="106.98" ry="18.3848"/>
<text text-anchor="middle" x="455" y="-108.384" font-family="Times Roman,serif" font-size="14.00" fill="gray">\CakeEventListener</text>
</g>
<!-- \\TaskServerTaskTestEventModel1&#45;&gt;\\CakeEventListener -->
<g id="edge31" class="edge"><title>\\TaskServerTaskTestEventModel1&#45;&gt;\\CakeEventListener</title>
<path fill="none" stroke="black" stroke-dasharray="1,5" d="M735.089,-415.853C731.109,-413.26 727.379,-410.319 724,-406.984 636.222,-320.344 744.539,-220.519 652,-138.984 627.412,-117.319 593.97,-108.009 561.623,-104.87"/>
<polygon fill="none" stroke="black" points="561.873,-101.379 551.63,-104.088 561.326,-108.358 561.873,-101.379"/>
</g>
<!-- \\AllTaskTest -->
<g id="node19" class="node"><title>\\AllTaskTest</title>
<polygon fill="none" stroke="black" points="875,-397.984 785,-397.984 785,-361.984 875,-361.984 875,-397.984"/>
<text text-anchor="middle" x="830" y="-377.084" font-family="Courier,monospace" font-size="11.00">AllTaskTest</text>
</g>
<!-- \\PHPUnit_Framework_TestSuite -->
<g id="node56" class="node"><title>\\PHPUnit_Framework_TestSuite</title>
<ellipse fill="none" stroke="black" cx="455" cy="-57.9839" rx="166.877" ry="18.3848"/>
<text text-anchor="middle" x="455" y="-54.3839" font-family="Times Roman,serif" font-size="14.00" fill="gray">\PHPUnit_Framework_TestSuite</text>
</g>
<!-- \\AllTaskTest&#45;&gt;\\PHPUnit_Framework_TestSuite -->
<g id="edge33" class="edge"><title>\\AllTaskTest&#45;&gt;\\PHPUnit_Framework_TestSuite</title>
<path fill="none" stroke="black" d="M784.438,-378.591C763.514,-375.633 739.881,-368.659 724,-352.984 636.222,-266.344 744.539,-166.519 652,-84.9839 643.77,-77.7327 634.549,-71.8655 624.708,-67.1505"/>
<polygon fill="none" stroke="black" points="626.073,-63.9275 615.508,-63.1377 623.275,-70.3438 626.073,-63.9275"/>
</g>
<!-- \\TaskProcessTest -->
<g id="node20" class="node"><title>\\TaskProcessTest</title>
<polygon fill="none" stroke="black" points="889,-883.984 771,-883.984 771,-847.984 889,-847.984 889,-883.984"/>
<text text-anchor="middle" x="830" y="-863.084" font-family="Courier,monospace" font-size="11.00">TaskProcessTest</text>
</g>
<!-- \\TaskProcessTest&#45;&gt;\\CakeTestCase -->
<g id="edge35" class="edge"><title>\\TaskProcessTest&#45;&gt;\\CakeTestCase</title>
<path fill="none" stroke="black" d="M770.808,-863.404C753.386,-859.675 735.843,-852.467 724,-838.984 547.634,-638.183 841.809,-430.128 652,-241.984 620.389,-210.65 570.435,-205.361 528.742,-207.799"/>
<polygon fill="none" stroke="black" points="528.326,-204.32 518.612,-208.549 528.843,-211.301 528.326,-204.32"/>
</g>
<!-- \\TaskTypeTest -->
<g id="node21" class="node"><title>\\TaskTypeTest</title>
<polygon fill="none" stroke="black" points="879,-829.984 781,-829.984 781,-793.984 879,-793.984 879,-829.984"/>
<text text-anchor="middle" x="830" y="-809.084" font-family="Courier,monospace" font-size="11.00">TaskTypeTest</text>
</g>
<!-- \\TaskTypeTest&#45;&gt;\\CakeTestCase -->
<g id="edge37" class="edge"><title>\\TaskTypeTest&#45;&gt;\\CakeTestCase</title>
<path fill="none" stroke="black" d="M780.799,-811.096C760.382,-808.1 738.193,-800.952 724,-784.984 562.27,-603.024 825.907,-412.343 652,-241.984 620.318,-210.948 570.609,-205.585 529.053,-207.911"/>
<polygon fill="none" stroke="black" points="528.679,-204.429 518.955,-208.633 529.179,-211.411 528.679,-204.429"/>
</g>
<!-- \\TaskRunnerTest -->
<g id="node22" class="node"><title>\\TaskRunnerTest</title>
<polygon fill="none" stroke="black" points="885,-775.984 775,-775.984 775,-739.984 885,-739.984 885,-775.984"/>
<text text-anchor="middle" x="830" y="-755.084" font-family="Courier,monospace" font-size="11.00">TaskRunnerTest</text>
</g>
<!-- \\TaskRunnerTest&#45;&gt;\\CakeTestCase -->
<g id="edge39" class="edge"><title>\\TaskRunnerTest&#45;&gt;\\CakeTestCase</title>
<path fill="none" stroke="black" d="M774.33,-755.889C755.864,-752.364 736.781,-745.158 724,-730.984 576.886,-567.842 810.027,-394.579 652,-241.984 620.21,-211.287 570.745,-205.85 529.335,-208.056"/>
<polygon fill="none" stroke="black" points="529.007,-204.57 519.271,-208.748 529.487,-211.554 529.007,-204.57"/>
</g>
<!-- \\TaskClientTest -->
<g id="node23" class="node"><title>\\TaskClientTest</title>
<polygon fill="none" stroke="black" points="885,-721.984 775,-721.984 775,-685.984 885,-685.984 885,-721.984"/>
<text text-anchor="middle" x="830" y="-701.084" font-family="Courier,monospace" font-size="11.00">TaskClientTest</text>
</g>
<!-- \\TaskClientTest&#45;&gt;\\CakeTestCase -->
<g id="edge41" class="edge"><title>\\TaskClientTest&#45;&gt;\\CakeTestCase</title>
<path fill="none" stroke="black" d="M774.469,-701.762C756.017,-698.225 736.907,-691.043 724,-676.984 591.473,-532.629 794.178,-376.844 652,-241.984 620.168,-211.79 571.184,-206.214 530.026,-208.223"/>
<polygon fill="none" stroke="black" points="529.774,-204.732 520.018,-208.866 530.222,-211.718 529.774,-204.732"/>
</g>
<!-- \\TaskProfilerTest -->
<g id="node24" class="node"><title>\\TaskProfilerTest</title>
<polygon fill="none" stroke="black" points="892,-667.984 768,-667.984 768,-631.984 892,-631.984 892,-667.984"/>
<text text-anchor="middle" x="830" y="-647.084" font-family="Courier,monospace" font-size="11.00">TaskProfilerTest</text>
</g>
<!-- \\TaskProfilerTest&#45;&gt;\\CakeTestCase -->
<g id="edge43" class="edge"><title>\\TaskProfilerTest&#45;&gt;\\CakeTestCase</title>
<path fill="none" stroke="black" d="M767.47,-646.032C751.359,-642.082 735.376,-635.096 724,-622.984 606.02,-497.372 778.372,-359.15 652,-241.984 620.011,-212.325 571.402,-206.644 530.474,-208.466"/>
<polygon fill="none" stroke="black" points="530.021,-204.987 520.249,-209.081 530.441,-211.974 530.021,-204.987"/>
</g>
<!-- \\TaskServerTest -->
<g id="node25" class="node"><title>\\TaskServerTest</title>
<polygon fill="none" stroke="black" points="885,-613.984 775,-613.984 775,-577.984 885,-577.984 885,-613.984"/>
<text text-anchor="middle" x="830" y="-593.084" font-family="Courier,monospace" font-size="11.00">TaskServerTest</text>
</g>
<!-- \\TaskServerTest&#45;&gt;\\CakeTestCase -->
<g id="edge45" class="edge"><title>\\TaskServerTest&#45;&gt;\\CakeTestCase</title>
<path fill="none" stroke="black" d="M774.325,-593.272C756.08,-589.663 737.141,-582.562 724,-568.984 620.506,-462.05 762.63,-341.517 652,-241.984 619.924,-213.126 572.016,-207.257 531.476,-208.782"/>
<polygon fill="none" stroke="black" points="531.143,-205.295 521.342,-209.319 531.514,-212.285 531.143,-205.295"/>
</g>
<!-- \\TaskFixture -->
<g id="node26" class="node"><title>\\TaskFixture</title>
<polygon fill="none" stroke="black" points="500,-791.984 410,-791.984 410,-755.984 500,-755.984 500,-791.984"/>
<text text-anchor="middle" x="455" y="-771.084" font-family="Courier,monospace" font-size="11.00">TaskFixture</text>
</g>
<!-- \\CakeTestFixture -->
<g id="node64" class="node"><title>\\CakeTestFixture</title>
<ellipse fill="none" stroke="black" cx="93" cy="-265.984" rx="92.1303" ry="18.3848"/>
<text text-anchor="middle" x="93" y="-262.384" font-family="Times Roman,serif" font-size="14.00" fill="gray">\CakeTestFixture</text>
</g>
<!-- \\TaskFixture&#45;&gt;\\CakeTestFixture -->
<g id="edge47" class="edge"><title>\\TaskFixture&#45;&gt;\\CakeTestFixture</title>
<path fill="none" stroke="black" d="M409.122,-781.762C365.481,-786.455 300.37,-786.062 258,-751.984 183.204,-691.825 117.438,-388.704 98.4789,-294.178"/>
<polygon fill="none" stroke="black" points="101.879,-293.331 96.4976,-284.205 95.0133,-294.695 101.879,-293.331"/>
</g>
<!-- \\TaskProfilerFixture -->
<g id="node27" class="node"><title>\\TaskProfilerFixture</title>
<polygon fill="none" stroke="black" points="902,-1045.98 758,-1045.98 758,-1009.98 902,-1009.98 902,-1045.98"/>
<text text-anchor="middle" x="830" y="-1025.08" font-family="Courier,monospace" font-size="11.00">TaskProfilerFixture</text>
</g>
<!-- \\TaskProfilerFixture&#45;&gt;\\TaskFixture -->
<g id="edge49" class="edge"><title>\\TaskProfilerFixture&#45;&gt;\\TaskFixture</title>
<path fill="none" stroke="black" d="M757.398,-1014.16C745.898,-1010.66 734.385,-1006.33 724,-1000.98 619.983,-947.469 521.116,-847.061 477.857,-799.812"/>
<polygon fill="none" stroke="black" points="480.23,-797.218 470.918,-792.165 475.046,-801.923 480.23,-797.218"/>
</g>
<!-- \\DependentTaskFixture -->
<g id="node28" class="node"><title>\\DependentTaskFixture</title>
<polygon fill="none" stroke="black" points="906,-343.984 754,-343.984 754,-307.984 906,-307.984 906,-343.984"/>
<text text-anchor="middle" x="830" y="-323.084" font-family="Courier,monospace" font-size="11.00">DependentTaskFixture</text>
</g>
<!-- \\DependentTaskFixture&#45;&gt;\\CakeTestFixture -->
<g id="edge51" class="edge"><title>\\DependentTaskFixture&#45;&gt;\\CakeTestFixture</title>
<path fill="none" stroke="black" d="M753.808,-317.118C742.748,-313.009 732.312,-307.188 724,-298.984 636.222,-212.344 746.153,-110.65 652,-30.9839 584.85,25.8334 542.943,-13.8048 455,-11.9839"/>
</g>
<!-- \\TaskStatisticsFixture -->
<g id="node29" class="node"><title>\\TaskStatisticsFixture</title>
<polygon fill="none" stroke="black" points="909,-289.984 751,-289.984 751,-253.984 909,-253.984 909,-289.984"/>
<text text-anchor="middle" x="830" y="-269.084" font-family="Courier,monospace" font-size="11.00">TaskStatisticsFixture</text>
</g>
<!-- \\TaskStatisticsFixture&#45;&gt;\\CakeTestFixture -->
<g id="edge53" class="edge"><title>\\TaskStatisticsFixture&#45;&gt;\\CakeTestFixture</title>
<path fill="none" stroke="black" d="M822.81,-253.7C803.394,-207.066 745.006,-83.6683 652,-30.9839 575.465,12.3705 542.943,-13.8048 455,-11.9839"/>
<path fill="none" stroke="black" d="M455,-11.9839C367.057,-10.163 334.01,13.286 258,-30.9839 175.211,-79.2022 123.733,-187.468 103.213,-238.447"/>
<polygon fill="none" stroke="black" points="99.9206,-237.256 99.5221,-247.844 106.436,-239.816 99.9206,-237.256"/>
</g>
</g>
</svg>
