<?xml version="1.0" encoding="UTF-8" standalone="no"?>
<!DOCTYPE svg PUBLIC "-//W3C//DTD SVG 1.1//EN"
 "http://www.w3.org/Graphics/SVG/1.1/DTD/svg11.dtd">
<!-- Generated by graphviz version 2.26.3 (20100126.1600)
 -->
<!-- Title: G Pages: 1 -->
<svg width="960pt" height="1846pt"
 viewBox="0.00 0.00 960.00 1846.00" xmlns="http://www.w3.org/2000/svg" xmlns:xlink="http://www.w3.org/1999/xlink">
<g id="graph1" class="graph" transform="scale(1 1) rotate(0) translate(4 1842)">
<title>G</title>
<polygon fill="white" stroke="white" points="-4,5 -4,-1842 957,-1842 957,5 -4,5"/>
<g id="graph2" class="cluster"><title>cluster_Global</title>
<polyline fill="none" stroke="gray" points="413,-568 932,-568 "/>
<path fill="none" stroke="gray" d="M932,-568C938,-568 944,-574 944,-580"/>
<polyline fill="none" stroke="gray" points="944,-580 944,-1818 "/>
<path fill="none" stroke="gray" d="M944,-1818C944,-1824 938,-1830 932,-1830"/>
<polyline fill="none" stroke="gray" points="932,-1830 413,-1830 "/>
<path fill="none" stroke="gray" d="M413,-1830C407,-1830 401,-1824 401,-1818"/>
<polyline fill="none" stroke="gray" points="401,-1818 401,-580 "/>
<path fill="none" stroke="gray" d="M401,-580C401,-574 407,-568 413,-568"/>
<text text-anchor="middle" x="672.5" y="-1816.1" font-family="Times Roman,serif" font-size="11.00" fill="gray">Global</text>
</g>
<!-- \\TaskModel -->
<g id="node2" class="node"><title>\\TaskModel</title>
<polygon fill="none" stroke="black" points="493,-1692 417,-1692 417,-1656 493,-1656 493,-1692"/>
<text text-anchor="middle" x="455" y="-1671.1" font-family="Courier,monospace" font-size="11.00">TaskModel</text>
</g>
<!-- \\AppModel -->
<g id="node28" class="node"><title>\\AppModel</title>
<ellipse fill="none" stroke="black" cx="93" cy="-1674" rx="62.2254" ry="18.3848"/>
<text text-anchor="middle" x="93" y="-1670.4" font-family="Times Roman,serif" font-size="14.00" fill="gray">\AppModel</text>
</g>
<!-- \\TaskModel&#45;&gt;\\AppModel -->
<g id="edge3" class="edge"><title>\\TaskModel&#45;&gt;\\AppModel</title>
<path fill="none" stroke="black" d="M416.26,-1674C356.596,-1674 241.219,-1674 165.674,-1674"/>
<polygon fill="none" stroke="black" points="165.288,-1670.5 155.288,-1674 165.288,-1677.5 165.288,-1670.5"/>
</g>
<!-- \\TaskServer -->
<g id="node3" class="node"><title>\\TaskServer</title>
<polygon fill="none" stroke="black" points="872,-1692 788,-1692 788,-1656 872,-1656 872,-1692"/>
<text text-anchor="middle" x="830" y="-1671.1" font-family="Courier,monospace" font-size="11.00">TaskServer</text>
</g>
<!-- \\TaskServer&#45;&gt;\\TaskModel -->
<g id="edge5" class="edge"><title>\\TaskServer&#45;&gt;\\TaskModel</title>
<path fill="none" stroke="black" d="M787.712,-1674C717.645,-1674 577.87,-1674 503.756,-1674"/>
<polygon fill="none" stroke="black" points="503.748,-1670.5 493.748,-1674 503.748,-1677.5 503.748,-1670.5"/>
</g>
<!-- \\TaskProfiler -->
<g id="node4" class="node"><title>\\TaskProfiler</title>
<polygon fill="none" stroke="black" points="879,-1746 781,-1746 781,-1710 879,-1710 879,-1746"/>
<text text-anchor="middle" x="830" y="-1725.1" font-family="Courier,monospace" font-size="11.00">TaskProfiler</text>
</g>
<!-- \\TaskClient -->
<g id="node5" class="node"><title>\\TaskClient</title>
<polygon fill="none" stroke="black" points="872,-1800 788,-1800 788,-1764 872,-1764 872,-1800"/>
<text text-anchor="middle" x="830" y="-1779.1" font-family="Courier,monospace" font-size="11.00">TaskClient</text>
</g>
<!-- \\TaskClient&#45;&gt;\\TaskModel -->
<g id="edge7" class="edge"><title>\\TaskClient&#45;&gt;\\TaskModel</title>
<path fill="none" stroke="black" d="M787.849,-1771.71C768.365,-1766.83 744.951,-1760.82 724,-1755 646.359,-1733.43 556.892,-1705.97 503.201,-1689.2"/>
<polygon fill="none" stroke="black" points="504.192,-1685.84 493.603,-1686.2 502.102,-1692.52 504.192,-1685.84"/>
</g>
<!-- \\TaskServerTask -->
<g id="node6" class="node"><title>\\TaskServerTask</title>
<polygon fill="none" stroke="black" points="885,-1584 775,-1584 775,-1548 885,-1548 885,-1584"/>
<text text-anchor="middle" x="830" y="-1563.1" font-family="Courier,monospace" font-size="11.00">TaskServerTask</text>
</g>
<!-- \\AdvancedTask -->
<g id="node32" class="node"><title>\\AdvancedTask</title>
<ellipse fill="none" stroke="black" cx="455" cy="-542" rx="82.939" ry="18.3848"/>
<text text-anchor="middle" x="455" y="-538.4" font-family="Times Roman,serif" font-size="14.00" fill="gray">\AdvancedTask</text>
</g>
<!-- \\TaskServerTask&#45;&gt;\\AdvancedTask -->
<g id="edge9" class="edge"><title>\\TaskServerTask&#45;&gt;\\AdvancedTask</title>
<path fill="none" stroke="black" d="M774.305,-1564.51C755.608,-1561.08 736.381,-1553.77 724,-1539 584.447,-1372.49 802.716,-720.477 652,-564 620.902,-531.713 570.447,-526.587 528.385,-529.341"/>
<polygon fill="none" stroke="black" points="527.85,-525.873 518.167,-530.172 528.418,-532.85 527.85,-525.873"/>
</g>
<!-- \\TaskShell -->
<g id="node7" class="node"><title>\\TaskShell</title>
<polygon fill="none" stroke="black" points="868,-1530 792,-1530 792,-1494 868,-1494 868,-1530"/>
<text text-anchor="middle" x="830" y="-1509.1" font-family="Courier,monospace" font-size="11.00">TaskShell</text>
</g>
<!-- \\AdvancedShell -->
<g id="node34" class="node"><title>\\AdvancedShell</title>
<ellipse fill="none" stroke="black" cx="455" cy="-488" rx="85.7684" ry="18.3848"/>
<text text-anchor="middle" x="455" y="-484.4" font-family="Times Roman,serif" font-size="14.00" fill="gray">\AdvancedShell</text>
</g>
<!-- \\TaskShell&#45;&gt;\\AdvancedShell -->
<g id="edge11" class="edge"><title>\\TaskShell&#45;&gt;\\AdvancedShell</title>
<path fill="none" stroke="black" d="M791.342,-1512.69C768.204,-1510.89 740.227,-1504.35 724,-1485 585.128,-1319.37 800.02,-672.513 652,-515 622.906,-484.04 576.256,-476.608 535.654,-477.237"/>
<polygon fill="none" stroke="black" points="535.359,-473.744 525.476,-477.561 535.582,-480.74 535.359,-473.744"/>
</g>
<!-- \\TaskHelper -->
<g id="node8" class="node"><title>\\TaskHelper</title>
<polygon fill="none" stroke="black" points="872,-1476 788,-1476 788,-1440 872,-1440 872,-1476"/>
<text text-anchor="middle" x="830" y="-1455.1" font-family="Courier,monospace" font-size="11.00">TaskHelper</text>
</g>
<!-- \\AppHelper -->
<g id="node36" class="node"><title>\\AppHelper</title>
<ellipse fill="none" stroke="black" cx="455" cy="-434" rx="65.0538" ry="18.3848"/>
<text text-anchor="middle" x="455" y="-430.4" font-family="Times Roman,serif" font-size="14.00" fill="gray">\AppHelper</text>
</g>
<!-- \\TaskHelper&#45;&gt;\\AppHelper -->
<g id="edge13" class="edge"><title>\\TaskHelper&#45;&gt;\\AppHelper</title>
<path fill="none" stroke="black" d="M787.917,-1458.39C765.498,-1456.22 739.434,-1449.41 724,-1431 585.128,-1265.37 800.02,-618.513 652,-461 619.281,-426.183 564.358,-421.121 520.805,-423.817"/>
<polygon fill="none" stroke="black" points="520.268,-420.348 510.566,-424.604 520.805,-427.327 520.268,-420.348"/>
</g>
<!-- \\TaskRunner -->
<g id="node9" class="node"><title>\\TaskRunner</title>
<polygon fill="none" stroke="black" points="872,-1368 788,-1368 788,-1332 872,-1332 872,-1368"/>
<text text-anchor="middle" x="830" y="-1347.1" font-family="Courier,monospace" font-size="11.00">TaskRunner</text>
</g>
<!-- \\Object -->
<g id="node38" class="node"><title>\\Object</title>
<ellipse fill="none" stroke="black" cx="455" cy="-380" rx="45.9619" ry="18.3848"/>
<text text-anchor="middle" x="455" y="-376.4" font-family="Times Roman,serif" font-size="14.00" fill="gray">\Object</text>
</g>
<!-- \\TaskRunner&#45;&gt;\\Object -->
<g id="edge15" class="edge"><title>\\TaskRunner&#45;&gt;\\Object</title>
<path fill="none" stroke="black" d="M787.948,-1350.37C765.538,-1348.18 739.474,-1341.38 724,-1323 592.475,-1166.82 792.15,-555.489 652,-407 615.619,-368.454 552.013,-366.433 506.927,-370.989"/>
<polygon fill="none" stroke="black" points="506.284,-367.54 496.75,-372.16 507.084,-374.494 506.284,-367.54"/>
</g>
<!-- \\TaskType -->
<g id="node10" class="node"><title>\\TaskType</title>
<polygon fill="none" stroke="black" points="872,-1422 788,-1422 788,-1386 872,-1386 872,-1422"/>
<text text-anchor="start" x="796" y="-1409.43" font-family="Courier,monospace" font-size="11.00">«abstract»</text>
<text text-anchor="start" x="802.5" y="-1396.23" font-family="Courier,monospace" font-size="11.00">TaskType</text>
</g>
<!-- \\TaskProcess -->
<g id="node11" class="node"><title>\\TaskProcess</title>
<polygon fill="none" stroke="black" points="875,-1314 785,-1314 785,-1278 875,-1278 875,-1314"/>
<text text-anchor="middle" x="830" y="-1293.1" font-family="Courier,monospace" font-size="11.00">TaskProcess</text>
</g>
<!-- \\Symfony\\Component\\Process\\Process -->
<g id="node40" class="node"><title>\\Symfony\\Component\\Process\\Process</title>
<ellipse fill="none" stroke="black" cx="455" cy="-326" rx="196.075" ry="18.3848"/>
<text text-anchor="middle" x="455" y="-322.4" font-family="Times Roman,serif" font-size="14.00" fill="gray">\Symfony\Component\Process\Process</text>
</g>
<!-- \\TaskProcess&#45;&gt;\\Symfony\\Component\\Process\\Process -->
<g id="edge17" class="edge"><title>\\TaskProcess&#45;&gt;\\Symfony\\Component\\Process\\Process</title>
<path fill="none" stroke="black" d="M784.466,-1295.99C762.888,-1293.45 738.679,-1286.43 724,-1269 592.475,-1112.82 792.15,-501.489 652,-353 647.413,-348.14 642.393,-343.86 637.032,-340.102"/>
<polygon fill="none" stroke="black" points="638.664,-336.993 628.339,-334.615 634.927,-342.912 638.664,-336.993"/>
</g>
<!-- \\DependentTaskFixture -->
<g id="node12" class="node"><title>\\DependentTaskFixture</title>
<polygon fill="none" stroke="black" points="906,-1260 754,-1260 754,-1224 906,-1224 906,-1260"/>
<text text-anchor="middle" x="830" y="-1239.1" font-family="Courier,monospace" font-size="11.00">DependentTaskFixture</text>
</g>
<!-- \\CakeTestFixture -->
<g id="node42" class="node"><title>\\CakeTestFixture</title>
<ellipse fill="none" stroke="black" cx="93" cy="-950" rx="92.1303" ry="18.3848"/>
<text text-anchor="middle" x="93" y="-946.4" font-family="Times Roman,serif" font-size="14.00" fill="gray">\CakeTestFixture</text>
</g>
<!-- \\DependentTaskFixture&#45;&gt;\\CakeTestFixture -->
<g id="edge19" class="edge"><title>\\DependentTaskFixture&#45;&gt;\\CakeTestFixture</title>
<path fill="none" stroke="black" d="M753.774,-1234.91C742.368,-1230.63 731.829,-1224.3 724,-1215 592.475,-1058.82 801.93,-437.607 652,-299 619.854,-269.282 292.55,-272.115 258,-299 156.156,-378.251 107.071,-807.188 95.6516,-921.82"/>
<polygon fill="none" stroke="black" points="92.1548,-921.616 94.6636,-931.909 99.1215,-922.298 92.1548,-921.616"/>
</g>
<!-- \\TaskProfilerFixture -->
<g id="node13" class="node"><title>\\TaskProfilerFixture</title>
<polygon fill="none" stroke="black" points="902,-1638 758,-1638 758,-1602 902,-1602 902,-1638"/>
<text text-anchor="middle" x="830" y="-1617.1" font-family="Courier,monospace" font-size="11.00">TaskProfilerFixture</text>
</g>
<!-- \\TaskFixture -->
<g id="node14" class="node"><title>\\TaskFixture</title>
<polygon fill="none" stroke="black" points="500,-1638 410,-1638 410,-1602 500,-1602 500,-1638"/>
<text text-anchor="middle" x="455" y="-1617.1" font-family="Courier,monospace" font-size="11.00">TaskFixture</text>
</g>
<!-- \\TaskProfilerFixture&#45;&gt;\\TaskFixture -->
<g id="edge21" class="edge"><title>\\TaskProfilerFixture&#45;&gt;\\TaskFixture</title>
<path fill="none" stroke="black" d="M757.252,-1620C685.176,-1620 576.342,-1620 510.824,-1620"/>
<polygon fill="none" stroke="black" points="510.693,-1616.5 500.693,-1620 510.693,-1623.5 510.693,-1616.5"/>
</g>
<!-- \\TaskFixture&#45;&gt;\\CakeTestFixture -->
<g id="edge23" class="edge"><title>\\TaskFixture&#45;&gt;\\CakeTestFixture</title>
<path fill="none" stroke="black" d="M409.359,-1628.39C365.269,-1633.71 299.269,-1633.93 258,-1598 161.199,-1513.72 108.522,-1091.6 95.9639,-978.121"/>
<polygon fill="none" stroke="black" points="99.4373,-977.687 94.8737,-968.125 92.4786,-978.446 99.4373,-977.687"/>
</g>
<!-- \\TaskClientTest -->
<g id="node15" class="node"><title>\\TaskClientTest</title>
<polygon fill="none" stroke="black" points="885,-828 775,-828 775,-792 885,-792 885,-828"/>
<text text-anchor="middle" x="830" y="-807.1" font-family="Courier,monospace" font-size="11.00">TaskClientTest</text>
</g>
<!-- \\CakeTestCase -->
<g id="node46" class="node"><title>\\CakeTestCase</title>
<ellipse fill="none" stroke="black" cx="455" cy="-234" rx="82.0244" ry="18.3848"/>
<text text-anchor="middle" x="455" y="-230.4" font-family="Times Roman,serif" font-size="14.00" fill="gray">\CakeTestCase</text>
</g>
<!-- \\TaskClientTest&#45;&gt;\\CakeTestCase -->
<g id="edge25" class="edge"><title>\\TaskClientTest&#45;&gt;\\CakeTestCase</title>
<path fill="none" stroke="black" d="M774.269,-807.96C755.796,-804.44 736.726,-797.223 724,-783 569.31,-610.104 814.177,-431.893 652,-266 623.256,-236.597 578.829,-227.578 539.435,-226.362"/>
<polygon fill="none" stroke="black" points="539.326,-222.86 529.276,-226.214 539.224,-229.86 539.326,-222.86"/>
</g>
<!-- \\TaskProfilerTest -->
<g id="node16" class="node"><title>\\TaskProfilerTest</title>
<polygon fill="none" stroke="black" points="892,-1206 768,-1206 768,-1170 892,-1170 892,-1206"/>
<text text-anchor="middle" x="830" y="-1185.1" font-family="Courier,monospace" font-size="11.00">TaskProfilerTest</text>
</g>
<!-- \\TaskProfilerTest&#45;&gt;\\CakeTestCase -->
<g id="edge27" class="edge"><title>\\TaskProfilerTest&#45;&gt;\\CakeTestCase</title>
<path fill="none" stroke="black" d="M767.441,-1185.01C751.031,-1181.12 734.899,-1173.92 724,-1161 595.332,-1008.5 787.28,-412.67 652,-266 623.521,-235.124 577.839,-226.314 537.632,-225.596"/>
<polygon fill="none" stroke="black" points="537.548,-222.096 527.542,-225.579 537.536,-229.096 537.548,-222.096"/>
</g>
<!-- \\TaskServerTest -->
<g id="node17" class="node"><title>\\TaskServerTest</title>
<polygon fill="none" stroke="black" points="885,-1152 775,-1152 775,-1116 885,-1116 885,-1152"/>
<text text-anchor="middle" x="830" y="-1131.1" font-family="Courier,monospace" font-size="11.00">TaskServerTest</text>
</g>
<!-- \\TaskServerTest&#45;&gt;\\CakeTestCase -->
<g id="edge29" class="edge"><title>\\TaskServerTest&#45;&gt;\\CakeTestCase</title>
<path fill="none" stroke="black" d="M774.399,-1132.43C755.712,-1128.99 736.467,-1121.7 724,-1107 602.676,-963.948 779.525,-403.553 652,-266 623.551,-235.314 578.103,-226.458 538.025,-225.665"/>
<polygon fill="none" stroke="black" points="537.978,-222.165 527.965,-225.629 537.952,-229.165 537.978,-222.165"/>
</g>
<!-- \\TaskShellTest -->
<g id="node18" class="node"><title>\\TaskShellTest</title>
<polygon fill="none" stroke="black" points="882,-1098 778,-1098 778,-1062 882,-1062 882,-1098"/>
<text text-anchor="middle" x="830" y="-1077.1" font-family="Courier,monospace" font-size="11.00">TaskShellTest</text>
</g>
<!-- \\TaskShellTest&#45;&gt;\\CakeTestCase -->
<g id="edge31" class="edge"><title>\\TaskShellTest&#45;&gt;\\CakeTestCase</title>
<path fill="none" stroke="black" d="M777.752,-1078.96C758.063,-1075.78 737.25,-1068.53 724,-1053 610.018,-919.395 771.773,-394.439 652,-266 623.462,-235.397 578.008,-226.546 537.95,-225.735"/>
<polygon fill="none" stroke="black" points="537.91,-222.235 527.896,-225.693 537.881,-229.235 537.91,-222.235"/>
</g>
<!-- \\TaskServerTaskTest -->
<g id="node19" class="node"><title>\\TaskServerTaskTest</title>
<polygon fill="none" stroke="black" points="899,-1044 761,-1044 761,-1008 899,-1008 899,-1044"/>
<text text-anchor="middle" x="830" y="-1023.1" font-family="Courier,monospace" font-size="11.00">TaskServerTaskTest</text>
</g>
<!-- \\TaskServerTaskTest&#45;&gt;\\CakeTestCase -->
<g id="edge33" class="edge"><title>\\TaskServerTaskTest&#45;&gt;\\CakeTestCase</title>
<path fill="none" stroke="black" d="M760.975,-1021.13C746.914,-1016.95 733.528,-1010.09 724,-999 617.356,-874.839 764.025,-385.328 652,-266 623.469,-235.609 578.247,-226.715 538.323,-225.825"/>
<polygon fill="none" stroke="black" points="538.322,-222.325 528.301,-225.763 538.279,-229.325 538.322,-222.325"/>
</g>
<!-- \\TaskServerTaskTestEventModel1 -->
<g id="node20" class="node"><title>\\TaskServerTaskTestEventModel1</title>
<polygon fill="none" stroke="black" points="936,-774 724,-774 724,-738 936,-738 936,-774"/>
<text text-anchor="middle" x="830" y="-753.1" font-family="Courier,monospace" font-size="11.00">TaskServerTaskTestEventModel1</text>
</g>
<!-- \\CakeEventListener -->
<g id="node52" class="node"><title>\\CakeEventListener</title>
<ellipse fill="none" stroke="black" cx="455" cy="-180" rx="106.98" ry="18.3848"/>
<text text-anchor="middle" x="455" y="-176.4" font-family="Times Roman,serif" font-size="14.00" fill="gray">\CakeEventListener</text>
</g>
<!-- \\TaskServerTaskTestEventModel1&#45;&gt;\\CakeEventListener -->
<g id="edge35" class="edge"><title>\\TaskServerTaskTestEventModel1&#45;&gt;\\CakeEventListener</title>
<path fill="none" stroke="black" stroke-dasharray="1,5" d="M733.645,-737.709C730.153,-735.147 726.91,-732.257 724,-729 567.957,-554.362 817.673,-372.531 652,-207 626.828,-181.85 589.99,-172.576 554.96,-170.47"/>
<polygon fill="none" stroke="black" points="554.787,-166.96 544.652,-170.047 554.501,-173.954 554.787,-166.96"/>
</g>
<!-- \\AllTaskTest -->
<g id="node21" class="node"><title>\\AllTaskTest</title>
<polygon fill="none" stroke="black" points="875,-720 785,-720 785,-684 875,-684 875,-720"/>
<text text-anchor="middle" x="830" y="-699.1" font-family="Courier,monospace" font-size="11.00">AllTaskTest</text>
</g>
<!-- \\PHPUnit_Framework_TestSuite -->
<g id="node54" class="node"><title>\\PHPUnit_Framework_TestSuite</title>
<ellipse fill="none" stroke="black" cx="455" cy="-126" rx="166.877" ry="18.3848"/>
<text text-anchor="middle" x="455" y="-122.4" font-family="Times Roman,serif" font-size="14.00" fill="gray">\PHPUnit_Framework_TestSuite</text>
</g>
<!-- \\AllTaskTest&#45;&gt;\\PHPUnit_Framework_TestSuite -->
<g id="edge37" class="edge"><title>\\AllTaskTest&#45;&gt;\\PHPUnit_Framework_TestSuite</title>
<path fill="none" stroke="black" d="M784.356,-701.557C763.02,-698.871 739.057,-691.852 724,-675 567.957,-500.362 817.673,-318.531 652,-153 644.505,-145.511 635.976,-139.43 626.768,-134.527"/>
<polygon fill="none" stroke="black" points="628.271,-131.366 617.743,-130.179 625.233,-137.673 628.271,-131.366"/>
</g>
<!-- \\TaskProcessTest -->
<g id="node22" class="node"><title>\\TaskProcessTest</title>
<polygon fill="none" stroke="black" points="889,-990 771,-990 771,-954 889,-954 889,-990"/>
<text text-anchor="middle" x="830" y="-969.1" font-family="Courier,monospace" font-size="11.00">TaskProcessTest</text>
</g>
<!-- \\TaskProcessTest&#45;&gt;\\CakeTestCase -->
<g id="edge39" class="edge"><title>\\TaskProcessTest&#45;&gt;\\CakeTestCase</title>
<path fill="none" stroke="black" d="M770.969,-969.58C753.449,-965.875 735.808,-958.64 724,-945 525.381,-715.557 860.561,-486.445 652,-266 623.352,-235.719 578.123,-226.832 538.225,-225.918"/>
<polygon fill="none" stroke="black" points="538.233,-222.418 528.209,-225.849 538.185,-229.418 538.233,-222.418"/>
</g>
<!-- \\TaskRunnerTest -->
<g id="node23" class="node"><title>\\TaskRunnerTest</title>
<polygon fill="none" stroke="black" points="885,-936 775,-936 775,-900 885,-900 885,-936"/>
<text text-anchor="middle" x="830" y="-915.1" font-family="Courier,monospace" font-size="11.00">TaskRunnerTest</text>
</g>
<!-- \\TaskRunnerTest&#45;&gt;\\CakeTestCase -->
<g id="edge41" class="edge"><title>\\TaskRunnerTest&#45;&gt;\\CakeTestCase</title>
<path fill="none" stroke="black" d="M774.357,-916.178C755.78,-912.694 736.619,-905.445 724,-891 540.039,-680.423 845.084,-468.245 652,-266 623.386,-236.028 578.515,-227.076 538.821,-226.045"/>
<polygon fill="none" stroke="black" points="538.619,-222.543 528.586,-225.947 538.552,-229.543 538.619,-222.543"/>
</g>
<!-- \\TaskTypeTest -->
<g id="node24" class="node"><title>\\TaskTypeTest</title>
<polygon fill="none" stroke="black" points="879,-882 781,-882 781,-846 879,-846 879,-882"/>
<text text-anchor="middle" x="830" y="-861.1" font-family="Courier,monospace" font-size="11.00">TaskTypeTest</text>
</g>
<!-- \\TaskTypeTest&#45;&gt;\\CakeTestCase -->
<g id="edge43" class="edge"><title>\\TaskTypeTest&#45;&gt;\\CakeTestCase</title>
<path fill="none" stroke="black" d="M780.751,-863.155C760.325,-860.167 738.142,-853.014 724,-837 554.683,-645.274 829.621,-450.059 652,-266 623.336,-236.297 578.689,-227.309 539.142,-226.189"/>
<polygon fill="none" stroke="black" points="538.985,-222.687 528.944,-226.067 538.901,-229.686 538.985,-222.687"/>
</g>
<!-- \\TaskControllerTest -->
<g id="node25" class="node"><title>\\TaskControllerTest</title>
<polygon fill="none" stroke="black" points="899,-666 761,-666 761,-630 899,-630 899,-666"/>
<text text-anchor="middle" x="830" y="-645.1" font-family="Courier,monospace" font-size="11.00">TaskControllerTest</text>
</g>
<!-- \\ControllerTestCase -->
<g id="node59" class="node"><title>\\ControllerTestCase</title>
<ellipse fill="none" stroke="black" cx="455" cy="-72" rx="106.773" ry="18.3848"/>
<text text-anchor="middle" x="455" y="-68.4" font-family="Times Roman,serif" font-size="14.00" fill="gray">\ControllerTestCase</text>
</g>
<!-- \\TaskControllerTest&#45;&gt;\\ControllerTestCase -->
<g id="edge45" class="edge"><title>\\TaskControllerTest&#45;&gt;\\ControllerTestCase</title>
<path fill="none" stroke="black" d="M760.742,-642.688C746.865,-638.514 733.616,-631.762 724,-621 567.957,-446.362 817.673,-264.531 652,-99 626.717,-73.739 589.664,-64.494 554.496,-62.4422"/>
<polygon fill="none" stroke="black" points="554.279,-58.9311 544.15,-62.0364 554.005,-65.9257 554.279,-58.9311"/>
</g>
<!-- \\TaskController -->
<g id="node26" class="node"><title>\\TaskController</title>
<polygon fill="none" stroke="black" points="885,-612 775,-612 775,-576 885,-576 885,-612"/>
<text text-anchor="middle" x="830" y="-591.1" font-family="Courier,monospace" font-size="11.00">TaskController</text>
</g>
<!-- \\AppController -->
<g id="node61" class="node"><title>\\AppController</title>
<ellipse fill="none" stroke="black" cx="455" cy="-18" rx="82.0244" ry="18.3848"/>
<text text-anchor="middle" x="455" y="-14.4" font-family="Times Roman,serif" font-size="14.00" fill="gray">\AppController</text>
</g>
<!-- \\TaskController&#45;&gt;\\AppController -->
<g id="edge47" class="edge"><title>\\TaskController&#45;&gt;\\AppController</title>
<path fill="none" stroke="black" d="M826.765,-575.855C810.918,-489.073 738.739,-117.577 652,-45 621.134,-19.1738 577.525,-11.2706 539.181,-10.3221"/>
<polygon fill="none" stroke="black" points="539.073,-6.82105 529.041,-10.2267 539.007,-13.8207 539.073,-6.82105"/>
</g>
</g>
</svg>
