<?xml version="1.0" encoding="UTF-8" standalone="no"?>
<!DOCTYPE svg PUBLIC "-//W3C//DTD SVG 1.1//EN"
 "http://www.w3.org/Graphics/SVG/1.1/DTD/svg11.dtd">
<!-- Generated by graphviz version 2.26.3 (20100126.1600)
 -->
<!-- Title: G Pages: 1 -->
<svg width="960pt" height="1900pt"
 viewBox="0.00 0.00 960.00 1900.00" xmlns="http://www.w3.org/2000/svg" xmlns:xlink="http://www.w3.org/1999/xlink">
<g id="graph1" class="graph" transform="scale(1 1) rotate(0) translate(4 1896)">
<title>G</title>
<polygon fill="white" stroke="white" points="-4,5 -4,-1896 957,-1896 957,5 -4,5"/>
<g id="graph2" class="cluster"><title>cluster_Global</title>
<polyline fill="none" stroke="gray" points="413,-568 932,-568 "/>
<path fill="none" stroke="gray" d="M932,-568C938,-568 944,-574 944,-580"/>
<polyline fill="none" stroke="gray" points="944,-580 944,-1872 "/>
<path fill="none" stroke="gray" d="M944,-1872C944,-1878 938,-1884 932,-1884"/>
<polyline fill="none" stroke="gray" points="932,-1884 413,-1884 "/>
<path fill="none" stroke="gray" d="M413,-1884C407,-1884 401,-1878 401,-1872"/>
<polyline fill="none" stroke="gray" points="401,-1872 401,-580 "/>
<path fill="none" stroke="gray" d="M401,-580C401,-574 407,-568 413,-568"/>
<text text-anchor="middle" x="672.5" y="-1870.1" font-family="Times Roman,serif" font-size="11.00" fill="gray">Global</text>
</g>
<!-- \\TaskModel -->
<g id="node2" class="node"><title>\\TaskModel</title>
<polygon fill="none" stroke="black" points="493,-1746 417,-1746 417,-1710 493,-1710 493,-1746"/>
<text text-anchor="middle" x="455" y="-1725.1" font-family="Courier,monospace" font-size="11.00">TaskModel</text>
</g>
<!-- \\AppModel -->
<g id="node29" class="node"><title>\\AppModel</title>
<ellipse fill="none" stroke="black" cx="93" cy="-1728" rx="62.2254" ry="18.3848"/>
<text text-anchor="middle" x="93" y="-1724.4" font-family="Times Roman,serif" font-size="14.00" fill="gray">\AppModel</text>
</g>
<!-- \\TaskModel&#45;&gt;\\AppModel -->
<g id="edge3" class="edge"><title>\\TaskModel&#45;&gt;\\AppModel</title>
<path fill="none" stroke="black" d="M416.26,-1728C356.596,-1728 241.219,-1728 165.674,-1728"/>
<polygon fill="none" stroke="black" points="165.288,-1724.5 155.288,-1728 165.288,-1731.5 165.288,-1724.5"/>
</g>
<!-- \\TaskServer -->
<g id="node3" class="node"><title>\\TaskServer</title>
<polygon fill="none" stroke="black" points="872,-1854 788,-1854 788,-1818 872,-1818 872,-1854"/>
<text text-anchor="middle" x="830" y="-1833.1" font-family="Courier,monospace" font-size="11.00">TaskServer</text>
</g>
<!-- \\TaskServer&#45;&gt;\\TaskModel -->
<g id="edge5" class="edge"><title>\\TaskServer&#45;&gt;\\TaskModel</title>
<path fill="none" stroke="black" d="M787.849,-1825.71C768.365,-1820.83 744.951,-1814.82 724,-1809 646.359,-1787.43 556.892,-1759.97 503.201,-1743.2"/>
<polygon fill="none" stroke="black" points="504.192,-1739.84 493.603,-1740.2 502.102,-1746.52 504.192,-1739.84"/>
</g>
<!-- \\TaskProfiler -->
<g id="node4" class="node"><title>\\TaskProfiler</title>
<polygon fill="none" stroke="black" points="879,-1800 781,-1800 781,-1764 879,-1764 879,-1800"/>
<text text-anchor="middle" x="830" y="-1779.1" font-family="Courier,monospace" font-size="11.00">TaskProfiler</text>
</g>
<!-- \\TaskClient -->
<g id="node5" class="node"><title>\\TaskClient</title>
<polygon fill="none" stroke="black" points="872,-1746 788,-1746 788,-1710 872,-1710 872,-1746"/>
<text text-anchor="middle" x="830" y="-1725.1" font-family="Courier,monospace" font-size="11.00">TaskClient</text>
</g>
<!-- \\TaskClient&#45;&gt;\\TaskModel -->
<g id="edge7" class="edge"><title>\\TaskClient&#45;&gt;\\TaskModel</title>
<path fill="none" stroke="black" d="M787.712,-1728C717.645,-1728 577.87,-1728 503.756,-1728"/>
<polygon fill="none" stroke="black" points="503.748,-1724.5 493.748,-1728 503.748,-1731.5 503.748,-1724.5"/>
</g>
<!-- \\TaskServerTask -->
<g id="node6" class="node"><title>\\TaskServerTask</title>
<polygon fill="none" stroke="black" points="885,-1638 775,-1638 775,-1602 885,-1602 885,-1638"/>
<text text-anchor="middle" x="830" y="-1617.1" font-family="Courier,monospace" font-size="11.00">TaskServerTask</text>
</g>
<!-- \\AdvancedTask -->
<g id="node33" class="node"><title>\\AdvancedTask</title>
<ellipse fill="none" stroke="black" cx="455" cy="-542" rx="82.939" ry="18.3848"/>
<text text-anchor="middle" x="455" y="-538.4" font-family="Times Roman,serif" font-size="14.00" fill="gray">\AdvancedTask</text>
</g>
<!-- \\TaskServerTask&#45;&gt;\\AdvancedTask -->
<g id="edge9" class="edge"><title>\\TaskServerTask&#45;&gt;\\AdvancedTask</title>
<path fill="none" stroke="black" d="M774.274,-1618.54C755.573,-1615.1 736.353,-1607.8 724,-1593 577.098,-1417.03 810.701,-729.404 652,-564 620.964,-531.653 570.508,-526.529 528.43,-529.298"/>
<polygon fill="none" stroke="black" points="527.89,-525.83 518.208,-530.133 528.46,-532.807 527.89,-525.83"/>
</g>
<!-- \\TaskShell -->
<g id="node7" class="node"><title>\\TaskShell</title>
<polygon fill="none" stroke="black" points="868,-1584 792,-1584 792,-1548 868,-1548 868,-1584"/>
<text text-anchor="middle" x="830" y="-1563.1" font-family="Courier,monospace" font-size="11.00">TaskShell</text>
</g>
<!-- \\AdvancedShell -->
<g id="node35" class="node"><title>\\AdvancedShell</title>
<ellipse fill="none" stroke="black" cx="455" cy="-488" rx="85.7684" ry="18.3848"/>
<text text-anchor="middle" x="455" y="-484.4" font-family="Times Roman,serif" font-size="14.00" fill="gray">\AdvancedShell</text>
</g>
<!-- \\TaskShell&#45;&gt;\\AdvancedShell -->
<g id="edge11" class="edge"><title>\\TaskShell&#45;&gt;\\AdvancedShell</title>
<path fill="none" stroke="black" d="M791.316,-1566.72C768.168,-1564.92 740.19,-1558.39 724,-1539 577.779,-1363.91 807.893,-681.538 652,-515 622.966,-483.983 576.318,-476.549 535.703,-477.191"/>
<polygon fill="none" stroke="black" points="535.403,-473.698 525.521,-477.519 535.628,-480.695 535.403,-473.698"/>
</g>
<!-- \\TaskHelper -->
<g id="node8" class="node"><title>\\TaskHelper</title>
<polygon fill="none" stroke="black" points="872,-1530 788,-1530 788,-1494 872,-1494 872,-1530"/>
<text text-anchor="middle" x="830" y="-1509.1" font-family="Courier,monospace" font-size="11.00">TaskHelper</text>
</g>
<!-- \\AppHelper -->
<g id="node37" class="node"><title>\\AppHelper</title>
<ellipse fill="none" stroke="black" cx="455" cy="-434" rx="65.0538" ry="18.3848"/>
<text text-anchor="middle" x="455" y="-430.4" font-family="Times Roman,serif" font-size="14.00" fill="gray">\AppHelper</text>
</g>
<!-- \\TaskHelper&#45;&gt;\\AppHelper -->
<g id="edge13" class="edge"><title>\\TaskHelper&#45;&gt;\\AppHelper</title>
<path fill="none" stroke="black" d="M787.89,-1512.42C765.461,-1510.25 739.398,-1503.44 724,-1485 577.779,-1309.91 807.893,-627.538 652,-461 619.349,-426.119 564.421,-421.062 520.847,-423.777"/>
<polygon fill="none" stroke="black" points="520.305,-420.308 510.604,-424.568 520.844,-427.287 520.305,-420.308"/>
</g>
<!-- \\TaskRunner -->
<g id="node9" class="node"><title>\\TaskRunner</title>
<polygon fill="none" stroke="black" points="872,-1422 788,-1422 788,-1386 872,-1386 872,-1422"/>
<text text-anchor="middle" x="830" y="-1401.1" font-family="Courier,monospace" font-size="11.00">TaskRunner</text>
</g>
<!-- \\Object -->
<g id="node39" class="node"><title>\\Object</title>
<ellipse fill="none" stroke="black" cx="455" cy="-380" rx="45.9619" ry="18.3848"/>
<text text-anchor="middle" x="455" y="-376.4" font-family="Times Roman,serif" font-size="14.00" fill="gray">\Object</text>
</g>
<!-- \\TaskRunner&#45;&gt;\\Object -->
<g id="edge15" class="edge"><title>\\TaskRunner&#45;&gt;\\Object</title>
<path fill="none" stroke="black" d="M787.917,-1404.39C765.498,-1402.22 739.434,-1395.41 724,-1377 585.128,-1211.37 800.02,-564.513 652,-407 615.703,-368.375 552.08,-366.369 506.967,-370.951"/>
<polygon fill="none" stroke="black" points="506.316,-367.503 496.784,-372.128 507.119,-374.457 506.316,-367.503"/>
</g>
<!-- \\TaskType -->
<g id="node10" class="node"><title>\\TaskType</title>
<polygon fill="none" stroke="black" points="872,-1476 788,-1476 788,-1440 872,-1440 872,-1476"/>
<text text-anchor="start" x="796" y="-1463.43" font-family="Courier,monospace" font-size="11.00">«abstract»</text>
<text text-anchor="start" x="802.5" y="-1450.23" font-family="Courier,monospace" font-size="11.00">TaskType</text>
</g>
<!-- \\TaskProcess -->
<g id="node11" class="node"><title>\\TaskProcess</title>
<polygon fill="none" stroke="black" points="875,-1368 785,-1368 785,-1332 875,-1332 875,-1368"/>
<text text-anchor="middle" x="830" y="-1347.1" font-family="Courier,monospace" font-size="11.00">TaskProcess</text>
</g>
<!-- \\Symfony\\Component\\Process\\Process -->
<g id="node41" class="node"><title>\\Symfony\\Component\\Process\\Process</title>
<ellipse fill="none" stroke="black" cx="455" cy="-326" rx="196.075" ry="18.3848"/>
<text text-anchor="middle" x="455" y="-322.4" font-family="Times Roman,serif" font-size="14.00" fill="gray">\Symfony\Component\Process\Process</text>
</g>
<!-- \\TaskProcess&#45;&gt;\\Symfony\\Component\\Process\\Process -->
<g id="edge17" class="edge"><title>\\TaskProcess&#45;&gt;\\Symfony\\Component\\Process\\Process</title>
<path fill="none" stroke="black" d="M784.434,-1350.02C762.847,-1347.49 738.641,-1340.46 724,-1323 585.128,-1157.37 800.02,-510.513 652,-353 647.423,-348.13 642.412,-343.842 637.059,-340.076"/>
<polygon fill="none" stroke="black" points="638.698,-336.972 628.377,-334.579 634.954,-342.886 638.698,-336.972"/>
</g>
<!-- \\DependentTaskFixture -->
<g id="node12" class="node"><title>\\DependentTaskFixture</title>
<polygon fill="none" stroke="black" points="906,-1314 754,-1314 754,-1278 906,-1278 906,-1314"/>
<text text-anchor="middle" x="830" y="-1293.1" font-family="Courier,monospace" font-size="11.00">DependentTaskFixture</text>
</g>
<!-- \\CakeTestFixture -->
<g id="node43" class="node"><title>\\CakeTestFixture</title>
<ellipse fill="none" stroke="black" cx="93" cy="-977" rx="92.1303" ry="18.3848"/>
<text text-anchor="middle" x="93" y="-973.4" font-family="Times Roman,serif" font-size="14.00" fill="gray">\CakeTestFixture</text>
</g>
<!-- \\DependentTaskFixture&#45;&gt;\\CakeTestFixture -->
<g id="edge19" class="edge"><title>\\DependentTaskFixture&#45;&gt;\\CakeTestFixture</title>
<path fill="none" stroke="black" d="M753.74,-1288.94C742.338,-1284.66 731.809,-1278.31 724,-1269 585.128,-1103.37 810.396,-446.075 652,-299 619.919,-269.212 292.421,-271.951 258,-299 152.238,-382.111 105.805,-831.208 95.3538,-948.802"/>
<polygon fill="none" stroke="black" points="91.8618,-948.559 94.4795,-958.825 98.8353,-949.167 91.8618,-948.559"/>
</g>
<!-- \\TaskProfilerFixture -->
<g id="node13" class="node"><title>\\TaskProfilerFixture</title>
<polygon fill="none" stroke="black" points="902,-1692 758,-1692 758,-1656 902,-1656 902,-1692"/>
<text text-anchor="middle" x="830" y="-1671.1" font-family="Courier,monospace" font-size="11.00">TaskProfilerFixture</text>
</g>
<!-- \\TaskFixture -->
<g id="node14" class="node"><title>\\TaskFixture</title>
<polygon fill="none" stroke="black" points="500,-1692 410,-1692 410,-1656 500,-1656 500,-1692"/>
<text text-anchor="middle" x="455" y="-1671.1" font-family="Courier,monospace" font-size="11.00">TaskFixture</text>
</g>
<!-- \\TaskProfilerFixture&#45;&gt;\\TaskFixture -->
<g id="edge21" class="edge"><title>\\TaskProfilerFixture&#45;&gt;\\TaskFixture</title>
<path fill="none" stroke="black" d="M757.252,-1674C685.176,-1674 576.342,-1674 510.824,-1674"/>
<polygon fill="none" stroke="black" points="510.693,-1670.5 500.693,-1674 510.693,-1677.5 510.693,-1670.5"/>
</g>
<!-- \\TaskFixture&#45;&gt;\\CakeTestFixture -->
<g id="edge23" class="edge"><title>\\TaskFixture&#45;&gt;\\CakeTestFixture</title>
<path fill="none" stroke="black" d="M409.284,-1682.48C365.138,-1687.86 299.097,-1688.13 258,-1652 157.608,-1563.75 107.383,-1122.49 95.6989,-1005.51"/>
<polygon fill="none" stroke="black" points="99.1493,-1004.83 94.688,-995.22 92.1829,-1005.51 99.1493,-1004.83"/>
</g>
<!-- \\TaskClientTest -->
<g id="node15" class="node"><title>\\TaskClientTest</title>
<polygon fill="none" stroke="black" points="885,-936 775,-936 775,-900 885,-900 885,-936"/>
<text text-anchor="middle" x="830" y="-915.1" font-family="Courier,monospace" font-size="11.00">TaskClientTest</text>
</g>
<!-- \\CakeTestCase -->
<g id="node47" class="node"><title>\\CakeTestCase</title>
<ellipse fill="none" stroke="black" cx="455" cy="-234" rx="82.0244" ry="18.3848"/>
<text text-anchor="middle" x="455" y="-230.4" font-family="Times Roman,serif" font-size="14.00" fill="gray">\CakeTestCase</text>
</g>
<!-- \\TaskClientTest&#45;&gt;\\CakeTestCase -->
<g id="edge25" class="edge"><title>\\TaskClientTest&#45;&gt;\\CakeTestCase</title>
<path fill="none" stroke="black" d="M774.357,-916.178C755.78,-912.694 736.619,-905.445 724,-891 540.039,-680.423 845.084,-468.245 652,-266 623.386,-236.028 578.515,-227.076 538.821,-226.045"/>
<polygon fill="none" stroke="black" points="538.619,-222.543 528.586,-225.947 538.552,-229.543 538.619,-222.543"/>
</g>
<!-- \\TaskProfilerTest -->
<g id="node16" class="node"><title>\\TaskProfilerTest</title>
<polygon fill="none" stroke="black" points="892,-882 768,-882 768,-846 892,-846 892,-882"/>
<text text-anchor="middle" x="830" y="-861.1" font-family="Courier,monospace" font-size="11.00">TaskProfilerTest</text>
</g>
<!-- \\TaskProfilerTest&#45;&gt;\\CakeTestCase -->
<g id="edge27" class="edge"><title>\\TaskProfilerTest&#45;&gt;\\CakeTestCase</title>
<path fill="none" stroke="black" d="M767.257,-860.562C751.044,-856.631 735.062,-849.526 724,-837 554.683,-645.274 829.621,-450.059 652,-266 623.336,-236.297 578.689,-227.309 539.142,-226.189"/>
<polygon fill="none" stroke="black" points="538.985,-222.687 528.944,-226.067 538.901,-229.686 538.985,-222.687"/>
</g>
<!-- \\TaskServerTest -->
<g id="node17" class="node"><title>\\TaskServerTest</title>
<polygon fill="none" stroke="black" points="885,-828 775,-828 775,-792 885,-792 885,-828"/>
<text text-anchor="middle" x="830" y="-807.1" font-family="Courier,monospace" font-size="11.00">TaskServerTest</text>
</g>
<!-- \\TaskServerTest&#45;&gt;\\CakeTestCase -->
<g id="edge29" class="edge"><title>\\TaskServerTest&#45;&gt;\\CakeTestCase</title>
<path fill="none" stroke="black" d="M774.269,-807.96C755.796,-804.44 736.726,-797.223 724,-783 569.31,-610.104 814.177,-431.893 652,-266 623.256,-236.597 578.829,-227.578 539.435,-226.362"/>
<polygon fill="none" stroke="black" points="539.326,-222.86 529.276,-226.214 539.224,-229.86 539.326,-222.86"/>
</g>
<!-- \\TaskShellTest -->
<g id="node18" class="node"><title>\\TaskShellTest</title>
<polygon fill="none" stroke="black" points="882,-1260 778,-1260 778,-1224 882,-1224 882,-1260"/>
<text text-anchor="middle" x="830" y="-1239.1" font-family="Courier,monospace" font-size="11.00">TaskShellTest</text>
</g>
<!-- \\TaskShellTest&#45;&gt;\\CakeTestCase -->
<g id="edge31" class="edge"><title>\\TaskShellTest&#45;&gt;\\CakeTestCase</title>
<path fill="none" stroke="black" d="M777.905,-1241.11C758.117,-1237.97 737.19,-1230.71 724,-1215 587.985,-1053.04 795.037,-421.79 652,-266 623.592,-235.059 577.913,-226.246 537.69,-225.542"/>
<polygon fill="none" stroke="black" points="537.6,-222.042 527.596,-225.529 537.591,-229.042 537.6,-222.042"/>
</g>
<!-- \\TaskServerTaskTest -->
<g id="node19" class="node"><title>\\TaskServerTaskTest</title>
<polygon fill="none" stroke="black" points="899,-1206 761,-1206 761,-1170 899,-1170 899,-1206"/>
<text text-anchor="middle" x="830" y="-1185.1" font-family="Courier,monospace" font-size="11.00">TaskServerTaskTest</text>
</g>
<!-- \\TaskServerTaskTest&#45;&gt;\\CakeTestCase -->
<g id="edge33" class="edge"><title>\\TaskServerTaskTest&#45;&gt;\\CakeTestCase</title>
<path fill="none" stroke="black" d="M760.831,-1183.25C746.776,-1179.07 733.429,-1172.18 724,-1161 595.332,-1008.5 787.28,-412.67 652,-266 623.521,-235.124 577.839,-226.314 537.632,-225.596"/>
<polygon fill="none" stroke="black" points="537.548,-222.096 527.542,-225.579 537.536,-229.096 537.548,-222.096"/>
</g>
<!-- \\TaskServerTaskTestEventModel1 -->
<g id="node20" class="node"><title>\\TaskServerTaskTestEventModel1</title>
<polygon fill="none" stroke="black" points="936,-774 724,-774 724,-738 936,-738 936,-774"/>
<text text-anchor="middle" x="830" y="-753.1" font-family="Courier,monospace" font-size="11.00">TaskServerTaskTestEventModel1</text>
</g>
<!-- \\CakeEventListener -->
<g id="node53" class="node"><title>\\CakeEventListener</title>
<ellipse fill="none" stroke="black" cx="455" cy="-180" rx="106.98" ry="18.3848"/>
<text text-anchor="middle" x="455" y="-176.4" font-family="Times Roman,serif" font-size="14.00" fill="gray">\CakeEventListener</text>
</g>
<!-- \\TaskServerTaskTestEventModel1&#45;&gt;\\CakeEventListener -->
<g id="edge35" class="edge"><title>\\TaskServerTaskTestEventModel1&#45;&gt;\\CakeEventListener</title>
<path fill="none" stroke="black" stroke-dasharray="1,5" d="M733.645,-737.709C730.153,-735.147 726.91,-732.257 724,-729 567.957,-554.362 817.673,-372.531 652,-207 626.828,-181.85 589.99,-172.576 554.96,-170.47"/>
<polygon fill="none" stroke="black" points="554.787,-166.96 544.652,-170.047 554.501,-173.954 554.787,-166.96"/>
</g>
<!-- \\AllTaskTest -->
<g id="node21" class="node"><title>\\AllTaskTest</title>
<polygon fill="none" stroke="black" points="875,-720 785,-720 785,-684 875,-684 875,-720"/>
<text text-anchor="middle" x="830" y="-699.1" font-family="Courier,monospace" font-size="11.00">AllTaskTest</text>
</g>
<!-- \\PHPUnit_Framework_TestSuite -->
<g id="node55" class="node"><title>\\PHPUnit_Framework_TestSuite</title>
<ellipse fill="none" stroke="black" cx="455" cy="-126" rx="166.877" ry="18.3848"/>
<text text-anchor="middle" x="455" y="-122.4" font-family="Times Roman,serif" font-size="14.00" fill="gray">\PHPUnit_Framework_TestSuite</text>
</g>
<!-- \\AllTaskTest&#45;&gt;\\PHPUnit_Framework_TestSuite -->
<g id="edge37" class="edge"><title>\\AllTaskTest&#45;&gt;\\PHPUnit_Framework_TestSuite</title>
<path fill="none" stroke="black" d="M784.356,-701.557C763.02,-698.871 739.057,-691.852 724,-675 567.957,-500.362 817.673,-318.531 652,-153 644.505,-145.511 635.976,-139.43 626.768,-134.527"/>
<polygon fill="none" stroke="black" points="628.271,-131.366 617.743,-130.179 625.233,-137.673 628.271,-131.366"/>
</g>
<!-- \\TaskHelperTest -->
<g id="node22" class="node"><title>\\TaskHelperTest</title>
<polygon fill="none" stroke="black" points="885,-1152 775,-1152 775,-1116 885,-1116 885,-1152"/>
<text text-anchor="middle" x="830" y="-1131.1" font-family="Courier,monospace" font-size="11.00">TaskHelperTest</text>
</g>
<!-- \\TaskHelperTest&#45;&gt;\\CakeTestCase -->
<g id="edge39" class="edge"><title>\\TaskHelperTest&#45;&gt;\\CakeTestCase</title>
<path fill="none" stroke="black" d="M774.399,-1132.43C755.712,-1128.99 736.467,-1121.7 724,-1107 602.676,-963.948 779.525,-403.553 652,-266 623.551,-235.314 578.103,-226.458 538.025,-225.665"/>
<polygon fill="none" stroke="black" points="537.978,-222.165 527.965,-225.629 537.952,-229.165 537.978,-222.165"/>
</g>
<!-- \\TaskProcessTest -->
<g id="node23" class="node"><title>\\TaskProcessTest</title>
<polygon fill="none" stroke="black" points="889,-1098 771,-1098 771,-1062 889,-1062 889,-1098"/>
<text text-anchor="middle" x="830" y="-1077.1" font-family="Courier,monospace" font-size="11.00">TaskProcessTest</text>
</g>
<!-- \\TaskProcessTest&#45;&gt;\\CakeTestCase -->
<g id="edge41" class="edge"><title>\\TaskProcessTest&#45;&gt;\\CakeTestCase</title>
<path fill="none" stroke="black" d="M770.852,-1077.68C753.325,-1073.98 735.709,-1066.72 724,-1053 610.018,-919.395 771.773,-394.439 652,-266 623.462,-235.397 578.008,-226.546 537.95,-225.735"/>
<polygon fill="none" stroke="black" points="537.91,-222.235 527.896,-225.693 537.881,-229.235 537.91,-222.235"/>
</g>
<!-- \\TaskRunnerTest -->
<g id="node24" class="node"><title>\\TaskRunnerTest</title>
<polygon fill="none" stroke="black" points="885,-1044 775,-1044 775,-1008 885,-1008 885,-1044"/>
<text text-anchor="middle" x="830" y="-1023.1" font-family="Courier,monospace" font-size="11.00">TaskRunnerTest</text>
</g>
<!-- \\TaskRunnerTest&#45;&gt;\\CakeTestCase -->
<g id="edge43" class="edge"><title>\\TaskRunnerTest&#45;&gt;\\CakeTestCase</title>
<path fill="none" stroke="black" d="M774.499,-1024.34C755.822,-1020.89 736.559,-1013.62 724,-999 617.356,-874.839 764.025,-385.328 652,-266 623.469,-235.609 578.247,-226.715 538.323,-225.825"/>
<polygon fill="none" stroke="black" points="538.322,-222.325 528.301,-225.763 538.279,-229.325 538.322,-222.325"/>
</g>
<!-- \\TaskTypeTest -->
<g id="node25" class="node"><title>\\TaskTypeTest</title>
<polygon fill="none" stroke="black" points="879,-990 781,-990 781,-954 879,-954 879,-990"/>
<text text-anchor="middle" x="830" y="-969.1" font-family="Courier,monospace" font-size="11.00">TaskTypeTest</text>
</g>
<!-- \\TaskTypeTest&#45;&gt;\\CakeTestCase -->
<g id="edge45" class="edge"><title>\\TaskTypeTest&#45;&gt;\\CakeTestCase</title>
<path fill="none" stroke="black" d="M780.873,-971.325C760.344,-968.387 738.045,-961.225 724,-945 525.381,-715.557 860.561,-486.445 652,-266 623.352,-235.719 578.123,-226.832 538.225,-225.918"/>
<polygon fill="none" stroke="black" points="538.233,-222.418 528.209,-225.849 538.185,-229.418 538.233,-222.418"/>
</g>
<!-- \\TaskControllerTest -->
<g id="node26" class="node"><title>\\TaskControllerTest</title>
<polygon fill="none" stroke="black" points="899,-666 761,-666 761,-630 899,-630 899,-666"/>
<text text-anchor="middle" x="830" y="-645.1" font-family="Courier,monospace" font-size="11.00">TaskControllerTest</text>
</g>
<!-- \\ControllerTestCase -->
<g id="node61" class="node"><title>\\ControllerTestCase</title>
<ellipse fill="none" stroke="black" cx="455" cy="-72" rx="106.773" ry="18.3848"/>
<text text-anchor="middle" x="455" y="-68.4" font-family="Times Roman,serif" font-size="14.00" fill="gray">\ControllerTestCase</text>
</g>
<!-- \\TaskControllerTest&#45;&gt;\\ControllerTestCase -->
<g id="edge47" class="edge"><title>\\TaskControllerTest&#45;&gt;\\ControllerTestCase</title>
<path fill="none" stroke="black" d="M760.742,-642.688C746.865,-638.514 733.616,-631.762 724,-621 567.957,-446.362 817.673,-264.531 652,-99 626.717,-73.739 589.664,-64.494 554.496,-62.4422"/>
<polygon fill="none" stroke="black" points="554.279,-58.9311 544.15,-62.0364 554.005,-65.9257 554.279,-58.9311"/>
</g>
<!-- \\TaskController -->
<g id="node27" class="node"><title>\\TaskController</title>
<polygon fill="none" stroke="black" points="885,-612 775,-612 775,-576 885,-576 885,-612"/>
<text text-anchor="middle" x="830" y="-591.1" font-family="Courier,monospace" font-size="11.00">TaskController</text>
</g>
<!-- \\AppController -->
<g id="node63" class="node"><title>\\AppController</title>
<ellipse fill="none" stroke="black" cx="455" cy="-18" rx="82.0244" ry="18.3848"/>
<text text-anchor="middle" x="455" y="-14.4" font-family="Times Roman,serif" font-size="14.00" fill="gray">\AppController</text>
</g>
<!-- \\TaskController&#45;&gt;\\AppController -->
<g id="edge49" class="edge"><title>\\TaskController&#45;&gt;\\AppController</title>
<path fill="none" stroke="black" d="M826.765,-575.855C810.918,-489.073 738.739,-117.577 652,-45 621.134,-19.1738 577.525,-11.2706 539.181,-10.3221"/>
<polygon fill="none" stroke="black" points="539.073,-6.82105 529.041,-10.2267 539.007,-13.8207 539.073,-6.82105"/>
</g>
</g>
</svg>
