<?xml version="1.0" encoding="UTF-8" standalone="no"?>
<!DOCTYPE svg PUBLIC "-//W3C//DTD SVG 1.1//EN"
 "http://www.w3.org/Graphics/SVG/1.1/DTD/svg11.dtd">
<!-- Generated by graphviz version 2.26.3 (20100126.1600)
 -->
<!-- Title: G Pages: 1 -->
<svg width="960pt" height="2024pt"
 viewBox="0.00 0.00 960.00 2024.00" xmlns="http://www.w3.org/2000/svg" xmlns:xlink="http://www.w3.org/1999/xlink">
<g id="graph1" class="graph" transform="scale(1 1) rotate(0) translate(4 2020)">
<title>G</title>
<polygon fill="white" stroke="white" points="-4,5 -4,-2020 957,-2020 957,5 -4,5"/>
<g id="graph2" class="cluster"><title>cluster_Global</title>
<polyline fill="none" stroke="gray" points="403,-530 932,-530 "/>
<path fill="none" stroke="gray" d="M932,-530C938,-530 944,-536 944,-542"/>
<polyline fill="none" stroke="gray" points="944,-542 944,-1996 "/>
<path fill="none" stroke="gray" d="M944,-1996C944,-2002 938,-2008 932,-2008"/>
<polyline fill="none" stroke="gray" points="932,-2008 403,-2008 "/>
<path fill="none" stroke="gray" d="M403,-2008C397,-2008 391,-2002 391,-1996"/>
<polyline fill="none" stroke="gray" points="391,-1996 391,-542 "/>
<path fill="none" stroke="gray" d="M391,-542C391,-536 397,-530 403,-530"/>
<text text-anchor="middle" x="667.5" y="-1994.1" font-family="Times Roman,serif" font-size="11.00" fill="gray">Global</text>
</g>
<!-- \\TaskHelper -->
<g id="node2" class="node"><title>\\TaskHelper</title>
<polygon fill="none" stroke="black" points="872,-1492 788,-1492 788,-1456 872,-1456 872,-1492"/>
<text text-anchor="middle" x="830" y="-1471.1" font-family="Courier,monospace" font-size="11.00">TaskHelper</text>
</g>
<!-- \\AppHelper -->
<g id="node33" class="node"><title>\\AppHelper</title>
<ellipse fill="none" stroke="black" cx="455" cy="-504" rx="65.0538" ry="18.3848"/>
<text text-anchor="middle" x="455" y="-500.4" font-family="Times Roman,serif" font-size="14.00" fill="gray">\AppHelper</text>
</g>
<!-- \\TaskHelper&#45;&gt;\\AppHelper -->
<g id="edge3" class="edge"><title>\\TaskHelper&#45;&gt;\\AppHelper</title>
<path fill="none" stroke="black" d="M787.945,-1474.37C765.534,-1472.19 739.47,-1465.38 724,-1447 591.795,-1289.95 794.733,-673.552 652,-526 618.148,-491.005 561.544,-487.971 517.675,-492.26"/>
<polygon fill="none" stroke="black" points="517.219,-488.789 507.672,-493.383 518,-495.745 517.219,-488.789"/>
</g>
<!-- \\TaskType -->
<g id="node3" class="node"><title>\\TaskType</title>
<polygon fill="none" stroke="black" points="872,-1924 788,-1924 788,-1888 872,-1888 872,-1924"/>
<text text-anchor="start" x="796" y="-1911.43" font-family="Courier,monospace" font-size="11.00">«abstract»</text>
<text text-anchor="start" x="802.5" y="-1898.23" font-family="Courier,monospace" font-size="11.00">TaskType</text>
</g>
<!-- \\TaskRunner -->
<g id="node4" class="node"><title>\\TaskRunner</title>
<polygon fill="none" stroke="black" points="872,-1438 788,-1438 788,-1402 872,-1402 872,-1438"/>
<text text-anchor="middle" x="830" y="-1417.1" font-family="Courier,monospace" font-size="11.00">TaskRunner</text>
</g>
<!-- \\Object -->
<g id="node35" class="node"><title>\\Object</title>
<ellipse fill="none" stroke="black" cx="455" cy="-450" rx="45.9619" ry="18.3848"/>
<text text-anchor="middle" x="455" y="-446.4" font-family="Times Roman,serif" font-size="14.00" fill="gray">\Object</text>
</g>
<!-- \\TaskRunner&#45;&gt;\\Object -->
<g id="edge5" class="edge"><title>\\TaskRunner&#45;&gt;\\Object</title>
<path fill="none" stroke="black" d="M787.948,-1420.37C765.538,-1418.18 739.474,-1411.38 724,-1393 592.475,-1236.82 792.15,-625.489 652,-477 615.619,-438.454 552.013,-436.433 506.927,-440.989"/>
<polygon fill="none" stroke="black" points="506.284,-437.54 496.75,-442.16 507.084,-444.494 506.284,-437.54"/>
</g>
<!-- \\TaskProcess -->
<g id="node5" class="node"><title>\\TaskProcess</title>
<polygon fill="none" stroke="black" points="875,-1384 785,-1384 785,-1348 875,-1348 875,-1384"/>
<text text-anchor="middle" x="830" y="-1363.1" font-family="Courier,monospace" font-size="11.00">TaskProcess</text>
</g>
<!-- \\Symfony\\Component\\Process\\Process -->
<g id="node37" class="node"><title>\\Symfony\\Component\\Process\\Process</title>
<ellipse fill="none" stroke="black" cx="455" cy="-396" rx="196.075" ry="18.3848"/>
<text text-anchor="middle" x="455" y="-392.4" font-family="Times Roman,serif" font-size="14.00" fill="gray">\Symfony\Component\Process\Process</text>
</g>
<!-- \\TaskProcess&#45;&gt;\\Symfony\\Component\\Process\\Process -->
<g id="edge7" class="edge"><title>\\TaskProcess&#45;&gt;\\Symfony\\Component\\Process\\Process</title>
<path fill="none" stroke="black" d="M784.466,-1365.99C762.888,-1363.45 738.679,-1356.43 724,-1339 592.475,-1182.82 792.15,-571.489 652,-423 647.413,-418.14 642.393,-413.86 637.032,-410.102"/>
<polygon fill="none" stroke="black" points="638.664,-406.993 628.339,-404.615 634.927,-412.912 638.664,-406.993"/>
</g>
<!-- \\TaskSchema -->
<g id="node6" class="node"><title>\\TaskSchema</title>
<polygon fill="none" stroke="black" points="872,-1330 788,-1330 788,-1294 872,-1294 872,-1330"/>
<text text-anchor="middle" x="830" y="-1309.1" font-family="Courier,monospace" font-size="11.00">TaskSchema</text>
</g>
<!-- \\CakeSchema -->
<g id="node39" class="node"><title>\\CakeSchema</title>
<ellipse fill="none" stroke="black" cx="455" cy="-342" rx="77.0746" ry="18.3848"/>
<text text-anchor="middle" x="455" y="-338.4" font-family="Times Roman,serif" font-size="14.00" fill="gray">\CakeSchema</text>
</g>
<!-- \\TaskSchema&#45;&gt;\\CakeSchema -->
<g id="edge9" class="edge"><title>\\TaskSchema&#45;&gt;\\CakeSchema</title>
<path fill="none" stroke="black" d="M787.948,-1312.37C765.538,-1310.18 739.474,-1303.38 724,-1285 592.475,-1128.82 792.15,-517.489 652,-369 621.354,-336.53 571.39,-329.978 529.451,-331.442"/>
<polygon fill="none" stroke="black" points="529.066,-327.957 519.256,-331.958 529.42,-334.948 529.066,-327.957"/>
</g>
<!-- \\TaskServerOldTask -->
<g id="node7" class="node"><title>\\TaskServerOldTask</title>
<polygon fill="none" stroke="black" points="895,-1708 765,-1708 765,-1672 895,-1672 895,-1708"/>
<text text-anchor="middle" x="830" y="-1687.1" font-family="Courier,monospace" font-size="11.00">TaskServerOldTask</text>
</g>
<!-- \\TaskServerTask -->
<g id="node8" class="node"><title>\\TaskServerTask</title>
<polygon fill="none" stroke="black" points="510,-1708 400,-1708 400,-1672 510,-1672 510,-1708"/>
<text text-anchor="middle" x="455" y="-1687.1" font-family="Courier,monospace" font-size="11.00">TaskServerTask</text>
</g>
<!-- \\TaskServerOldTask&#45;&gt;\\TaskServerTask -->
<g id="edge11" class="edge"><title>\\TaskServerOldTask&#45;&gt;\\TaskServerTask</title>
<path fill="none" stroke="black" d="M764.251,-1690C695.82,-1690 589.27,-1690 520.815,-1690"/>
<polygon fill="none" stroke="black" points="520.584,-1686.5 510.584,-1690 520.584,-1693.5 520.584,-1686.5"/>
</g>
<!-- \\AdvancedTask -->
<g id="node42" class="node"><title>\\AdvancedTask</title>
<ellipse fill="none" stroke="black" cx="93" cy="-1690" rx="82.939" ry="18.3848"/>
<text text-anchor="middle" x="93" y="-1686.4" font-family="Times Roman,serif" font-size="14.00" fill="gray">\AdvancedTask</text>
</g>
<!-- \\TaskServerTask&#45;&gt;\\AdvancedTask -->
<g id="edge13" class="edge"><title>\\TaskServerTask&#45;&gt;\\AdvancedTask</title>
<path fill="none" stroke="black" d="M399.231,-1690C342.732,-1690 254.302,-1690 186.965,-1690"/>
<polygon fill="none" stroke="black" points="186.769,-1686.5 176.769,-1690 186.769,-1693.5 186.769,-1686.5"/>
</g>
<!-- \\TaskShell -->
<g id="node9" class="node"><title>\\TaskShell</title>
<polygon fill="none" stroke="black" points="868,-1276 792,-1276 792,-1240 868,-1240 868,-1276"/>
<text text-anchor="middle" x="830" y="-1255.1" font-family="Courier,monospace" font-size="11.00">TaskShell</text>
</g>
<!-- \\AdvancedShell -->
<g id="node44" class="node"><title>\\AdvancedShell</title>
<ellipse fill="none" stroke="black" cx="455" cy="-288" rx="85.7684" ry="18.3848"/>
<text text-anchor="middle" x="455" y="-284.4" font-family="Times Roman,serif" font-size="14.00" fill="gray">\AdvancedShell</text>
</g>
<!-- \\TaskShell&#45;&gt;\\AdvancedShell -->
<g id="edge15" class="edge"><title>\\TaskShell&#45;&gt;\\AdvancedShell</title>
<path fill="none" stroke="black" d="M791.371,-1258.67C768.245,-1256.85 740.269,-1250.32 724,-1231 592.475,-1074.82 792.15,-463.489 652,-315 622.948,-284.219 576.535,-276.729 536.056,-277.281"/>
<polygon fill="none" stroke="black" points="535.797,-273.787 525.906,-277.585 536.007,-280.784 535.797,-273.787"/>
</g>
<!-- \\TaskController -->
<g id="node10" class="node"><title>\\TaskController</title>
<polygon fill="none" stroke="black" points="885,-1222 775,-1222 775,-1186 885,-1186 885,-1222"/>
<text text-anchor="middle" x="830" y="-1201.1" font-family="Courier,monospace" font-size="11.00">TaskController</text>
</g>
<!-- \\AppController -->
<g id="node46" class="node"><title>\\AppController</title>
<ellipse fill="none" stroke="black" cx="455" cy="-234" rx="82.0244" ry="18.3848"/>
<text text-anchor="middle" x="455" y="-230.4" font-family="Times Roman,serif" font-size="14.00" fill="gray">\AppController</text>
</g>
<!-- \\TaskController&#45;&gt;\\AppController -->
<g id="edge17" class="edge"><title>\\TaskController&#45;&gt;\\AppController</title>
<path fill="none" stroke="black" d="M774.343,-1202.48C755.65,-1199.04 736.416,-1191.74 724,-1177 592.475,-1020.82 792.15,-409.489 652,-261 622.12,-229.342 573.876,-222.321 532.611,-223.348"/>
<polygon fill="none" stroke="black" points="532.409,-219.853 522.56,-223.756 532.694,-226.847 532.409,-219.853"/>
</g>
<!-- \\TaskProfiler -->
<g id="node11" class="node"><title>\\TaskProfiler</title>
<polygon fill="none" stroke="black" points="879,-1978 781,-1978 781,-1942 879,-1942 879,-1978"/>
<text text-anchor="middle" x="830" y="-1957.1" font-family="Courier,monospace" font-size="11.00">TaskProfiler</text>
</g>
<!-- \\AppModel -->
<g id="node48" class="node"><title>\\AppModel</title>
<ellipse fill="none" stroke="black" cx="93" cy="-1852" rx="62.2254" ry="18.3848"/>
<text text-anchor="middle" x="93" y="-1848.4" font-family="Times Roman,serif" font-size="14.00" fill="gray">\AppModel</text>
</g>
<!-- \\TaskProfiler&#45;&gt;\\AppModel -->
<g id="edge19" class="edge"><title>\\TaskProfiler&#45;&gt;\\AppModel</title>
<path fill="none" stroke="black" d="M780.798,-1950.7C709.355,-1937.7 572.58,-1914.72 455,-1906"/>
</g>
<!-- \\TaskStatistics -->
<g id="node12" class="node"><title>\\TaskStatistics</title>
<polygon fill="none" stroke="black" points="885,-1870 775,-1870 775,-1834 885,-1834 885,-1870"/>
<text text-anchor="middle" x="830" y="-1849.1" font-family="Courier,monospace" font-size="11.00">TaskStatistics</text>
</g>
<!-- \\TaskStatistics&#45;&gt;\\AppModel -->
<g id="edge21" class="edge"><title>\\TaskStatistics&#45;&gt;\\AppModel</title>
<path fill="none" stroke="black" d="M774.186,-1863.06C685.406,-1880.13 515.84,-1910.51 455,-1906"/>
<path fill="none" stroke="black" d="M455,-1906C348.85,-1898.13 226.622,-1877.44 154.806,-1864.07"/>
<polygon fill="none" stroke="black" points="155.057,-1860.56 144.584,-1862.16 153.768,-1867.44 155.057,-1860.56"/>
</g>
<!-- \\TaskClient -->
<g id="node13" class="node"><title>\\TaskClient</title>
<polygon fill="none" stroke="black" points="872,-1762 788,-1762 788,-1726 872,-1726 872,-1762"/>
<text text-anchor="middle" x="830" y="-1741.1" font-family="Courier,monospace" font-size="11.00">TaskClient</text>
</g>
<!-- \\TaskModel -->
<g id="node15" class="node"><title>\\TaskModel</title>
<polygon fill="none" stroke="black" points="493,-1816 417,-1816 417,-1780 493,-1780 493,-1816"/>
<text text-anchor="middle" x="455" y="-1795.1" font-family="Courier,monospace" font-size="11.00">TaskModel</text>
</g>
<!-- \\TaskClient&#45;&gt;\\TaskModel -->
<g id="edge23" class="edge"><title>\\TaskClient&#45;&gt;\\TaskModel</title>
<path fill="none" stroke="black" d="M787.712,-1750.09C717.645,-1760.18 577.87,-1780.31 503.756,-1790.98"/>
<polygon fill="none" stroke="black" points="503.147,-1787.53 493.748,-1792.42 504.145,-1794.46 503.147,-1787.53"/>
</g>
<!-- \\TaskServer -->
<g id="node14" class="node"><title>\\TaskServer</title>
<polygon fill="none" stroke="black" points="872,-1816 788,-1816 788,-1780 872,-1780 872,-1816"/>
<text text-anchor="middle" x="830" y="-1795.1" font-family="Courier,monospace" font-size="11.00">TaskServer</text>
</g>
<!-- \\TaskServer&#45;&gt;\\TaskModel -->
<g id="edge25" class="edge"><title>\\TaskServer&#45;&gt;\\TaskModel</title>
<path fill="none" stroke="black" d="M787.712,-1798C717.645,-1798 577.87,-1798 503.756,-1798"/>
<polygon fill="none" stroke="black" points="503.748,-1794.5 493.748,-1798 503.748,-1801.5 503.748,-1794.5"/>
</g>
<!-- \\TaskModel&#45;&gt;\\AppModel -->
<g id="edge27" class="edge"><title>\\TaskModel&#45;&gt;\\AppModel</title>
<path fill="none" stroke="black" d="M416.376,-1801.39C376.57,-1805.1 312.773,-1811.64 258,-1820 222.991,-1825.34 184.092,-1832.81 152.86,-1839.19"/>
<polygon fill="none" stroke="black" points="152.092,-1835.77 143.003,-1841.22 153.504,-1842.63 152.092,-1835.77"/>
</g>
<!-- \\DependentTaskFixture -->
<g id="node16" class="node"><title>\\DependentTaskFixture</title>
<polygon fill="none" stroke="black" points="906,-1546 754,-1546 754,-1510 906,-1510 906,-1546"/>
<text text-anchor="middle" x="830" y="-1525.1" font-family="Courier,monospace" font-size="11.00">DependentTaskFixture</text>
</g>
<!-- \\CakeTestFixture -->
<g id="node54" class="node"><title>\\CakeTestFixture</title>
<ellipse fill="none" stroke="black" cx="93" cy="-1605" rx="92.1303" ry="18.3848"/>
<text text-anchor="middle" x="93" y="-1601.4" font-family="Times Roman,serif" font-size="14.00" fill="gray">\CakeTestFixture</text>
</g>
<!-- \\DependentTaskFixture&#45;&gt;\\CakeTestFixture -->
<g id="edge29" class="edge"><title>\\DependentTaskFixture&#45;&gt;\\CakeTestFixture</title>
<path fill="none" stroke="black" d="M753.869,-1542.4C678.357,-1555.87 559.18,-1574.94 455,-1582"/>
<path fill="none" stroke="black" d="M455,-1582C365.889,-1588.04 264.405,-1594.45 191.609,-1598.96"/>
<polygon fill="none" stroke="black" points="191.297,-1595.47 181.532,-1599.58 191.729,-1602.46 191.297,-1595.47"/>
</g>
<!-- \\TaskProfilerFixture -->
<g id="node17" class="node"><title>\\TaskProfilerFixture</title>
<polygon fill="none" stroke="black" points="902,-1654 758,-1654 758,-1618 902,-1618 902,-1654"/>
<text text-anchor="middle" x="830" y="-1633.1" font-family="Courier,monospace" font-size="11.00">TaskProfilerFixture</text>
</g>
<!-- \\TaskFixture -->
<g id="node18" class="node"><title>\\TaskFixture</title>
<polygon fill="none" stroke="black" points="500,-1650 410,-1650 410,-1614 500,-1614 500,-1650"/>
<text text-anchor="middle" x="455" y="-1629.1" font-family="Courier,monospace" font-size="11.00">TaskFixture</text>
</g>
<!-- \\TaskProfilerFixture&#45;&gt;\\TaskFixture -->
<g id="edge31" class="edge"><title>\\TaskProfilerFixture&#45;&gt;\\TaskFixture</title>
<path fill="none" stroke="black" d="M757.252,-1635.22C685.176,-1634.46 576.342,-1633.29 510.824,-1632.6"/>
<polygon fill="none" stroke="black" points="510.729,-1629.09 500.693,-1632.49 510.655,-1636.09 510.729,-1629.09"/>
</g>
<!-- \\TaskFixture&#45;&gt;\\CakeTestFixture -->
<g id="edge33" class="edge"><title>\\TaskFixture&#45;&gt;\\CakeTestFixture</title>
<path fill="none" stroke="black" d="M409.152,-1628.58C354.299,-1624.49 260.969,-1617.53 189.891,-1612.23"/>
<polygon fill="none" stroke="black" points="189.806,-1608.71 179.573,-1611.46 189.285,-1615.69 189.806,-1608.71"/>
</g>
<!-- \\TaskStatisticsFixture -->
<g id="node19" class="node"><title>\\TaskStatisticsFixture</title>
<polygon fill="none" stroke="black" points="909,-1600 751,-1600 751,-1564 909,-1564 909,-1600"/>
<text text-anchor="middle" x="830" y="-1579.1" font-family="Courier,monospace" font-size="11.00">TaskStatisticsFixture</text>
</g>
<!-- \\TaskStatisticsFixture&#45;&gt;\\CakeTestFixture -->
<g id="edge35" class="edge"><title>\\TaskStatisticsFixture&#45;&gt;\\CakeTestFixture</title>
<path fill="none" stroke="black" d="M750.884,-1578.9C674.918,-1576.65 556.98,-1575.09 455,-1582"/>
</g>
<!-- \\TaskHelperTest -->
<g id="node20" class="node"><title>\\TaskHelperTest</title>
<polygon fill="none" stroke="black" points="885,-1168 775,-1168 775,-1132 885,-1132 885,-1168"/>
<text text-anchor="middle" x="830" y="-1147.1" font-family="Courier,monospace" font-size="11.00">TaskHelperTest</text>
</g>
<!-- \\CakeTestCase -->
<g id="node59" class="node"><title>\\CakeTestCase</title>
<ellipse fill="none" stroke="black" cx="455" cy="-180" rx="82.0244" ry="18.3848"/>
<text text-anchor="middle" x="455" y="-176.4" font-family="Times Roman,serif" font-size="14.00" fill="gray">\CakeTestCase</text>
</g>
<!-- \\TaskHelperTest&#45;&gt;\\CakeTestCase -->
<g id="edge37" class="edge"><title>\\TaskHelperTest&#45;&gt;\\CakeTestCase</title>
<path fill="none" stroke="black" d="M774.343,-1148.48C755.65,-1145.04 736.416,-1137.74 724,-1123 592.475,-966.82 792.15,-355.489 652,-207 622.12,-175.342 573.876,-168.321 532.611,-169.348"/>
<polygon fill="none" stroke="black" points="532.409,-165.853 522.56,-169.756 532.694,-172.847 532.409,-165.853"/>
</g>
<!-- \\TaskTypeTest -->
<g id="node21" class="node"><title>\\TaskTypeTest</title>
<polygon fill="none" stroke="black" points="879,-1114 781,-1114 781,-1078 879,-1078 879,-1114"/>
<text text-anchor="middle" x="830" y="-1093.1" font-family="Courier,monospace" font-size="11.00">TaskTypeTest</text>
</g>
<!-- \\TaskTypeTest&#45;&gt;\\CakeTestCase -->
<g id="edge39" class="edge"><title>\\TaskTypeTest&#45;&gt;\\CakeTestCase</title>
<path fill="none" stroke="black" d="M780.976,-1095.51C760.338,-1092.62 737.924,-1085.45 724,-1069 599.82,-922.272 784.281,-346.467 652,-207 622.152,-175.531 574.151,-168.447 533.005,-169.393"/>
<polygon fill="none" stroke="black" points="532.837,-165.897 522.98,-169.782 533.109,-172.892 532.837,-165.897"/>
</g>
<!-- \\TaskRunnerTest -->
<g id="node22" class="node"><title>\\TaskRunnerTest</title>
<polygon fill="none" stroke="black" points="885,-1060 775,-1060 775,-1024 885,-1024 885,-1060"/>
<text text-anchor="middle" x="830" y="-1039.1" font-family="Courier,monospace" font-size="11.00">TaskRunnerTest</text>
</g>
<!-- \\TaskRunnerTest&#45;&gt;\\CakeTestCase -->
<g id="edge41" class="edge"><title>\\TaskRunnerTest&#45;&gt;\\CakeTestCase</title>
<path fill="none" stroke="black" d="M774.427,-1040.41C755.743,-1036.96 736.493,-1029.68 724,-1015 607.163,-877.722 776.416,-337.449 652,-207 622.065,-175.614 574.062,-168.532 532.937,-169.458"/>
<polygon fill="none" stroke="black" points="532.777,-165.961 522.918,-169.841 533.045,-172.956 532.777,-165.961"/>
</g>
<!-- \\TaskProcessTest -->
<g id="node23" class="node"><title>\\TaskProcessTest</title>
<polygon fill="none" stroke="black" points="889,-1006 771,-1006 771,-970 889,-970 889,-1006"/>
<text text-anchor="middle" x="830" y="-985.1" font-family="Courier,monospace" font-size="11.00">TaskProcessTest</text>
</g>
<!-- \\TaskProcessTest&#45;&gt;\\CakeTestCase -->
<g id="edge43" class="edge"><title>\\TaskProcessTest&#45;&gt;\\CakeTestCase</title>
<path fill="none" stroke="black" d="M770.884,-985.653C753.359,-981.952 735.736,-974.702 724,-961 614.503,-833.167 768.554,-328.434 652,-207 622.14,-175.89 574.516,-168.711 533.573,-169.517"/>
<polygon fill="none" stroke="black" points="533.191,-166.028 523.323,-169.884 533.442,-173.024 533.191,-166.028"/>
</g>
<!-- \\TaskServerTaskTest -->
<g id="node24" class="node"><title>\\TaskServerTaskTest</title>
<polygon fill="none" stroke="black" points="899,-952 761,-952 761,-916 899,-916 899,-952"/>
<text text-anchor="middle" x="830" y="-931.1" font-family="Courier,monospace" font-size="11.00">TaskServerTaskTest</text>
</g>
<!-- \\TaskServerTaskTest&#45;&gt;\\CakeTestCase -->
<g id="edge45" class="edge"><title>\\TaskServerTaskTest&#45;&gt;\\CakeTestCase</title>
<path fill="none" stroke="black" d="M760.738,-929.015C746.775,-924.835 733.491,-917.999 724,-907 621.839,-788.608 760.695,-319.423 652,-207 622.027,-175.999 574.4,-168.823 533.484,-169.603"/>
<polygon fill="none" stroke="black" points="533.112,-166.113 523.241,-169.963 533.358,-173.109 533.112,-166.113"/>
</g>
<!-- \\TaskServerTaskTestEventModel1 -->
<g id="node25" class="node"><title>\\TaskServerTaskTestEventModel1</title>
<polygon fill="none" stroke="black" points="936,-682 724,-682 724,-646 936,-646 936,-682"/>
<text text-anchor="middle" x="830" y="-661.1" font-family="Courier,monospace" font-size="11.00">TaskServerTaskTestEventModel1</text>
</g>
<!-- \\CakeEventListener -->
<g id="node65" class="node"><title>\\CakeEventListener</title>
<ellipse fill="none" stroke="black" cx="455" cy="-126" rx="106.98" ry="18.3848"/>
<text text-anchor="middle" x="455" y="-122.4" font-family="Times Roman,serif" font-size="14.00" fill="gray">\CakeEventListener</text>
</g>
<!-- \\TaskServerTaskTestEventModel1&#45;&gt;\\CakeEventListener -->
<g id="edge47" class="edge"><title>\\TaskServerTaskTestEventModel1&#45;&gt;\\CakeEventListener</title>
<path fill="none" stroke="black" stroke-dasharray="1,5" d="M733.688,-645.67C730.185,-643.119 726.927,-640.242 724,-637 578.238,-475.599 806.66,-305.896 652,-153 626.863,-128.15 590.319,-118.859 555.514,-116.656"/>
<polygon fill="none" stroke="black" points="555.415,-113.148 545.27,-116.203 555.105,-120.142 555.415,-113.148"/>
</g>
<!-- \\TaskShellTest -->
<g id="node26" class="node"><title>\\TaskShellTest</title>
<polygon fill="none" stroke="black" points="882,-898 778,-898 778,-862 882,-862 882,-898"/>
<text text-anchor="middle" x="830" y="-877.1" font-family="Courier,monospace" font-size="11.00">TaskShellTest</text>
</g>
<!-- \\TaskShellTest&#45;&gt;\\CakeTestCase -->
<g id="edge49" class="edge"><title>\\TaskShellTest&#45;&gt;\\CakeTestCase</title>
<path fill="none" stroke="black" d="M777.906,-878.829C758.24,-875.626 737.403,-868.399 724,-853 534.34,-635.088 853.684,-413.834 652,-207 622.006,-176.24 574.617,-169.007 533.834,-169.695"/>
<polygon fill="none" stroke="black" points="533.502,-166.204 523.622,-170.031 533.732,-173.2 533.502,-166.204"/>
</g>
<!-- \\TaskControllerTest -->
<g id="node27" class="node"><title>\\TaskControllerTest</title>
<polygon fill="none" stroke="black" points="899,-628 761,-628 761,-592 899,-592 899,-628"/>
<text text-anchor="middle" x="830" y="-607.1" font-family="Courier,monospace" font-size="11.00">TaskControllerTest</text>
</g>
<!-- \\ControllerTestCase -->
<g id="node68" class="node"><title>\\ControllerTestCase</title>
<ellipse fill="none" stroke="black" cx="455" cy="-72" rx="106.773" ry="18.3848"/>
<text text-anchor="middle" x="455" y="-68.4" font-family="Times Roman,serif" font-size="14.00" fill="gray">\ControllerTestCase</text>
</g>
<!-- \\TaskControllerTest&#45;&gt;\\ControllerTestCase -->
<g id="edge51" class="edge"><title>\\TaskControllerTest&#45;&gt;\\ControllerTestCase</title>
<path fill="none" stroke="black" d="M760.827,-604.612C746.945,-600.442 733.673,-593.711 724,-583 578.238,-421.599 806.66,-251.896 652,-99 626.751,-74.0392 589.994,-64.7764 555.05,-62.6272"/>
<polygon fill="none" stroke="black" points="554.907,-59.118 544.767,-62.1904 554.61,-66.1117 554.907,-59.118"/>
</g>
<!-- \\TaskProfilerTest -->
<g id="node28" class="node"><title>\\TaskProfilerTest</title>
<polygon fill="none" stroke="black" points="892,-844 768,-844 768,-808 892,-808 892,-844"/>
<text text-anchor="middle" x="830" y="-823.1" font-family="Courier,monospace" font-size="11.00">TaskProfilerTest</text>
</g>
<!-- \\TaskProfilerTest&#45;&gt;\\CakeTestCase -->
<g id="edge53" class="edge"><title>\\TaskProfilerTest&#45;&gt;\\CakeTestCase</title>
<path fill="none" stroke="black" d="M767.498,-822.66C751.19,-818.744 735.097,-811.622 724,-799 548.99,-599.945 837.991,-395.836 652,-207 621.964,-176.505 574.809,-169.216 534.165,-169.808"/>
<polygon fill="none" stroke="black" points="533.875,-166.315 523.986,-170.118 534.088,-173.311 533.875,-166.315"/>
</g>
<!-- \\TaskClientTest -->
<g id="node29" class="node"><title>\\TaskClientTest</title>
<polygon fill="none" stroke="black" points="885,-790 775,-790 775,-754 885,-754 885,-790"/>
<text text-anchor="middle" x="830" y="-769.1" font-family="Courier,monospace" font-size="11.00">TaskClientTest</text>
</g>
<!-- \\TaskClientTest&#45;&gt;\\CakeTestCase -->
<g id="edge55" class="edge"><title>\\TaskClientTest&#45;&gt;\\CakeTestCase</title>
<path fill="none" stroke="black" d="M774.227,-769.998C755.75,-766.482 736.688,-759.257 724,-745 563.624,-564.784 822.314,-377.855 652,-207 621.894,-176.798 574.971,-169.457 534.472,-169.946"/>
<polygon fill="none" stroke="black" points="534.227,-166.451 524.328,-170.23 534.423,-173.449 534.227,-166.451"/>
</g>
<!-- \\TaskServerTest -->
<g id="node30" class="node"><title>\\TaskServerTest</title>
<polygon fill="none" stroke="black" points="885,-736 775,-736 775,-700 885,-700 885,-736"/>
<text text-anchor="middle" x="830" y="-715.1" font-family="Courier,monospace" font-size="11.00">TaskServerTest</text>
</g>
<!-- \\TaskServerTest&#45;&gt;\\CakeTestCase -->
<g id="edge57" class="edge"><title>\\TaskServerTest&#45;&gt;\\CakeTestCase</title>
<path fill="none" stroke="black" d="M774.342,-715.894C755.876,-712.368 736.792,-705.164 724,-691 578.238,-529.599 806.66,-359.896 652,-207 621.787,-177.131 575.093,-169.741 534.748,-170.119"/>
<polygon fill="none" stroke="black" points="534.551,-166.623 524.642,-170.374 534.727,-173.621 534.551,-166.623"/>
</g>
<!-- \\AllTaskTest -->
<g id="node31" class="node"><title>\\AllTaskTest</title>
<polygon fill="none" stroke="black" points="875,-574 785,-574 785,-538 875,-538 875,-574"/>
<text text-anchor="middle" x="830" y="-553.1" font-family="Courier,monospace" font-size="11.00">AllTaskTest</text>
</g>
<!-- \\PHPUnit_Framework_TestSuite -->
<g id="node73" class="node"><title>\\PHPUnit_Framework_TestSuite</title>
<ellipse fill="none" stroke="black" cx="455" cy="-18" rx="166.877" ry="18.3848"/>
<text text-anchor="middle" x="455" y="-14.4" font-family="Times Roman,serif" font-size="14.00" fill="gray">\PHPUnit_Framework_TestSuite</text>
</g>
<!-- \\AllTaskTest&#45;&gt;\\PHPUnit_Framework_TestSuite -->
<g id="edge59" class="edge"><title>\\AllTaskTest&#45;&gt;\\PHPUnit_Framework_TestSuite</title>
<path fill="none" stroke="black" d="M826.285,-537.727C808.972,-454.42 733.603,-111.79 652,-45 643.308,-37.8854 633.642,-32.1432 623.391,-27.5395"/>
<polygon fill="none" stroke="black" points="624.405,-24.1725 613.824,-23.6249 621.754,-30.6512 624.405,-24.1725"/>
</g>
</g>
</svg>
