<?xml version="1.0" encoding="UTF-8" standalone="no"?>
<!DOCTYPE svg PUBLIC "-//W3C//DTD SVG 1.1//EN"
 "http://www.w3.org/Graphics/SVG/1.1/DTD/svg11.dtd">
<!-- Generated by graphviz version 2.26.3 (20100126.1600)
 -->
<!-- Title: G Pages: 1 -->
<svg width="960pt" height="1944pt"
 viewBox="0.00 0.00 960.00 1944.04" xmlns="http://www.w3.org/2000/svg" xmlns:xlink="http://www.w3.org/1999/xlink">
<g id="graph1" class="graph" transform="scale(1 1) rotate(0) translate(4 1940.04)">
<title>G</title>
<polygon fill="white" stroke="white" points="-4,5 -4,-1940.04 957,-1940.04 957,5 -4,5"/>
<g id="graph2" class="cluster"><title>cluster_Global</title>
<polyline fill="none" stroke="gray" points="403,-260 932,-260 "/>
<path fill="none" stroke="gray" d="M932,-260C938,-260 944,-266 944,-272"/>
<polyline fill="none" stroke="gray" points="944,-272 944,-1672 "/>
<path fill="none" stroke="gray" d="M944,-1672C944,-1678 938,-1684 932,-1684"/>
<polyline fill="none" stroke="gray" points="932,-1684 403,-1684 "/>
<path fill="none" stroke="gray" d="M403,-1684C397,-1684 391,-1678 391,-1672"/>
<polyline fill="none" stroke="gray" points="391,-1672 391,-272 "/>
<path fill="none" stroke="gray" d="M391,-272C391,-266 397,-260 403,-260"/>
<text text-anchor="middle" x="667.5" y="-1670.1" font-family="Times Roman,serif" font-size="11.00" fill="gray">Global</text>
</g>
<!-- \\AllTaskTest -->
<g id="node2" class="node"><title>\\AllTaskTest</title>
<polygon fill="none" stroke="black" points="875,-1600 785,-1600 785,-1564 875,-1564 875,-1600"/>
<text text-anchor="middle" x="830" y="-1579.1" font-family="Courier,monospace" font-size="11.00">AllTaskTest</text>
</g>
<!-- \\PHPUnit_Framework_TestSuite -->
<g id="node32" class="node"><title>\\PHPUnit_Framework_TestSuite</title>
<ellipse fill="none" stroke="black" cx="455" cy="-1872" rx="166.877" ry="18.3848"/>
<text text-anchor="middle" x="455" y="-1868.4" font-family="Times Roman,serif" font-size="14.00" fill="gray">\PHPUnit_Framework_TestSuite</text>
</g>
<!-- \\AllTaskTest&#45;&gt;\\PHPUnit_Framework_TestSuite -->
<g id="edge3" class="edge"><title>\\AllTaskTest&#45;&gt;\\PHPUnit_Framework_TestSuite</title>
<path fill="none" stroke="black" d="M784.401,-1583.67C763.596,-1586.7 740.074,-1593.66 724,-1609 644.668,-1684.71 735.488,-1773.9 652,-1845 643.549,-1852.2 634.112,-1858.01 624.072,-1862.68"/>
<polygon fill="none" stroke="black" points="622.537,-1859.53 614.692,-1866.65 625.265,-1865.97 622.537,-1859.53"/>
</g>
<!-- \\TaskServerTest -->
<g id="node3" class="node"><title>\\TaskServerTest</title>
<polygon fill="none" stroke="black" points="885,-1114 775,-1114 775,-1078 885,-1078 885,-1114"/>
<text text-anchor="middle" x="830" y="-1093.1" font-family="Courier,monospace" font-size="11.00">TaskServerTest</text>
</g>
<!-- \\CakeTestCase -->
<g id="node34" class="node"><title>\\CakeTestCase</title>
<ellipse fill="none" stroke="black" cx="455" cy="-1818" rx="82.0244" ry="18.3848"/>
<text text-anchor="middle" x="455" y="-1814.4" font-family="Times Roman,serif" font-size="14.00" fill="gray">\CakeTestCase</text>
</g>
<!-- \\TaskServerTest&#45;&gt;\\CakeTestCase -->
<g id="edge5" class="edge"><title>\\TaskServerTest&#45;&gt;\\CakeTestCase</title>
<path fill="none" stroke="black" d="M774.299,-1097.77C755.716,-1101.25 736.566,-1108.51 724,-1123 528.368,-1348.6 860.082,-1576.83 652,-1791 622.062,-1821.81 574.674,-1829.05 533.878,-1828.35"/>
<polygon fill="none" stroke="black" points="533.774,-1824.84 523.663,-1828.01 533.541,-1831.84 533.774,-1824.84"/>
</g>
<!-- \\TaskProfilerTest -->
<g id="node4" class="node"><title>\\TaskProfilerTest</title>
<polygon fill="none" stroke="black" points="892,-1546 768,-1546 768,-1510 892,-1510 892,-1546"/>
<text text-anchor="middle" x="830" y="-1525.1" font-family="Courier,monospace" font-size="11.00">TaskProfilerTest</text>
</g>
<!-- \\TaskProfilerTest&#45;&gt;\\CakeTestCase -->
<g id="edge7" class="edge"><title>\\TaskProfilerTest&#45;&gt;\\CakeTestCase</title>
<path fill="none" stroke="black" d="M767.48,-1532.99C751.654,-1536.98 735.815,-1543.72 724,-1555 644.668,-1630.71 735.488,-1719.9 652,-1791 621.24,-1817.2 577.428,-1825.08 538.929,-1825.93"/>
<polygon fill="none" stroke="black" points="538.726,-1822.43 528.749,-1825.99 538.771,-1829.43 538.726,-1822.43"/>
</g>
<!-- \\TaskClientTest -->
<g id="node5" class="node"><title>\\TaskClientTest</title>
<polygon fill="none" stroke="black" points="885,-1492 775,-1492 775,-1456 885,-1456 885,-1492"/>
<text text-anchor="middle" x="830" y="-1471.1" font-family="Courier,monospace" font-size="11.00">TaskClientTest</text>
</g>
<!-- \\TaskClientTest&#45;&gt;\\CakeTestCase -->
<g id="edge9" class="edge"><title>\\TaskClientTest&#45;&gt;\\CakeTestCase</title>
<path fill="none" stroke="black" d="M774.251,-1476.96C756.109,-1480.61 737.254,-1487.67 724,-1501 630.38,-1595.19 750.799,-1702.26 652,-1791 621.47,-1818.42 576.814,-1826.2 537.735,-1826.66"/>
<polygon fill="none" stroke="black" points="537.42,-1823.16 527.406,-1826.62 537.392,-1830.16 537.42,-1823.16"/>
</g>
<!-- \\TaskServerTaskTest -->
<g id="node6" class="node"><title>\\TaskServerTaskTest</title>
<polygon fill="none" stroke="black" points="899,-1438 761,-1438 761,-1402 899,-1402 899,-1438"/>
<text text-anchor="middle" x="830" y="-1417.1" font-family="Courier,monospace" font-size="11.00">TaskServerTaskTest</text>
</g>
<!-- \\TaskServerTaskTest&#45;&gt;\\CakeTestCase -->
<g id="edge11" class="edge"><title>\\TaskServerTaskTest&#45;&gt;\\CakeTestCase</title>
<path fill="none" stroke="black" d="M760.738,-1425.98C747.029,-1430.14 733.852,-1436.71 724,-1447 615.954,-1559.81 766.255,-1684.49 652,-1791 621.57,-1819.37 576.135,-1827.01 536.565,-1827.15"/>
<polygon fill="none" stroke="black" points="536.42,-1823.65 526.378,-1827.03 536.335,-1830.65 536.42,-1823.65"/>
</g>
<!-- \\TaskServerTaskTestEventModel1 -->
<g id="node7" class="node"><title>\\TaskServerTaskTestEventModel1</title>
<polygon fill="none" stroke="black" points="936,-1060 724,-1060 724,-1024 936,-1024 936,-1060"/>
<text text-anchor="middle" x="830" y="-1039.1" font-family="Courier,monospace" font-size="11.00">TaskServerTaskTestEventModel1</text>
</g>
<!-- \\CakeEventListener -->
<g id="node39" class="node"><title>\\CakeEventListener</title>
<ellipse fill="none" stroke="black" cx="455" cy="-1764" rx="106.98" ry="18.3848"/>
<text text-anchor="middle" x="455" y="-1760.4" font-family="Times Roman,serif" font-size="14.00" fill="gray">\CakeEventListener</text>
</g>
<!-- \\TaskServerTaskTestEventModel1&#45;&gt;\\CakeEventListener -->
<g id="edge13" class="edge"><title>\\TaskServerTaskTestEventModel1&#45;&gt;\\CakeEventListener</title>
<path fill="none" stroke="black" stroke-dasharray="1,5" d="M733.524,-1060.18C730.065,-1062.78 726.862,-1065.7 724,-1069 528.368,-1294.6 860.082,-1522.83 652,-1737 626.658,-1763.08 588.814,-1772.27 553.048,-1774.05"/>
<polygon fill="none" stroke="black" points="552.912,-1770.56 543.027,-1774.37 553.132,-1777.55 552.912,-1770.56"/>
</g>
<!-- \\TaskShellTest -->
<g id="node8" class="node"><title>\\TaskShellTest</title>
<polygon fill="none" stroke="black" points="882,-1384 778,-1384 778,-1348 882,-1348 882,-1384"/>
<text text-anchor="middle" x="830" y="-1363.1" font-family="Courier,monospace" font-size="11.00">TaskShellTest</text>
</g>
<!-- \\TaskShellTest&#45;&gt;\\CakeTestCase -->
<g id="edge15" class="edge"><title>\\TaskShellTest&#45;&gt;\\CakeTestCase</title>
<path fill="none" stroke="black" d="M777.879,-1367.73C758.45,-1371.05 737.789,-1378.2 724,-1393 601.445,-1524.51 781.798,-1666.64 652,-1791 621.553,-1820.17 575.311,-1827.65 535.279,-1827.5"/>
<polygon fill="none" stroke="black" points="535.314,-1824 525.248,-1827.31 535.178,-1831 535.314,-1824"/>
</g>
<!-- \\TaskHelperTest -->
<g id="node9" class="node"><title>\\TaskHelperTest</title>
<polygon fill="none" stroke="black" points="885,-1330 775,-1330 775,-1294 885,-1294 885,-1330"/>
<text text-anchor="middle" x="830" y="-1309.1" font-family="Courier,monospace" font-size="11.00">TaskHelperTest</text>
</g>
<!-- \\TaskHelperTest&#45;&gt;\\CakeTestCase -->
<g id="edge17" class="edge"><title>\\TaskHelperTest&#45;&gt;\\CakeTestCase</title>
<path fill="none" stroke="black" d="M774.422,-1314.18C755.965,-1317.71 736.864,-1324.9 724,-1339 586.884,-1489.27 797.397,-1648.73 652,-1791 621.747,-1820.6 575.284,-1828.04 535.078,-1827.76"/>
<polygon fill="none" stroke="black" points="535.081,-1824.26 525.004,-1827.53 534.922,-1831.26 535.081,-1824.26"/>
</g>
<!-- \\TaskRunnerTest -->
<g id="node10" class="node"><title>\\TaskRunnerTest</title>
<polygon fill="none" stroke="black" points="885,-1276 775,-1276 775,-1240 885,-1240 885,-1276"/>
<text text-anchor="middle" x="830" y="-1255.1" font-family="Courier,monospace" font-size="11.00">TaskRunnerTest</text>
</g>
<!-- \\TaskRunnerTest&#45;&gt;\\CakeTestCase -->
<g id="edge19" class="edge"><title>\\TaskRunnerTest&#45;&gt;\\CakeTestCase</title>
<path fill="none" stroke="black" d="M774.292,-1260.06C755.822,-1263.58 736.747,-1270.8 724,-1285 572.287,-1454.06 813.034,-1630.79 652,-1791 621.769,-1821.08 574.842,-1828.41 534.372,-1827.95"/>
<polygon fill="none" stroke="black" points="534.328,-1824.45 524.236,-1827.68 534.137,-1831.45 534.328,-1824.45"/>
</g>
<!-- \\TaskProcessTest -->
<g id="node11" class="node"><title>\\TaskProcessTest</title>
<polygon fill="none" stroke="black" points="889,-1222 771,-1222 771,-1186 889,-1186 889,-1222"/>
<text text-anchor="middle" x="830" y="-1201.1" font-family="Courier,monospace" font-size="11.00">TaskProcessTest</text>
</g>
<!-- \\TaskProcessTest&#45;&gt;\\CakeTestCase -->
<g id="edge21" class="edge"><title>\\TaskProcessTest&#45;&gt;\\CakeTestCase</title>
<path fill="none" stroke="black" d="M770.871,-1206.64C753.453,-1210.37 735.896,-1217.56 724,-1231 557.665,-1418.89 828.698,-1612.82 652,-1791 621.86,-1821.39 574.702,-1828.68 534.082,-1828.11"/>
<polygon fill="none" stroke="black" points="534.01,-1824.61 523.91,-1827.81 533.801,-1831.6 534.01,-1824.61"/>
</g>
<!-- \\TaskTypeTest -->
<g id="node12" class="node"><title>\\TaskTypeTest</title>
<polygon fill="none" stroke="black" points="879,-1168 781,-1168 781,-1132 879,-1132 879,-1168"/>
<text text-anchor="middle" x="830" y="-1147.1" font-family="Courier,monospace" font-size="11.00">TaskTypeTest</text>
</g>
<!-- \\TaskTypeTest&#45;&gt;\\CakeTestCase -->
<g id="edge23" class="edge"><title>\\TaskTypeTest&#45;&gt;\\CakeTestCase</title>
<path fill="none" stroke="black" d="M780.957,-1150.75C760.444,-1153.7 738.135,-1160.85 724,-1177 543.023,-1383.74 844.383,-1594.83 652,-1791 621.918,-1821.67 574.526,-1828.9 533.764,-1828.24"/>
<polygon fill="none" stroke="black" points="533.666,-1824.73 523.558,-1827.91 533.44,-1831.73 533.666,-1824.73"/>
</g>
<!-- \\TaskControllerTest -->
<g id="node13" class="node"><title>\\TaskControllerTest</title>
<polygon fill="none" stroke="black" points="899,-1006 761,-1006 761,-970 899,-970 899,-1006"/>
<text text-anchor="middle" x="830" y="-985.1" font-family="Courier,monospace" font-size="11.00">TaskControllerTest</text>
</g>
<!-- \\ControllerTestCase -->
<g id="node46" class="node"><title>\\ControllerTestCase</title>
<ellipse fill="none" stroke="black" cx="455" cy="-1710" rx="106.773" ry="18.3848"/>
<text text-anchor="middle" x="455" y="-1706.4" font-family="Times Roman,serif" font-size="14.00" fill="gray">\ControllerTestCase</text>
</g>
<!-- \\TaskControllerTest&#45;&gt;\\ControllerTestCase -->
<g id="edge25" class="edge"><title>\\TaskControllerTest&#45;&gt;\\ControllerTestCase</title>
<path fill="none" stroke="black" d="M760.771,-993.014C746.807,-997.192 733.513,-1004.02 724,-1015 625.505,-1128.67 758.108,-1581.4 652,-1688 623.919,-1716.21 580.998,-1723.42 542.38,-1722.85"/>
<polygon fill="none" stroke="black" points="542.251,-1719.34 532.143,-1722.52 542.025,-1726.34 542.251,-1719.34"/>
</g>
<!-- \\DependentTaskFixture -->
<g id="node14" class="node"><title>\\DependentTaskFixture</title>
<polygon fill="none" stroke="black" points="906,-1654 754,-1654 754,-1618 906,-1618 906,-1654"/>
<text text-anchor="middle" x="830" y="-1633.1" font-family="Courier,monospace" font-size="11.00">DependentTaskFixture</text>
</g>
<!-- \\CakeTestFixture -->
<g id="node48" class="node"><title>\\CakeTestFixture</title>
<ellipse fill="none" stroke="black" cx="93" cy="-934" rx="92.1303" ry="18.3848"/>
<text text-anchor="middle" x="93" y="-930.4" font-family="Times Roman,serif" font-size="14.00" fill="gray">\CakeTestFixture</text>
</g>
<!-- \\DependentTaskFixture&#45;&gt;\\CakeTestFixture -->
<g id="edge27" class="edge"><title>\\DependentTaskFixture&#45;&gt;\\CakeTestFixture</title>
<path fill="none" stroke="black" d="M824.377,-1654.24C807.755,-1704.55 753.542,-1845.11 652,-1899 574.661,-1940.04 324.925,-1955.45 258,-1899 183.7,-1836.33 110.434,-1115.1 95.6833,-962.324"/>
<polygon fill="none" stroke="black" points="99.1629,-961.943 94.7231,-952.324 92.1949,-962.612 99.1629,-961.943"/>
</g>
<!-- \\TaskProfilerFixture -->
<g id="node15" class="node"><title>\\TaskProfilerFixture</title>
<polygon fill="none" stroke="black" points="902,-898 758,-898 758,-862 902,-862 902,-898"/>
<text text-anchor="middle" x="830" y="-877.1" font-family="Courier,monospace" font-size="11.00">TaskProfilerFixture</text>
</g>
<!-- \\TaskFixture -->
<g id="node17" class="node"><title>\\TaskFixture</title>
<polygon fill="none" stroke="black" points="500,-902 410,-902 410,-866 500,-866 500,-902"/>
<text text-anchor="middle" x="455" y="-881.1" font-family="Courier,monospace" font-size="11.00">TaskFixture</text>
</g>
<!-- \\TaskProfilerFixture&#45;&gt;\\TaskFixture -->
<g id="edge29" class="edge"><title>\\TaskProfilerFixture&#45;&gt;\\TaskFixture</title>
<path fill="none" stroke="black" d="M757.252,-880.776C685.176,-881.545 576.342,-882.706 510.824,-883.405"/>
<polygon fill="none" stroke="black" points="510.655,-879.906 500.693,-883.513 510.729,-886.906 510.655,-879.906"/>
</g>
<!-- \\TaskStatisticsFixture -->
<g id="node16" class="node"><title>\\TaskStatisticsFixture</title>
<polygon fill="none" stroke="black" points="909,-952 751,-952 751,-916 909,-916 909,-952"/>
<text text-anchor="middle" x="830" y="-931.1" font-family="Courier,monospace" font-size="11.00">TaskStatisticsFixture</text>
</g>
<!-- \\TaskStatisticsFixture&#45;&gt;\\CakeTestFixture -->
<g id="edge31" class="edge"><title>\\TaskStatisticsFixture&#45;&gt;\\CakeTestFixture</title>
<path fill="none" stroke="black" d="M750.778,-934C616.492,-934 344.308,-934 195.623,-934"/>
<polygon fill="none" stroke="black" points="195.573,-930.5 185.573,-934 195.573,-937.5 195.573,-930.5"/>
</g>
<!-- \\TaskFixture&#45;&gt;\\CakeTestFixture -->
<g id="edge33" class="edge"><title>\\TaskFixture&#45;&gt;\\CakeTestFixture</title>
<path fill="none" stroke="black" d="M409.13,-888.377C369.145,-892.37 309.63,-898.742 258,-906 229.428,-910.016 198.194,-915.13 170.663,-919.885"/>
<polygon fill="none" stroke="black" points="169.952,-916.456 160.7,-921.618 171.152,-923.353 169.952,-916.456"/>
</g>
<!-- \\TaskClient -->
<g id="node18" class="node"><title>\\TaskClient</title>
<polygon fill="none" stroke="black" points="872,-736 788,-736 788,-700 872,-700 872,-736"/>
<text text-anchor="middle" x="830" y="-715.1" font-family="Courier,monospace" font-size="11.00">TaskClient</text>
</g>
<!-- \\TaskModel -->
<g id="node19" class="node"><title>\\TaskModel</title>
<polygon fill="none" stroke="black" points="493,-736 417,-736 417,-700 493,-700 493,-736"/>
<text text-anchor="middle" x="455" y="-715.1" font-family="Courier,monospace" font-size="11.00">TaskModel</text>
</g>
<!-- \\TaskClient&#45;&gt;\\TaskModel -->
<g id="edge35" class="edge"><title>\\TaskClient&#45;&gt;\\TaskModel</title>
<path fill="none" stroke="black" d="M787.712,-718C717.645,-718 577.87,-718 503.756,-718"/>
<polygon fill="none" stroke="black" points="503.748,-714.5 493.748,-718 503.748,-721.5 503.748,-714.5"/>
</g>
<!-- \\AppModel -->
<g id="node54" class="node"><title>\\AppModel</title>
<ellipse fill="none" stroke="black" cx="93" cy="-691" rx="62.2254" ry="18.3848"/>
<text text-anchor="middle" x="93" y="-687.4" font-family="Times Roman,serif" font-size="14.00" fill="gray">\AppModel</text>
</g>
<!-- \\TaskModel&#45;&gt;\\AppModel -->
<g id="edge37" class="edge"><title>\\TaskModel&#45;&gt;\\AppModel</title>
<path fill="none" stroke="black" d="M416.26,-715.111C356.073,-710.621 239.194,-701.904 163.698,-696.273"/>
<polygon fill="none" stroke="black" points="163.562,-692.753 153.33,-695.5 163.042,-699.734 163.562,-692.753"/>
</g>
<!-- \\TaskServer -->
<g id="node20" class="node"><title>\\TaskServer</title>
<polygon fill="none" stroke="black" points="872,-790 788,-790 788,-754 872,-754 872,-790"/>
<text text-anchor="middle" x="830" y="-769.1" font-family="Courier,monospace" font-size="11.00">TaskServer</text>
</g>
<!-- \\TaskServer&#45;&gt;\\TaskModel -->
<g id="edge39" class="edge"><title>\\TaskServer&#45;&gt;\\TaskModel</title>
<path fill="none" stroke="black" d="M787.712,-765.91C717.645,-755.821 577.87,-735.693 503.756,-725.021"/>
<polygon fill="none" stroke="black" points="504.145,-721.541 493.748,-723.58 503.147,-728.469 504.145,-721.541"/>
</g>
<!-- \\TaskProfiler -->
<g id="node21" class="node"><title>\\TaskProfiler</title>
<polygon fill="none" stroke="black" points="879,-682 781,-682 781,-646 879,-646 879,-682"/>
<text text-anchor="middle" x="830" y="-661.1" font-family="Courier,monospace" font-size="11.00">TaskProfiler</text>
</g>
<!-- \\TaskProfiler&#45;&gt;\\AppModel -->
<g id="edge41" class="edge"><title>\\TaskProfiler&#45;&gt;\\AppModel</title>
<path fill="none" stroke="black" d="M780.776,-661.712C709.022,-658.895 571.549,-655.458 455,-664"/>
</g>
<!-- \\TaskStatistics -->
<g id="node22" class="node"><title>\\TaskStatistics</title>
<polygon fill="none" stroke="black" points="885,-628 775,-628 775,-592 885,-592 885,-628"/>
<text text-anchor="middle" x="830" y="-607.1" font-family="Courier,monospace" font-size="11.00">TaskStatistics</text>
</g>
<!-- \\TaskStatistics&#45;&gt;\\AppModel -->
<g id="edge43" class="edge"><title>\\TaskStatistics&#45;&gt;\\AppModel</title>
<path fill="none" stroke="black" d="M774.356,-620.497C701.364,-633.694 569.144,-655.634 455,-664"/>
<path fill="none" stroke="black" d="M455,-664C353.55,-671.436 236.122,-680.228 163.194,-685.711"/>
<polygon fill="none" stroke="black" points="162.915,-682.222 153.205,-686.462 163.44,-689.202 162.915,-682.222"/>
</g>
<!-- \\TaskServerTask -->
<g id="node23" class="node"><title>\\TaskServerTask</title>
<polygon fill="none" stroke="black" points="510,-844 400,-844 400,-808 510,-808 510,-844"/>
<text text-anchor="middle" x="455" y="-823.1" font-family="Courier,monospace" font-size="11.00">TaskServerTask</text>
</g>
<!-- \\AdvancedTask -->
<g id="node59" class="node"><title>\\AdvancedTask</title>
<ellipse fill="none" stroke="black" cx="93" cy="-826" rx="82.939" ry="18.3848"/>
<text text-anchor="middle" x="93" y="-822.4" font-family="Times Roman,serif" font-size="14.00" fill="gray">\AdvancedTask</text>
</g>
<!-- \\TaskServerTask&#45;&gt;\\AdvancedTask -->
<g id="edge45" class="edge"><title>\\TaskServerTask&#45;&gt;\\AdvancedTask</title>
<path fill="none" stroke="black" d="M399.231,-826C342.732,-826 254.302,-826 186.965,-826"/>
<polygon fill="none" stroke="black" points="186.769,-822.5 176.769,-826 186.769,-829.5 186.769,-822.5"/>
</g>
<!-- \\TaskServerOldTask -->
<g id="node24" class="node"><title>\\TaskServerOldTask</title>
<polygon fill="none" stroke="black" points="895,-844 765,-844 765,-808 895,-808 895,-844"/>
<text text-anchor="middle" x="830" y="-823.1" font-family="Courier,monospace" font-size="11.00">TaskServerOldTask</text>
</g>
<!-- \\TaskServerOldTask&#45;&gt;\\TaskServerTask -->
<g id="edge47" class="edge"><title>\\TaskServerOldTask&#45;&gt;\\TaskServerTask</title>
<path fill="none" stroke="black" d="M764.251,-826C695.82,-826 589.27,-826 520.815,-826"/>
<polygon fill="none" stroke="black" points="520.584,-822.5 510.584,-826 520.584,-829.5 520.584,-822.5"/>
</g>
<!-- \\TaskShell -->
<g id="node25" class="node"><title>\\TaskShell</title>
<polygon fill="none" stroke="black" points="868,-574 792,-574 792,-538 868,-538 868,-574"/>
<text text-anchor="middle" x="830" y="-553.1" font-family="Courier,monospace" font-size="11.00">TaskShell</text>
</g>
<!-- \\AdvancedShell -->
<g id="node62" class="node"><title>\\AdvancedShell</title>
<ellipse fill="none" stroke="black" cx="455" cy="-234" rx="85.7684" ry="18.3848"/>
<text text-anchor="middle" x="455" y="-230.4" font-family="Times Roman,serif" font-size="14.00" fill="gray">\AdvancedShell</text>
</g>
<!-- \\TaskShell&#45;&gt;\\AdvancedShell -->
<g id="edge49" class="edge"><title>\\TaskShell&#45;&gt;\\AdvancedShell</title>
<path fill="none" stroke="black" d="M791.498,-555.503C769.008,-553.176 741.665,-546.516 724,-529 634.897,-440.646 746.991,-337.991 652,-256 620.605,-228.902 575.113,-222.441 535.754,-223.193"/>
<polygon fill="none" stroke="black" points="535.5,-219.699 525.628,-223.544 535.743,-226.695 535.5,-219.699"/>
</g>
<!-- \\TaskHelper -->
<g id="node26" class="node"><title>\\TaskHelper</title>
<polygon fill="none" stroke="black" points="872,-520 788,-520 788,-484 872,-484 872,-520"/>
<text text-anchor="middle" x="830" y="-499.1" font-family="Courier,monospace" font-size="11.00">TaskHelper</text>
</g>
<!-- \\AppHelper -->
<g id="node64" class="node"><title>\\AppHelper</title>
<ellipse fill="none" stroke="black" cx="455" cy="-180" rx="65.0538" ry="18.3848"/>
<text text-anchor="middle" x="455" y="-176.4" font-family="Times Roman,serif" font-size="14.00" fill="gray">\AppHelper</text>
</g>
<!-- \\TaskHelper&#45;&gt;\\AppHelper -->
<g id="edge51" class="edge"><title>\\TaskHelper&#45;&gt;\\AppHelper</title>
<path fill="none" stroke="black" d="M787.884,-501.061C766.153,-498.394 740.759,-491.542 724,-475 636.222,-388.36 744.539,-288.535 652,-207 617.543,-176.64 565.7,-170.542 523.844,-171.689"/>
<polygon fill="none" stroke="black" points="523.556,-168.198 513.71,-172.111 523.847,-175.192 523.556,-168.198"/>
</g>
<!-- \\TaskType -->
<g id="node27" class="node"><title>\\TaskType</title>
<polygon fill="none" stroke="black" points="872,-466 788,-466 788,-430 872,-430 872,-466"/>
<text text-anchor="start" x="796" y="-453.433" font-family="Courier,monospace" font-size="11.00">«abstract»</text>
<text text-anchor="start" x="802.5" y="-440.233" font-family="Courier,monospace" font-size="11.00">TaskType</text>
</g>
<!-- \\TaskProcess -->
<g id="node28" class="node"><title>\\TaskProcess</title>
<polygon fill="none" stroke="black" points="875,-412 785,-412 785,-376 875,-376 875,-412"/>
<text text-anchor="middle" x="830" y="-391.1" font-family="Courier,monospace" font-size="11.00">TaskProcess</text>
</g>
<!-- \\Symfony\\Component\\Process\\Process -->
<g id="node66" class="node"><title>\\Symfony\\Component\\Process\\Process</title>
<ellipse fill="none" stroke="black" cx="455" cy="-126" rx="196.075" ry="18.3848"/>
<text text-anchor="middle" x="455" y="-122.4" font-family="Times Roman,serif" font-size="14.00" fill="gray">\Symfony\Component\Process\Process</text>
</g>
<!-- \\TaskProcess&#45;&gt;\\Symfony\\Component\\Process\\Process -->
<g id="edge53" class="edge"><title>\\TaskProcess&#45;&gt;\\Symfony\\Component\\Process\\Process</title>
<path fill="none" stroke="black" d="M784.326,-392.088C763.63,-388.989 740.22,-382.045 724,-367 650.427,-298.757 729.316,-216.971 652,-153 646.057,-148.083 639.651,-143.818 632.908,-140.13"/>
<polygon fill="none" stroke="black" points="634.026,-136.777 623.515,-135.451 630.905,-143.043 634.026,-136.777"/>
</g>
<!-- \\TaskRunner -->
<g id="node29" class="node"><title>\\TaskRunner</title>
<polygon fill="none" stroke="black" points="872,-358 788,-358 788,-322 872,-322 872,-358"/>
<text text-anchor="middle" x="830" y="-337.1" font-family="Courier,monospace" font-size="11.00">TaskRunner</text>
</g>
<!-- \\Object -->
<g id="node68" class="node"><title>\\Object</title>
<ellipse fill="none" stroke="black" cx="455" cy="-72" rx="45.9619" ry="18.3848"/>
<text text-anchor="middle" x="455" y="-68.4" font-family="Times Roman,serif" font-size="14.00" fill="gray">\Object</text>
</g>
<!-- \\TaskRunner&#45;&gt;\\Object -->
<g id="edge55" class="edge"><title>\\TaskRunner&#45;&gt;\\Object</title>
<path fill="none" stroke="black" d="M787.763,-338.572C766.265,-335.738 741.125,-328.885 724,-313 650.427,-244.757 729.316,-162.971 652,-99 612.356,-66.199 552.095,-62.4407 508.663,-65.0252"/>
<polygon fill="none" stroke="black" points="508.282,-61.5436 498.561,-65.7575 508.788,-68.5253 508.282,-61.5436"/>
</g>
<!-- \\TaskController -->
<g id="node30" class="node"><title>\\TaskController</title>
<polygon fill="none" stroke="black" points="885,-304 775,-304 775,-268 885,-268 885,-304"/>
<text text-anchor="middle" x="830" y="-283.1" font-family="Courier,monospace" font-size="11.00">TaskController</text>
</g>
<!-- \\AppController -->
<g id="node70" class="node"><title>\\AppController</title>
<ellipse fill="none" stroke="black" cx="455" cy="-18" rx="82.0244" ry="18.3848"/>
<text text-anchor="middle" x="455" y="-14.4" font-family="Times Roman,serif" font-size="14.00" fill="gray">\AppController</text>
</g>
<!-- \\TaskController&#45;&gt;\\AppController -->
<g id="edge57" class="edge"><title>\\TaskController&#45;&gt;\\AppController</title>
<path fill="none" stroke="black" d="M822.685,-267.932C802.97,-221.813 743.932,-99.5365 652,-45 620.519,-26.3245 581.32,-18.4876 546.197,-15.7145"/>
<polygon fill="none" stroke="black" points="546.135,-12.2029 535.926,-15.0358 545.674,-19.1876 546.135,-12.2029"/>
</g>
</g>
</svg>
