<?xml version="1.0" encoding="UTF-8" standalone="no"?>
<!DOCTYPE svg PUBLIC "-//W3C//DTD SVG 1.1//EN"
 "http://www.w3.org/Graphics/SVG/1.1/DTD/svg11.dtd">
<!-- Generated by graphviz version 2.26.3 (20100126.1600)
 -->
<!-- Title: G Pages: 1 -->
<svg width="960pt" height="2033pt"
 viewBox="0.00 0.00 960.00 2033.05" xmlns="http://www.w3.org/2000/svg" xmlns:xlink="http://www.w3.org/1999/xlink">
<g id="graph1" class="graph" transform="scale(1 1) rotate(0) translate(4 2029.05)">
<title>G</title>
<polygon fill="white" stroke="white" points="-4,5 -4,-2029.05 957,-2029.05 957,5 -4,5"/>
<g id="graph2" class="cluster"><title>cluster_Global</title>
<polyline fill="none" stroke="gray" points="413,-298 932,-298 "/>
<path fill="none" stroke="gray" d="M932,-298C938,-298 944,-304 944,-310"/>
<polyline fill="none" stroke="gray" points="944,-310 944,-1710 "/>
<path fill="none" stroke="gray" d="M944,-1710C944,-1716 938,-1722 932,-1722"/>
<polyline fill="none" stroke="gray" points="932,-1722 413,-1722 "/>
<path fill="none" stroke="gray" d="M413,-1722C407,-1722 401,-1716 401,-1710"/>
<polyline fill="none" stroke="gray" points="401,-1710 401,-310 "/>
<path fill="none" stroke="gray" d="M401,-310C401,-304 407,-298 413,-298"/>
<text text-anchor="middle" x="672.5" y="-1708.1" font-family="Times Roman,serif" font-size="11.00" fill="gray">Global</text>
</g>
<!-- \\TaskServerTask -->
<g id="node2" class="node"><title>\\TaskServerTask</title>
<polygon fill="none" stroke="black" points="885,-1638 775,-1638 775,-1602 885,-1602 885,-1638"/>
<text text-anchor="middle" x="830" y="-1617.1" font-family="Courier,monospace" font-size="11.00">TaskServerTask</text>
</g>
<!-- \\AdvancedTask -->
<g id="node31" class="node"><title>\\AdvancedTask</title>
<ellipse fill="none" stroke="black" cx="455" cy="-1964" rx="82.939" ry="18.3848"/>
<text text-anchor="middle" x="455" y="-1960.4" font-family="Times Roman,serif" font-size="14.00" fill="gray">\AdvancedTask</text>
</g>
<!-- \\TaskServerTask&#45;&gt;\\AdvancedTask -->
<g id="edge3" class="edge"><title>\\TaskServerTask&#45;&gt;\\AdvancedTask</title>
<path fill="none" stroke="black" d="M774.251,-1622.96C756.109,-1626.61 737.254,-1633.67 724,-1647 630.38,-1741.19 750.799,-1848.26 652,-1937 621.706,-1964.21 577.503,-1972.08 538.641,-1972.65"/>
<polygon fill="none" stroke="black" points="538.369,-1969.15 528.365,-1972.64 538.36,-1976.15 538.369,-1969.15"/>
</g>
<!-- \\TaskShell -->
<g id="node3" class="node"><title>\\TaskShell</title>
<polygon fill="none" stroke="black" points="868,-1584 792,-1584 792,-1548 868,-1548 868,-1584"/>
<text text-anchor="middle" x="830" y="-1563.1" font-family="Courier,monospace" font-size="11.00">TaskShell</text>
</g>
<!-- \\AdvancedShell -->
<g id="node33" class="node"><title>\\AdvancedShell</title>
<ellipse fill="none" stroke="black" cx="455" cy="-1910" rx="85.7684" ry="18.3848"/>
<text text-anchor="middle" x="455" y="-1906.4" font-family="Times Roman,serif" font-size="14.00" fill="gray">\AdvancedShell</text>
</g>
<!-- \\TaskShell&#45;&gt;\\AdvancedShell -->
<g id="edge5" class="edge"><title>\\TaskShell&#45;&gt;\\AdvancedShell</title>
<path fill="none" stroke="black" d="M791.407,-1566.41C768.883,-1568.7 741.538,-1575.36 724,-1593 630.38,-1687.19 750.799,-1794.26 652,-1883 622.413,-1909.58 579.559,-1917.7 541.371,-1918.6"/>
<polygon fill="none" stroke="black" points="541.232,-1915.1 531.258,-1918.67 541.284,-1922.1 541.232,-1915.1"/>
</g>
<!-- \\TaskProcess -->
<g id="node4" class="node"><title>\\TaskProcess</title>
<polygon fill="none" stroke="black" points="875,-1476 785,-1476 785,-1440 875,-1440 875,-1476"/>
<text text-anchor="middle" x="830" y="-1455.1" font-family="Courier,monospace" font-size="11.00">TaskProcess</text>
</g>
<!-- \\Symfony\\Component\\Process\\Process -->
<g id="node35" class="node"><title>\\Symfony\\Component\\Process\\Process</title>
<ellipse fill="none" stroke="black" cx="455" cy="-1856" rx="196.075" ry="18.3848"/>
<text text-anchor="middle" x="455" y="-1852.4" font-family="Times Roman,serif" font-size="14.00" fill="gray">\Symfony\Component\Process\Process</text>
</g>
<!-- \\TaskProcess&#45;&gt;\\Symfony\\Component\\Process\\Process -->
<g id="edge7" class="edge"><title>\\TaskProcess&#45;&gt;\\Symfony\\Component\\Process\\Process</title>
<path fill="none" stroke="black" d="M784.314,-1458.97C763.232,-1461.82 739.5,-1468.82 724,-1485 615.954,-1597.81 766.255,-1722.49 652,-1829 646.741,-1833.9 641.033,-1838.19 634.985,-1841.92"/>
<polygon fill="none" stroke="black" points="632.914,-1839.07 625.893,-1847 636.33,-1845.18 632.914,-1839.07"/>
</g>
<!-- \\TaskType -->
<g id="node5" class="node"><title>\\TaskType</title>
<polygon fill="none" stroke="black" points="872,-1530 788,-1530 788,-1494 872,-1494 872,-1530"/>
<text text-anchor="start" x="796" y="-1517.43" font-family="Courier,monospace" font-size="11.00">«abstract»</text>
<text text-anchor="start" x="802.5" y="-1504.23" font-family="Courier,monospace" font-size="11.00">TaskType</text>
</g>
<!-- \\TaskRunner -->
<g id="node6" class="node"><title>\\TaskRunner</title>
<polygon fill="none" stroke="black" points="872,-1422 788,-1422 788,-1386 872,-1386 872,-1422"/>
<text text-anchor="middle" x="830" y="-1401.1" font-family="Courier,monospace" font-size="11.00">TaskRunner</text>
</g>
<!-- \\Object -->
<g id="node37" class="node"><title>\\Object</title>
<ellipse fill="none" stroke="black" cx="455" cy="-1802" rx="45.9619" ry="18.3848"/>
<text text-anchor="middle" x="455" y="-1798.4" font-family="Times Roman,serif" font-size="14.00" fill="gray">\Object</text>
</g>
<!-- \\TaskRunner&#45;&gt;\\Object -->
<g id="edge9" class="edge"><title>\\TaskRunner&#45;&gt;\\Object</title>
<path fill="none" stroke="black" d="M787.772,-1404.54C765.872,-1407.07 740.354,-1413.93 724,-1431 615.954,-1543.81 766.255,-1668.49 652,-1775 613.699,-1810.71 551.623,-1813.58 507.394,-1809.99"/>
<polygon fill="none" stroke="black" points="507.688,-1806.5 497.403,-1809.05 507.029,-1813.47 507.688,-1806.5"/>
</g>
<!-- \\TaskController -->
<g id="node7" class="node"><title>\\TaskController</title>
<polygon fill="none" stroke="black" points="885,-1368 775,-1368 775,-1332 885,-1332 885,-1368"/>
<text text-anchor="middle" x="830" y="-1347.1" font-family="Courier,monospace" font-size="11.00">TaskController</text>
</g>
<!-- \\AppController -->
<g id="node39" class="node"><title>\\AppController</title>
<ellipse fill="none" stroke="black" cx="455" cy="-1748" rx="82.0244" ry="18.3848"/>
<text text-anchor="middle" x="455" y="-1744.4" font-family="Times Roman,serif" font-size="14.00" fill="gray">\AppController</text>
</g>
<!-- \\TaskController&#45;&gt;\\AppController -->
<g id="edge11" class="edge"><title>\\TaskController&#45;&gt;\\AppController</title>
<path fill="none" stroke="black" d="M774.498,-1352.56C756.16,-1356.14 737.116,-1363.27 724,-1377 614.613,-1491.53 769.034,-1619.29 652,-1726 619.999,-1755.18 571.86,-1760.99 531.179,-1759.35"/>
<polygon fill="none" stroke="black" points="531.191,-1755.85 521.011,-1758.78 530.801,-1762.83 531.191,-1755.85"/>
</g>
<!-- \\TaskClient -->
<g id="node8" class="node"><title>\\TaskClient</title>
<polygon fill="none" stroke="black" points="872,-1314 788,-1314 788,-1278 872,-1278 872,-1314"/>
<text text-anchor="middle" x="830" y="-1293.1" font-family="Courier,monospace" font-size="11.00">TaskClient</text>
</g>
<!-- \\TaskModel -->
<g id="node11" class="node"><title>\\TaskModel</title>
<polygon fill="none" stroke="black" points="493,-1314 417,-1314 417,-1278 493,-1278 493,-1314"/>
<text text-anchor="middle" x="455" y="-1293.1" font-family="Courier,monospace" font-size="11.00">TaskModel</text>
</g>
<!-- \\TaskClient&#45;&gt;\\TaskModel -->
<g id="edge13" class="edge"><title>\\TaskClient&#45;&gt;\\TaskModel</title>
<path fill="none" stroke="black" d="M787.712,-1296C717.645,-1296 577.87,-1296 503.756,-1296"/>
<polygon fill="none" stroke="black" points="503.748,-1292.5 493.748,-1296 503.748,-1299.5 503.748,-1292.5"/>
</g>
<!-- \\TaskServer -->
<g id="node9" class="node"><title>\\TaskServer</title>
<polygon fill="none" stroke="black" points="872,-1260 788,-1260 788,-1224 872,-1224 872,-1260"/>
<text text-anchor="middle" x="830" y="-1239.1" font-family="Courier,monospace" font-size="11.00">TaskServer</text>
</g>
<!-- \\TaskServer&#45;&gt;\\TaskModel -->
<g id="edge15" class="edge"><title>\\TaskServer&#45;&gt;\\TaskModel</title>
<path fill="none" stroke="black" d="M787.712,-1248.09C717.645,-1258.18 577.87,-1278.31 503.756,-1288.98"/>
<polygon fill="none" stroke="black" points="503.147,-1285.53 493.748,-1290.42 504.145,-1292.46 503.147,-1285.53"/>
</g>
<!-- \\TaskStatistics -->
<g id="node10" class="node"><title>\\TaskStatistics</title>
<polygon fill="none" stroke="black" points="885,-1692 775,-1692 775,-1656 885,-1656 885,-1692"/>
<text text-anchor="middle" x="830" y="-1671.1" font-family="Courier,monospace" font-size="11.00">TaskStatistics</text>
</g>
<!-- \\AppModel -->
<g id="node43" class="node"><title>\\AppModel</title>
<ellipse fill="none" stroke="black" cx="93" cy="-1653" rx="62.2254" ry="18.3848"/>
<text text-anchor="middle" x="93" y="-1649.4" font-family="Times Roman,serif" font-size="14.00" fill="gray">\AppModel</text>
</g>
<!-- \\TaskStatistics&#45;&gt;\\AppModel -->
<g id="edge17" class="edge"><title>\\TaskStatistics&#45;&gt;\\AppModel</title>
<path fill="none" stroke="black" d="M826.441,-1692.08C814.202,-1748.73 768.024,-1923.09 652,-1991 576.438,-2035.23 332.259,-2037.38 258,-1991 145.499,-1920.73 107.647,-1749.16 96.8105,-1681.3"/>
<polygon fill="none" stroke="black" points="100.258,-1680.69 95.296,-1671.33 93.3376,-1681.74 100.258,-1680.69"/>
</g>
<!-- \\TaskModel&#45;&gt;\\AppModel -->
<g id="edge19" class="edge"><title>\\TaskModel&#45;&gt;\\AppModel</title>
<path fill="none" stroke="black" d="M416.41,-1290.07C373.706,-1285.67 304.753,-1285.17 258,-1318 150.695,-1393.35 109.955,-1558.72 97.5767,-1624.85"/>
<polygon fill="none" stroke="black" points="94.0875,-1624.48 95.7665,-1634.94 100.978,-1625.72 94.0875,-1624.48"/>
</g>
<!-- \\TaskProfiler -->
<g id="node12" class="node"><title>\\TaskProfiler</title>
<polygon fill="none" stroke="black" points="879,-1206 781,-1206 781,-1170 879,-1170 879,-1206"/>
<text text-anchor="middle" x="830" y="-1185.1" font-family="Courier,monospace" font-size="11.00">TaskProfiler</text>
</g>
<!-- \\TaskHelper -->
<g id="node13" class="node"><title>\\TaskHelper</title>
<polygon fill="none" stroke="black" points="872,-1098 788,-1098 788,-1062 872,-1062 872,-1098"/>
<text text-anchor="middle" x="830" y="-1077.1" font-family="Courier,monospace" font-size="11.00">TaskHelper</text>
</g>
<!-- \\AppHelper -->
<g id="node46" class="node"><title>\\AppHelper</title>
<ellipse fill="none" stroke="black" cx="455" cy="-272" rx="65.0538" ry="18.3848"/>
<text text-anchor="middle" x="455" y="-268.4" font-family="Times Roman,serif" font-size="14.00" fill="gray">\AppHelper</text>
</g>
<!-- \\TaskHelper&#45;&gt;\\AppHelper -->
<g id="edge21" class="edge"><title>\\TaskHelper&#45;&gt;\\AppHelper</title>
<path fill="none" stroke="black" d="M787.796,-1080.25C765.482,-1078 739.56,-1071.18 724,-1053 613.823,-924.293 770.8,-414.793 652,-294 617.971,-259.4 561.656,-256.243 517.933,-260.387"/>
<polygon fill="none" stroke="black" points="517.521,-256.911 507.961,-261.477 518.282,-263.87 517.521,-256.911"/>
</g>
<!-- \\TaskStatisticsFixture -->
<g id="node14" class="node"><title>\\TaskStatisticsFixture</title>
<polygon fill="none" stroke="black" points="909,-1044 751,-1044 751,-1008 909,-1008 909,-1044"/>
<text text-anchor="middle" x="830" y="-1023.1" font-family="Courier,monospace" font-size="11.00">TaskStatisticsFixture</text>
</g>
<!-- \\CakeTestFixture -->
<g id="node48" class="node"><title>\\CakeTestFixture</title>
<ellipse fill="none" stroke="black" cx="93" cy="-478" rx="92.1303" ry="18.3848"/>
<text text-anchor="middle" x="93" y="-474.4" font-family="Times Roman,serif" font-size="14.00" fill="gray">\CakeTestFixture</text>
</g>
<!-- \\TaskStatisticsFixture&#45;&gt;\\CakeTestFixture -->
<g id="edge23" class="edge"><title>\\TaskStatisticsFixture&#45;&gt;\\CakeTestFixture</title>
<path fill="none" stroke="black" d="M750.98,-1017.65C740.686,-1013.43 731.227,-1007.44 724,-999 614.503,-871.167 770.962,-364.075 652,-245 589.831,-182.772 540.106,-248.23 455,-226"/>
</g>
<!-- \\TaskFixture -->
<g id="node15" class="node"><title>\\TaskFixture</title>
<polygon fill="none" stroke="black" points="500,-748 410,-748 410,-712 500,-712 500,-748"/>
<text text-anchor="middle" x="455" y="-727.1" font-family="Courier,monospace" font-size="11.00">TaskFixture</text>
</g>
<!-- \\TaskFixture&#45;&gt;\\CakeTestFixture -->
<g id="edge25" class="edge"><title>\\TaskFixture&#45;&gt;\\CakeTestFixture</title>
<path fill="none" stroke="black" d="M409.104,-734.995C366.941,-737.353 304.176,-735.046 258,-708 176.872,-660.482 124.849,-555.529 103.74,-505.528"/>
<polygon fill="none" stroke="black" points="106.865,-503.924 99.8177,-496.013 100.393,-506.592 106.865,-503.924"/>
</g>
<!-- \\TaskProfilerFixture -->
<g id="node16" class="node"><title>\\TaskProfilerFixture</title>
<polygon fill="none" stroke="black" points="902,-1152 758,-1152 758,-1116 902,-1116 902,-1152"/>
<text text-anchor="middle" x="830" y="-1131.1" font-family="Courier,monospace" font-size="11.00">TaskProfilerFixture</text>
</g>
<!-- \\TaskProfilerFixture&#45;&gt;\\TaskFixture -->
<g id="edge27" class="edge"><title>\\TaskProfilerFixture&#45;&gt;\\TaskFixture</title>
<path fill="none" stroke="black" d="M757.487,-1122.8C745.669,-1118.98 734.029,-1113.86 724,-1107 588.034,-1013.93 497.378,-828.295 466.615,-757.921"/>
<polygon fill="none" stroke="black" points="469.684,-756.198 462.512,-748.399 463.255,-758.968 469.684,-756.198"/>
</g>
<!-- \\DependentTaskFixture -->
<g id="node17" class="node"><title>\\DependentTaskFixture</title>
<polygon fill="none" stroke="black" points="906,-990 754,-990 754,-954 906,-954 906,-990"/>
<text text-anchor="middle" x="830" y="-969.1" font-family="Courier,monospace" font-size="11.00">DependentTaskFixture</text>
</g>
<!-- \\DependentTaskFixture&#45;&gt;\\CakeTestFixture -->
<g id="edge29" class="edge"><title>\\DependentTaskFixture&#45;&gt;\\CakeTestFixture</title>
<path fill="none" stroke="black" d="M753.962,-964.747C742.535,-960.49 731.94,-954.202 724,-945 621.839,-826.608 762.925,-355.223 652,-245 589.605,-182.999 540.106,-248.23 455,-226"/>
<path fill="none" stroke="black" d="M455,-226C369.894,-203.77 334.099,-200.883 258,-245 175.586,-292.778 123.92,-400.138 103.283,-450.692"/>
<polygon fill="none" stroke="black" points="100.02,-449.425 99.5697,-460.01 106.523,-452.016 100.02,-449.425"/>
</g>
<!-- \\TaskShellTest -->
<g id="node18" class="node"><title>\\TaskShellTest</title>
<polygon fill="none" stroke="black" points="882,-504 778,-504 778,-468 882,-468 882,-504"/>
<text text-anchor="middle" x="830" y="-483.1" font-family="Courier,monospace" font-size="11.00">TaskShellTest</text>
</g>
<!-- \\CakeTestCase -->
<g id="node53" class="node"><title>\\CakeTestCase</title>
<ellipse fill="none" stroke="black" cx="455" cy="-180" rx="82.0244" ry="18.3848"/>
<text text-anchor="middle" x="455" y="-176.4" font-family="Times Roman,serif" font-size="14.00" fill="gray">\CakeTestCase</text>
</g>
<!-- \\TaskShellTest&#45;&gt;\\CakeTestCase -->
<g id="edge31" class="edge"><title>\\TaskShellTest&#45;&gt;\\CakeTestCase</title>
<path fill="none" stroke="black" d="M777.835,-483.363C758.748,-479.888 738.339,-472.856 724,-459 641.773,-379.54 737.657,-287.75 652,-212 622.455,-185.872 580.235,-176.653 542.454,-174.471"/>
<polygon fill="none" stroke="black" points="542.583,-170.973 532.444,-174.048 542.287,-177.967 542.583,-170.973"/>
</g>
<!-- \\TaskServerTaskTest -->
<g id="node19" class="node"><title>\\TaskServerTaskTest</title>
<polygon fill="none" stroke="black" points="899,-936 761,-936 761,-900 899,-900 899,-936"/>
<text text-anchor="middle" x="830" y="-915.1" font-family="Courier,monospace" font-size="11.00">TaskServerTaskTest</text>
</g>
<!-- \\TaskServerTaskTest&#45;&gt;\\CakeTestCase -->
<g id="edge33" class="edge"><title>\\TaskServerTaskTest&#45;&gt;\\CakeTestCase</title>
<path fill="none" stroke="black" d="M760.764,-912.993C746.799,-908.814 733.508,-901.984 724,-891 525.381,-661.557 860.561,-432.445 652,-212 623.352,-181.719 578.123,-172.832 538.225,-171.918"/>
<polygon fill="none" stroke="black" points="538.233,-168.418 528.209,-171.849 538.185,-175.418 538.233,-168.418"/>
</g>
<!-- \\TaskServerTaskTestEventModel1 -->
<g id="node20" class="node"><title>\\TaskServerTaskTestEventModel1</title>
<polygon fill="none" stroke="black" points="936,-450 724,-450 724,-414 936,-414 936,-450"/>
<text text-anchor="middle" x="830" y="-429.1" font-family="Courier,monospace" font-size="11.00">TaskServerTaskTestEventModel1</text>
</g>
<!-- \\CakeEventListener -->
<g id="node56" class="node"><title>\\CakeEventListener</title>
<ellipse fill="none" stroke="black" cx="455" cy="-126" rx="106.98" ry="18.3848"/>
<text text-anchor="middle" x="455" y="-122.4" font-family="Times Roman,serif" font-size="14.00" fill="gray">\CakeEventListener</text>
</g>
<!-- \\TaskServerTaskTestEventModel1&#45;&gt;\\CakeEventListener -->
<g id="edge35" class="edge"><title>\\TaskServerTaskTestEventModel1&#45;&gt;\\CakeEventListener</title>
<path fill="none" stroke="black" stroke-dasharray="1,5" d="M735.153,-413.803C731.156,-411.228 727.405,-408.308 724,-405 640.454,-323.833 740.004,-229.31 652,-153 627.583,-131.828 594.679,-122.53 562.761,-119.253"/>
<polygon fill="none" stroke="black" points="562.7,-115.736 552.444,-118.393 562.119,-122.712 562.7,-115.736"/>
</g>
<!-- \\TaskProcessTest -->
<g id="node21" class="node"><title>\\TaskProcessTest</title>
<polygon fill="none" stroke="black" points="889,-882 771,-882 771,-846 889,-846 889,-882"/>
<text text-anchor="middle" x="830" y="-861.1" font-family="Courier,monospace" font-size="11.00">TaskProcessTest</text>
</g>
<!-- \\TaskProcessTest&#45;&gt;\\CakeTestCase -->
<g id="edge37" class="edge"><title>\\TaskProcessTest&#45;&gt;\\CakeTestCase</title>
<path fill="none" stroke="black" d="M770.765,-861.457C753.341,-857.731 735.807,-850.515 724,-837 540.039,-626.423 845.084,-414.245 652,-212 623.386,-182.028 578.515,-173.076 538.821,-172.045"/>
<polygon fill="none" stroke="black" points="538.619,-168.543 528.586,-171.947 538.552,-175.543 538.619,-168.543"/>
</g>
<!-- \\TaskTypeTest -->
<g id="node22" class="node"><title>\\TaskTypeTest</title>
<polygon fill="none" stroke="black" points="879,-828 781,-828 781,-792 879,-792 879,-828"/>
<text text-anchor="middle" x="830" y="-807.1" font-family="Courier,monospace" font-size="11.00">TaskTypeTest</text>
</g>
<!-- \\TaskTypeTest&#45;&gt;\\CakeTestCase -->
<g id="edge39" class="edge"><title>\\TaskTypeTest&#45;&gt;\\CakeTestCase</title>
<path fill="none" stroke="black" d="M780.751,-809.155C760.325,-806.167 738.142,-799.014 724,-783 554.683,-591.274 829.621,-396.059 652,-212 623.336,-182.297 578.689,-173.309 539.142,-172.189"/>
<polygon fill="none" stroke="black" points="538.985,-168.687 528.944,-172.067 538.901,-175.686 538.985,-168.687"/>
</g>
<!-- \\TaskRunnerTest -->
<g id="node23" class="node"><title>\\TaskRunnerTest</title>
<polygon fill="none" stroke="black" points="885,-774 775,-774 775,-738 885,-738 885,-774"/>
<text text-anchor="middle" x="830" y="-753.1" font-family="Courier,monospace" font-size="11.00">TaskRunnerTest</text>
</g>
<!-- \\TaskRunnerTest&#45;&gt;\\CakeTestCase -->
<g id="edge41" class="edge"><title>\\TaskRunnerTest&#45;&gt;\\CakeTestCase</title>
<path fill="none" stroke="black" d="M774.269,-753.96C755.796,-750.44 736.726,-743.223 724,-729 569.31,-556.104 814.177,-377.893 652,-212 623.256,-182.597 578.829,-173.578 539.435,-172.362"/>
<polygon fill="none" stroke="black" points="539.326,-168.86 529.276,-172.214 539.224,-175.86 539.326,-168.86"/>
</g>
<!-- \\TaskControllerTest -->
<g id="node24" class="node"><title>\\TaskControllerTest</title>
<polygon fill="none" stroke="black" points="899,-396 761,-396 761,-360 899,-360 899,-396"/>
<text text-anchor="middle" x="830" y="-375.1" font-family="Courier,monospace" font-size="11.00">TaskControllerTest</text>
</g>
<!-- \\ControllerTestCase -->
<g id="node61" class="node"><title>\\ControllerTestCase</title>
<ellipse fill="none" stroke="black" cx="455" cy="-72" rx="106.773" ry="18.3848"/>
<text text-anchor="middle" x="455" y="-68.4" font-family="Times Roman,serif" font-size="14.00" fill="gray">\ControllerTestCase</text>
</g>
<!-- \\TaskControllerTest&#45;&gt;\\ControllerTestCase -->
<g id="edge43" class="edge"><title>\\TaskControllerTest&#45;&gt;\\ControllerTestCase</title>
<path fill="none" stroke="black" d="M760.734,-371.312C747.189,-367.18 734.079,-360.792 724,-351 640.454,-269.833 740.004,-175.31 652,-99 627.465,-77.7255 594.362,-68.4403 562.299,-65.2059"/>
<polygon fill="none" stroke="black" points="562.19,-61.6854 551.938,-64.3608 561.62,-68.6622 562.19,-61.6854"/>
</g>
<!-- \\AllTaskTest -->
<g id="node25" class="node"><title>\\AllTaskTest</title>
<polygon fill="none" stroke="black" points="875,-342 785,-342 785,-306 875,-306 875,-342"/>
<text text-anchor="middle" x="830" y="-321.1" font-family="Courier,monospace" font-size="11.00">AllTaskTest</text>
</g>
<!-- \\PHPUnit_Framework_TestSuite -->
<g id="node63" class="node"><title>\\PHPUnit_Framework_TestSuite</title>
<ellipse fill="none" stroke="black" cx="455" cy="-18" rx="166.877" ry="18.3848"/>
<text text-anchor="middle" x="455" y="-14.4" font-family="Times Roman,serif" font-size="14.00" fill="gray">\PHPUnit_Framework_TestSuite</text>
</g>
<!-- \\AllTaskTest&#45;&gt;\\PHPUnit_Framework_TestSuite -->
<g id="edge45" class="edge"><title>\\AllTaskTest&#45;&gt;\\PHPUnit_Framework_TestSuite</title>
<path fill="none" stroke="black" d="M824.43,-305.789C807.773,-254.736 753.126,-109.756 652,-45 641.391,-38.2063 629.803,-32.8009 617.731,-28.526"/>
<polygon fill="none" stroke="black" points="618.547,-25.1108 607.955,-25.335 616.375,-31.7653 618.547,-25.1108"/>
</g>
<!-- \\TaskServerTest -->
<g id="node26" class="node"><title>\\TaskServerTest</title>
<polygon fill="none" stroke="black" points="885,-720 775,-720 775,-684 885,-684 885,-720"/>
<text text-anchor="middle" x="830" y="-699.1" font-family="Courier,monospace" font-size="11.00">TaskServerTest</text>
</g>
<!-- \\TaskServerTest&#45;&gt;\\CakeTestCase -->
<g id="edge47" class="edge"><title>\\TaskServerTest&#45;&gt;\\CakeTestCase</title>
<path fill="none" stroke="black" d="M774.393,-699.848C755.933,-696.317 736.838,-689.122 724,-675 583.913,-520.908 798.757,-359.752 652,-212 623.135,-182.94 578.923,-173.894 539.692,-172.575"/>
<polygon fill="none" stroke="black" points="539.633,-169.074 529.573,-172.398 539.511,-176.073 539.633,-169.074"/>
</g>
<!-- \\TaskClientTest -->
<g id="node27" class="node"><title>\\TaskClientTest</title>
<polygon fill="none" stroke="black" points="885,-666 775,-666 775,-630 885,-630 885,-666"/>
<text text-anchor="middle" x="830" y="-645.1" font-family="Courier,monospace" font-size="11.00">TaskClientTest</text>
</g>
<!-- \\TaskClientTest&#45;&gt;\\CakeTestCase -->
<g id="edge49" class="edge"><title>\\TaskClientTest&#45;&gt;\\CakeTestCase</title>
<path fill="none" stroke="black" d="M774.273,-645.652C755.914,-642.089 736.914,-634.923 724,-621 598.483,-485.676 783.373,-341.647 652,-212 623.022,-183.402 579.143,-174.315 540.147,-172.853"/>
<polygon fill="none" stroke="black" points="539.896,-169.347 529.824,-172.635 539.748,-176.345 539.896,-169.347"/>
</g>
<!-- \\TaskProfilerTest -->
<g id="node28" class="node"><title>\\TaskProfilerTest</title>
<polygon fill="none" stroke="black" points="892,-612 768,-612 768,-576 892,-576 892,-612"/>
<text text-anchor="middle" x="830" y="-591.1" font-family="Courier,monospace" font-size="11.00">TaskProfilerTest</text>
</g>
<!-- \\TaskProfilerTest&#45;&gt;\\CakeTestCase -->
<g id="edge51" class="edge"><title>\\TaskProfilerTest&#45;&gt;\\CakeTestCase</title>
<path fill="none" stroke="black" d="M767.299,-589.881C751.282,-585.919 735.391,-578.967 724,-567 613.004,-450.391 768.039,-323.592 652,-212 622.884,-184 579.431,-174.866 540.738,-173.221"/>
<polygon fill="none" stroke="black" points="540.581,-169.716 530.492,-172.952 540.397,-176.714 540.581,-169.716"/>
</g>
<!-- \\TaskHelperTest -->
<g id="node29" class="node"><title>\\TaskHelperTest</title>
<polygon fill="none" stroke="black" points="885,-558 775,-558 775,-522 885,-522 885,-558"/>
<text text-anchor="middle" x="830" y="-537.1" font-family="Courier,monospace" font-size="11.00">TaskHelperTest</text>
</g>
<!-- \\TaskHelperTest&#45;&gt;\\CakeTestCase -->
<g id="edge53" class="edge"><title>\\TaskHelperTest&#45;&gt;\\CakeTestCase</title>
<path fill="none" stroke="black" d="M774.461,-537.155C756.229,-533.534 737.263,-526.458 724,-513 627.45,-415.028 752.784,-305.611 652,-212 622.752,-184.834 579.932,-175.637 541.679,-173.739"/>
<polygon fill="none" stroke="black" points="541.659,-170.237 531.547,-173.398 541.423,-177.233 541.659,-170.237"/>
</g>
</g>
</svg>
