<?xml version="1.0" encoding="UTF-8" standalone="no"?>
<!DOCTYPE svg PUBLIC "-//W3C//DTD SVG 1.1//EN"
 "http://www.w3.org/Graphics/SVG/1.1/DTD/svg11.dtd">
<!-- Generated by graphviz version 2.26.3 (20100126.1600)
 -->
<!-- Title: G Pages: 1 -->
<svg width="960pt" height="1977pt"
 viewBox="0.00 0.00 960.00 1976.85" xmlns="http://www.w3.org/2000/svg" xmlns:xlink="http://www.w3.org/1999/xlink">
<g id="graph1" class="graph" transform="scale(1 1) rotate(0) translate(4 1972.85)">
<title>G</title>
<polygon fill="white" stroke="white" points="-4,5 -4,-1972.85 957,-1972.85 957,5 -4,5"/>
<g id="graph2" class="cluster"><title>cluster_Global</title>
<polyline fill="none" stroke="gray" points="403,-298 932,-298 "/>
<path fill="none" stroke="gray" d="M932,-298C938,-298 944,-304 944,-310"/>
<polyline fill="none" stroke="gray" points="944,-310 944,-1710 "/>
<path fill="none" stroke="gray" d="M944,-1710C944,-1716 938,-1722 932,-1722"/>
<polyline fill="none" stroke="gray" points="932,-1722 403,-1722 "/>
<path fill="none" stroke="gray" d="M403,-1722C397,-1722 391,-1716 391,-1710"/>
<polyline fill="none" stroke="gray" points="391,-1710 391,-310 "/>
<path fill="none" stroke="gray" d="M391,-310C391,-304 397,-298 403,-298"/>
<text text-anchor="middle" x="667.5" y="-1708.1" font-family="Times Roman,serif" font-size="11.00" fill="gray">Global</text>
</g>
<!-- \\TaskServerTask -->
<g id="node2" class="node"><title>\\TaskServerTask</title>
<polygon fill="none" stroke="black" points="510,-1260 400,-1260 400,-1224 510,-1224 510,-1260"/>
<text text-anchor="middle" x="455" y="-1239.1" font-family="Courier,monospace" font-size="11.00">TaskServerTask</text>
</g>
<!-- \\AdvancedTask -->
<g id="node32" class="node"><title>\\AdvancedTask</title>
<ellipse fill="none" stroke="black" cx="93" cy="-1242" rx="82.939" ry="18.3848"/>
<text text-anchor="middle" x="93" y="-1238.4" font-family="Times Roman,serif" font-size="14.00" fill="gray">\AdvancedTask</text>
</g>
<!-- \\TaskServerTask&#45;&gt;\\AdvancedTask -->
<g id="edge3" class="edge"><title>\\TaskServerTask&#45;&gt;\\AdvancedTask</title>
<path fill="none" stroke="black" d="M399.231,-1242C342.732,-1242 254.302,-1242 186.965,-1242"/>
<polygon fill="none" stroke="black" points="186.769,-1238.5 176.769,-1242 186.769,-1245.5 186.769,-1238.5"/>
</g>
<!-- \\TaskServerOldTask -->
<g id="node3" class="node"><title>\\TaskServerOldTask</title>
<polygon fill="none" stroke="black" points="895,-1260 765,-1260 765,-1224 895,-1224 895,-1260"/>
<text text-anchor="middle" x="830" y="-1239.1" font-family="Courier,monospace" font-size="11.00">TaskServerOldTask</text>
</g>
<!-- \\TaskServerOldTask&#45;&gt;\\TaskServerTask -->
<g id="edge5" class="edge"><title>\\TaskServerOldTask&#45;&gt;\\TaskServerTask</title>
<path fill="none" stroke="black" d="M764.251,-1242C695.82,-1242 589.27,-1242 520.815,-1242"/>
<polygon fill="none" stroke="black" points="520.584,-1238.5 510.584,-1242 520.584,-1245.5 520.584,-1238.5"/>
</g>
<!-- \\TaskShell -->
<g id="node4" class="node"><title>\\TaskShell</title>
<polygon fill="none" stroke="black" points="868,-1638 792,-1638 792,-1602 868,-1602 868,-1638"/>
<text text-anchor="middle" x="830" y="-1617.1" font-family="Courier,monospace" font-size="11.00">TaskShell</text>
</g>
<!-- \\AdvancedShell -->
<g id="node35" class="node"><title>\\AdvancedShell</title>
<ellipse fill="none" stroke="black" cx="455" cy="-1910" rx="85.7684" ry="18.3848"/>
<text text-anchor="middle" x="455" y="-1906.4" font-family="Times Roman,serif" font-size="14.00" fill="gray">\AdvancedShell</text>
</g>
<!-- \\TaskShell&#45;&gt;\\AdvancedShell -->
<g id="edge7" class="edge"><title>\\TaskShell&#45;&gt;\\AdvancedShell</title>
<path fill="none" stroke="black" d="M791.479,-1620.77C769.123,-1623.21 741.928,-1629.89 724,-1647 644.668,-1722.71 735.488,-1811.9 652,-1883 622.331,-1908.27 580.522,-1916.5 543.048,-1917.81"/>
<polygon fill="none" stroke="black" points="542.54,-1914.32 532.607,-1918 542.67,-1921.32 542.54,-1914.32"/>
</g>
<!-- \\TaskProcess -->
<g id="node5" class="node"><title>\\TaskProcess</title>
<polygon fill="none" stroke="black" points="875,-1584 785,-1584 785,-1548 875,-1548 875,-1584"/>
<text text-anchor="middle" x="830" y="-1563.1" font-family="Courier,monospace" font-size="11.00">TaskProcess</text>
</g>
<!-- \\Symfony\\Component\\Process\\Process -->
<g id="node37" class="node"><title>\\Symfony\\Component\\Process\\Process</title>
<ellipse fill="none" stroke="black" cx="455" cy="-1856" rx="196.075" ry="18.3848"/>
<text text-anchor="middle" x="455" y="-1852.4" font-family="Times Roman,serif" font-size="14.00" fill="gray">\Symfony\Component\Process\Process</text>
</g>
<!-- \\TaskProcess&#45;&gt;\\Symfony\\Component\\Process\\Process -->
<g id="edge9" class="edge"><title>\\TaskProcess&#45;&gt;\\Symfony\\Component\\Process\\Process</title>
<path fill="none" stroke="black" d="M784.401,-1567.67C763.596,-1570.7 740.074,-1577.66 724,-1593 644.668,-1668.71 735.488,-1757.9 652,-1829 646.218,-1833.92 639.975,-1838.2 633.393,-1841.91"/>
<polygon fill="none" stroke="black" points="631.519,-1838.93 624.218,-1846.61 634.713,-1845.16 631.519,-1838.93"/>
</g>
<!-- \\TaskType -->
<g id="node6" class="node"><title>\\TaskType</title>
<polygon fill="none" stroke="black" points="872,-1530 788,-1530 788,-1494 872,-1494 872,-1530"/>
<text text-anchor="start" x="796" y="-1517.43" font-family="Courier,monospace" font-size="11.00">«abstract»</text>
<text text-anchor="start" x="802.5" y="-1504.23" font-family="Courier,monospace" font-size="11.00">TaskType</text>
</g>
<!-- \\TaskRunner -->
<g id="node7" class="node"><title>\\TaskRunner</title>
<polygon fill="none" stroke="black" points="872,-1476 788,-1476 788,-1440 872,-1440 872,-1476"/>
<text text-anchor="middle" x="830" y="-1455.1" font-family="Courier,monospace" font-size="11.00">TaskRunner</text>
</g>
<!-- \\Object -->
<g id="node39" class="node"><title>\\Object</title>
<ellipse fill="none" stroke="black" cx="455" cy="-1802" rx="45.9619" ry="18.3848"/>
<text text-anchor="middle" x="455" y="-1798.4" font-family="Times Roman,serif" font-size="14.00" fill="gray">\Object</text>
</g>
<!-- \\TaskRunner&#45;&gt;\\Object -->
<g id="edge11" class="edge"><title>\\TaskRunner&#45;&gt;\\Object</title>
<path fill="none" stroke="black" d="M787.757,-1458.81C765.989,-1461.44 740.6,-1468.3 724,-1485 630.38,-1579.19 750.799,-1686.26 652,-1775 613.364,-1809.7 552.106,-1812.94 508.156,-1809.72"/>
<polygon fill="none" stroke="black" points="508.205,-1806.21 497.94,-1808.83 507.599,-1813.18 508.205,-1806.21"/>
</g>
<!-- \\TaskController -->
<g id="node8" class="node"><title>\\TaskController</title>
<polygon fill="none" stroke="black" points="885,-1422 775,-1422 775,-1386 885,-1386 885,-1422"/>
<text text-anchor="middle" x="830" y="-1401.1" font-family="Courier,monospace" font-size="11.00">TaskController</text>
</g>
<!-- \\AppController -->
<g id="node41" class="node"><title>\\AppController</title>
<ellipse fill="none" stroke="black" cx="455" cy="-1748" rx="82.0244" ry="18.3848"/>
<text text-anchor="middle" x="455" y="-1744.4" font-family="Times Roman,serif" font-size="14.00" fill="gray">\AppController</text>
</g>
<!-- \\TaskController&#45;&gt;\\AppController -->
<g id="edge13" class="edge"><title>\\TaskController&#45;&gt;\\AppController</title>
<path fill="none" stroke="black" d="M774.496,-1406.88C756.267,-1410.5 737.294,-1417.57 724,-1431 629.049,-1526.91 753.347,-1636.88 652,-1726 619.838,-1754.28 572.388,-1760.27 532.116,-1758.95"/>
<polygon fill="none" stroke="black" points="532.202,-1755.45 522.046,-1758.46 531.866,-1762.44 532.202,-1755.45"/>
</g>
<!-- \\TaskClient -->
<g id="node9" class="node"><title>\\TaskClient</title>
<polygon fill="none" stroke="black" points="872,-1368 788,-1368 788,-1332 872,-1332 872,-1368"/>
<text text-anchor="middle" x="830" y="-1347.1" font-family="Courier,monospace" font-size="11.00">TaskClient</text>
</g>
<!-- \\TaskModel -->
<g id="node12" class="node"><title>\\TaskModel</title>
<polygon fill="none" stroke="black" points="493,-1368 417,-1368 417,-1332 493,-1332 493,-1368"/>
<text text-anchor="middle" x="455" y="-1347.1" font-family="Courier,monospace" font-size="11.00">TaskModel</text>
</g>
<!-- \\TaskClient&#45;&gt;\\TaskModel -->
<g id="edge15" class="edge"><title>\\TaskClient&#45;&gt;\\TaskModel</title>
<path fill="none" stroke="black" d="M787.712,-1350C717.645,-1350 577.87,-1350 503.756,-1350"/>
<polygon fill="none" stroke="black" points="503.748,-1346.5 493.748,-1350 503.748,-1353.5 503.748,-1346.5"/>
</g>
<!-- \\TaskServer -->
<g id="node10" class="node"><title>\\TaskServer</title>
<polygon fill="none" stroke="black" points="872,-1314 788,-1314 788,-1278 872,-1278 872,-1314"/>
<text text-anchor="middle" x="830" y="-1293.1" font-family="Courier,monospace" font-size="11.00">TaskServer</text>
</g>
<!-- \\TaskServer&#45;&gt;\\TaskModel -->
<g id="edge17" class="edge"><title>\\TaskServer&#45;&gt;\\TaskModel</title>
<path fill="none" stroke="black" d="M787.712,-1302.09C717.645,-1312.18 577.87,-1332.31 503.756,-1342.98"/>
<polygon fill="none" stroke="black" points="503.147,-1339.53 493.748,-1344.42 504.145,-1346.46 503.147,-1339.53"/>
</g>
<!-- \\TaskStatistics -->
<g id="node11" class="node"><title>\\TaskStatistics</title>
<polygon fill="none" stroke="black" points="885,-1692 775,-1692 775,-1656 885,-1656 885,-1692"/>
<text text-anchor="middle" x="830" y="-1671.1" font-family="Courier,monospace" font-size="11.00">TaskStatistics</text>
</g>
<!-- \\AppModel -->
<g id="node45" class="node"><title>\\AppModel</title>
<ellipse fill="none" stroke="black" cx="93" cy="-1653" rx="62.2254" ry="18.3848"/>
<text text-anchor="middle" x="93" y="-1649.4" font-family="Times Roman,serif" font-size="14.00" fill="gray">\AppModel</text>
</g>
<!-- \\TaskStatistics&#45;&gt;\\AppModel -->
<g id="edge19" class="edge"><title>\\TaskStatistics&#45;&gt;\\AppModel</title>
<path fill="none" stroke="black" d="M824.377,-1692.24C807.755,-1742.55 753.542,-1883.11 652,-1937 574.661,-1978.04 333.885,-1980.67 258,-1937 159.859,-1880.52 114.692,-1740.78 99.3675,-1680.93"/>
<polygon fill="none" stroke="black" points="102.723,-1679.92 96.9249,-1671.05 95.9272,-1681.6 102.723,-1679.92"/>
</g>
<!-- \\TaskModel&#45;&gt;\\AppModel -->
<g id="edge21" class="edge"><title>\\TaskModel&#45;&gt;\\AppModel</title>
<path fill="none" stroke="black" d="M416.461,-1344.68C374.116,-1340.89 305.78,-1341 258,-1372 164.398,-1432.73 117.087,-1566.67 100.297,-1624.97"/>
<polygon fill="none" stroke="black" points="96.8311,-1624.37 97.5127,-1634.94 103.573,-1626.25 96.8311,-1624.37"/>
</g>
<!-- \\TaskProfiler -->
<g id="node13" class="node"><title>\\TaskProfiler</title>
<polygon fill="none" stroke="black" points="879,-1206 781,-1206 781,-1170 879,-1170 879,-1206"/>
<text text-anchor="middle" x="830" y="-1185.1" font-family="Courier,monospace" font-size="11.00">TaskProfiler</text>
</g>
<!-- \\TaskHelper -->
<g id="node14" class="node"><title>\\TaskHelper</title>
<polygon fill="none" stroke="black" points="872,-1098 788,-1098 788,-1062 872,-1062 872,-1098"/>
<text text-anchor="middle" x="830" y="-1077.1" font-family="Courier,monospace" font-size="11.00">TaskHelper</text>
</g>
<!-- \\AppHelper -->
<g id="node48" class="node"><title>\\AppHelper</title>
<ellipse fill="none" stroke="black" cx="455" cy="-272" rx="65.0538" ry="18.3848"/>
<text text-anchor="middle" x="455" y="-268.4" font-family="Times Roman,serif" font-size="14.00" fill="gray">\AppHelper</text>
</g>
<!-- \\TaskHelper&#45;&gt;\\AppHelper -->
<g id="edge23" class="edge"><title>\\TaskHelper&#45;&gt;\\AppHelper</title>
<path fill="none" stroke="black" d="M787.796,-1080.25C765.482,-1078 739.56,-1071.18 724,-1053 613.823,-924.293 770.8,-414.793 652,-294 617.971,-259.4 561.656,-256.243 517.933,-260.387"/>
<polygon fill="none" stroke="black" points="517.521,-256.911 507.961,-261.477 518.282,-263.87 517.521,-256.911"/>
</g>
<!-- \\TaskStatisticsFixture -->
<g id="node15" class="node"><title>\\TaskStatisticsFixture</title>
<polygon fill="none" stroke="black" points="909,-990 751,-990 751,-954 909,-954 909,-990"/>
<text text-anchor="middle" x="830" y="-969.1" font-family="Courier,monospace" font-size="11.00">TaskStatisticsFixture</text>
</g>
<!-- \\CakeTestFixture -->
<g id="node50" class="node"><title>\\CakeTestFixture</title>
<ellipse fill="none" stroke="black" cx="93" cy="-478" rx="92.1303" ry="18.3848"/>
<text text-anchor="middle" x="93" y="-474.4" font-family="Times Roman,serif" font-size="14.00" fill="gray">\CakeTestFixture</text>
</g>
<!-- \\TaskStatisticsFixture&#45;&gt;\\CakeTestFixture -->
<g id="edge25" class="edge"><title>\\TaskStatisticsFixture&#45;&gt;\\CakeTestFixture</title>
<path fill="none" stroke="black" d="M750.771,-963.495C740.572,-959.285 731.196,-953.339 724,-945 621.839,-826.608 762.925,-355.223 652,-245 589.605,-182.999 540.106,-248.23 455,-226"/>
<path fill="none" stroke="black" d="M455,-226C369.894,-203.77 334.099,-200.883 258,-245 175.586,-292.778 123.92,-400.138 103.283,-450.692"/>
<polygon fill="none" stroke="black" points="100.02,-449.425 99.5697,-460.01 106.523,-452.016 100.02,-449.425"/>
</g>
<!-- \\TaskFixture -->
<g id="node16" class="node"><title>\\TaskFixture</title>
<polygon fill="none" stroke="black" points="500,-748 410,-748 410,-712 500,-712 500,-748"/>
<text text-anchor="middle" x="455" y="-727.1" font-family="Courier,monospace" font-size="11.00">TaskFixture</text>
</g>
<!-- \\TaskFixture&#45;&gt;\\CakeTestFixture -->
<g id="edge27" class="edge"><title>\\TaskFixture&#45;&gt;\\CakeTestFixture</title>
<path fill="none" stroke="black" d="M409.104,-734.995C366.941,-737.353 304.176,-735.046 258,-708 176.872,-660.482 124.849,-555.529 103.74,-505.528"/>
<polygon fill="none" stroke="black" points="106.865,-503.924 99.8177,-496.013 100.393,-506.592 106.865,-503.924"/>
</g>
<!-- \\TaskProfilerFixture -->
<g id="node17" class="node"><title>\\TaskProfilerFixture</title>
<polygon fill="none" stroke="black" points="902,-1152 758,-1152 758,-1116 902,-1116 902,-1152"/>
<text text-anchor="middle" x="830" y="-1131.1" font-family="Courier,monospace" font-size="11.00">TaskProfilerFixture</text>
</g>
<!-- \\TaskProfilerFixture&#45;&gt;\\TaskFixture -->
<g id="edge29" class="edge"><title>\\TaskProfilerFixture&#45;&gt;\\TaskFixture</title>
<path fill="none" stroke="black" d="M757.487,-1122.8C745.669,-1118.98 734.029,-1113.86 724,-1107 588.034,-1013.93 497.378,-828.295 466.615,-757.921"/>
<polygon fill="none" stroke="black" points="469.684,-756.198 462.512,-748.399 463.255,-758.968 469.684,-756.198"/>
</g>
<!-- \\DependentTaskFixture -->
<g id="node18" class="node"><title>\\DependentTaskFixture</title>
<polygon fill="none" stroke="black" points="906,-1044 754,-1044 754,-1008 906,-1008 906,-1044"/>
<text text-anchor="middle" x="830" y="-1023.1" font-family="Courier,monospace" font-size="11.00">DependentTaskFixture</text>
</g>
<!-- \\DependentTaskFixture&#45;&gt;\\CakeTestFixture -->
<g id="edge31" class="edge"><title>\\DependentTaskFixture&#45;&gt;\\CakeTestFixture</title>
<path fill="none" stroke="black" d="M753.905,-1018.8C742.485,-1014.53 731.907,-1008.23 724,-999 614.503,-871.167 770.962,-364.075 652,-245 589.831,-182.772 540.106,-248.23 455,-226"/>
</g>
<!-- \\TaskShellTest -->
<g id="node19" class="node"><title>\\TaskShellTest</title>
<polygon fill="none" stroke="black" points="882,-504 778,-504 778,-468 882,-468 882,-504"/>
<text text-anchor="middle" x="830" y="-483.1" font-family="Courier,monospace" font-size="11.00">TaskShellTest</text>
</g>
<!-- \\CakeTestCase -->
<g id="node55" class="node"><title>\\CakeTestCase</title>
<ellipse fill="none" stroke="black" cx="455" cy="-180" rx="82.0244" ry="18.3848"/>
<text text-anchor="middle" x="455" y="-176.4" font-family="Times Roman,serif" font-size="14.00" fill="gray">\CakeTestCase</text>
</g>
<!-- \\TaskShellTest&#45;&gt;\\CakeTestCase -->
<g id="edge33" class="edge"><title>\\TaskShellTest&#45;&gt;\\CakeTestCase</title>
<path fill="none" stroke="black" d="M777.835,-483.363C758.748,-479.888 738.339,-472.856 724,-459 641.773,-379.54 737.657,-287.75 652,-212 622.455,-185.872 580.235,-176.653 542.454,-174.471"/>
<polygon fill="none" stroke="black" points="542.583,-170.973 532.444,-174.048 542.287,-177.967 542.583,-170.973"/>
</g>
<!-- \\TaskServerTaskTest -->
<g id="node20" class="node"><title>\\TaskServerTaskTest</title>
<polygon fill="none" stroke="black" points="899,-936 761,-936 761,-900 899,-900 899,-936"/>
<text text-anchor="middle" x="830" y="-915.1" font-family="Courier,monospace" font-size="11.00">TaskServerTaskTest</text>
</g>
<!-- \\TaskServerTaskTest&#45;&gt;\\CakeTestCase -->
<g id="edge35" class="edge"><title>\\TaskServerTaskTest&#45;&gt;\\CakeTestCase</title>
<path fill="none" stroke="black" d="M760.764,-912.993C746.799,-908.814 733.508,-901.984 724,-891 525.381,-661.557 860.561,-432.445 652,-212 623.352,-181.719 578.123,-172.832 538.225,-171.918"/>
<polygon fill="none" stroke="black" points="538.233,-168.418 528.209,-171.849 538.185,-175.418 538.233,-168.418"/>
</g>
<!-- \\TaskServerTaskTestEventModel1 -->
<g id="node21" class="node"><title>\\TaskServerTaskTestEventModel1</title>
<polygon fill="none" stroke="black" points="936,-450 724,-450 724,-414 936,-414 936,-450"/>
<text text-anchor="middle" x="830" y="-429.1" font-family="Courier,monospace" font-size="11.00">TaskServerTaskTestEventModel1</text>
</g>
<!-- \\CakeEventListener -->
<g id="node58" class="node"><title>\\CakeEventListener</title>
<ellipse fill="none" stroke="black" cx="455" cy="-126" rx="106.98" ry="18.3848"/>
<text text-anchor="middle" x="455" y="-122.4" font-family="Times Roman,serif" font-size="14.00" fill="gray">\CakeEventListener</text>
</g>
<!-- \\TaskServerTaskTestEventModel1&#45;&gt;\\CakeEventListener -->
<g id="edge37" class="edge"><title>\\TaskServerTaskTestEventModel1&#45;&gt;\\CakeEventListener</title>
<path fill="none" stroke="black" stroke-dasharray="1,5" d="M735.153,-413.803C731.156,-411.228 727.405,-408.308 724,-405 640.454,-323.833 740.004,-229.31 652,-153 627.583,-131.828 594.679,-122.53 562.761,-119.253"/>
<polygon fill="none" stroke="black" points="562.7,-115.736 552.444,-118.393 562.119,-122.712 562.7,-115.736"/>
</g>
<!-- \\TaskProcessTest -->
<g id="node22" class="node"><title>\\TaskProcessTest</title>
<polygon fill="none" stroke="black" points="889,-882 771,-882 771,-846 889,-846 889,-882"/>
<text text-anchor="middle" x="830" y="-861.1" font-family="Courier,monospace" font-size="11.00">TaskProcessTest</text>
</g>
<!-- \\TaskProcessTest&#45;&gt;\\CakeTestCase -->
<g id="edge39" class="edge"><title>\\TaskProcessTest&#45;&gt;\\CakeTestCase</title>
<path fill="none" stroke="black" d="M770.765,-861.457C753.341,-857.731 735.807,-850.515 724,-837 540.039,-626.423 845.084,-414.245 652,-212 623.386,-182.028 578.515,-173.076 538.821,-172.045"/>
<polygon fill="none" stroke="black" points="538.619,-168.543 528.586,-171.947 538.552,-175.543 538.619,-168.543"/>
</g>
<!-- \\TaskTypeTest -->
<g id="node23" class="node"><title>\\TaskTypeTest</title>
<polygon fill="none" stroke="black" points="879,-828 781,-828 781,-792 879,-792 879,-828"/>
<text text-anchor="middle" x="830" y="-807.1" font-family="Courier,monospace" font-size="11.00">TaskTypeTest</text>
</g>
<!-- \\TaskTypeTest&#45;&gt;\\CakeTestCase -->
<g id="edge41" class="edge"><title>\\TaskTypeTest&#45;&gt;\\CakeTestCase</title>
<path fill="none" stroke="black" d="M780.751,-809.155C760.325,-806.167 738.142,-799.014 724,-783 554.683,-591.274 829.621,-396.059 652,-212 623.336,-182.297 578.689,-173.309 539.142,-172.189"/>
<polygon fill="none" stroke="black" points="538.985,-168.687 528.944,-172.067 538.901,-175.686 538.985,-168.687"/>
</g>
<!-- \\TaskRunnerTest -->
<g id="node24" class="node"><title>\\TaskRunnerTest</title>
<polygon fill="none" stroke="black" points="885,-774 775,-774 775,-738 885,-738 885,-774"/>
<text text-anchor="middle" x="830" y="-753.1" font-family="Courier,monospace" font-size="11.00">TaskRunnerTest</text>
</g>
<!-- \\TaskRunnerTest&#45;&gt;\\CakeTestCase -->
<g id="edge43" class="edge"><title>\\TaskRunnerTest&#45;&gt;\\CakeTestCase</title>
<path fill="none" stroke="black" d="M774.269,-753.96C755.796,-750.44 736.726,-743.223 724,-729 569.31,-556.104 814.177,-377.893 652,-212 623.256,-182.597 578.829,-173.578 539.435,-172.362"/>
<polygon fill="none" stroke="black" points="539.326,-168.86 529.276,-172.214 539.224,-175.86 539.326,-168.86"/>
</g>
<!-- \\TaskControllerTest -->
<g id="node25" class="node"><title>\\TaskControllerTest</title>
<polygon fill="none" stroke="black" points="899,-396 761,-396 761,-360 899,-360 899,-396"/>
<text text-anchor="middle" x="830" y="-375.1" font-family="Courier,monospace" font-size="11.00">TaskControllerTest</text>
</g>
<!-- \\ControllerTestCase -->
<g id="node63" class="node"><title>\\ControllerTestCase</title>
<ellipse fill="none" stroke="black" cx="455" cy="-72" rx="106.773" ry="18.3848"/>
<text text-anchor="middle" x="455" y="-68.4" font-family="Times Roman,serif" font-size="14.00" fill="gray">\ControllerTestCase</text>
</g>
<!-- \\TaskControllerTest&#45;&gt;\\ControllerTestCase -->
<g id="edge45" class="edge"><title>\\TaskControllerTest&#45;&gt;\\ControllerTestCase</title>
<path fill="none" stroke="black" d="M760.734,-371.312C747.189,-367.18 734.079,-360.792 724,-351 640.454,-269.833 740.004,-175.31 652,-99 627.465,-77.7255 594.362,-68.4403 562.299,-65.2059"/>
<polygon fill="none" stroke="black" points="562.19,-61.6854 551.938,-64.3608 561.62,-68.6622 562.19,-61.6854"/>
</g>
<!-- \\AllTaskTest -->
<g id="node26" class="node"><title>\\AllTaskTest</title>
<polygon fill="none" stroke="black" points="875,-342 785,-342 785,-306 875,-306 875,-342"/>
<text text-anchor="middle" x="830" y="-321.1" font-family="Courier,monospace" font-size="11.00">AllTaskTest</text>
</g>
<!-- \\PHPUnit_Framework_TestSuite -->
<g id="node65" class="node"><title>\\PHPUnit_Framework_TestSuite</title>
<ellipse fill="none" stroke="black" cx="455" cy="-18" rx="166.877" ry="18.3848"/>
<text text-anchor="middle" x="455" y="-14.4" font-family="Times Roman,serif" font-size="14.00" fill="gray">\PHPUnit_Framework_TestSuite</text>
</g>
<!-- \\AllTaskTest&#45;&gt;\\PHPUnit_Framework_TestSuite -->
<g id="edge47" class="edge"><title>\\AllTaskTest&#45;&gt;\\PHPUnit_Framework_TestSuite</title>
<path fill="none" stroke="black" d="M824.43,-305.789C807.773,-254.736 753.126,-109.756 652,-45 641.391,-38.2063 629.803,-32.8009 617.731,-28.526"/>
<polygon fill="none" stroke="black" points="618.547,-25.1108 607.955,-25.335 616.375,-31.7653 618.547,-25.1108"/>
</g>
<!-- \\TaskServerTest -->
<g id="node27" class="node"><title>\\TaskServerTest</title>
<polygon fill="none" stroke="black" points="885,-720 775,-720 775,-684 885,-684 885,-720"/>
<text text-anchor="middle" x="830" y="-699.1" font-family="Courier,monospace" font-size="11.00">TaskServerTest</text>
</g>
<!-- \\TaskServerTest&#45;&gt;\\CakeTestCase -->
<g id="edge49" class="edge"><title>\\TaskServerTest&#45;&gt;\\CakeTestCase</title>
<path fill="none" stroke="black" d="M774.393,-699.848C755.933,-696.317 736.838,-689.122 724,-675 583.913,-520.908 798.757,-359.752 652,-212 623.135,-182.94 578.923,-173.894 539.692,-172.575"/>
<polygon fill="none" stroke="black" points="539.633,-169.074 529.573,-172.398 539.511,-176.073 539.633,-169.074"/>
</g>
<!-- \\TaskClientTest -->
<g id="node28" class="node"><title>\\TaskClientTest</title>
<polygon fill="none" stroke="black" points="885,-666 775,-666 775,-630 885,-630 885,-666"/>
<text text-anchor="middle" x="830" y="-645.1" font-family="Courier,monospace" font-size="11.00">TaskClientTest</text>
</g>
<!-- \\TaskClientTest&#45;&gt;\\CakeTestCase -->
<g id="edge51" class="edge"><title>\\TaskClientTest&#45;&gt;\\CakeTestCase</title>
<path fill="none" stroke="black" d="M774.273,-645.652C755.914,-642.089 736.914,-634.923 724,-621 598.483,-485.676 783.373,-341.647 652,-212 623.022,-183.402 579.143,-174.315 540.147,-172.853"/>
<polygon fill="none" stroke="black" points="539.896,-169.347 529.824,-172.635 539.748,-176.345 539.896,-169.347"/>
</g>
<!-- \\TaskProfilerTest -->
<g id="node29" class="node"><title>\\TaskProfilerTest</title>
<polygon fill="none" stroke="black" points="892,-612 768,-612 768,-576 892,-576 892,-612"/>
<text text-anchor="middle" x="830" y="-591.1" font-family="Courier,monospace" font-size="11.00">TaskProfilerTest</text>
</g>
<!-- \\TaskProfilerTest&#45;&gt;\\CakeTestCase -->
<g id="edge53" class="edge"><title>\\TaskProfilerTest&#45;&gt;\\CakeTestCase</title>
<path fill="none" stroke="black" d="M767.299,-589.881C751.282,-585.919 735.391,-578.967 724,-567 613.004,-450.391 768.039,-323.592 652,-212 622.884,-184 579.431,-174.866 540.738,-173.221"/>
<polygon fill="none" stroke="black" points="540.581,-169.716 530.492,-172.952 540.397,-176.714 540.581,-169.716"/>
</g>
<!-- \\TaskHelperTest -->
<g id="node30" class="node"><title>\\TaskHelperTest</title>
<polygon fill="none" stroke="black" points="885,-558 775,-558 775,-522 885,-522 885,-558"/>
<text text-anchor="middle" x="830" y="-537.1" font-family="Courier,monospace" font-size="11.00">TaskHelperTest</text>
</g>
<!-- \\TaskHelperTest&#45;&gt;\\CakeTestCase -->
<g id="edge55" class="edge"><title>\\TaskHelperTest&#45;&gt;\\CakeTestCase</title>
<path fill="none" stroke="black" d="M774.461,-537.155C756.229,-533.534 737.263,-526.458 724,-513 627.45,-415.028 752.784,-305.611 652,-212 622.752,-184.834 579.932,-175.637 541.679,-173.739"/>
<polygon fill="none" stroke="black" points="541.659,-170.237 531.547,-173.398 541.423,-177.233 541.659,-170.237"/>
</g>
</g>
</svg>
