<?xml version="1.0" encoding="UTF-8" standalone="no"?>
<!DOCTYPE svg PUBLIC "-//W3C//DTD SVG 1.1//EN"
 "http://www.w3.org/Graphics/SVG/1.1/DTD/svg11.dtd">
<!-- Generated by graphviz version 2.26.3 (20100126.1600)
 -->
<!-- Title: G Pages: 1 -->
<svg width="960pt" height="2003pt"
 viewBox="0.00 0.00 960.00 2003.01" xmlns="http://www.w3.org/2000/svg" xmlns:xlink="http://www.w3.org/1999/xlink">
<g id="graph1" class="graph" transform="scale(1 1) rotate(0) translate(4 1999.01)">
<title>G</title>
<polygon fill="white" stroke="white" points="-4,5 -4,-1999.01 957,-1999.01 957,5 -4,5"/>
<g id="graph2" class="cluster"><title>cluster_Global</title>
<polyline fill="none" stroke="gray" points="403,-406 932,-406 "/>
<path fill="none" stroke="gray" d="M932,-406C938,-406 944,-412 944,-418"/>
<polyline fill="none" stroke="gray" points="944,-418 944,-1818 "/>
<path fill="none" stroke="gray" d="M944,-1818C944,-1824 938,-1830 932,-1830"/>
<polyline fill="none" stroke="gray" points="932,-1830 403,-1830 "/>
<path fill="none" stroke="gray" d="M403,-1830C397,-1830 391,-1824 391,-1818"/>
<polyline fill="none" stroke="gray" points="391,-1818 391,-418 "/>
<path fill="none" stroke="gray" d="M391,-418C391,-412 397,-406 403,-406"/>
<text text-anchor="middle" x="667.5" y="-1816.1" font-family="Times Roman,serif" font-size="11.00" fill="gray">Global</text>
</g>
<!-- \\TaskShell -->
<g id="node2" class="node"><title>\\TaskShell</title>
<polygon fill="none" stroke="black" points="868,-1746 792,-1746 792,-1710 868,-1710 868,-1746"/>
<text text-anchor="middle" x="830" y="-1725.1" font-family="Courier,monospace" font-size="11.00">TaskShell</text>
</g>
<!-- \\AdvancedShell -->
<g id="node32" class="node"><title>\\AdvancedShell</title>
<ellipse fill="none" stroke="black" cx="455" cy="-1910" rx="85.7684" ry="18.3848"/>
<text text-anchor="middle" x="455" y="-1906.4" font-family="Times Roman,serif" font-size="14.00" fill="gray">\AdvancedShell</text>
</g>
<!-- \\TaskShell&#45;&gt;\\AdvancedShell -->
<g id="edge3" class="edge"><title>\\TaskShell&#45;&gt;\\AdvancedShell</title>
<path fill="none" stroke="black" d="M791.47,-1730.41C769.793,-1733.46 743.293,-1740.21 724,-1755 672.193,-1794.7 705.97,-1846.29 652,-1883 622.124,-1903.32 583.746,-1911.54 548.813,-1914.15"/>
<polygon fill="none" stroke="black" points="548.352,-1910.68 538.58,-1914.77 548.773,-1917.66 548.352,-1910.68"/>
</g>
<!-- \\TaskServerTask -->
<g id="node3" class="node"><title>\\TaskServerTask</title>
<polygon fill="none" stroke="black" points="510,-1476 400,-1476 400,-1440 510,-1440 510,-1476"/>
<text text-anchor="middle" x="455" y="-1455.1" font-family="Courier,monospace" font-size="11.00">TaskServerTask</text>
</g>
<!-- \\AdvancedTask -->
<g id="node34" class="node"><title>\\AdvancedTask</title>
<ellipse fill="none" stroke="black" cx="93" cy="-1458" rx="82.939" ry="18.3848"/>
<text text-anchor="middle" x="93" y="-1454.4" font-family="Times Roman,serif" font-size="14.00" fill="gray">\AdvancedTask</text>
</g>
<!-- \\TaskServerTask&#45;&gt;\\AdvancedTask -->
<g id="edge5" class="edge"><title>\\TaskServerTask&#45;&gt;\\AdvancedTask</title>
<path fill="none" stroke="black" d="M399.231,-1458C342.732,-1458 254.302,-1458 186.965,-1458"/>
<polygon fill="none" stroke="black" points="186.769,-1454.5 176.769,-1458 186.769,-1461.5 186.769,-1454.5"/>
</g>
<!-- \\TaskServerOldTask -->
<g id="node4" class="node"><title>\\TaskServerOldTask</title>
<polygon fill="none" stroke="black" points="895,-1476 765,-1476 765,-1440 895,-1440 895,-1476"/>
<text text-anchor="middle" x="830" y="-1455.1" font-family="Courier,monospace" font-size="11.00">TaskServerOldTask</text>
</g>
<!-- \\TaskServerOldTask&#45;&gt;\\TaskServerTask -->
<g id="edge7" class="edge"><title>\\TaskServerOldTask&#45;&gt;\\TaskServerTask</title>
<path fill="none" stroke="black" d="M764.251,-1458C695.82,-1458 589.27,-1458 520.815,-1458"/>
<polygon fill="none" stroke="black" points="520.584,-1454.5 510.584,-1458 520.584,-1461.5 520.584,-1454.5"/>
</g>
<!-- \\TaskController -->
<g id="node5" class="node"><title>\\TaskController</title>
<polygon fill="none" stroke="black" points="885,-1692 775,-1692 775,-1656 885,-1656 885,-1692"/>
<text text-anchor="middle" x="830" y="-1671.1" font-family="Courier,monospace" font-size="11.00">TaskController</text>
</g>
<!-- \\AppController -->
<g id="node37" class="node"><title>\\AppController</title>
<ellipse fill="none" stroke="black" cx="455" cy="-1856" rx="82.0244" ry="18.3848"/>
<text text-anchor="middle" x="455" y="-1852.4" font-family="Times Roman,serif" font-size="14.00" fill="gray">\AppController</text>
</g>
<!-- \\TaskController&#45;&gt;\\AppController -->
<g id="edge9" class="edge"><title>\\TaskController&#45;&gt;\\AppController</title>
<path fill="none" stroke="black" d="M774.39,-1679.32C756.881,-1683.19 738.38,-1689.79 724,-1701 670.982,-1742.32 707.744,-1796.44 652,-1834 619.652,-1855.8 577.33,-1862.6 540.208,-1863.42"/>
<polygon fill="none" stroke="black" points="539.861,-1859.93 529.889,-1863.5 539.915,-1866.93 539.861,-1859.93"/>
</g>
<!-- \\TaskProfiler -->
<g id="node6" class="node"><title>\\TaskProfiler</title>
<polygon fill="none" stroke="black" points="879,-1800 781,-1800 781,-1764 879,-1764 879,-1800"/>
<text text-anchor="middle" x="830" y="-1779.1" font-family="Courier,monospace" font-size="11.00">TaskProfiler</text>
</g>
<!-- \\AppModel -->
<g id="node39" class="node"><title>\\AppModel</title>
<ellipse fill="none" stroke="black" cx="93" cy="-1620" rx="62.2254" ry="18.3848"/>
<text text-anchor="middle" x="93" y="-1616.4" font-family="Times Roman,serif" font-size="14.00" fill="gray">\AppModel</text>
</g>
<!-- \\TaskProfiler&#45;&gt;\\AppModel -->
<g id="edge11" class="edge"><title>\\TaskProfiler&#45;&gt;\\AppModel</title>
<path fill="none" stroke="black" d="M816.63,-1800.23C789.954,-1834.87 726.257,-1909.2 652,-1937 488.004,-1998.4 407.702,-2027.85 258,-1937 150.98,-1872.06 110.161,-1712.57 97.6688,-1647.91"/>
<polygon fill="none" stroke="black" points="101.101,-1647.22 95.8394,-1638.02 94.2178,-1648.49 101.101,-1647.22"/>
</g>
<!-- \\TaskModel -->
<g id="node7" class="node"><title>\\TaskModel</title>
<polygon fill="none" stroke="black" points="493,-1584 417,-1584 417,-1548 493,-1548 493,-1584"/>
<text text-anchor="middle" x="455" y="-1563.1" font-family="Courier,monospace" font-size="11.00">TaskModel</text>
</g>
<!-- \\TaskModel&#45;&gt;\\AppModel -->
<g id="edge13" class="edge"><title>\\TaskModel&#45;&gt;\\AppModel</title>
<path fill="none" stroke="black" d="M416.376,-1569.39C376.57,-1573.1 312.773,-1579.64 258,-1588 222.991,-1593.34 184.092,-1600.81 152.86,-1607.19"/>
<polygon fill="none" stroke="black" points="152.092,-1603.77 143.003,-1609.22 153.504,-1610.63 152.092,-1603.77"/>
</g>
<!-- \\TaskStatistics -->
<g id="node8" class="node"><title>\\TaskStatistics</title>
<polygon fill="none" stroke="black" points="885,-1638 775,-1638 775,-1602 885,-1602 885,-1638"/>
<text text-anchor="middle" x="830" y="-1617.1" font-family="Courier,monospace" font-size="11.00">TaskStatistics</text>
</g>
<!-- \\TaskStatistics&#45;&gt;\\AppModel -->
<g id="edge15" class="edge"><title>\\TaskStatistics&#45;&gt;\\AppModel</title>
<path fill="none" stroke="black" d="M774.303,-1620C642.656,-1620 312.344,-1620 165.419,-1620"/>
<polygon fill="none" stroke="black" points="165.163,-1616.5 155.163,-1620 165.163,-1623.5 165.163,-1616.5"/>
</g>
<!-- \\TaskServer -->
<g id="node9" class="node"><title>\\TaskServer</title>
<polygon fill="none" stroke="black" points="872,-1584 788,-1584 788,-1548 872,-1548 872,-1584"/>
<text text-anchor="middle" x="830" y="-1563.1" font-family="Courier,monospace" font-size="11.00">TaskServer</text>
</g>
<!-- \\TaskServer&#45;&gt;\\TaskModel -->
<g id="edge17" class="edge"><title>\\TaskServer&#45;&gt;\\TaskModel</title>
<path fill="none" stroke="black" d="M787.712,-1566C717.645,-1566 577.87,-1566 503.756,-1566"/>
<polygon fill="none" stroke="black" points="503.748,-1562.5 493.748,-1566 503.748,-1569.5 503.748,-1562.5"/>
</g>
<!-- \\TaskClient -->
<g id="node10" class="node"><title>\\TaskClient</title>
<polygon fill="none" stroke="black" points="872,-1530 788,-1530 788,-1494 872,-1494 872,-1530"/>
<text text-anchor="middle" x="830" y="-1509.1" font-family="Courier,monospace" font-size="11.00">TaskClient</text>
</g>
<!-- \\TaskClient&#45;&gt;\\TaskModel -->
<g id="edge19" class="edge"><title>\\TaskClient&#45;&gt;\\TaskModel</title>
<path fill="none" stroke="black" d="M787.712,-1518.09C717.645,-1528.18 577.87,-1548.31 503.756,-1558.98"/>
<polygon fill="none" stroke="black" points="503.147,-1555.53 493.748,-1560.42 504.145,-1562.46 503.147,-1555.53"/>
</g>
<!-- \\AllTaskTest -->
<g id="node11" class="node"><title>\\AllTaskTest</title>
<polygon fill="none" stroke="black" points="875,-1368 785,-1368 785,-1332 875,-1332 875,-1368"/>
<text text-anchor="middle" x="830" y="-1347.1" font-family="Courier,monospace" font-size="11.00">AllTaskTest</text>
</g>
<!-- \\PHPUnit_Framework_TestSuite -->
<g id="node45" class="node"><title>\\PHPUnit_Framework_TestSuite</title>
<ellipse fill="none" stroke="black" cx="455" cy="-380" rx="166.877" ry="18.3848"/>
<text text-anchor="middle" x="455" y="-376.4" font-family="Times Roman,serif" font-size="14.00" fill="gray">\PHPUnit_Framework_TestSuite</text>
</g>
<!-- \\AllTaskTest&#45;&gt;\\PHPUnit_Framework_TestSuite -->
<g id="edge21" class="edge"><title>\\AllTaskTest&#45;&gt;\\PHPUnit_Framework_TestSuite</title>
<path fill="none" stroke="black" d="M784.463,-1350C762.884,-1347.46 738.676,-1340.43 724,-1323 591.795,-1165.95 794.733,-549.552 652,-402 645.723,-395.511 638.663,-390.121 631.048,-385.673"/>
<polygon fill="none" stroke="black" points="632.35,-382.404 621.866,-380.874 629.108,-388.608 632.35,-382.404"/>
</g>
<!-- \\TaskShellTest -->
<g id="node12" class="node"><title>\\TaskShellTest</title>
<polygon fill="none" stroke="black" points="882,-882 778,-882 778,-846 882,-846 882,-882"/>
<text text-anchor="middle" x="830" y="-861.1" font-family="Courier,monospace" font-size="11.00">TaskShellTest</text>
</g>
<!-- \\CakeTestCase -->
<g id="node47" class="node"><title>\\CakeTestCase</title>
<ellipse fill="none" stroke="black" cx="455" cy="-326" rx="82.0244" ry="18.3848"/>
<text text-anchor="middle" x="455" y="-322.4" font-family="Times Roman,serif" font-size="14.00" fill="gray">\CakeTestCase</text>
</g>
<!-- \\TaskShellTest&#45;&gt;\\CakeTestCase -->
<g id="edge23" class="edge"><title>\\TaskShellTest&#45;&gt;\\CakeTestCase</title>
<path fill="none" stroke="black" d="M777.915,-862.533C758.371,-859.271 737.619,-852.08 724,-837 578.238,-675.599 806.66,-505.896 652,-353 621.787,-323.131 575.093,-315.741 534.748,-316.119"/>
<polygon fill="none" stroke="black" points="534.551,-312.623 524.642,-316.374 534.727,-319.621 534.551,-312.623"/>
</g>
<!-- \\TaskServerTaskTest -->
<g id="node13" class="node"><title>\\TaskServerTaskTest</title>
<polygon fill="none" stroke="black" points="899,-1314 761,-1314 761,-1278 899,-1278 899,-1314"/>
<text text-anchor="middle" x="830" y="-1293.1" font-family="Courier,monospace" font-size="11.00">TaskServerTaskTest</text>
</g>
<!-- \\TaskServerTaskTest&#45;&gt;\\CakeTestCase -->
<g id="edge25" class="edge"><title>\\TaskServerTaskTest&#45;&gt;\\CakeTestCase</title>
<path fill="none" stroke="black" d="M760.816,-1291.26C746.762,-1287.08 733.419,-1280.18 724,-1269 592.475,-1112.82 792.15,-501.489 652,-353 622.12,-321.342 573.876,-314.321 532.611,-315.348"/>
<polygon fill="none" stroke="black" points="532.409,-311.853 522.56,-315.756 532.694,-318.847 532.409,-311.853"/>
</g>
<!-- \\TaskServerTaskTestEventModel1 -->
<g id="node14" class="node"><title>\\TaskServerTaskTestEventModel1</title>
<polygon fill="none" stroke="black" points="936,-828 724,-828 724,-792 936,-792 936,-828"/>
<text text-anchor="middle" x="830" y="-807.1" font-family="Courier,monospace" font-size="11.00">TaskServerTaskTestEventModel1</text>
</g>
<!-- \\CakeEventListener -->
<g id="node50" class="node"><title>\\CakeEventListener</title>
<ellipse fill="none" stroke="black" cx="455" cy="-272" rx="106.98" ry="18.3848"/>
<text text-anchor="middle" x="455" y="-268.4" font-family="Times Roman,serif" font-size="14.00" fill="gray">\CakeEventListener</text>
</g>
<!-- \\TaskServerTaskTestEventModel1&#45;&gt;\\CakeEventListener -->
<g id="edge27" class="edge"><title>\\TaskServerTaskTestEventModel1&#45;&gt;\\CakeEventListener</title>
<path fill="none" stroke="black" stroke-dasharray="1,5" d="M733.688,-791.67C730.185,-789.119 726.927,-786.242 724,-783 578.238,-621.599 806.66,-451.896 652,-299 626.863,-274.15 590.319,-264.859 555.514,-262.656"/>
<polygon fill="none" stroke="black" points="555.415,-259.148 545.27,-262.203 555.105,-266.142 555.415,-259.148"/>
</g>
<!-- \\TaskControllerTest -->
<g id="node15" class="node"><title>\\TaskControllerTest</title>
<polygon fill="none" stroke="black" points="899,-774 761,-774 761,-738 899,-738 899,-774"/>
<text text-anchor="middle" x="830" y="-753.1" font-family="Courier,monospace" font-size="11.00">TaskControllerTest</text>
</g>
<!-- \\ControllerTestCase -->
<g id="node52" class="node"><title>\\ControllerTestCase</title>
<ellipse fill="none" stroke="black" cx="455" cy="-218" rx="106.773" ry="18.3848"/>
<text text-anchor="middle" x="455" y="-214.4" font-family="Times Roman,serif" font-size="14.00" fill="gray">\ControllerTestCase</text>
</g>
<!-- \\TaskControllerTest&#45;&gt;\\ControllerTestCase -->
<g id="edge29" class="edge"><title>\\TaskControllerTest&#45;&gt;\\ControllerTestCase</title>
<path fill="none" stroke="black" d="M760.827,-750.612C746.945,-746.442 733.673,-739.711 724,-729 578.238,-567.599 806.66,-397.896 652,-245 626.751,-220.039 589.994,-210.776 555.05,-208.627"/>
<polygon fill="none" stroke="black" points="554.907,-205.118 544.767,-208.19 554.61,-212.112 554.907,-205.118"/>
</g>
<!-- \\TaskProfilerTest -->
<g id="node16" class="node"><title>\\TaskProfilerTest</title>
<polygon fill="none" stroke="black" points="892,-1260 768,-1260 768,-1224 892,-1224 892,-1260"/>
<text text-anchor="middle" x="830" y="-1239.1" font-family="Courier,monospace" font-size="11.00">TaskProfilerTest</text>
</g>
<!-- \\TaskProfilerTest&#45;&gt;\\CakeTestCase -->
<g id="edge31" class="edge"><title>\\TaskProfilerTest&#45;&gt;\\CakeTestCase</title>
<path fill="none" stroke="black" d="M767.466,-1238.99C751.057,-1235.1 734.919,-1227.9 724,-1215 599.82,-1068.27 784.281,-492.467 652,-353 622.152,-321.531 574.151,-314.447 533.005,-315.393"/>
<polygon fill="none" stroke="black" points="532.837,-311.897 522.98,-315.782 533.109,-318.892 532.837,-311.897"/>
</g>
<!-- \\TaskClientTest -->
<g id="node17" class="node"><title>\\TaskClientTest</title>
<polygon fill="none" stroke="black" points="885,-1206 775,-1206 775,-1170 885,-1170 885,-1206"/>
<text text-anchor="middle" x="830" y="-1185.1" font-family="Courier,monospace" font-size="11.00">TaskClientTest</text>
</g>
<!-- \\TaskClientTest&#45;&gt;\\CakeTestCase -->
<g id="edge33" class="edge"><title>\\TaskClientTest&#45;&gt;\\CakeTestCase</title>
<path fill="none" stroke="black" d="M774.427,-1186.41C755.743,-1182.96 736.493,-1175.68 724,-1161 607.163,-1023.72 776.416,-483.449 652,-353 622.065,-321.614 574.062,-314.532 532.937,-315.458"/>
<polygon fill="none" stroke="black" points="532.777,-311.961 522.918,-315.841 533.045,-318.956 532.777,-311.961"/>
</g>
<!-- \\TaskServerTest -->
<g id="node18" class="node"><title>\\TaskServerTest</title>
<polygon fill="none" stroke="black" points="885,-1152 775,-1152 775,-1116 885,-1116 885,-1152"/>
<text text-anchor="middle" x="830" y="-1131.1" font-family="Courier,monospace" font-size="11.00">TaskServerTest</text>
</g>
<!-- \\TaskServerTest&#45;&gt;\\CakeTestCase -->
<g id="edge35" class="edge"><title>\\TaskServerTest&#45;&gt;\\CakeTestCase</title>
<path fill="none" stroke="black" d="M774.478,-1132.36C755.798,-1128.91 736.539,-1121.64 724,-1107 614.503,-979.167 768.554,-474.434 652,-353 622.14,-321.89 574.516,-314.711 533.573,-315.517"/>
<polygon fill="none" stroke="black" points="533.191,-312.028 523.323,-315.884 533.442,-319.024 533.191,-312.028"/>
</g>
<!-- \\TaskHelperTest -->
<g id="node19" class="node"><title>\\TaskHelperTest</title>
<polygon fill="none" stroke="black" points="885,-1098 775,-1098 775,-1062 885,-1062 885,-1098"/>
<text text-anchor="middle" x="830" y="-1077.1" font-family="Courier,monospace" font-size="11.00">TaskHelperTest</text>
</g>
<!-- \\TaskHelperTest&#45;&gt;\\CakeTestCase -->
<g id="edge37" class="edge"><title>\\TaskHelperTest&#45;&gt;\\CakeTestCase</title>
<path fill="none" stroke="black" d="M774.26,-1078.26C755.673,-1074.79 736.531,-1067.52 724,-1053 621.839,-934.608 760.695,-465.423 652,-353 622.027,-321.999 574.4,-314.823 533.484,-315.603"/>
<polygon fill="none" stroke="black" points="533.112,-312.113 523.241,-315.963 533.358,-319.109 533.112,-312.113"/>
</g>
<!-- \\TaskRunnerTest -->
<g id="node20" class="node"><title>\\TaskRunnerTest</title>
<polygon fill="none" stroke="black" points="885,-1044 775,-1044 775,-1008 885,-1008 885,-1044"/>
<text text-anchor="middle" x="830" y="-1023.1" font-family="Courier,monospace" font-size="11.00">TaskRunnerTest</text>
</g>
<!-- \\TaskRunnerTest&#45;&gt;\\CakeTestCase -->
<g id="edge39" class="edge"><title>\\TaskRunnerTest&#45;&gt;\\CakeTestCase</title>
<path fill="none" stroke="black" d="M774.328,-1024.2C755.748,-1020.72 736.592,-1013.47 724,-999 534.34,-781.088 853.684,-559.834 652,-353 622.006,-322.24 574.617,-315.007 533.834,-315.695"/>
<polygon fill="none" stroke="black" points="533.502,-312.204 523.622,-316.031 533.732,-319.2 533.502,-312.204"/>
</g>
<!-- \\TaskProcessTest -->
<g id="node21" class="node"><title>\\TaskProcessTest</title>
<polygon fill="none" stroke="black" points="889,-990 771,-990 771,-954 889,-954 889,-990"/>
<text text-anchor="middle" x="830" y="-969.1" font-family="Courier,monospace" font-size="11.00">TaskProcessTest</text>
</g>
<!-- \\TaskProcessTest&#45;&gt;\\CakeTestCase -->
<g id="edge41" class="edge"><title>\\TaskProcessTest&#45;&gt;\\CakeTestCase</title>
<path fill="none" stroke="black" d="M770.816,-969.413C753.395,-965.684 735.85,-958.478 724,-945 548.99,-745.945 837.991,-541.836 652,-353 621.964,-322.505 574.809,-315.216 534.165,-315.808"/>
<polygon fill="none" stroke="black" points="533.875,-312.315 523.986,-316.118 534.088,-319.311 533.875,-312.315"/>
</g>
<!-- \\TaskTypeTest -->
<g id="node22" class="node"><title>\\TaskTypeTest</title>
<polygon fill="none" stroke="black" points="879,-936 781,-936 781,-900 879,-900 879,-936"/>
<text text-anchor="middle" x="830" y="-915.1" font-family="Courier,monospace" font-size="11.00">TaskTypeTest</text>
</g>
<!-- \\TaskTypeTest&#45;&gt;\\CakeTestCase -->
<g id="edge43" class="edge"><title>\\TaskTypeTest&#45;&gt;\\CakeTestCase</title>
<path fill="none" stroke="black" d="M780.808,-917.104C760.393,-914.107 738.203,-906.96 724,-891 563.624,-710.784 822.314,-523.855 652,-353 621.894,-322.798 574.971,-315.457 534.472,-315.946"/>
<polygon fill="none" stroke="black" points="534.227,-312.451 524.328,-316.23 534.423,-319.449 534.227,-312.451"/>
</g>
<!-- \\DependentTaskFixture -->
<g id="node23" class="node"><title>\\DependentTaskFixture</title>
<polygon fill="none" stroke="black" points="906,-720 754,-720 754,-684 906,-684 906,-720"/>
<text text-anchor="middle" x="830" y="-699.1" font-family="Courier,monospace" font-size="11.00">DependentTaskFixture</text>
</g>
<!-- \\CakeTestFixture -->
<g id="node61" class="node"><title>\\CakeTestFixture</title>
<ellipse fill="none" stroke="black" cx="93" cy="-480" rx="92.1303" ry="18.3848"/>
<text text-anchor="middle" x="93" y="-476.4" font-family="Times Roman,serif" font-size="14.00" fill="gray">\CakeTestFixture</text>
</g>
<!-- \\DependentTaskFixture&#45;&gt;\\CakeTestFixture -->
<g id="edge45" class="edge"><title>\\DependentTaskFixture&#45;&gt;\\CakeTestFixture</title>
<path fill="none" stroke="black" d="M753.772,-694.24C742.51,-690.023 732.019,-683.879 724,-675 578.238,-513.599 809.691,-340.768 652,-191 588.22,-130.425 542.405,-181.883 455,-172"/>
</g>
<!-- \\TaskProfilerFixture -->
<g id="node24" class="node"><title>\\TaskProfilerFixture</title>
<polygon fill="none" stroke="black" points="902,-1422 758,-1422 758,-1386 902,-1386 902,-1422"/>
<text text-anchor="middle" x="830" y="-1401.1" font-family="Courier,monospace" font-size="11.00">TaskProfilerFixture</text>
</g>
<!-- \\TaskFixture -->
<g id="node25" class="node"><title>\\TaskFixture</title>
<polygon fill="none" stroke="black" points="500,-1114 410,-1114 410,-1078 500,-1078 500,-1114"/>
<text text-anchor="middle" x="455" y="-1093.1" font-family="Courier,monospace" font-size="11.00">TaskFixture</text>
</g>
<!-- \\TaskProfilerFixture&#45;&gt;\\TaskFixture -->
<g id="edge47" class="edge"><title>\\TaskProfilerFixture&#45;&gt;\\TaskFixture</title>
<path fill="none" stroke="black" d="M757.439,-1391.3C745.814,-1387.65 734.251,-1382.98 724,-1377 608.564,-1309.63 510.839,-1178.48 472.434,-1122.43"/>
<polygon fill="none" stroke="black" points="475.295,-1120.41 466.786,-1114.1 469.502,-1124.34 475.295,-1120.41"/>
</g>
<!-- \\TaskFixture&#45;&gt;\\CakeTestFixture -->
<g id="edge49" class="edge"><title>\\TaskFixture&#45;&gt;\\CakeTestFixture</title>
<path fill="none" stroke="black" d="M409.109,-1104.25C365.147,-1109.38 299.524,-1109.37 258,-1074 168.593,-997.844 111.217,-615.717 96.6601,-508.191"/>
<polygon fill="none" stroke="black" points="100.106,-507.556 95.3122,-498.108 93.1681,-508.484 100.106,-507.556"/>
</g>
<!-- \\TaskStatisticsFixture -->
<g id="node26" class="node"><title>\\TaskStatisticsFixture</title>
<polygon fill="none" stroke="black" points="909,-666 751,-666 751,-630 909,-630 909,-666"/>
<text text-anchor="middle" x="830" y="-645.1" font-family="Courier,monospace" font-size="11.00">TaskStatisticsFixture</text>
</g>
<!-- \\TaskStatisticsFixture&#45;&gt;\\CakeTestFixture -->
<g id="edge51" class="edge"><title>\\TaskStatisticsFixture&#45;&gt;\\CakeTestFixture</title>
<path fill="none" stroke="black" d="M750.974,-638.97C740.811,-634.825 731.392,-629.037 724,-621 592.822,-478.383 793.712,-323.156 652,-191 587.671,-131.008 542.405,-181.883 455,-172"/>
<path fill="none" stroke="black" d="M455,-172C367.595,-162.117 331.861,-143.231 258,-191 161.893,-253.157 115.721,-392.179 99.7535,-451.88"/>
<polygon fill="none" stroke="black" points="96.3184,-451.184 97.1996,-461.742 103.095,-452.939 96.3184,-451.184"/>
</g>
<!-- \\TaskHelper -->
<g id="node27" class="node"><title>\\TaskHelper</title>
<polygon fill="none" stroke="black" points="872,-612 788,-612 788,-576 872,-576 872,-612"/>
<text text-anchor="middle" x="830" y="-591.1" font-family="Courier,monospace" font-size="11.00">TaskHelper</text>
</g>
<!-- \\AppHelper -->
<g id="node66" class="node"><title>\\AppHelper</title>
<ellipse fill="none" stroke="black" cx="455" cy="-126" rx="65.0538" ry="18.3848"/>
<text text-anchor="middle" x="455" y="-122.4" font-family="Times Roman,serif" font-size="14.00" fill="gray">\AppHelper</text>
</g>
<!-- \\TaskHelper&#45;&gt;\\AppHelper -->
<g id="edge53" class="edge"><title>\\TaskHelper&#45;&gt;\\AppHelper</title>
<path fill="none" stroke="black" d="M787.818,-593.698C765.794,-591.249 740.143,-584.404 724,-567 598.483,-431.676 783.373,-287.647 652,-158 619.191,-125.622 567.283,-118.254 524.985,-118.645"/>
<polygon fill="none" stroke="black" points="524.648,-115.152 514.735,-118.891 524.816,-122.15 524.648,-115.152"/>
</g>
<!-- \\TaskRunner -->
<g id="node28" class="node"><title>\\TaskRunner</title>
<polygon fill="none" stroke="black" points="872,-558 788,-558 788,-522 872,-522 872,-558"/>
<text text-anchor="middle" x="830" y="-537.1" font-family="Courier,monospace" font-size="11.00">TaskRunner</text>
</g>
<!-- \\Object -->
<g id="node68" class="node"><title>\\Object</title>
<ellipse fill="none" stroke="black" cx="455" cy="-72" rx="45.9619" ry="18.3848"/>
<text text-anchor="middle" x="455" y="-68.4" font-family="Times Roman,serif" font-size="14.00" fill="gray">\Object</text>
</g>
<!-- \\TaskRunner&#45;&gt;\\Object -->
<g id="edge55" class="edge"><title>\\TaskRunner&#45;&gt;\\Object</title>
<path fill="none" stroke="black" d="M787.804,-539.711C765.775,-537.266 740.125,-530.421 724,-513 597.136,-375.94 786.415,-228.663 652,-99 614.198,-62.5346 551.744,-59.877 507.293,-63.7218"/>
<polygon fill="none" stroke="black" points="506.856,-60.248 497.254,-64.7257 507.552,-67.2133 506.856,-60.248"/>
</g>
<!-- \\TaskType -->
<g id="node29" class="node"><title>\\TaskType</title>
<polygon fill="none" stroke="black" points="872,-504 788,-504 788,-468 872,-468 872,-504"/>
<text text-anchor="start" x="796" y="-491.433" font-family="Courier,monospace" font-size="11.00">«abstract»</text>
<text text-anchor="start" x="802.5" y="-478.233" font-family="Courier,monospace" font-size="11.00">TaskType</text>
</g>
<!-- \\TaskProcess -->
<g id="node30" class="node"><title>\\TaskProcess</title>
<polygon fill="none" stroke="black" points="875,-450 785,-450 785,-414 875,-414 875,-450"/>
<text text-anchor="middle" x="830" y="-429.1" font-family="Courier,monospace" font-size="11.00">TaskProcess</text>
</g>
<!-- \\Symfony\\Component\\Process\\Process -->
<g id="node70" class="node"><title>\\Symfony\\Component\\Process\\Process</title>
<ellipse fill="none" stroke="black" cx="455" cy="-18" rx="196.075" ry="18.3848"/>
<text text-anchor="middle" x="455" y="-14.4" font-family="Times Roman,serif" font-size="14.00" fill="gray">\Symfony\Component\Process\Process</text>
</g>
<!-- \\TaskProcess&#45;&gt;\\Symfony\\Component\\Process\\Process -->
<g id="edge57" class="edge"><title>\\TaskProcess&#45;&gt;\\Symfony\\Component\\Process\\Process</title>
<path fill="none" stroke="black" d="M827.719,-413.576C818.821,-350.24 780.322,-140.134 652,-45 645.123,-39.902 637.731,-35.5382 629.986,-31.8144"/>
<polygon fill="none" stroke="black" points="631.305,-28.5706 620.744,-27.7312 628.476,-34.9737 631.305,-28.5706"/>
</g>
</g>
</svg>
