<?xml version="1.0" encoding="UTF-8" standalone="no"?>
<!DOCTYPE svg PUBLIC "-//W3C//DTD SVG 1.1//EN"
 "http://www.w3.org/Graphics/SVG/1.1/DTD/svg11.dtd">
<!-- Generated by graphviz version 2.26.3 (20100126.1600)
 -->
<!-- Title: G Pages: 1 -->
<svg width="878pt" height="1268pt"
 viewBox="0.00 0.00 878.00 1268.00" xmlns="http://www.w3.org/2000/svg" xmlns:xlink="http://www.w3.org/1999/xlink">
<g id="graph1" class="graph" transform="scale(1 1) rotate(0) translate(4 1264)">
<title>G</title>
<polygon fill="white" stroke="white" points="-4,5 -4,-1264 875,-1264 875,5 -4,5"/>
<g id="graph2" class="cluster"><title>cluster_Global</title>
<polyline fill="none" stroke="gray" points="371,-368 850,-368 "/>
<path fill="none" stroke="gray" d="M850,-368C856,-368 862,-374 862,-380"/>
<polyline fill="none" stroke="gray" points="862,-380 862,-1240 "/>
<path fill="none" stroke="gray" d="M862,-1240C862,-1246 856,-1252 850,-1252"/>
<polyline fill="none" stroke="gray" points="850,-1252 371,-1252 "/>
<path fill="none" stroke="gray" d="M371,-1252C365,-1252 359,-1246 359,-1240"/>
<polyline fill="none" stroke="gray" points="359,-1240 359,-380 "/>
<path fill="none" stroke="gray" d="M359,-380C359,-374 365,-368 371,-368"/>
<text text-anchor="middle" x="610.5" y="-1238.1" font-family="Times Roman,serif" font-size="11.00" fill="gray">Global</text>
</g>
<!-- \\TaskHelper -->
<g id="node2" class="node"><title>\\TaskHelper</title>
<polygon fill="none" stroke="black" points="820,-1006 736,-1006 736,-970 820,-970 820,-1006"/>
<text text-anchor="middle" x="778" y="-985.1" font-family="Courier,monospace" font-size="11.00">TaskHelper</text>
</g>
<!-- \\AppHelper -->
<g id="node22" class="node"><title>\\AppHelper</title>
<ellipse fill="none" stroke="black" cx="433" cy="-342" rx="65.0538" ry="18.3848"/>
<text text-anchor="middle" x="433" y="-338.4" font-family="Times Roman,serif" font-size="14.00" fill="gray">\AppHelper</text>
</g>
<!-- \\TaskHelper&#45;&gt;\\AppHelper -->
<g id="edge3" class="edge"><title>\\TaskHelper&#45;&gt;\\AppHelper</title>
<path fill="none" stroke="black" d="M735.887,-981.844C723.184,-977.918 710.397,-971.497 702,-961 535.048,-752.307 819.809,-552.144 630,-364 595.833,-330.132 540.238,-326.693 496.805,-330.548"/>
<polygon fill="none" stroke="black" points="496.197,-327.092 486.611,-331.604 496.918,-334.055 496.197,-327.092"/>
</g>
<!-- \\TaskType -->
<g id="node3" class="node"><title>\\TaskType</title>
<polygon fill="none" stroke="black" points="813,-1222 743,-1222 743,-1186 813,-1186 813,-1222"/>
<text text-anchor="middle" x="778" y="-1201.1" font-family="Courier,monospace" font-size="11.00">TaskType</text>
</g>
<!-- \\Type -->
<g id="node4" class="node"><title>\\Type</title>
<polygon fill="none" stroke="black" points="460,-1222 406,-1222 406,-1186 460,-1186 460,-1222"/>
<text text-anchor="middle" x="433" y="-1201.1" font-family="Courier,monospace" font-size="11.00">Type</text>
</g>
<!-- \\TaskType&#45;&gt;\\Type -->
<g id="edge5" class="edge"><title>\\TaskType&#45;&gt;\\Type</title>
<path fill="none" stroke="black" d="M742.378,-1204C676.684,-1204 537.067,-1204 470.205,-1204"/>
<polygon fill="none" stroke="black" points="470.121,-1200.5 460.121,-1204 470.121,-1207.5 470.121,-1200.5"/>
</g>
<!-- \\TaskRunner -->
<g id="node5" class="node"><title>\\TaskRunner</title>
<polygon fill="none" stroke="black" points="820,-952 736,-952 736,-916 820,-916 820,-952"/>
<text text-anchor="middle" x="778" y="-931.1" font-family="Courier,monospace" font-size="11.00">TaskRunner</text>
</g>
<!-- \\Object -->
<g id="node25" class="node"><title>\\Object</title>
<ellipse fill="none" stroke="black" cx="433" cy="-288" rx="45.9619" ry="18.3848"/>
<text text-anchor="middle" x="433" y="-284.4" font-family="Times Roman,serif" font-size="14.00" fill="gray">\Object</text>
</g>
<!-- \\TaskRunner&#45;&gt;\\Object -->
<g id="edge7" class="edge"><title>\\TaskRunner&#45;&gt;\\Object</title>
<path fill="none" stroke="black" d="M735.894,-927.839C723.191,-923.913 710.402,-917.493 702,-907 536.323,-700.112 815.991,-503.836 630,-315 592.919,-277.351 529.746,-275.073 484.943,-279.327"/>
<polygon fill="none" stroke="black" points="484.392,-275.866 474.829,-280.426 485.149,-282.825 484.392,-275.866"/>
</g>
<!-- \\TaskProcess -->
<g id="node6" class="node"><title>\\TaskProcess</title>
<polygon fill="none" stroke="black" points="823,-898 733,-898 733,-862 823,-862 823,-898"/>
<text text-anchor="middle" x="778" y="-877.1" font-family="Courier,monospace" font-size="11.00">TaskProcess</text>
</g>
<!-- \\Symfony\\Component\\Process\\Process -->
<g id="node27" class="node"><title>\\Symfony\\Component\\Process\\Process</title>
<ellipse fill="none" stroke="black" cx="433" cy="-234" rx="196.075" ry="18.3848"/>
<text text-anchor="middle" x="433" y="-230.4" font-family="Times Roman,serif" font-size="14.00" fill="gray">\Symfony\Component\Process\Process</text>
</g>
<!-- \\TaskProcess&#45;&gt;\\Symfony\\Component\\Process\\Process -->
<g id="edge9" class="edge"><title>\\TaskProcess&#45;&gt;\\Symfony\\Component\\Process\\Process</title>
<path fill="none" stroke="black" d="M732.322,-872.668C720.831,-868.673 709.615,-862.509 702,-853 536.323,-646.112 815.991,-449.836 630,-261 625.117,-256.043 619.782,-251.699 614.096,-247.902"/>
<polygon fill="none" stroke="black" points="615.895,-244.9 605.527,-242.723 612.275,-250.891 615.895,-244.9"/>
</g>
<!-- \\TaskServerTask -->
<g id="node7" class="node"><title>\\TaskServerTask</title>
<polygon fill="none" stroke="black" points="833,-790 723,-790 723,-754 833,-754 833,-790"/>
<text text-anchor="middle" x="778" y="-769.1" font-family="Courier,monospace" font-size="11.00">TaskServerTask</text>
</g>
<!-- \\Shell -->
<g id="node29" class="node"><title>\\Shell</title>
<ellipse fill="none" stroke="black" cx="433" cy="-180" rx="38.8909" ry="18.3848"/>
<text text-anchor="middle" x="433" y="-176.4" font-family="Times Roman,serif" font-size="14.00" fill="gray">\Shell</text>
</g>
<!-- \\TaskServerTask&#45;&gt;\\Shell -->
<g id="edge11" class="edge"><title>\\TaskServerTask&#45;&gt;\\Shell</title>
<path fill="none" stroke="black" d="M722.252,-760.418C714.51,-756.641 707.379,-751.635 702,-745 550.076,-557.604 800.314,-377.855 630,-207 591.11,-167.987 524.162,-167.119 479.244,-172"/>
<polygon fill="none" stroke="black" points="478.674,-168.544 469.172,-173.231 479.522,-175.492 478.674,-168.544"/>
</g>
<!-- \\TaskShell -->
<g id="node8" class="node"><title>\\TaskShell</title>
<polygon fill="none" stroke="black" points="816,-736 740,-736 740,-700 816,-700 816,-736"/>
<text text-anchor="middle" x="778" y="-715.1" font-family="Courier,monospace" font-size="11.00">TaskShell</text>
</g>
<!-- \\TaskShell&#45;&gt;\\Shell -->
<g id="edge13" class="edge"><title>\\TaskShell&#45;&gt;\\Shell</title>
<path fill="none" stroke="black" d="M739.224,-712.64C725.531,-708.809 711.253,-702.245 702,-691 563.809,-523.071 784.66,-359.896 630,-207 590.94,-168.385 524.336,-167.34 479.514,-172.08"/>
<polygon fill="none" stroke="black" points="478.975,-168.62 469.46,-173.279 479.804,-175.571 478.975,-168.62"/>
</g>
<!-- \\TaskAppController -->
<g id="node9" class="node"><title>\\TaskAppController</title>
<polygon fill="none" stroke="black" points="498,-1168 368,-1168 368,-1132 498,-1132 498,-1168"/>
<text text-anchor="middle" x="433" y="-1147.1" font-family="Courier,monospace" font-size="11.00">TaskAppController</text>
</g>
<!-- \\AppController -->
<g id="node32" class="node"><title>\\AppController</title>
<ellipse fill="none" stroke="black" cx="82" cy="-1150" rx="82.0244" ry="18.3848"/>
<text text-anchor="middle" x="82" y="-1146.4" font-family="Times Roman,serif" font-size="14.00" fill="gray">\AppController</text>
</g>
<!-- \\TaskAppController&#45;&gt;\\AppController -->
<g id="edge15" class="edge"><title>\\TaskAppController&#45;&gt;\\AppController</title>
<path fill="none" stroke="black" d="M367.391,-1150C313.09,-1150 235.301,-1150 174.648,-1150"/>
<polygon fill="none" stroke="black" points="174.301,-1146.5 164.301,-1150 174.301,-1153.5 174.301,-1146.5"/>
</g>
<!-- \\TaskController -->
<g id="node10" class="node"><title>\\TaskController</title>
<polygon fill="none" stroke="black" points="833,-1168 723,-1168 723,-1132 833,-1132 833,-1168"/>
<text text-anchor="middle" x="778" y="-1147.1" font-family="Courier,monospace" font-size="11.00">TaskController</text>
</g>
<!-- \\TaskController&#45;&gt;\\TaskAppController -->
<g id="edge17" class="edge"><title>\\TaskController&#45;&gt;\\TaskAppController</title>
<path fill="none" stroke="black" d="M722.186,-1150C664.259,-1150 573.282,-1150 508.857,-1150"/>
<polygon fill="none" stroke="black" points="508.755,-1146.5 498.755,-1150 508.755,-1153.5 508.755,-1146.5"/>
</g>
<!-- \\TaskProfiler -->
<g id="node11" class="node"><title>\\TaskProfiler</title>
<polygon fill="none" stroke="black" points="827,-844 729,-844 729,-808 827,-808 827,-844"/>
<text text-anchor="middle" x="778" y="-823.1" font-family="Courier,monospace" font-size="11.00">TaskProfiler</text>
</g>
<!-- \\TaskClient -->
<g id="node12" class="node"><title>\\TaskClient</title>
<polygon fill="none" stroke="black" points="820,-1114 736,-1114 736,-1078 820,-1078 820,-1114"/>
<text text-anchor="middle" x="778" y="-1093.1" font-family="Courier,monospace" font-size="11.00">TaskClient</text>
</g>
<!-- \\TaskModel -->
<g id="node14" class="node"><title>\\TaskModel</title>
<polygon fill="none" stroke="black" points="471,-1087 395,-1087 395,-1051 471,-1051 471,-1087"/>
<text text-anchor="middle" x="433" y="-1066.1" font-family="Courier,monospace" font-size="11.00">TaskModel</text>
</g>
<!-- \\TaskClient&#45;&gt;\\TaskModel -->
<g id="edge19" class="edge"><title>\\TaskClient&#45;&gt;\\TaskModel</title>
<path fill="none" stroke="black" d="M735.696,-1092.69C671.431,-1087.66 549.526,-1078.12 481.673,-1072.81"/>
<polygon fill="none" stroke="black" points="481.908,-1069.32 471.665,-1072.03 481.362,-1076.3 481.908,-1069.32"/>
</g>
<!-- \\TaskServer -->
<g id="node13" class="node"><title>\\TaskServer</title>
<polygon fill="none" stroke="black" points="820,-1060 736,-1060 736,-1024 820,-1024 820,-1060"/>
<text text-anchor="middle" x="778" y="-1039.1" font-family="Courier,monospace" font-size="11.00">TaskServer</text>
</g>
<!-- \\TaskServer&#45;&gt;\\TaskModel -->
<g id="edge21" class="edge"><title>\\TaskServer&#45;&gt;\\TaskModel</title>
<path fill="none" stroke="black" d="M735.696,-1045.31C671.431,-1050.34 549.526,-1059.88 481.673,-1065.19"/>
<polygon fill="none" stroke="black" points="481.362,-1061.7 471.665,-1065.97 481.908,-1068.68 481.362,-1061.7"/>
</g>
<!-- \\AppModel -->
<g id="node37" class="node"><title>\\AppModel</title>
<ellipse fill="none" stroke="black" cx="82" cy="-1069" rx="62.2254" ry="18.3848"/>
<text text-anchor="middle" x="82" y="-1065.4" font-family="Times Roman,serif" font-size="14.00" fill="gray">\AppModel</text>
</g>
<!-- \\TaskModel&#45;&gt;\\AppModel -->
<g id="edge23" class="edge"><title>\\TaskModel&#45;&gt;\\AppModel</title>
<path fill="none" stroke="black" d="M394.433,-1069C336.773,-1069 227.1,-1069 154.253,-1069"/>
<polygon fill="none" stroke="black" points="154.228,-1065.5 144.228,-1069 154.228,-1072.5 154.228,-1065.5"/>
</g>
<!-- \\DependentTaskFixture -->
<g id="node15" class="node"><title>\\DependentTaskFixture</title>
<polygon fill="none" stroke="black" points="854,-682 702,-682 702,-646 854,-646 854,-682"/>
<text text-anchor="middle" x="778" y="-661.1" font-family="Courier,monospace" font-size="11.00">DependentTaskFixture</text>
</g>
<!-- \\CakeTestFixture -->
<g id="node39" class="node"><title>\\CakeTestFixture</title>
<ellipse fill="none" stroke="black" cx="433" cy="-126" rx="92.1303" ry="18.3848"/>
<text text-anchor="middle" x="433" y="-122.4" font-family="Times Roman,serif" font-size="14.00" fill="gray">\CakeTestFixture</text>
</g>
<!-- \\DependentTaskFixture&#45;&gt;\\CakeTestFixture -->
<g id="edge25" class="edge"><title>\\DependentTaskFixture&#45;&gt;\\CakeTestFixture</title>
<path fill="none" stroke="black" d="M711.465,-645.859C707.963,-643.288 704.758,-640.352 702,-637 563.809,-469.071 784.66,-305.896 630,-153 601.83,-125.151 559.335,-116.843 521.015,-116.154"/>
<polygon fill="none" stroke="black" points="520.859,-112.653 510.855,-116.143 520.852,-119.653 520.859,-112.653"/>
</g>
<!-- \\TaskFixture -->
<g id="node16" class="node"><title>\\TaskFixture</title>
<polygon fill="none" stroke="black" points="823,-628 733,-628 733,-592 823,-592 823,-628"/>
<text text-anchor="middle" x="778" y="-607.1" font-family="Courier,monospace" font-size="11.00">TaskFixture</text>
</g>
<!-- \\TaskFixture&#45;&gt;\\CakeTestFixture -->
<g id="edge27" class="edge"><title>\\TaskFixture&#45;&gt;\\CakeTestFixture</title>
<path fill="none" stroke="black" d="M732.203,-602.302C720.852,-598.303 709.736,-592.228 702,-583 577.514,-434.505 769.036,-287.968 630,-153 601.691,-125.52 559.396,-117.194 521.244,-116.398"/>
<polygon fill="none" stroke="black" points="521.142,-112.898 511.128,-116.357 521.114,-119.898 521.142,-112.898"/>
</g>
<!-- \\TaskRunnerTest -->
<g id="node17" class="node"><title>\\TaskRunnerTest</title>
<polygon fill="none" stroke="black" points="833,-520 723,-520 723,-484 833,-484 833,-520"/>
<text text-anchor="middle" x="778" y="-499.1" font-family="Courier,monospace" font-size="11.00">TaskRunnerTest</text>
</g>
<!-- \\CakeTestCase -->
<g id="node42" class="node"><title>\\CakeTestCase</title>
<ellipse fill="none" stroke="black" cx="433" cy="-72" rx="82.0244" ry="18.3848"/>
<text text-anchor="middle" x="433" y="-68.4" font-family="Times Roman,serif" font-size="14.00" fill="gray">\CakeTestCase</text>
</g>
<!-- \\TaskRunnerTest&#45;&gt;\\CakeTestCase -->
<g id="edge29" class="edge"><title>\\TaskRunnerTest&#45;&gt;\\CakeTestCase</title>
<path fill="none" stroke="black" d="M722.19,-489.965C714.554,-486.245 707.472,-481.375 702,-475 591.18,-345.891 753.458,-216.083 630,-99 599.584,-70.1546 553.699,-62.5991 513.863,-62.6265"/>
<polygon fill="none" stroke="black" points="513.553,-59.1311 503.612,-62.797 513.669,-66.1301 513.553,-59.1311"/>
</g>
<!-- \\TaskClientTest -->
<g id="node18" class="node"><title>\\TaskClientTest</title>
<polygon fill="none" stroke="black" points="833,-466 723,-466 723,-430 833,-430 833,-466"/>
<text text-anchor="middle" x="778" y="-445.1" font-family="Courier,monospace" font-size="11.00">TaskClientTest</text>
</g>
<!-- \\TaskClientTest&#45;&gt;\\CakeTestCase -->
<g id="edge31" class="edge"><title>\\TaskClientTest&#45;&gt;\\CakeTestCase</title>
<path fill="none" stroke="black" d="M722.362,-435.816C714.703,-432.115 707.569,-427.29 702,-421 604.786,-311.208 737.945,-198.261 630,-99 599.494,-70.9486 554.277,-63.2687 514.855,-63.0229"/>
<polygon fill="none" stroke="black" points="514.672,-59.5244 504.706,-63.1192 514.739,-66.5241 514.672,-59.5244"/>
</g>
<!-- \\TaskServerTest -->
<g id="node19" class="node"><title>\\TaskServerTest</title>
<polygon fill="none" stroke="black" points="833,-574 723,-574 723,-538 833,-538 833,-574"/>
<text text-anchor="middle" x="778" y="-553.1" font-family="Courier,monospace" font-size="11.00">TaskServerTest</text>
</g>
<!-- \\TaskServerTest&#45;&gt;\\CakeTestCase -->
<g id="edge33" class="edge"><title>\\TaskServerTest&#45;&gt;\\CakeTestCase</title>
<path fill="none" stroke="black" d="M722.44,-544.262C714.675,-540.505 707.487,-535.546 702,-529 577.514,-380.505 769.036,-233.968 630,-99 599.63,-69.5186 553.162,-62.0836 512.982,-62.3396"/>
<polygon fill="none" stroke="black" points="512.836,-58.8419 502.916,-62.5617 512.991,-65.8402 512.836,-58.8419"/>
</g>
<!-- \\AllTaskTest -->
<g id="node20" class="node"><title>\\AllTaskTest</title>
<polygon fill="none" stroke="black" points="823,-412 733,-412 733,-376 823,-376 823,-412"/>
<text text-anchor="middle" x="778" y="-391.1" font-family="Courier,monospace" font-size="11.00">AllTaskTest</text>
</g>
<!-- \\PHPUnit_Framework_TestSuite -->
<g id="node46" class="node"><title>\\PHPUnit_Framework_TestSuite</title>
<ellipse fill="none" stroke="black" cx="433" cy="-18" rx="166.877" ry="18.3848"/>
<text text-anchor="middle" x="433" y="-14.4" font-family="Times Roman,serif" font-size="14.00" fill="gray">\PHPUnit_Framework_TestSuite</text>
</g>
<!-- \\AllTaskTest&#45;&gt;\\PHPUnit_Framework_TestSuite -->
<g id="edge35" class="edge"><title>\\AllTaskTest&#45;&gt;\\PHPUnit_Framework_TestSuite</title>
<path fill="none" stroke="black" d="M776.389,-375.81C770.128,-316.955 741.868,-130.566 630,-45 620.881,-38.0248 610.806,-32.4063 600.178,-27.9097"/>
<polygon fill="none" stroke="black" points="601.295,-24.589 590.706,-24.241 598.767,-31.1165 601.295,-24.589"/>
</g>
</g>
</svg>
