<?xml version="1.0" encoding="UTF-8" standalone="no"?>
<!DOCTYPE svg PUBLIC "-//W3C//DTD SVG 1.1//EN"
 "http://www.w3.org/Graphics/SVG/1.1/DTD/svg11.dtd">
<!-- Generated by graphviz version 2.26.3 (20100126.1600)
 -->
<!-- Title: G Pages: 1 -->
<svg width="960pt" height="2056pt"
 viewBox="0.00 0.00 960.00 2056.28" xmlns="http://www.w3.org/2000/svg" xmlns:xlink="http://www.w3.org/1999/xlink">
<g id="graph1" class="graph" transform="scale(1 1) rotate(0) translate(4 2052.28)">
<title>G</title>
<polygon fill="white" stroke="white" points="-4,5 -4,-2052.28 957,-2052.28 957,5 -4,5"/>
<g id="graph2" class="cluster"><title>cluster_Global</title>
<polyline fill="none" stroke="gray" points="413,-524.853 932,-524.853 "/>
<path fill="none" stroke="gray" d="M932,-524.853C938,-524.853 944,-530.853 944,-536.853"/>
<polyline fill="none" stroke="gray" points="944,-536.853 944,-1936.85 "/>
<path fill="none" stroke="gray" d="M944,-1936.85C944,-1942.85 938,-1948.85 932,-1948.85"/>
<polyline fill="none" stroke="gray" points="932,-1948.85 413,-1948.85 "/>
<path fill="none" stroke="gray" d="M413,-1948.85C407,-1948.85 401,-1942.85 401,-1936.85"/>
<polyline fill="none" stroke="gray" points="401,-1936.85 401,-536.853 "/>
<path fill="none" stroke="gray" d="M401,-536.853C401,-530.853 407,-524.853 413,-524.853"/>
<text text-anchor="middle" x="672.5" y="-1934.95" font-family="Times Roman,serif" font-size="11.00" fill="gray">Global</text>
</g>
<!-- \\TaskController -->
<g id="node2" class="node"><title>\\TaskController</title>
<polygon fill="none" stroke="black" points="885,-1864.85 775,-1864.85 775,-1828.85 885,-1828.85 885,-1864.85"/>
<text text-anchor="middle" x="830" y="-1843.95" font-family="Courier,monospace" font-size="11.00">TaskController</text>
</g>
<!-- \\AppController -->
<g id="node31" class="node"><title>\\AppController</title>
<ellipse fill="none" stroke="black" cx="455" cy="-1974.85" rx="82.0244" ry="18.3848"/>
<text text-anchor="middle" x="455" y="-1971.25" font-family="Times Roman,serif" font-size="14.00" fill="gray">\AppController</text>
</g>
<!-- \\TaskController&#45;&gt;\\AppController -->
<g id="edge3" class="edge"><title>\\TaskController&#45;&gt;\\AppController</title>
<path fill="none" stroke="black" d="M774.494,-1854.63C757.468,-1858.65 739.224,-1864.72 724,-1873.85 683.268,-1898.3 694.323,-1931.28 652,-1952.85 619.63,-1969.36 580.453,-1975.99 545.589,-1978.09"/>
<polygon fill="none" stroke="black" points="545.22,-1974.6 535.401,-1978.58 545.559,-1981.59 545.22,-1974.6"/>
</g>
<!-- \\TaskStatisticsFixture -->
<g id="node3" class="node"><title>\\TaskStatisticsFixture</title>
<polygon fill="none" stroke="black" points="909,-1918.85 751,-1918.85 751,-1882.85 909,-1882.85 909,-1918.85"/>
<text text-anchor="middle" x="830" y="-1897.95" font-family="Courier,monospace" font-size="11.00">TaskStatisticsFixture</text>
</g>
<!-- \\CakeTestFixture -->
<g id="node33" class="node"><title>\\CakeTestFixture</title>
<ellipse fill="none" stroke="black" cx="93" cy="-1792.85" rx="92.1303" ry="18.3848"/>
<text text-anchor="middle" x="93" y="-1789.25" font-family="Times Roman,serif" font-size="14.00" fill="gray">\CakeTestFixture</text>
</g>
<!-- \\TaskStatisticsFixture&#45;&gt;\\CakeTestFixture -->
<g id="edge5" class="edge"><title>\\TaskStatisticsFixture&#45;&gt;\\CakeTestFixture</title>
<path fill="none" stroke="black" d="M807.255,-1918.98C774.97,-1943.43 712.979,-1985.76 652,-2001.85 482.687,-2046.54 415.583,-2078.22 258,-2001.85 179.35,-1963.74 126.879,-1867.94 104.814,-1820.44"/>
<polygon fill="none" stroke="black" points="107.886,-1818.74 100.569,-1811.07 101.51,-1821.63 107.886,-1818.74"/>
</g>
<!-- \\DependentTaskFixture -->
<g id="node4" class="node"><title>\\DependentTaskFixture</title>
<polygon fill="none" stroke="black" points="906,-1810.85 754,-1810.85 754,-1774.85 906,-1774.85 906,-1810.85"/>
<text text-anchor="middle" x="830" y="-1789.95" font-family="Courier,monospace" font-size="11.00">DependentTaskFixture</text>
</g>
<!-- \\DependentTaskFixture&#45;&gt;\\CakeTestFixture -->
<g id="edge7" class="edge"><title>\\DependentTaskFixture&#45;&gt;\\CakeTestFixture</title>
<path fill="none" stroke="black" d="M753.904,-1792.85C620.793,-1792.85 345.614,-1792.85 195.741,-1792.85"/>
<polygon fill="none" stroke="black" points="195.611,-1789.35 185.611,-1792.85 195.611,-1796.35 195.611,-1789.35"/>
</g>
<!-- \\TaskFixture -->
<g id="node5" class="node"><title>\\TaskFixture</title>
<polygon fill="none" stroke="black" points="500,-1760.85 410,-1760.85 410,-1724.85 500,-1724.85 500,-1760.85"/>
<text text-anchor="middle" x="455" y="-1739.95" font-family="Courier,monospace" font-size="11.00">TaskFixture</text>
</g>
<!-- \\TaskFixture&#45;&gt;\\CakeTestFixture -->
<g id="edge9" class="edge"><title>\\TaskFixture&#45;&gt;\\CakeTestFixture</title>
<path fill="none" stroke="black" d="M409.13,-1747.23C369.145,-1751.22 309.63,-1757.6 258,-1764.85 229.428,-1768.87 198.194,-1773.98 170.663,-1778.74"/>
<polygon fill="none" stroke="black" points="169.952,-1775.31 160.7,-1780.47 171.152,-1782.21 169.952,-1775.31"/>
</g>
<!-- \\TaskProfilerFixture -->
<g id="node6" class="node"><title>\\TaskProfilerFixture</title>
<polygon fill="none" stroke="black" points="902,-1756.85 758,-1756.85 758,-1720.85 902,-1720.85 902,-1756.85"/>
<text text-anchor="middle" x="830" y="-1735.95" font-family="Courier,monospace" font-size="11.00">TaskProfilerFixture</text>
</g>
<!-- \\TaskProfilerFixture&#45;&gt;\\TaskFixture -->
<g id="edge11" class="edge"><title>\\TaskProfilerFixture&#45;&gt;\\TaskFixture</title>
<path fill="none" stroke="black" d="M757.252,-1739.63C685.176,-1740.4 576.342,-1741.56 510.824,-1742.26"/>
<polygon fill="none" stroke="black" points="510.655,-1738.76 500.693,-1742.37 510.729,-1745.76 510.655,-1738.76"/>
</g>
<!-- \\TaskControllerTest -->
<g id="node7" class="node"><title>\\TaskControllerTest</title>
<polygon fill="none" stroke="black" points="899,-1594.85 761,-1594.85 761,-1558.85 899,-1558.85 899,-1594.85"/>
<text text-anchor="middle" x="830" y="-1573.95" font-family="Courier,monospace" font-size="11.00">TaskControllerTest</text>
</g>
<!-- \\ControllerTestCase -->
<g id="node38" class="node"><title>\\ControllerTestCase</title>
<ellipse fill="none" stroke="black" cx="455" cy="-498.853" rx="106.773" ry="18.3848"/>
<text text-anchor="middle" x="455" y="-495.253" font-family="Times Roman,serif" font-size="14.00" fill="gray">\ControllerTestCase</text>
</g>
<!-- \\TaskControllerTest&#45;&gt;\\ControllerTestCase -->
<g id="edge13" class="edge"><title>\\TaskControllerTest&#45;&gt;\\ControllerTestCase</title>
<path fill="none" stroke="black" d="M760.745,-1572.18C746.695,-1567.99 733.371,-1561.08 724,-1549.85 577.098,-1373.89 810.701,-686.257 652,-520.853 623.945,-491.613 580.02,-484.617 540.76,-485.589"/>
<polygon fill="none" stroke="black" points="540.471,-482.098 530.627,-486.014 540.765,-489.091 540.471,-482.098"/>
</g>
<!-- \\TaskHelperTest -->
<g id="node8" class="node"><title>\\TaskHelperTest</title>
<polygon fill="none" stroke="black" points="885,-1216.85 775,-1216.85 775,-1180.85 885,-1180.85 885,-1216.85"/>
<text text-anchor="middle" x="830" y="-1195.95" font-family="Courier,monospace" font-size="11.00">TaskHelperTest</text>
</g>
<!-- \\CakeTestCase -->
<g id="node40" class="node"><title>\\CakeTestCase</title>
<ellipse fill="none" stroke="black" cx="455" cy="-444.853" rx="82.0244" ry="18.3848"/>
<text text-anchor="middle" x="455" y="-441.253" font-family="Times Roman,serif" font-size="14.00" fill="gray">\CakeTestCase</text>
</g>
<!-- \\TaskHelperTest&#45;&gt;\\CakeTestCase -->
<g id="edge15" class="edge"><title>\\TaskHelperTest&#45;&gt;\\CakeTestCase</title>
<path fill="none" stroke="black" d="M774.26,-1197.12C755.673,-1193.64 736.531,-1186.37 724,-1171.85 621.839,-1053.46 760.695,-584.276 652,-471.853 622.027,-440.852 574.4,-433.676 533.484,-434.456"/>
<polygon fill="none" stroke="black" points="533.112,-430.966 523.241,-434.816 533.358,-437.962 533.112,-430.966"/>
</g>
<!-- \\TaskProcessTest -->
<g id="node9" class="node"><title>\\TaskProcessTest</title>
<polygon fill="none" stroke="black" points="889,-1162.85 771,-1162.85 771,-1126.85 889,-1126.85 889,-1162.85"/>
<text text-anchor="middle" x="830" y="-1141.95" font-family="Courier,monospace" font-size="11.00">TaskProcessTest</text>
</g>
<!-- \\TaskProcessTest&#45;&gt;\\CakeTestCase -->
<g id="edge17" class="edge"><title>\\TaskProcessTest&#45;&gt;\\CakeTestCase</title>
<path fill="none" stroke="black" d="M770.735,-1142.34C753.309,-1138.61 735.782,-1131.39 724,-1117.85 534.34,-899.941 853.684,-678.687 652,-471.853 622.006,-441.093 574.617,-433.86 533.834,-434.548"/>
<polygon fill="none" stroke="black" points="533.502,-431.057 523.622,-434.884 533.732,-438.053 533.502,-431.057"/>
</g>
<!-- \\TaskRunnerTest -->
<g id="node10" class="node"><title>\\TaskRunnerTest</title>
<polygon fill="none" stroke="black" points="885,-1108.85 775,-1108.85 775,-1072.85 885,-1072.85 885,-1108.85"/>
<text text-anchor="middle" x="830" y="-1087.95" font-family="Courier,monospace" font-size="11.00">TaskRunnerTest</text>
</g>
<!-- \\TaskRunnerTest&#45;&gt;\\CakeTestCase -->
<g id="edge19" class="edge"><title>\\TaskRunnerTest&#45;&gt;\\CakeTestCase</title>
<path fill="none" stroke="black" d="M774.407,-1088.99C755.835,-1085.5 736.665,-1078.26 724,-1063.85 548.99,-864.798 837.991,-660.689 652,-471.853 621.964,-441.358 574.809,-434.069 534.165,-434.661"/>
<polygon fill="none" stroke="black" points="533.875,-431.168 523.986,-434.972 534.088,-438.164 533.875,-431.168"/>
</g>
<!-- \\TaskTypeTest -->
<g id="node11" class="node"><title>\\TaskTypeTest</title>
<polygon fill="none" stroke="black" points="879,-1540.85 781,-1540.85 781,-1504.85 879,-1504.85 879,-1540.85"/>
<text text-anchor="middle" x="830" y="-1519.95" font-family="Courier,monospace" font-size="11.00">TaskTypeTest</text>
</g>
<!-- \\TaskTypeTest&#45;&gt;\\CakeTestCase -->
<g id="edge21" class="edge"><title>\\TaskTypeTest&#45;&gt;\\CakeTestCase</title>
<path fill="none" stroke="black" d="M780.875,-1522.45C760.217,-1519.58 737.816,-1512.4 724,-1495.85 577.779,-1320.76 807.893,-638.391 652,-471.853 622.251,-440.072 574.009,-433.05 532.712,-434.106"/>
<polygon fill="none" stroke="black" points="532.499,-430.611 522.652,-434.522 532.789,-437.605 532.499,-430.611"/>
</g>
<!-- \\TaskServerTaskTest -->
<g id="node12" class="node"><title>\\TaskServerTaskTest</title>
<polygon fill="none" stroke="black" points="899,-1486.85 761,-1486.85 761,-1450.85 899,-1450.85 899,-1486.85"/>
<text text-anchor="middle" x="830" y="-1465.95" font-family="Courier,monospace" font-size="11.00">TaskServerTaskTest</text>
</g>
<!-- \\TaskServerTaskTest&#45;&gt;\\CakeTestCase -->
<g id="edge23" class="edge"><title>\\TaskServerTaskTest&#45;&gt;\\CakeTestCase</title>
<path fill="none" stroke="black" d="M760.78,-1464.15C746.728,-1459.97 733.395,-1453.06 724,-1441.85 585.128,-1276.22 800.02,-629.366 652,-471.853 622.189,-440.13 573.946,-433.109 532.664,-434.151"/>
<polygon fill="none" stroke="black" points="532.457,-430.656 522.609,-434.563 532.744,-437.65 532.457,-430.656"/>
</g>
<!-- \\TaskServerTaskTestEventModel1 -->
<g id="node13" class="node"><title>\\TaskServerTaskTestEventModel1</title>
<polygon fill="none" stroke="black" points="936,-1054.85 724,-1054.85 724,-1018.85 936,-1018.85 936,-1054.85"/>
<text text-anchor="middle" x="830" y="-1033.95" font-family="Courier,monospace" font-size="11.00">TaskServerTaskTestEventModel1</text>
</g>
<!-- \\CakeEventListener -->
<g id="node46" class="node"><title>\\CakeEventListener</title>
<ellipse fill="none" stroke="black" cx="455" cy="-390.853" rx="106.98" ry="18.3848"/>
<text text-anchor="middle" x="455" y="-387.253" font-family="Times Roman,serif" font-size="14.00" fill="gray">\CakeEventListener</text>
</g>
<!-- \\TaskServerTaskTestEventModel1&#45;&gt;\\CakeEventListener -->
<g id="edge25" class="edge"><title>\\TaskServerTaskTestEventModel1&#45;&gt;\\CakeEventListener</title>
<path fill="none" stroke="black" stroke-dasharray="1,5" d="M733.58,-1018.62C730.105,-1016.04 726.884,-1013.13 724,-1009.85 548.99,-810.798 837.991,-606.689 652,-417.853 626.81,-392.278 589.581,-383.025 554.249,-381.054"/>
<polygon fill="none" stroke="black" points="553.976,-377.542 543.854,-380.674 553.72,-384.537 553.976,-377.542"/>
</g>
<!-- \\TaskShellTest -->
<g id="node14" class="node"><title>\\TaskShellTest</title>
<polygon fill="none" stroke="black" points="882,-1432.85 778,-1432.85 778,-1396.85 882,-1396.85 882,-1432.85"/>
<text text-anchor="middle" x="830" y="-1411.95" font-family="Courier,monospace" font-size="11.00">TaskShellTest</text>
</g>
<!-- \\TaskShellTest&#45;&gt;\\CakeTestCase -->
<g id="edge27" class="edge"><title>\\TaskShellTest&#45;&gt;\\CakeTestCase</title>
<path fill="none" stroke="black" d="M777.926,-1413.94C758.141,-1410.8 737.211,-1403.54 724,-1387.85 592.475,-1231.67 792.15,-620.342 652,-471.853 622.12,-440.195 573.876,-433.175 532.611,-434.201"/>
<polygon fill="none" stroke="black" points="532.409,-430.706 522.56,-434.609 532.694,-437.7 532.409,-430.706"/>
</g>
<!-- \\TaskProfilerTest -->
<g id="node15" class="node"><title>\\TaskProfilerTest</title>
<polygon fill="none" stroke="black" points="892,-1378.85 768,-1378.85 768,-1342.85 892,-1342.85 892,-1378.85"/>
<text text-anchor="middle" x="830" y="-1357.95" font-family="Courier,monospace" font-size="11.00">TaskProfilerTest</text>
</g>
<!-- \\TaskProfilerTest&#45;&gt;\\CakeTestCase -->
<g id="edge29" class="edge"><title>\\TaskProfilerTest&#45;&gt;\\CakeTestCase</title>
<path fill="none" stroke="black" d="M767.466,-1357.84C751.057,-1353.95 734.919,-1346.75 724,-1333.85 599.82,-1187.13 784.281,-611.32 652,-471.853 622.152,-440.384 574.151,-433.301 533.005,-434.246"/>
<polygon fill="none" stroke="black" points="532.837,-430.75 522.98,-434.635 533.109,-437.745 532.837,-430.75"/>
</g>
<!-- \\TaskServerTest -->
<g id="node16" class="node"><title>\\TaskServerTest</title>
<polygon fill="none" stroke="black" points="885,-1324.85 775,-1324.85 775,-1288.85 885,-1288.85 885,-1324.85"/>
<text text-anchor="middle" x="830" y="-1303.95" font-family="Courier,monospace" font-size="11.00">TaskServerTest</text>
</g>
<!-- \\TaskServerTest&#45;&gt;\\CakeTestCase -->
<g id="edge31" class="edge"><title>\\TaskServerTest&#45;&gt;\\CakeTestCase</title>
<path fill="none" stroke="black" d="M774.427,-1305.26C755.743,-1301.82 736.493,-1294.53 724,-1279.85 607.163,-1142.57 776.416,-602.302 652,-471.853 622.065,-440.467 574.062,-433.385 532.937,-434.311"/>
<polygon fill="none" stroke="black" points="532.777,-430.814 522.918,-434.694 533.045,-437.809 532.777,-430.814"/>
</g>
<!-- \\TaskClientTest -->
<g id="node17" class="node"><title>\\TaskClientTest</title>
<polygon fill="none" stroke="black" points="885,-1270.85 775,-1270.85 775,-1234.85 885,-1234.85 885,-1270.85"/>
<text text-anchor="middle" x="830" y="-1249.95" font-family="Courier,monospace" font-size="11.00">TaskClientTest</text>
</g>
<!-- \\TaskClientTest&#45;&gt;\\CakeTestCase -->
<g id="edge33" class="edge"><title>\\TaskClientTest&#45;&gt;\\CakeTestCase</title>
<path fill="none" stroke="black" d="M774.478,-1251.22C755.798,-1247.77 736.539,-1240.49 724,-1225.85 614.503,-1098.02 768.554,-593.287 652,-471.853 622.14,-440.743 574.516,-433.564 533.573,-434.37"/>
<polygon fill="none" stroke="black" points="533.191,-430.881 523.323,-434.737 533.442,-437.877 533.191,-430.881"/>
</g>
<!-- \\AllTaskTest -->
<g id="node18" class="node"><title>\\AllTaskTest</title>
<polygon fill="none" stroke="black" points="875,-1000.85 785,-1000.85 785,-964.853 875,-964.853 875,-1000.85"/>
<text text-anchor="middle" x="830" y="-979.953" font-family="Courier,monospace" font-size="11.00">AllTaskTest</text>
</g>
<!-- \\PHPUnit_Framework_TestSuite -->
<g id="node52" class="node"><title>\\PHPUnit_Framework_TestSuite</title>
<ellipse fill="none" stroke="black" cx="455" cy="-336.853" rx="166.877" ry="18.3848"/>
<text text-anchor="middle" x="455" y="-333.253" font-family="Times Roman,serif" font-size="14.00" fill="gray">\PHPUnit_Framework_TestSuite</text>
</g>
<!-- \\AllTaskTest&#45;&gt;\\PHPUnit_Framework_TestSuite -->
<g id="edge35" class="edge"><title>\\AllTaskTest&#45;&gt;\\PHPUnit_Framework_TestSuite</title>
<path fill="none" stroke="black" d="M784.24,-982.513C762.875,-979.852 738.922,-972.825 724,-955.853 548.99,-756.798 837.991,-552.689 652,-363.853 644.565,-356.305 636.082,-350.178 626.908,-345.241"/>
<polygon fill="none" stroke="black" points="628.435,-342.092 617.912,-340.864 625.373,-348.386 628.435,-342.092"/>
</g>
<!-- \\TaskHelper -->
<g id="node19" class="node"><title>\\TaskHelper</title>
<polygon fill="none" stroke="black" points="872,-892.853 788,-892.853 788,-856.853 872,-856.853 872,-892.853"/>
<text text-anchor="middle" x="830" y="-871.953" font-family="Courier,monospace" font-size="11.00">TaskHelper</text>
</g>
<!-- \\AppHelper -->
<g id="node54" class="node"><title>\\AppHelper</title>
<ellipse fill="none" stroke="black" cx="455" cy="-282.853" rx="65.0538" ry="18.3848"/>
<text text-anchor="middle" x="455" y="-279.253" font-family="Times Roman,serif" font-size="14.00" fill="gray">\AppHelper</text>
</g>
<!-- \\TaskHelper&#45;&gt;\\AppHelper -->
<g id="edge37" class="edge"><title>\\TaskHelper&#45;&gt;\\AppHelper</title>
<path fill="none" stroke="black" d="M787.799,-874.837C765.628,-872.494 739.844,-865.657 724,-847.853 563.624,-667.637 822.314,-480.708 652,-309.853 618.72,-276.468 564.892,-271.016 521.907,-273.197"/>
<polygon fill="none" stroke="black" points="521.544,-269.713 511.793,-273.859 522,-276.698 521.544,-269.713"/>
</g>
<!-- \\TaskRunner -->
<g id="node20" class="node"><title>\\TaskRunner</title>
<polygon fill="none" stroke="black" points="872,-838.853 788,-838.853 788,-802.853 872,-802.853 872,-838.853"/>
<text text-anchor="middle" x="830" y="-817.953" font-family="Courier,monospace" font-size="11.00">TaskRunner</text>
</g>
<!-- \\Object -->
<g id="node56" class="node"><title>\\Object</title>
<ellipse fill="none" stroke="black" cx="455" cy="-228.853" rx="45.9619" ry="18.3848"/>
<text text-anchor="middle" x="455" y="-225.253" font-family="Times Roman,serif" font-size="14.00" fill="gray">\Object</text>
</g>
<!-- \\TaskRunner&#45;&gt;\\Object -->
<g id="edge39" class="edge"><title>\\TaskRunner&#45;&gt;\\Object</title>
<path fill="none" stroke="black" d="M787.799,-820.837C765.628,-818.494 739.844,-811.657 724,-793.853 563.624,-613.637 822.314,-426.708 652,-255.853 614.806,-218.541 551.947,-216.12 507.241,-220.25"/>
<polygon fill="none" stroke="black" points="506.72,-216.786 497.145,-221.321 507.459,-223.747 506.72,-216.786"/>
</g>
<!-- \\TaskType -->
<g id="node21" class="node"><title>\\TaskType</title>
<polygon fill="none" stroke="black" points="872,-946.853 788,-946.853 788,-910.853 872,-910.853 872,-946.853"/>
<text text-anchor="start" x="796" y="-934.286" font-family="Courier,monospace" font-size="11.00">«abstract»</text>
<text text-anchor="start" x="802.5" y="-921.086" font-family="Courier,monospace" font-size="11.00">TaskType</text>
</g>
<!-- \\TaskProcess -->
<g id="node22" class="node"><title>\\TaskProcess</title>
<polygon fill="none" stroke="black" points="875,-784.853 785,-784.853 785,-748.853 875,-748.853 875,-784.853"/>
<text text-anchor="middle" x="830" y="-763.953" font-family="Courier,monospace" font-size="11.00">TaskProcess</text>
</g>
<!-- \\Symfony\\Component\\Process\\Process -->
<g id="node58" class="node"><title>\\Symfony\\Component\\Process\\Process</title>
<ellipse fill="none" stroke="black" cx="455" cy="-174.853" rx="196.075" ry="18.3848"/>
<text text-anchor="middle" x="455" y="-171.253" font-family="Times Roman,serif" font-size="14.00" fill="gray">\Symfony\Component\Process\Process</text>
</g>
<!-- \\TaskProcess&#45;&gt;\\Symfony\\Component\\Process\\Process -->
<g id="edge41" class="edge"><title>\\TaskProcess&#45;&gt;\\Symfony\\Component\\Process\\Process</title>
<path fill="none" stroke="black" d="M784.327,-766.436C762.984,-763.756 739.023,-756.735 724,-739.853 563.624,-559.637 822.314,-372.708 652,-201.853 647.088,-196.925 641.728,-192.606 636.021,-188.83"/>
<polygon fill="none" stroke="black" points="637.8,-185.816 627.423,-183.679 634.203,-191.821 637.8,-185.816"/>
</g>
<!-- \\TaskShell -->
<g id="node23" class="node"><title>\\TaskShell</title>
<polygon fill="none" stroke="black" points="868,-730.853 792,-730.853 792,-694.853 868,-694.853 868,-730.853"/>
<text text-anchor="middle" x="830" y="-709.953" font-family="Courier,monospace" font-size="11.00">TaskShell</text>
</g>
<!-- \\AdvancedShell -->
<g id="node60" class="node"><title>\\AdvancedShell</title>
<ellipse fill="none" stroke="black" cx="455" cy="-120.853" rx="85.7684" ry="18.3848"/>
<text text-anchor="middle" x="455" y="-117.253" font-family="Times Roman,serif" font-size="14.00" fill="gray">\AdvancedShell</text>
</g>
<!-- \\TaskShell&#45;&gt;\\AdvancedShell -->
<g id="edge43" class="edge"><title>\\TaskShell&#45;&gt;\\AdvancedShell</title>
<path fill="none" stroke="black" d="M791.473,-713.189C768.536,-711.222 740.728,-704.65 724,-685.853 563.624,-505.637 822.314,-318.708 652,-147.853 622.742,-118.502 577.603,-110.742 537.911,-110.777"/>
<polygon fill="none" stroke="black" points="537.622,-107.281 527.684,-110.954 537.743,-114.28 537.622,-107.281"/>
</g>
<!-- \\TaskServerTask -->
<g id="node24" class="node"><title>\\TaskServerTask</title>
<polygon fill="none" stroke="black" points="885,-676.853 775,-676.853 775,-640.853 885,-640.853 885,-676.853"/>
<text text-anchor="middle" x="830" y="-655.953" font-family="Courier,monospace" font-size="11.00">TaskServerTask</text>
</g>
<!-- \\AdvancedTask -->
<g id="node62" class="node"><title>\\AdvancedTask</title>
<ellipse fill="none" stroke="black" cx="455" cy="-66.8531" rx="82.939" ry="18.3848"/>
<text text-anchor="middle" x="455" y="-63.2531" font-family="Times Roman,serif" font-size="14.00" fill="gray">\AdvancedTask</text>
</g>
<!-- \\TaskServerTask&#45;&gt;\\AdvancedTask -->
<g id="edge45" class="edge"><title>\\TaskServerTask&#45;&gt;\\AdvancedTask</title>
<path fill="none" stroke="black" d="M774.227,-656.851C755.75,-653.335 736.688,-646.11 724,-631.853 563.624,-451.637 822.314,-264.708 652,-93.8531 622.118,-63.8766 575.671,-56.4207 535.38,-56.7895"/>
<polygon fill="none" stroke="black" points="535.192,-53.293 525.283,-57.0429 535.368,-60.2908 535.192,-53.293"/>
</g>
<!-- \\TaskStatistics -->
<g id="node25" class="node"><title>\\TaskStatistics</title>
<polygon fill="none" stroke="black" points="885,-568.853 775,-568.853 775,-532.853 885,-532.853 885,-568.853"/>
<text text-anchor="middle" x="830" y="-547.953" font-family="Courier,monospace" font-size="11.00">TaskStatistics</text>
</g>
<!-- \\AppModel -->
<g id="node64" class="node"><title>\\AppModel</title>
<ellipse fill="none" stroke="black" cx="93" cy="-825.853" rx="62.2254" ry="18.3848"/>
<text text-anchor="middle" x="93" y="-822.253" font-family="Times Roman,serif" font-size="14.00" fill="gray">\AppModel</text>
</g>
<!-- \\TaskStatistics&#45;&gt;\\AppModel -->
<g id="edge47" class="edge"><title>\\TaskStatistics&#45;&gt;\\AppModel</title>
<path fill="none" stroke="black" d="M826.537,-532.602C810.205,-448.641 738.055,-101.003 652,-39.8531 580.629,10.8631 325.974,15.3331 258,-39.8531 136.513,-138.485 101.218,-668.403 94.3645,-797.489"/>
<polygon fill="none" stroke="black" points="90.8559,-797.567 93.8363,-807.734 97.8466,-797.927 90.8559,-797.567"/>
</g>
<!-- \\TaskClient -->
<g id="node26" class="node"><title>\\TaskClient</title>
<polygon fill="none" stroke="black" points="872,-1702.85 788,-1702.85 788,-1666.85 872,-1666.85 872,-1702.85"/>
<text text-anchor="middle" x="830" y="-1681.95" font-family="Courier,monospace" font-size="11.00">TaskClient</text>
</g>
<!-- \\TaskModel -->
<g id="node27" class="node"><title>\\TaskModel</title>
<polygon fill="none" stroke="black" points="493,-1648.85 417,-1648.85 417,-1612.85 493,-1612.85 493,-1648.85"/>
<text text-anchor="middle" x="455" y="-1627.95" font-family="Courier,monospace" font-size="11.00">TaskModel</text>
</g>
<!-- \\TaskClient&#45;&gt;\\TaskModel -->
<g id="edge49" class="edge"><title>\\TaskClient&#45;&gt;\\TaskModel</title>
<path fill="none" stroke="black" d="M787.712,-1678.76C717.645,-1668.67 577.87,-1648.55 503.756,-1637.87"/>
<polygon fill="none" stroke="black" points="504.145,-1634.39 493.748,-1636.43 503.147,-1641.32 504.145,-1634.39"/>
</g>
<!-- \\TaskModel&#45;&gt;\\AppModel -->
<g id="edge51" class="edge"><title>\\TaskModel&#45;&gt;\\AppModel</title>
<path fill="none" stroke="black" d="M416.343,-1638.62C372.27,-1645.05 300.805,-1647.72 258,-1608.85 142.691,-1504.16 102.796,-982.221 94.6664,-854.226"/>
<polygon fill="none" stroke="black" points="98.1482,-853.822 94.0355,-844.058 91.1617,-854.256 98.1482,-853.822"/>
</g>
<!-- \\TaskProfiler -->
<g id="node28" class="node"><title>\\TaskProfiler</title>
<polygon fill="none" stroke="black" points="879,-622.853 781,-622.853 781,-586.853 879,-586.853 879,-622.853"/>
<text text-anchor="middle" x="830" y="-601.953" font-family="Courier,monospace" font-size="11.00">TaskProfiler</text>
</g>
<!-- \\TaskServer -->
<g id="node29" class="node"><title>\\TaskServer</title>
<polygon fill="none" stroke="black" points="872,-1648.85 788,-1648.85 788,-1612.85 872,-1612.85 872,-1648.85"/>
<text text-anchor="middle" x="830" y="-1627.95" font-family="Courier,monospace" font-size="11.00">TaskServer</text>
</g>
<!-- \\TaskServer&#45;&gt;\\TaskModel -->
<g id="edge53" class="edge"><title>\\TaskServer&#45;&gt;\\TaskModel</title>
<path fill="none" stroke="black" d="M787.712,-1630.85C717.645,-1630.85 577.87,-1630.85 503.756,-1630.85"/>
<polygon fill="none" stroke="black" points="503.748,-1627.35 493.748,-1630.85 503.748,-1634.35 503.748,-1627.35"/>
</g>
</g>
</svg>
