<?xml version="1.0" encoding="UTF-8" standalone="no"?>
<!DOCTYPE svg PUBLIC "-//W3C//DTD SVG 1.1//EN"
 "http://www.w3.org/Graphics/SVG/1.1/DTD/svg11.dtd">
<!-- Generated by graphviz version 2.26.3 (20100126.1600)
 -->
<!-- Title: G Pages: 1 -->
<svg width="960pt" height="2003pt"
 viewBox="0.00 0.00 960.00 2003.01" xmlns="http://www.w3.org/2000/svg" xmlns:xlink="http://www.w3.org/1999/xlink">
<g id="graph1" class="graph" transform="scale(1 1) rotate(0) translate(4 1999.01)">
<title>G</title>
<polygon fill="white" stroke="white" points="-4,5 -4,-1999.01 957,-1999.01 957,5 -4,5"/>
<g id="graph2" class="cluster"><title>cluster_Global</title>
<polyline fill="none" stroke="gray" points="403,-406 932,-406 "/>
<path fill="none" stroke="gray" d="M932,-406C938,-406 944,-412 944,-418"/>
<polyline fill="none" stroke="gray" points="944,-418 944,-1818 "/>
<path fill="none" stroke="gray" d="M944,-1818C944,-1824 938,-1830 932,-1830"/>
<polyline fill="none" stroke="gray" points="932,-1830 403,-1830 "/>
<path fill="none" stroke="gray" d="M403,-1830C397,-1830 391,-1824 391,-1818"/>
<polyline fill="none" stroke="gray" points="391,-1818 391,-418 "/>
<path fill="none" stroke="gray" d="M391,-418C391,-412 397,-406 403,-406"/>
<text text-anchor="middle" x="667.5" y="-1816.1" font-family="Times Roman,serif" font-size="11.00" fill="gray">Global</text>
</g>
<!-- \\TaskController -->
<g id="node2" class="node"><title>\\TaskController</title>
<polygon fill="none" stroke="black" points="885,-1746 775,-1746 775,-1710 885,-1710 885,-1746"/>
<text text-anchor="middle" x="830" y="-1725.1" font-family="Courier,monospace" font-size="11.00">TaskController</text>
</g>
<!-- \\AppController -->
<g id="node32" class="node"><title>\\AppController</title>
<ellipse fill="none" stroke="black" cx="455" cy="-1910" rx="82.0244" ry="18.3848"/>
<text text-anchor="middle" x="455" y="-1906.4" font-family="Times Roman,serif" font-size="14.00" fill="gray">\AppController</text>
</g>
<!-- \\TaskController&#45;&gt;\\AppController -->
<g id="edge3" class="edge"><title>\\TaskController&#45;&gt;\\AppController</title>
<path fill="none" stroke="black" d="M774.496,-1733.46C756.994,-1737.34 738.47,-1743.91 724,-1755 672.193,-1794.7 705.97,-1846.29 652,-1883 620.821,-1904.21 580.384,-1912.23 544.266,-1914.46"/>
<polygon fill="none" stroke="black" points="544.025,-1910.97 534.204,-1914.95 544.36,-1917.96 544.025,-1910.97"/>
</g>
<!-- \\TaskShell -->
<g id="node3" class="node"><title>\\TaskShell</title>
<polygon fill="none" stroke="black" points="868,-1692 792,-1692 792,-1656 868,-1656 868,-1692"/>
<text text-anchor="middle" x="830" y="-1671.1" font-family="Courier,monospace" font-size="11.00">TaskShell</text>
</g>
<!-- \\AdvancedShell -->
<g id="node34" class="node"><title>\\AdvancedShell</title>
<ellipse fill="none" stroke="black" cx="455" cy="-1856" rx="85.7684" ry="18.3848"/>
<text text-anchor="middle" x="455" y="-1852.4" font-family="Times Roman,serif" font-size="14.00" fill="gray">\AdvancedShell</text>
</g>
<!-- \\TaskShell&#45;&gt;\\AdvancedShell -->
<g id="edge5" class="edge"><title>\\TaskShell&#45;&gt;\\AdvancedShell</title>
<path fill="none" stroke="black" d="M791.38,-1676.29C769.673,-1679.31 743.173,-1686.06 724,-1701 670.982,-1742.32 707.744,-1796.44 652,-1834 620.695,-1855.09 580.05,-1862.15 543.817,-1863.33"/>
<polygon fill="none" stroke="black" points="543.66,-1859.83 533.725,-1863.51 543.787,-1866.83 543.66,-1859.83"/>
</g>
<!-- \\TaskServerTask -->
<g id="node4" class="node"><title>\\TaskServerTask</title>
<polygon fill="none" stroke="black" points="510,-1530 400,-1530 400,-1494 510,-1494 510,-1530"/>
<text text-anchor="middle" x="455" y="-1509.1" font-family="Courier,monospace" font-size="11.00">TaskServerTask</text>
</g>
<!-- \\AdvancedTask -->
<g id="node36" class="node"><title>\\AdvancedTask</title>
<ellipse fill="none" stroke="black" cx="93" cy="-1512" rx="82.939" ry="18.3848"/>
<text text-anchor="middle" x="93" y="-1508.4" font-family="Times Roman,serif" font-size="14.00" fill="gray">\AdvancedTask</text>
</g>
<!-- \\TaskServerTask&#45;&gt;\\AdvancedTask -->
<g id="edge7" class="edge"><title>\\TaskServerTask&#45;&gt;\\AdvancedTask</title>
<path fill="none" stroke="black" d="M399.231,-1512C342.732,-1512 254.302,-1512 186.965,-1512"/>
<polygon fill="none" stroke="black" points="186.769,-1508.5 176.769,-1512 186.769,-1515.5 186.769,-1508.5"/>
</g>
<!-- \\TaskServerOldTask -->
<g id="node5" class="node"><title>\\TaskServerOldTask</title>
<polygon fill="none" stroke="black" points="895,-1530 765,-1530 765,-1494 895,-1494 895,-1530"/>
<text text-anchor="middle" x="830" y="-1509.1" font-family="Courier,monospace" font-size="11.00">TaskServerOldTask</text>
</g>
<!-- \\TaskServerOldTask&#45;&gt;\\TaskServerTask -->
<g id="edge9" class="edge"><title>\\TaskServerOldTask&#45;&gt;\\TaskServerTask</title>
<path fill="none" stroke="black" d="M764.251,-1512C695.82,-1512 589.27,-1512 520.815,-1512"/>
<polygon fill="none" stroke="black" points="520.584,-1508.5 510.584,-1512 520.584,-1515.5 520.584,-1508.5"/>
</g>
<!-- \\TaskFixture -->
<g id="node6" class="node"><title>\\TaskFixture</title>
<polygon fill="none" stroke="black" points="500,-1588 410,-1588 410,-1552 500,-1552 500,-1588"/>
<text text-anchor="middle" x="455" y="-1567.1" font-family="Courier,monospace" font-size="11.00">TaskFixture</text>
</g>
<!-- \\CakeTestFixture -->
<g id="node39" class="node"><title>\\CakeTestFixture</title>
<ellipse fill="none" stroke="black" cx="93" cy="-1620" rx="92.1303" ry="18.3848"/>
<text text-anchor="middle" x="93" y="-1616.4" font-family="Times Roman,serif" font-size="14.00" fill="gray">\CakeTestFixture</text>
</g>
<!-- \\TaskFixture&#45;&gt;\\CakeTestFixture -->
<g id="edge11" class="edge"><title>\\TaskFixture&#45;&gt;\\CakeTestFixture</title>
<path fill="none" stroke="black" d="M409.13,-1574.38C369.145,-1578.37 309.63,-1584.74 258,-1592 229.428,-1596.02 198.194,-1601.13 170.663,-1605.89"/>
<polygon fill="none" stroke="black" points="169.952,-1602.46 160.7,-1607.62 171.152,-1609.35 169.952,-1602.46"/>
</g>
<!-- \\DependentTaskFixture -->
<g id="node7" class="node"><title>\\DependentTaskFixture</title>
<polygon fill="none" stroke="black" points="906,-1800 754,-1800 754,-1764 906,-1764 906,-1800"/>
<text text-anchor="middle" x="830" y="-1779.1" font-family="Courier,monospace" font-size="11.00">DependentTaskFixture</text>
</g>
<!-- \\DependentTaskFixture&#45;&gt;\\CakeTestFixture -->
<g id="edge13" class="edge"><title>\\DependentTaskFixture&#45;&gt;\\CakeTestFixture</title>
<path fill="none" stroke="black" d="M816.63,-1800.23C789.954,-1834.87 726.257,-1909.2 652,-1937 488.004,-1998.4 407.702,-2027.85 258,-1937 150.98,-1872.06 110.161,-1712.57 97.6688,-1647.91"/>
<polygon fill="none" stroke="black" points="101.101,-1647.22 95.8394,-1638.02 94.2178,-1648.49 101.101,-1647.22"/>
</g>
<!-- \\TaskStatisticsFixture -->
<g id="node8" class="node"><title>\\TaskStatisticsFixture</title>
<polygon fill="none" stroke="black" points="909,-1638 751,-1638 751,-1602 909,-1602 909,-1638"/>
<text text-anchor="middle" x="830" y="-1617.1" font-family="Courier,monospace" font-size="11.00">TaskStatisticsFixture</text>
</g>
<!-- \\TaskStatisticsFixture&#45;&gt;\\CakeTestFixture -->
<g id="edge15" class="edge"><title>\\TaskStatisticsFixture&#45;&gt;\\CakeTestFixture</title>
<path fill="none" stroke="black" d="M750.778,-1620C616.492,-1620 344.308,-1620 195.623,-1620"/>
<polygon fill="none" stroke="black" points="195.573,-1616.5 185.573,-1620 195.573,-1623.5 195.573,-1616.5"/>
</g>
<!-- \\TaskProfilerFixture -->
<g id="node9" class="node"><title>\\TaskProfilerFixture</title>
<polygon fill="none" stroke="black" points="902,-1584 758,-1584 758,-1548 902,-1548 902,-1584"/>
<text text-anchor="middle" x="830" y="-1563.1" font-family="Courier,monospace" font-size="11.00">TaskProfilerFixture</text>
</g>
<!-- \\TaskProfilerFixture&#45;&gt;\\TaskFixture -->
<g id="edge17" class="edge"><title>\\TaskProfilerFixture&#45;&gt;\\TaskFixture</title>
<path fill="none" stroke="black" d="M757.252,-1566.78C685.176,-1567.54 576.342,-1568.71 510.824,-1569.4"/>
<polygon fill="none" stroke="black" points="510.655,-1565.91 500.693,-1569.51 510.729,-1572.91 510.655,-1565.91"/>
</g>
<!-- \\TaskControllerTest -->
<g id="node10" class="node"><title>\\TaskControllerTest</title>
<polygon fill="none" stroke="black" points="899,-1368 761,-1368 761,-1332 899,-1332 899,-1368"/>
<text text-anchor="middle" x="830" y="-1347.1" font-family="Courier,monospace" font-size="11.00">TaskControllerTest</text>
</g>
<!-- \\ControllerTestCase -->
<g id="node44" class="node"><title>\\ControllerTestCase</title>
<ellipse fill="none" stroke="black" cx="455" cy="-380" rx="106.773" ry="18.3848"/>
<text text-anchor="middle" x="455" y="-376.4" font-family="Times Roman,serif" font-size="14.00" fill="gray">\ControllerTestCase</text>
</g>
<!-- \\TaskControllerTest&#45;&gt;\\ControllerTestCase -->
<g id="edge19" class="edge"><title>\\TaskControllerTest&#45;&gt;\\ControllerTestCase</title>
<path fill="none" stroke="black" d="M760.812,-1345.27C746.759,-1341.09 733.417,-1334.19 724,-1323 591.795,-1165.95 794.733,-549.552 652,-402 623.995,-373.05 580.42,-365.973 541.365,-366.82"/>
<polygon fill="none" stroke="black" points="540.872,-363.336 531.018,-367.227 541.148,-370.331 540.872,-363.336"/>
</g>
<!-- \\TaskShellTest -->
<g id="node11" class="node"><title>\\TaskShellTest</title>
<polygon fill="none" stroke="black" points="882,-990 778,-990 778,-954 882,-954 882,-990"/>
<text text-anchor="middle" x="830" y="-969.1" font-family="Courier,monospace" font-size="11.00">TaskShellTest</text>
</g>
<!-- \\CakeTestCase -->
<g id="node46" class="node"><title>\\CakeTestCase</title>
<ellipse fill="none" stroke="black" cx="455" cy="-326" rx="82.0244" ry="18.3848"/>
<text text-anchor="middle" x="455" y="-322.4" font-family="Times Roman,serif" font-size="14.00" fill="gray">\CakeTestCase</text>
</g>
<!-- \\TaskShellTest&#45;&gt;\\CakeTestCase -->
<g id="edge21" class="edge"><title>\\TaskShellTest&#45;&gt;\\CakeTestCase</title>
<path fill="none" stroke="black" d="M777.984,-970.761C758.33,-967.548 737.48,-960.332 724,-945 548.99,-745.945 837.991,-541.836 652,-353 621.964,-322.505 574.809,-315.216 534.165,-315.808"/>
<polygon fill="none" stroke="black" points="533.875,-312.315 523.986,-316.118 534.088,-319.311 533.875,-312.315"/>
</g>
<!-- \\TaskServerTaskTest -->
<g id="node12" class="node"><title>\\TaskServerTaskTest</title>
<polygon fill="none" stroke="black" points="899,-936 761,-936 761,-900 899,-900 899,-936"/>
<text text-anchor="middle" x="830" y="-915.1" font-family="Courier,monospace" font-size="11.00">TaskServerTaskTest</text>
</g>
<!-- \\TaskServerTaskTest&#45;&gt;\\CakeTestCase -->
<g id="edge23" class="edge"><title>\\TaskServerTaskTest&#45;&gt;\\CakeTestCase</title>
<path fill="none" stroke="black" d="M760.984,-912.799C747.009,-908.63 733.658,-901.853 724,-891 563.624,-710.784 822.314,-523.855 652,-353 621.894,-322.798 574.971,-315.457 534.472,-315.946"/>
<polygon fill="none" stroke="black" points="534.227,-312.451 524.328,-316.23 534.423,-319.449 534.227,-312.451"/>
</g>
<!-- \\TaskServerTaskTestEventModel1 -->
<g id="node13" class="node"><title>\\TaskServerTaskTestEventModel1</title>
<polygon fill="none" stroke="black" points="936,-828 724,-828 724,-792 936,-792 936,-828"/>
<text text-anchor="middle" x="830" y="-807.1" font-family="Courier,monospace" font-size="11.00">TaskServerTaskTestEventModel1</text>
</g>
<!-- \\CakeEventListener -->
<g id="node49" class="node"><title>\\CakeEventListener</title>
<ellipse fill="none" stroke="black" cx="455" cy="-272" rx="106.98" ry="18.3848"/>
<text text-anchor="middle" x="455" y="-268.4" font-family="Times Roman,serif" font-size="14.00" fill="gray">\CakeEventListener</text>
</g>
<!-- \\TaskServerTaskTestEventModel1&#45;&gt;\\CakeEventListener -->
<g id="edge25" class="edge"><title>\\TaskServerTaskTestEventModel1&#45;&gt;\\CakeEventListener</title>
<path fill="none" stroke="black" stroke-dasharray="1,5" d="M733.688,-791.67C730.185,-789.119 726.927,-786.242 724,-783 578.238,-621.599 806.66,-451.896 652,-299 626.863,-274.15 590.319,-264.859 555.514,-262.656"/>
<polygon fill="none" stroke="black" points="555.415,-259.148 545.27,-262.203 555.105,-266.142 555.415,-259.148"/>
</g>
<!-- \\TaskTypeTest -->
<g id="node14" class="node"><title>\\TaskTypeTest</title>
<polygon fill="none" stroke="black" points="879,-882 781,-882 781,-846 879,-846 879,-882"/>
<text text-anchor="middle" x="830" y="-861.1" font-family="Courier,monospace" font-size="11.00">TaskTypeTest</text>
</g>
<!-- \\TaskTypeTest&#45;&gt;\\CakeTestCase -->
<g id="edge27" class="edge"><title>\\TaskTypeTest&#45;&gt;\\CakeTestCase</title>
<path fill="none" stroke="black" d="M780.918,-863.006C760.524,-859.99 738.319,-852.855 724,-837 578.238,-675.599 806.66,-505.896 652,-353 621.787,-323.131 575.093,-315.741 534.748,-316.119"/>
<polygon fill="none" stroke="black" points="534.551,-312.623 524.642,-316.374 534.727,-319.621 534.551,-312.623"/>
</g>
<!-- \\TaskProcessTest -->
<g id="node15" class="node"><title>\\TaskProcessTest</title>
<polygon fill="none" stroke="black" points="889,-1314 771,-1314 771,-1278 889,-1278 889,-1314"/>
<text text-anchor="middle" x="830" y="-1293.1" font-family="Courier,monospace" font-size="11.00">TaskProcessTest</text>
</g>
<!-- \\TaskProcessTest&#45;&gt;\\CakeTestCase -->
<g id="edge29" class="edge"><title>\\TaskProcessTest&#45;&gt;\\CakeTestCase</title>
<path fill="none" stroke="black" d="M770.747,-1293.77C753.214,-1290.08 735.621,-1282.8 724,-1269 592.475,-1112.82 792.15,-501.489 652,-353 622.12,-321.342 573.876,-314.321 532.611,-315.348"/>
<polygon fill="none" stroke="black" points="532.409,-311.853 522.56,-315.756 532.694,-318.847 532.409,-311.853"/>
</g>
<!-- \\TaskRunnerTest -->
<g id="node16" class="node"><title>\\TaskRunnerTest</title>
<polygon fill="none" stroke="black" points="885,-1260 775,-1260 775,-1224 885,-1224 885,-1260"/>
<text text-anchor="middle" x="830" y="-1239.1" font-family="Courier,monospace" font-size="11.00">TaskRunnerTest</text>
</g>
<!-- \\TaskRunnerTest&#45;&gt;\\CakeTestCase -->
<g id="edge31" class="edge"><title>\\TaskRunnerTest&#45;&gt;\\CakeTestCase</title>
<path fill="none" stroke="black" d="M774.383,-1240.44C755.693,-1237 736.452,-1229.71 724,-1215 599.82,-1068.27 784.281,-492.467 652,-353 622.152,-321.531 574.151,-314.447 533.005,-315.393"/>
<polygon fill="none" stroke="black" points="532.837,-311.897 522.98,-315.782 533.109,-318.892 532.837,-311.897"/>
</g>
<!-- \\AllTaskTest -->
<g id="node17" class="node"><title>\\AllTaskTest</title>
<polygon fill="none" stroke="black" points="875,-774 785,-774 785,-738 875,-738 875,-774"/>
<text text-anchor="middle" x="830" y="-753.1" font-family="Courier,monospace" font-size="11.00">AllTaskTest</text>
</g>
<!-- \\PHPUnit_Framework_TestSuite -->
<g id="node54" class="node"><title>\\PHPUnit_Framework_TestSuite</title>
<ellipse fill="none" stroke="black" cx="455" cy="-218" rx="166.877" ry="18.3848"/>
<text text-anchor="middle" x="455" y="-214.4" font-family="Times Roman,serif" font-size="14.00" fill="gray">\PHPUnit_Framework_TestSuite</text>
</g>
<!-- \\AllTaskTest&#45;&gt;\\PHPUnit_Framework_TestSuite -->
<g id="edge33" class="edge"><title>\\AllTaskTest&#45;&gt;\\PHPUnit_Framework_TestSuite</title>
<path fill="none" stroke="black" d="M784.433,-755.488C763.116,-752.785 739.146,-745.771 724,-729 578.238,-567.599 806.66,-397.896 652,-245 644.465,-237.551 635.906,-231.501 626.675,-226.62"/>
<polygon fill="none" stroke="black" points="628.163,-223.451 617.632,-222.291 625.141,-229.765 628.163,-223.451"/>
</g>
<!-- \\TaskServerTest -->
<g id="node18" class="node"><title>\\TaskServerTest</title>
<polygon fill="none" stroke="black" points="885,-1206 775,-1206 775,-1170 885,-1170 885,-1206"/>
<text text-anchor="middle" x="830" y="-1185.1" font-family="Courier,monospace" font-size="11.00">TaskServerTest</text>
</g>
<!-- \\TaskServerTest&#45;&gt;\\CakeTestCase -->
<g id="edge35" class="edge"><title>\\TaskServerTest&#45;&gt;\\CakeTestCase</title>
<path fill="none" stroke="black" d="M774.427,-1186.41C755.743,-1182.96 736.493,-1175.68 724,-1161 607.163,-1023.72 776.416,-483.449 652,-353 622.065,-321.614 574.062,-314.532 532.937,-315.458"/>
<polygon fill="none" stroke="black" points="532.777,-311.961 522.918,-315.841 533.045,-318.956 532.777,-311.961"/>
</g>
<!-- \\TaskClientTest -->
<g id="node19" class="node"><title>\\TaskClientTest</title>
<polygon fill="none" stroke="black" points="885,-1152 775,-1152 775,-1116 885,-1116 885,-1152"/>
<text text-anchor="middle" x="830" y="-1131.1" font-family="Courier,monospace" font-size="11.00">TaskClientTest</text>
</g>
<!-- \\TaskClientTest&#45;&gt;\\CakeTestCase -->
<g id="edge37" class="edge"><title>\\TaskClientTest&#45;&gt;\\CakeTestCase</title>
<path fill="none" stroke="black" d="M774.478,-1132.36C755.798,-1128.91 736.539,-1121.64 724,-1107 614.503,-979.167 768.554,-474.434 652,-353 622.14,-321.89 574.516,-314.711 533.573,-315.517"/>
<polygon fill="none" stroke="black" points="533.191,-312.028 523.323,-315.884 533.442,-319.024 533.191,-312.028"/>
</g>
<!-- \\TaskProfilerTest -->
<g id="node20" class="node"><title>\\TaskProfilerTest</title>
<polygon fill="none" stroke="black" points="892,-1098 768,-1098 768,-1062 892,-1062 892,-1098"/>
<text text-anchor="middle" x="830" y="-1077.1" font-family="Courier,monospace" font-size="11.00">TaskProfilerTest</text>
</g>
<!-- \\TaskProfilerTest&#45;&gt;\\CakeTestCase -->
<g id="edge39" class="edge"><title>\\TaskProfilerTest&#45;&gt;\\CakeTestCase</title>
<path fill="none" stroke="black" d="M767.347,-1076.79C751.036,-1072.88 734.98,-1065.72 724,-1053 621.839,-934.608 760.695,-465.423 652,-353 622.027,-321.999 574.4,-314.823 533.484,-315.603"/>
<polygon fill="none" stroke="black" points="533.112,-312.113 523.241,-315.963 533.358,-319.109 533.112,-312.113"/>
</g>
<!-- \\TaskHelperTest -->
<g id="node21" class="node"><title>\\TaskHelperTest</title>
<polygon fill="none" stroke="black" points="885,-1044 775,-1044 775,-1008 885,-1008 885,-1044"/>
<text text-anchor="middle" x="830" y="-1023.1" font-family="Courier,monospace" font-size="11.00">TaskHelperTest</text>
</g>
<!-- \\TaskHelperTest&#45;&gt;\\CakeTestCase -->
<g id="edge41" class="edge"><title>\\TaskHelperTest&#45;&gt;\\CakeTestCase</title>
<path fill="none" stroke="black" d="M774.328,-1024.2C755.748,-1020.72 736.592,-1013.47 724,-999 534.34,-781.088 853.684,-559.834 652,-353 622.006,-322.24 574.617,-315.007 533.834,-315.695"/>
<polygon fill="none" stroke="black" points="533.502,-312.204 523.622,-316.031 533.732,-319.2 533.502,-312.204"/>
</g>
<!-- \\TaskProcess -->
<g id="node22" class="node"><title>\\TaskProcess</title>
<polygon fill="none" stroke="black" points="875,-666 785,-666 785,-630 875,-630 875,-666"/>
<text text-anchor="middle" x="830" y="-645.1" font-family="Courier,monospace" font-size="11.00">TaskProcess</text>
</g>
<!-- \\Symfony\\Component\\Process\\Process -->
<g id="node60" class="node"><title>\\Symfony\\Component\\Process\\Process</title>
<ellipse fill="none" stroke="black" cx="455" cy="-164" rx="196.075" ry="18.3848"/>
<text text-anchor="middle" x="455" y="-160.4" font-family="Times Roman,serif" font-size="14.00" fill="gray">\Symfony\Component\Process\Process</text>
</g>
<!-- \\TaskProcess&#45;&gt;\\Symfony\\Component\\Process\\Process -->
<g id="edge43" class="edge"><title>\\TaskProcess&#45;&gt;\\Symfony\\Component\\Process\\Process</title>
<path fill="none" stroke="black" d="M784.295,-647.334C763.077,-644.577 739.234,-637.563 724,-621 592.822,-478.383 791.036,-325.968 652,-191 646.924,-186.073 641.399,-181.761 635.528,-177.998"/>
<polygon fill="none" stroke="black" points="637.098,-174.863 626.692,-172.871 633.584,-180.917 637.098,-174.863"/>
</g>
<!-- \\TaskRunner -->
<g id="node23" class="node"><title>\\TaskRunner</title>
<polygon fill="none" stroke="black" points="872,-612 788,-612 788,-576 872,-576 872,-612"/>
<text text-anchor="middle" x="830" y="-591.1" font-family="Courier,monospace" font-size="11.00">TaskRunner</text>
</g>
<!-- \\Object -->
<g id="node62" class="node"><title>\\Object</title>
<ellipse fill="none" stroke="black" cx="455" cy="-110" rx="45.9619" ry="18.3848"/>
<text text-anchor="middle" x="455" y="-106.4" font-family="Times Roman,serif" font-size="14.00" fill="gray">\Object</text>
</g>
<!-- \\TaskRunner&#45;&gt;\\Object -->
<g id="edge45" class="edge"><title>\\TaskRunner&#45;&gt;\\Object</title>
<path fill="none" stroke="black" d="M787.761,-593.75C765.719,-591.318 740.07,-584.471 724,-567 592.822,-424.383 791.036,-271.968 652,-137 614.313,-100.416 551.837,-97.7807 507.35,-101.663"/>
<polygon fill="none" stroke="black" points="506.9,-98.1907 497.302,-102.676 507.602,-105.155 506.9,-98.1907"/>
</g>
<!-- \\TaskType -->
<g id="node24" class="node"><title>\\TaskType</title>
<polygon fill="none" stroke="black" points="872,-720 788,-720 788,-684 872,-684 872,-720"/>
<text text-anchor="start" x="796" y="-707.433" font-family="Courier,monospace" font-size="11.00">«abstract»</text>
<text text-anchor="start" x="802.5" y="-694.233" font-family="Courier,monospace" font-size="11.00">TaskType</text>
</g>
<!-- \\TaskModel -->
<g id="node25" class="node"><title>\\TaskModel</title>
<polygon fill="none" stroke="black" points="493,-1422 417,-1422 417,-1386 493,-1386 493,-1422"/>
<text text-anchor="middle" x="455" y="-1401.1" font-family="Courier,monospace" font-size="11.00">TaskModel</text>
</g>
<!-- \\AppModel -->
<g id="node64" class="node"><title>\\AppModel</title>
<ellipse fill="none" stroke="black" cx="93" cy="-734" rx="62.2254" ry="18.3848"/>
<text text-anchor="middle" x="93" y="-730.4" font-family="Times Roman,serif" font-size="14.00" fill="gray">\AppModel</text>
</g>
<!-- \\TaskModel&#45;&gt;\\AppModel -->
<g id="edge47" class="edge"><title>\\TaskModel&#45;&gt;\\AppModel</title>
<path fill="none" stroke="black" d="M416.235,-1411.5C372.396,-1417.59 301.476,-1419.85 258,-1382 161.199,-1297.72 108.522,-875.596 95.9639,-762.121"/>
<polygon fill="none" stroke="black" points="99.4373,-761.687 94.8737,-752.125 92.4786,-762.446 99.4373,-761.687"/>
</g>
<!-- \\TaskProfiler -->
<g id="node26" class="node"><title>\\TaskProfiler</title>
<polygon fill="none" stroke="black" points="879,-558 781,-558 781,-522 879,-522 879,-558"/>
<text text-anchor="middle" x="830" y="-537.1" font-family="Courier,monospace" font-size="11.00">TaskProfiler</text>
</g>
<!-- \\TaskProfiler&#45;&gt;\\AppModel -->
<g id="edge49" class="edge"><title>\\TaskProfiler&#45;&gt;\\AppModel</title>
<path fill="none" stroke="black" d="M780.782,-538.841C760.488,-535.779 738.399,-528.654 724,-513 592.822,-370.383 793.712,-215.156 652,-83 587.671,-23.0083 542.52,-55.198 455,-64"/>
</g>
<!-- \\TaskClient -->
<g id="node27" class="node"><title>\\TaskClient</title>
<polygon fill="none" stroke="black" points="872,-1476 788,-1476 788,-1440 872,-1440 872,-1476"/>
<text text-anchor="middle" x="830" y="-1455.1" font-family="Courier,monospace" font-size="11.00">TaskClient</text>
</g>
<!-- \\TaskClient&#45;&gt;\\TaskModel -->
<g id="edge51" class="edge"><title>\\TaskClient&#45;&gt;\\TaskModel</title>
<path fill="none" stroke="black" d="M787.712,-1451.91C717.645,-1441.82 577.87,-1421.69 503.756,-1411.02"/>
<polygon fill="none" stroke="black" points="504.145,-1407.54 493.748,-1409.58 503.147,-1414.47 504.145,-1407.54"/>
</g>
<!-- \\TaskServer -->
<g id="node28" class="node"><title>\\TaskServer</title>
<polygon fill="none" stroke="black" points="872,-1422 788,-1422 788,-1386 872,-1386 872,-1422"/>
<text text-anchor="middle" x="830" y="-1401.1" font-family="Courier,monospace" font-size="11.00">TaskServer</text>
</g>
<!-- \\TaskServer&#45;&gt;\\TaskModel -->
<g id="edge53" class="edge"><title>\\TaskServer&#45;&gt;\\TaskModel</title>
<path fill="none" stroke="black" d="M787.712,-1404C717.645,-1404 577.87,-1404 503.756,-1404"/>
<polygon fill="none" stroke="black" points="503.748,-1400.5 493.748,-1404 503.748,-1407.5 503.748,-1400.5"/>
</g>
<!-- \\TaskStatistics -->
<g id="node29" class="node"><title>\\TaskStatistics</title>
<polygon fill="none" stroke="black" points="885,-504 775,-504 775,-468 885,-468 885,-504"/>
<text text-anchor="middle" x="830" y="-483.1" font-family="Courier,monospace" font-size="11.00">TaskStatistics</text>
</g>
<!-- \\TaskStatistics&#45;&gt;\\AppModel -->
<g id="edge55" class="edge"><title>\\TaskStatistics&#45;&gt;\\AppModel</title>
<path fill="none" stroke="black" d="M774.389,-483.544C756.04,-479.971 737.018,-472.826 724,-459 607.364,-335.12 777.778,-197.587 652,-83 586.976,-23.7616 542.52,-55.198 455,-64"/>
<path fill="none" stroke="black" d="M455,-64C367.48,-72.802 324.744,-25.7063 258,-83 160.189,-166.962 108.247,-591.557 95.9076,-705.709"/>
<polygon fill="none" stroke="black" points="92.4154,-705.451 94.8369,-715.765 99.3761,-706.192 92.4154,-705.451"/>
</g>
<!-- \\TaskHelper -->
<g id="node30" class="node"><title>\\TaskHelper</title>
<polygon fill="none" stroke="black" points="872,-450 788,-450 788,-414 872,-414 872,-450"/>
<text text-anchor="middle" x="830" y="-429.1" font-family="Courier,monospace" font-size="11.00">TaskHelper</text>
</g>
<!-- \\AppHelper -->
<g id="node70" class="node"><title>\\AppHelper</title>
<ellipse fill="none" stroke="black" cx="455" cy="-18" rx="65.0538" ry="18.3848"/>
<text text-anchor="middle" x="455" y="-14.4" font-family="Times Roman,serif" font-size="14.00" fill="gray">\AppHelper</text>
</g>
<!-- \\TaskHelper&#45;&gt;\\AppHelper -->
<g id="edge57" class="edge"><title>\\TaskHelper&#45;&gt;\\AppHelper</title>
<path fill="none" stroke="black" d="M827.55,-413.921C818.1,-351.756 778.014,-145.377 652,-50 617.106,-23.5899 568.694,-15.4499 528.594,-13.9811"/>
<polygon fill="none" stroke="black" points="528.672,-10.4821 518.592,-13.7443 528.506,-17.4801 528.672,-10.4821"/>
</g>
</g>
</svg>
